<?xml version="1.0" encoding="UTF-8" standalone="no"?>
<!DOCTYPE svg PUBLIC "-//W3C//DTD SVG 1.1//EN" "http://www.w3.org/Graphics/SVG/1.1/DTD/svg11.dtd">
<svg xmlns="http://www.w3.org/2000/svg" xmlns:xlink="http://www.w3.org/1999/xlink" version="1.1"
     viewbox="0 0 1024.00 1448.20" width="1024.00" height="1448.20" style="overflow:hidden" xml:space="preserve">
<defs>
<style type="text/css">
<![CDATA[
@font-face { font-family: 'f2qAQBRa48#27'; font-weight: normal; font-style: normal;  src: url(svg/font7.ttf) format('truetype'); }
@font-face { font-family: 'f2qAQBRa46#17'; font-weight: normal; font-style: normal;  src: url(svg/font5.ttf) format('truetype'); }
@font-face { font-family: 'f2qAQBRa47#22'; font-weight: normal; font-style: normal;  src: url(svg/font6.ttf) format('truetype'); }
@font-face { font-family: 'f2qAQBRa45#41'; font-weight: normal; font-style: normal;  src: url(svg/font4.ttf) format('truetype'); }

.s2qAQBRa40 { fill: rgb(  3,  56, 120); font-family: 'f2qAQBRa45#41'; font-size: 12.00px; }
.s2qAQBRa41 { fill: rgb(  0,  74,  78); font-family: 'f2qAQBRa46#17'; font-size: 12.00px; }
.s2qAQBRa42 { fill: rgb( 51, 125, 109); font-family: 'f2qAQBRa46#17'; font-size: 65.35px; }
.s2qAQBRa43 { fill: rgb( 51, 125, 109); font-family: 'f2qAQBRa47#22'; font-size: 65.35px; }
.s2qAQBRa44 { fill: rgb( 74,  74,  73); font-family: 'f2qAQBRa48#27'; font-size: 15.45px; }
.s2qAQBRa45 { fill: rgb(  3,  56, 120); font-family: 'f2qAQBRa46#17'; font-size: 29.20px; }
]]>
</style>
</defs>
<image x="0" y="0" width="1024" height="1448.2" xlink:href="svg/svg.jpg"/>
<g class="s2qAQBRa40" transform="translate(468.35 48.75)" >
<text y="0" x="0 6.75 12.85 19.25 ">Rapp</text>
<text y="0" x="25.4 31.75 36.15 42.4 49.25 56.35 64.25 70.75 77.6 82.1 ">ortRSE2017</text>
</g>
<g class="s2qAQBRa41" transform="translate(501.75 1408.45)" >
<text y="0" x="0 7.15 17.1 ">-4-</text>
</g>
<g class="s2qAQBRa42" transform="translate(304.9 448.25)" >
<text y="0" x="0 30.3 73.6 105.8 139.25 158.1 171.4 193.4 205.7 239.5 270.3 314.8 350.45 387.55 ">LapolitiqueRSE</text>
</g>
<g class="s2qAQBRa43" transform="translate(326.65 510.15)" >
<text y="0" x="0 32.7 77.35 110.3 143.7 157.75 200.75 233 285.15 317.85 331.9 365.6 ">deP&#xF4;leemploi</text>
</g>
<g class="s2qAQBRa44" transform="translate(73.35 791.2)" >
<text y="1.05" x="0.5 7.85 15.45 18.75 26.3 31.2 34.35 44 51.85 58.8 64.9 73.25 78.2 81.3 88.85 96.05 101.7 112.05 119.4 126.95 134.75 138 148.4 155.75 163.3 167.6 173.25 183 189.1 197.45 204.9 212.7 220.25 223.75 231.2 240.85 248.7 258.45 264.5 272.9 283.15 290.7 303.15 310.95 314.25 322.6 325.65 331.25 337.25 341.85 348.5 355.9 363.45 367 370.75 374 381.6 389.4 ">Salari&#xE9;d&#xE9;sorient&#xE9;parlapertesoudainedesonemploi,travailleur</text>
<text y="0" x="453.4 468.15 474.65 482.75 485.75 495.1 502.35 514.4 521.9 524.9 533 538.3 544.6 552.65 564.75 576.4 585.8 593 596.25 599.65 602.65 609.9 617.4 621.5 627.15 633.25 636.15 645.25 653.15 655.5 662.4 669.65 673.65 679.85 682.4 687.75 697.1 703.75 709.15 717.4 724.9 732.1 741.85 746.4 749.25 756 763.1 769.75 775.3 781.1 788.25 793.65 803.15 810.35 819.35 827.45 831.3 838.6 845.85 853.35 855.95 861.7 868.75 ">&#xC0;P&#xF4;leemploicommeailleurs,ladiversit&#xE9;estunerichesse.Uneorganisa-</text>
<text y="19.35" x="0.3 7.85 17.85 24.3 27.15 33.2 40.6 47.5 53.5 56.6 65 74.95 82.8 93.2 100.6 108.15 115.6 123.8 126.95 133.5 141.05 150.9 159.3 169.2 177.05 187.4 195.15 199.5 206.7 213.25 220.85 225.75 228.6 234.25 241.35 247.25 255.1 262.65 ">ensituationdehandicapoudepr&#xE9;carit&#xE9;,dem</text>
<text y="19.35" x="274.65 282.2 289.65 297.5 305 312.9 319.95 327.9 331.25 338.85 351.25 359.1 362.4 370.7 376.35 384.2 ">andeurd&#x2019;emploide</text>
<text y="18.25" x="453.5 459.15 462 470.05 479.65 486.3 488.85 494.15 500.8 508.4 515.65 523.15 530.35 539.65 546.3 554.5 558.55 565.15 571.4 578.4 586.5 593.4 599.15 606.4 613.9 616.9 625.9 633.4 641.5 644.05 651.4 655.8 663 666.15 670.25 680 687.4 691.5 698.75 705.4 712.4 721.4 729.1 732.15 738.55 745.35 752.6 764.65 772.15 775.15 782.4 787 789.55 794.9 804.25 811.5 820.55 825.85 833.1 837.75 849.5 856.1 ">tioncitoyenneetresponsabledoitfairepreuved&#x2019;exemplarit&#xE9;entermes</text>
<text y="37.65" x="0.75 4.05 12.4 19.55 27.6 35 44.65 52.9 60.7 65.1 72.25 79.4 84.2 89.25 96.8 104.6 112.05 122.4 129.8 137.35 147.05 151.8 159.35 171.7 175.3 178.95 182.05 189.6 194.5 197.45 203.5 213.45 220.15 227.4 234.6 244.4 247.7 254.65 263.25 271.1 278.65 290.65 298.2 302.6 309.6 317 324 332.85 340 348.25 360.65 364.15 371.95 374.9 380.7 386.75 391.25 398.65 ">longuedur&#xE9;e,jeunepeufamiliaris&#xE9;aveclesd&#xE9;marchesadministra-</text>
<text y="36.6" x="453.75 461.4 464.5 471.05 478.35 485.65 489 491.55 496.9 506.25 512.8 520.35 527.85 537.6 544.75 552.8 560.15 565.15 573.05 575.65 581.4 588.1 592.65 595.9 607.9 611.15 618.3 624.85 630.55 633.4 641.4 648.9 ">d&#x2019;&#xE9;galit&#xE9;etdenon-discrimination.</text>
<text y="56" x="0 6 8.7 15.95 22.9 31.45 39.85 49.85 55.95 63.5 71.3 74.4 82.8 90.15 97.8 101.1 109.45 112.25 120.3 127.75 137.4 145.25 152.2 161.45 168.8 176.35 180.75 187.25 195.7 203.5 207.85 216.75 223.75 227.05 234 239.85 246.3 249.4 257.6 265 272 280.5 288.5 292.25 295.75 303 309.1 316.65 320.95 326.95 330.1 338.45 347.1 363.25 369.85 378 385.7 ">tivesousenior&#xE9;loign&#xE9;desparcoursclassiquesd&#x2019;insertion&#x2026;Pour</text>
<text y="59.75" x="456 464.4 472.5 484.65 491.4 496.75 505.5 510.85 518.1 525.6 534.9 542.4 549.1 557.05 564.8 569 576.25 583.4 590.9 597.6 606.25 618.35 625.15 630.5 637.05 642.75 645.6 653.65 660.55 668.8 675.65 681.65 687.4 694.5 701.8 705.25 708.25 714.9 720.6 726.15 732.75 738.5 742.55 752.3 756.35 763 769.15 776.25 784.3 791.15 796.9 804.25 811.65 814.65 824.05 830.45 833.5 840.15 845.65 ">Comptetenudesgrandesmutationsactuelles,&#xEA;treresponsablec&#x2019;est</text>
<text y="74.3" x="0.65 12.55 19.95 27.25 34.65 41.65 51.8 59.25 62.25 69.65 79.35 85.25 95.3 107.55 110.3 116 122.3 125.25 133.5 143.1 150.8 160.25 166.2 173.6 177.55 185.1 188.1 194.5 204.5 212.15 219.9 227.5 230.95 233.95 242.7 250.4 260.5 263.75 267 274.4 286.65 294.25 297.45 305.65 308.6 315.15 321.75 330 333.2 342.85 350.25 362.5 370.15 373.25 381.5 ">mener&#xE0;biensamissiondeservicepublicdel&#x2019;emploi,P&#xF4;leemploi</text>
<text y="78.1" x="453.75 460.9 467.9 473.4 479.55 484.85 491.4 499.1 502.3 509.4 516.5 524.55 532.05 539.25 542.15 551.9 559.4 562.4 569.65 576.8 583.4 588.75 595.9 600.9 609.6 612.65 619.3 624.8 632.65 639.25 644.9 649.05 658.4 665.65 672.4 679.75 686.3 693.65 702.65 710.15 717.4 724.35 733.1 736.05 745.75 749.85 756.65 764.65 771.75 777.75 783.4 786.25 794.3 803.65 811.15 820.9 828.05 835.45 841.2 845.25 ">aussiagirpourlaplan&#xE8;te.C&#x2019;est&#xEA;treengag&#xE9;danslar&#xE9;ductiondenotre</text>
<text y="92.6" x="0.05 6.1 9 16 24.1 28.3 35.1 40.85 46.75 56.4 65.45 70.95 79.2 86.15 91.65 98.45 107.5 110.65 117.45 126.4 133.6 141 145.2 151.15 159.35 167.05 174.35 181.1 189.4 197 204.45 211.55 219.5 225 233.25 240.25 245.7 255.85 258.95 268.25 276.35 278.85 285.95 293.35 297.5 303.85 306.5 312 321.4 329 339.2 342.25 349.7 357.4 364.25 370.5 373.2 379.1 386.35 393 398.95 401.9 410.1 417.7 ">s&#x2019;adresse&#xE0;touteslespersonnesdanstouteladiversit&#xE9;deleursituation.</text>
<text y="96.4" x="453.75 461 473.1 480.55 484.65 491.85 495.05 501.9 507.25 516.6 523.85 530.4 537.85 541.1 545.15 553.15 560.75 567.9 575.1 586.85 594.1 600.9 606.25 613.55 616.55 623.65 628.65 637.4 640.5 647.15 652.65 660.4 667.65 674.6 680.15 686.3 691.55 698.4 704.65 710.9 719 731.15 738.15 744.65 752.4 759.55 766.8 774 776.9 786.65 798.8 805.65 810.9 817.55 823.25 826.05 834.15 ">empreinteenvironnementale.C&#x2019;estaussiaccompagnerlamutation</text>
<text y="111" x="1 5.7 8.6 15.6 22 28.45 35.25 40.95 47.25 50.65 58.15 61.6 65.05 67.75 73.25 82.6 90.3 100.35 107.65 115.25 123.6 129.55 136.95 140.9 148.5 151.45 157.9 164.7 173.25 180.05 185.7 194.25 201.9 209.55 212.05 219.15 226.55 230.75 236.7 244.15 247.75 250.9 258.2 263.5 272.4 275.6 282.4 288 293.6 298.7 305.9 311 319.1 322.45 326.7 336 344.1 351.5 354.7 362.15 365.75 368.9 378.9 382.25 389.5 396.45 399.95 406.95 ">L&#x2019;accessibilit&#xE9;denosservicesestuniverselle.C&#x2019;est-&#xE0;-direqu&#x2019;elleinclut</text>
<text y="114.75" x="453.75 461.3 470.4 476.15 483.05 489.05 494.4 501.65 509.15 513.15 521.15 528.8 531.55 538.4 544.4 550.1 552.4 559.85 562.4 567.75 574.4 582.35 590.25 597.65 603.4 607.5 614.35 621.05 628.15 635.4 639.5 646.25 653.35 660.6 667.4 675 682.55 689.15 697.4 703.65 711.75 723.9 730.9 737.5 742.85 750.1 757.25 763.5 770.15 778.55 788.3 795.25 802.5 806.4 811.8 818.4 827.15 837.45 844 ">desecteursd&#x2019;activit&#xE9;squirecherchentdescomp&#xE9;tences&#xAB;vertes&#xBB;et</text>
<text y="129.5" x="0 5.5 13.7 20.8 29.8 32.95 39.75 48.7 56.3 64.05 71.6 75.1 78.1 84.3 90.2 95.85 101.75 ">touslespublics,sa</text>
<text y="129.5" x="109.15 116.25 124.5 132.55 135.3 140.95 146.8 150.15 157.45 163.6 169.45 172.4 180.65 190.95 198.6 203.95 212 214.75 220.65 227.45 232.25 235.6 247.85 251.2 258.45 265.2 271 274 282.25 289.85 ">nsdistinctionnidiscrimination.</text>
<text y="133.05" x="453.55 459.3 467.4 474.25 479.55 486.8 494.3 497.5 504.65 507.65 516.75 524.3 530.65 537.6 544.9 547.9 556 563.4 570.5 577.75 589.4 596.65 603.55 611.1 618.75 621.4 628.65 635.55 641.3 645.35 652 660.65 672.35 680.05 687.6 694.9 697.9 704.55 712.8 719.65 725.9 734 741.15 749.15 761.25 764.1 771.9 779.1 785.75 791.8 ">soutenirled&#xE9;veloppementd&#x2019;autresmod&#xE8;les&#xE9;conomiques.</text>
<text y="423.75" x="1.1 4.6 11.5 18.75 25.7 31.5 37.5 43.15 51.1 54.85 62.7 70.15 80.5 92.85 95.8 101.65 108.1 111.2 119.6 129.55 137.4 147.15 153.2 160.75 164.85 172.6 175.75 182.3 192.7 200.45 208.3 216.05 219.7 222.85 232.2 239.1 247.55 254.4 259.75 265.45 273 280.15 286.15 289.25 296.75 304.25 311.25 321.75 329.6 333.25 340.5 348.9 354 358.5 365.4 373.4 377 380.25 387.25 393.25 ">Investid&#x2019;unemissiondeservicepublicetattentifauxplusfragiles,</text>
<text y="423.75" x="454.6 463.6 470.25 478.5 485.15 488.15 495.4 502.3 508.1 514.75 522.8 528.55 536.25 542.85 545.65 552.9 555.9 562.6 571.15 574.4 581.35 587.1 593.75 598.4 600.9 606.25 612.9 620.85 628.35 635.6 642.55 651.15 658.35 665.8 674.4 686.15 693.4 697.4 704.15 711.3 717.9 725.9 733.4 740.65 752.35 759.6 766.75 774.3 781.55 788.4 796.15 803.4 810.1 819.65 826.85 833.75 839.45 843.55 850.6 ">Desclausessocialesinscritesdansnosmarch&#xE9;sdemandentauxentre-</text>
<text y="442.1" x="1.1 7.85 16.25 19.55 29.55 37.1 49.5 57.3 60.6 68.95 75.3 87.3 94.85 102.3 112.65 120.5 127.95 138.3 145.65 154.1 157.75 160.6 166.6 169.75 177.95 185.35 195 203 206 213.2 220.2 227.65 234.55 243 249.7 256.75 264.35 276.75 284.6 287.85 295.35 298.9 303.25 313.25 320.1 328.95 333.35 340.25 346.75 354.15 362.5 369.75 375.75 383.4 391.15 394.45 401.95 ">P&#xF4;leemploim&#xE8;neunepolitiqued&#x2019;achatexemplaireetresponsable.</text>
<text y="442.1" x="454.25 462.15 467.25 470.3 476.55 483.65 492.25 498.4 501.4 507.65 515.65 519.1 526.75 530.4 534.9 542.1 550.9 558.9 569.25 576 584.5 591.9 598.1 605.4 612.55 617.1 624.8 632.85 640.85 648.4 659.1 666.6 674.3 678.75 687.15 695.15 702.3 711.9 719.55 727.25 735.25 739.75 746.85 755.75 763.75 773.4 779.65 784.35 791.15 798.65 806.4 810.1 816.15 824.2 834.5 841.25 848.35 ">prisestitulairesdeconsacrerunepartdesheuresdetravaildeces</text>
<text y="460.55" x="454.25 466.25 473.8 478.15 485.25 492.65 499.65 505.65 512.25 519.6 527.15 534.5 541.15 548.3 555.85 568.3 576.1 579.4 586.5 592.65 602.35 610.15 617.15 625.65 633.55 641.1 653.1 660.65 668.1 675.9 683.5 691.35 695.65 704.25 712.25 715.6 723.15 735.6 743.4 746.65 755.05 760.65 768.5 778.9 782.25 790.6 797.75 805.8 813.15 822.85 831.1 838.9 843.3 850.45 ">march&#xE9;s,parexemple,&#xE0;desdemandeursd&#x2019;emploidelonguedur&#xE9;e</text>
<text y="465.45" x="3.6 12.6 19.85 27.25 34.75 37.35 46 53.5 56.9 63.8 69.95 72.75 80 87.5 91.55 99.8 107 114.55 121.7 128.55 135.2 140.9 146.95 149.9 159.65 166.7 174.8 178.15 180.7 186.4 189.2 197.1 204.2 213.25 220.9 223.65 230.5 237.2 244.35 250.9 258.45 265.95 276 282.45 290.6 293.5 302.9 310.15 322.25 329.75 332.75 340.75 346.1 352.4 360.45 367.25 373 377.65 380.9 388.25 395.4 ">Depuisplusieursann&#xE9;es,lapolitiqued&#x2019;achatdeP&#xF4;leemploicontribue</text>
<text y="479" x="453.9 462.25 472.4 482.1 489.9 496.9 506.15 513.55 521.1 525.4 531.55 539.9 547.75 555.15 562.15 571.05 578.6 588.65 595.05 597.9 603.9 611.35 618.25 624.25 627.4 635.75 645.65 653.55 663.9 671.35 678.9 686.35 694.6 697.65 704.25 711.8 719.5 ">ou&#xE0;despersonnesensituationdehandicap.</text>
<text y="483.8" x="0.35 10.15 13.25 16.7 19.9 26.8 32.6 39.85 43.8 49.5 52.3 60.4 70.4 77.85 81.95 89.55 93.95 100.6 106.15 112.3 115.1 123.2 130.7 137.85 145.15 148.6 151.6 160.6 168.15 174.8 183.45 190.5 198.6 206 213.6 216.55 223.15 228.85 231.65 239.7 246.65 255.35 258.35 265 273.65 281.15 284.5 291.4 298.85 306.25 313.9 317.25 324.4 331.65 335.85 343.15 350.6 353.6 360.25 366.25 ">&#xE0;l&#x2019;insertionprofessionnelledespopulationslesplusvuln&#xE9;rables.</text>
<text y="502.25" x="0.6 9 16.3 19.25 29 40.7 47.3 55.1 62.35 72 78.25 86.4 93.5 100.75 104.85 112.1 119.2 125.5 135.25 142.35 149.85 158.05 164.9 171.65 178.75 185.35 190.45 196.2 202.15 209.3 216.7 222 229.25 241.35 253.05 260.25 267.15 275 281.25 288.5 295.2 304.4 311.9 321.65 329.1 333.2 339.75 345.25 350.6 357.2 362.9 365.7 373.75 380.7 386.45 ">Celametencoh&#xE9;rencenosachats,notammentceuxdeprestations,</text>
<text y="502.25" x="454.6 460.35 467.15 475.65 482.6 485.65 493.1 500.15 506.1 512.9 521.4 528.85 535.6 543.15 546.55 550.8 559 566.65 574 581.4 593.25 600.65 607.65 613.15 620.6 623.75 630.55 638.8 646.5 656.55 663.85 671.4 680.4 692.25 699.65 703.9 710.75 718.05 724.85 733.15 739.15 747.35 754.4 762.5 769.9 776.9 782.65 788.9 794.9 802.6 812.9 824.8 831.6 839.35 846.75 ">Lesclausesenvironnementalesdenosmarch&#xE9;ssontaussiunmoyen</text>
<text y="520.6" x="0.4 6.95 15.25 18.2 27.95 40 42.6 48.2 54.3 57.1 65.2 72.55 77.9 89.65 96.9 108.6 117.65 125.2 135.25 141.65 149.8 152.8 162.15 169.4 181.5 189 192 200 203.15 ">etlamission-m&#xEA;medeP&#xF4;leemploi.</text>
<text y="520.6" x="453.9 461.55 471.6 475.85 482.85 490.9 498.55 501.9 506.15 516.15 523.5 531.05 536.9 541.15 550.8 558.15 570.5 578.1 582.3 589.65 593.05 600.05 605.55 615.15 621.6 629 633.85 641 649.15 656.5 663.5 669.35 675.8 684 696.25 708.15 717.8 724.25 731.65 735.3 738.4 747.8 755.4 765.5 772.8 780.4 788.5 793.1 801.3 809 813.75 821.4 824.2 829.9 835.8 843.2 850.9 855.1 861.3 ">der&#xE9;duirenotreempreintecarbone,commecelledenosfournisseurs.</text>
</g>
<g class="s2qAQBRa45" transform="translate(132.5 719.5)" >
<text y="0" x="0 19 42.65 59.9 75.9 91.3 110.75 117.25 134.3 154.05 172.25 188.1 205.25 220.25 235.7 252.9 260.1 278.05 293.05 ">UNSERVICEACCESSIBLE</text>
<text y="0" x="411.85 430.55 449.1 469.55 489.65 505.7 522.8 542.05 560.6 566.65 581.25 597.15 613.5 619.7 639.8 663.05 679.8 685.3 699.85 716.8 735.35 751.1 769.65 788.2 ">UNEORGANISATIONCITOYENNE</text>
<text y="35.1" x="79.85 94.4 115.9 123.1 141.2 158.3 172.35 189.95 207.15 214.35 ">ETINCLUSIF</text>
<text y="35.1" x="498.05 512.35 533.25 550.35 565.05 581.95 598.2 618.3 636 650.65 669.85 687.55 702.2 ">ETRESPONSABLE</text>
<text y="423.25" x="177.6 196.6 215.45 237.2 253.75 274.15 289.1 294.85 311.5 318 338.1 357.15 378.9 396.4 400.45 418.65 435.75 452.85 469.05 482.4 495.8 510.75 525.1 544.55 551.75 567.75 ">UNEPOLITIQUED&#x2019;ACHAT,LEVIER</text>
<text y="458.3" x="161.1 179.8 201.55 219.65 238.65 261.55 277.6 295.7 313.1 331.3 350.45 366.45 388.2 404.2 421.6 436.75 458.85 475.15 494.8 511.85 519.05 533.65 546.65 565.55 582.55 ">DENOSENGAGEMENTSSOCI&#xC9;TAUX</text>
</g>
</svg>
