<?xml version="1.0" encoding="UTF-8" standalone="no"?>
<!DOCTYPE svg PUBLIC "-//W3C//DTD SVG 1.1//EN" "http://www.w3.org/Graphics/SVG/1.1/DTD/svg11.dtd">
<svg xmlns="http://www.w3.org/2000/svg" xmlns:xlink="http://www.w3.org/1999/xlink" version="1.1"
     viewbox="0 0 1024.00 1448.20" width="1024.00" height="1448.20" style="overflow:hidden" xml:space="preserve">
<defs>
<style type="text/css">
<![CDATA[
@font-face { font-family: 'f0CkoBRa47#17'; font-weight: normal; font-style: normal;  src: url(svg/font6.ttf) format('truetype'); }
@font-face { font-family: 'f0CkoBRa411#65'; font-weight: normal; font-style: normal;  src: url(svg/font10.ttf) format('truetype'); }
@font-face { font-family: 'f0CkoBRa48#22'; font-weight: normal; font-style: normal;  src: url(svg/font7.ttf) format('truetype'); }
@font-face { font-family: 'f0CkoBRa49#27'; font-weight: normal; font-style: normal;  src: url(svg/font8.ttf) format('truetype'); }
@font-face { font-family: 'f0CkoBRa410#32'; font-weight: normal; font-style: normal;  src: url(svg/font9.ttf) format('truetype'); }
@font-face { font-family: 'f0CkoBRa412#37'; font-weight: normal; font-style: normal;  src: url(svg/font11.ttf) format('truetype'); }

.s0CkoBRa40 { fill: rgb(166, 202,  92); font-family: 'f0CkoBRa47#17'; font-size: 41.25px; }
.s0CkoBRa41 { fill: rgb( 91, 197, 242); font-family: 'f0CkoBRa48#22'; font-size: 18.90px; }
.s0CkoBRa42 { fill: rgb(166, 202,  92); font-family: 'f0CkoBRa48#22'; font-size: 18.90px; }
.s0CkoBRa43 { fill: rgb(255, 255, 255); font-family: 'f0CkoBRa49#27'; font-size: 14.60px; }
.s0CkoBRa44 { fill: rgb( 36,  87,  33); font-family: 'f0CkoBRa410#32'; font-size: 25.80px; }
.s0CkoBRa45 { fill: rgb(255, 255, 255); font-family: 'f0CkoBRa410#32'; font-size: 15.80px; }
.s0CkoBRa46 { fill: rgb(255, 255, 255); font-family: 'f0CkoBRa411#65'; font-size: 12.00px; }
.s0CkoBRa47 { fill: rgb(255, 255, 255); font-family: 'f0CkoBRa412#37'; font-size: 12.00px; }
]]>
</style>
</defs>
<image x="0" y="0" width="1024" height="1448.2" xlink:href="svg/svg.jpg"/>
<g class="s0CkoBRa40" transform="translate(307.5 338.15)" >
<text y="0" x="0 ">&#x2022;</text>
<text y="0" x="398.4 ">&#x2022;</text>
<text y="747.25" x="0 ">&#x2022;</text>
<text y="747.25" x="398.4 ">&#x2022;</text>
</g>
<g class="s0CkoBRa41" transform="translate(140.9 360.85)" >
<text y="0" x="41.05 50.25 59.65 70.5 82.85 93.65 103.4 113.1 124.1 128.7 140.95 148.95 159.4 168.45 177.45 186.2 194.95 205.4 210.05 220.6 228.95 241.4 248.2 259.1 269.5 279.15 289.5 297.75 ">PROMOUVOIRLETRAVAILENJOURN&#xC9;E</text>
<text y="0" x="474.95 483.85 493 503.75 512.75 522.9 530.95 541.6 551.8 562.45 569.6 582.05 591.9 602.65 614.9 626.45 636.65 646.85 657.05 ">TROPH&#xC9;EDELACOMMANDE</text>
<text y="22.65" x="48.9 57.9 68.75 79.15 91.4 99.4 107.35 119.65 132 139.65 148.75 153.4 161.75 170.95 183.2 193.6 204.65 211.95 224.95 234.15 243.45 254.45 263.65 273.25 281 290.1 ">POURLESM&#xC9;TIERSDELAPROPRET&#xC9;</text>
<text y="22.65" x="468.55 477.5 487.7 497.15 505 509.25 519.95 530.15 540.8 549.6 560.3 570.5 582.4 591.25 602 609.75 620.4 628.6 640.85 649.85 657 667.8 ">PUBLIQUEPOURP&#xD4;LEEMPLOI</text>
<text y="747.2" x="27.5 37.15 47.75 59.75 71.85 79.85 89.25 100.25 107.75 115.4 126.9 136.15 143.65 153.95 158 168.6 178.2 189.45 199.9 209.55 219.45 223.1 230.3 240.3 250.35 254.6 264.85 272.25 283.2 290.7 300.1 309.15 ">COMMENTLESR&#xC9;GIONSOCCITANIEETPACA</text>
<text y="747.2" x="405.75 415.8 426.75 434.7 442.6 450.65 460.15 469.2 480.25 488 499.7 509.35 517.4 526.4 535.5 545.7 553 562.85 573.45 584.5 594.9 605.95 616.15 626.55 638.65 648.05 658.4 667.25 675.8 686.65 696.85 707.1 717.4 725.4 ">COLLECTEETRECYCLAGEDENOSCARTOUCHES</text>
<text y="769.9" x="0 8.65 17.3 25.75 34 44.15 48.4 55.9 63.5 71.5 80.9 91.15 99.65 109.5 117.2 129.2 136.75 146.7 155.95 163.6 172.7 181.4 189.4 199.4 210.9 219.7 228.7 238.3 246.95 254.45 264.75 274.85 282.2 292.5 302.5 311.5 321.5 329.7 338.4 ">TRAVAILLENTAVECLESECTEURPROT&#xC9;G&#xC9;ETADAPT&#xC9;</text>
<text y="769.9" x="437.05 447 455.75 465.55 476.15 484.4 492.4 504.65 512.5 522.9 535.2 543.1 551.1 562.95 572.6 580.65 590.1 599.2 607.55 617.95 627.05 638.65 649.05 658.4 668.8 677.4 686.45 694.3 ">USAG&#xC9;ESPARLESSECTEURSADAPT&#xC9;S</text>
</g>
<g class="s0CkoBRa42" transform="translate(238.3 406.25)" >
<text y="0" x="0 10.15 18.55 28.35 37.4 47.05 55.25 60.1 68.8 79.15 89.8 100.15 111.2 118.55 129.55 134.2 143.8 ">CENTRE-VALDELOIRE</text>
<text y="0" x="412.7 420.65 429.2 438.4 450.7 461.1 472.1 479.45 492.45 499.8 510.8 515.4 525.05 ">PAYSDELALOIRE</text>
<text y="747.25" x="8.05 18.8 28.8 39.1 43.15 50.75 61.05 71.55 76.15 87.15 94.9 106.6 114.55 124.3 133.75 ">OCCITANIEETPACA</text>
<text y="747.25" x="460.95 470.9 480.6 ">DSI</text>
</g>
<g class="s0CkoBRa43" transform="translate(124.3 338.15)" >
<text y="100.3" x="1.95 8.2 14.6 20 25.6 32.6 41.7 49.05 52.45 55.6 62.25 67.45 74.35 78.1 84.85 91.85 98.45 104 106.8 114.55 121.25 132 139 151.5 158.35 166.1 170.3 177.25 180.35 184.35 190.8 201.3 208.55 215.2 221.25 228.3 231.25 237.7 248.45 259.95 267.2 273.55 284.75 287.9 294.55 299.7 306.7 310.45 317.15 324.15 330.75 336.3 339.05 346.8 353.55 364.3 371.3 ">Passerd&#x2019;interventionsenhorairesd&#xE9;cal&#xE9;s&#xE0;desinterventionsen</text>
<text y="100.3" x="398.8 404.45 414.85 420.6 427.7 431.6 438.9 441.85 448.1 458.65 465.45 472.1 479.1 485.6 490.7 496.65 502.05 513.35 520.5 524.65 531.3 538.3 544.9 550.85 555.8 562.95 570.25 ">Leserviceachats-march&#xE9;s-app</text>
<text y="100.3" x="577.6 581.7 588.75 596.05 598.8 604.85 607.85 615.75 623.15 630.15 637.3 648.65 655.8 662.55 667.7 677 684.4 695.45 698.55 709.5 713.65 720.15 727.7 730.65 738.55 750.1 756.35 762.2 769.45 ">rovisionnementsdelar&#xE9;gionPays</text>
<text y="117.85" x="0 4.6 12.35 19.6 24.1 31 37.6 44.2 50.5 54.5 61.1 68.1 71.45 74.05 ">journ&#xE9;e,r&#xE9;alis</text>
<text y="117.85" x="79.6 86.3 92.7 101.2 108.2 118.3 125.5 129.5 135.85 141.5 148.5 155.35 161.45 170.6 177.85 184.3 192.55 199.95 206 212.45 219.65 226.45 233.45 240.05 245.05 250.55 256.5 263.5 274.7 281.75 285.05 287.9 295.65 299.65 309.55 312.65 315.3 321.7 326.65 332.2 336.3 342.95 348.75 354.3 356.65 363.8 366.4 371.55 398.2 405.45 416.6 419.55 430.95 436.4 444.15 447.3 451.3 461.85 467.55 470.6 477.05 482.35 490.9 498.1 509.45 513.45 520.45 531.65 538 542.95 548.5 552.5 563.65 566.6 576.8 582.35 586.35 594.1 601.35 608.25 614.85 625.3 632.6 643.75 646.7 657.45 663.5 671.25 682.85 694.05 701 707.9 715.15 726.3 733.45 740.75 747.95 751.25 754.05 761.65 768.5 ">&#xE9;esenpr&#xE9;sencedesoccupants,am&#xE9;liorel&#x2019;attractivit&#xE9;delaLoires&#x2019;estvuremettreletroph&#xE9;edelacommandepublique</text>
<text y="135.4" x="1.25 8.5 15 23.75 35.05 41.35 46.95 49.75 56.7 60.7 68.85 76.1 86.05 89 98.85 106.05 110.05 117.8 125 129 135.3 140.55 150.05 156.35 164.8 171.6 178.6 183.2 194.35 200.75 209.2 216.45 226.55 237.75 244.75 247.95 251.3 254.3 261.3 268.55 275.55 282.2 289.8 297 300.25 303.55 306.8 313.9 317.9 327.4 334.4 343.55 348.8 355.8 360.3 371.55 398.2 405.55 413.3 418.95 428.8 435.95 442.95 449.7 458.9 461.85 471.7 477.7 484.1 489.3 495.6 502.7 510.45 514.95 517.75 527.7 539.35 545.6 552.55 556.7 561 568.75 573.3 584.5 591.5 598.35 604.45 613.95 621.25 631.5 634.6 637.3 643.9 650.4 657.25 663.65 672.4 679.55 686.85 694.05 697.35 700.15 706.65 714.4 721 726.45 736.05 741.65 748.65 752.4 759.55 762.35 768.4 ">desm&#xE9;tiersdelapropret&#xE9;etpermetunmeilleur&#xE9;quilibreenterme2017danslacat&#xE9;gorie&#xAB;Per&#xE000;ormancedel&#x2019;achatpublic&#xBB;.Leservice</text>
<text y="152.95" x="1.25 8.5 17.85 25 27.85 37.75 43.35 50.75 57.1 59.95 67 69.95 80.35 87.25 95 102.25 109.65 115.25 121.7 130.75 137.05 144.1 151.1 157.75 162.75 168.6 175.5 181.05 188.25 195.05 202.05 206.55 209.75 220.95 227.95 234.55 239.75 250.2 257.05 264 270.9 278.15 285.15 291.75 299.9 305.45 309.45 317.15 319.75 329.2 340.4 348.15 350.75 360.2 367 374 ">deviesocialepoursesagents.Exp&#xE9;riment&#xE9;pendanttroismoispar</text>
<text y="152.95" x="398.15 407.9 414.2 419.45 429.55 433.55 440.15 446.2 453.95 465.55 472.4 479.35 486.05 491.65 501.7 508.55 516.35 523.55 531.3 534.2 544.3 555.85 558.5 564.1 573.8 580.8 590.5 602.75 609.15 616.35 620.35 629.8 637.05 646.6 652.2 659.95 669.95 676.05 683.8 695.35 697.9 703.1 713.2 717.2 723.5 730.9 733.75 741.5 748.35 755.4 761.2 768.45 ">a&#xE9;t&#xE9;r&#xE9;compens&#xE9;pourlamiseen&#x153;uvredesoncomit&#xE9;r&#xE9;gionalde</text>
<text y="170.45" x="1.7 4.6 14.25 18.25 24.5 32 34.8 42.55 51.85 59.85 66.85 73.5 79.05 83.05 89.85 94.1 102.5 109.55 114.8 122.1 131.95 137.35 145.1 148.3 152.3 161.3 167.3 174.55 180.75 186.3 190.3 198.05 200.6 208.65 214.55 217.05 222.3 228.75 236.65 243.9 250.8 257.55 266.2 269.15 278.4 284.4 291.05 298.65 302.65 311.55 318.8 327.9 333.5 341.25 351.05 362.3 369.3 373.3 ">lar&#xE9;gionCentre-ValdeLoiresurtroissitesdanslecadredesonmar-</text>
<text y="170.45" x="398.2 404.2 411.65 419.4 423.4 430.95 434.15 441.05 447.4 452.9 455.7 463.45 473.9 481.15 487.6 496.95 503.6 510.05 516.95 523.3 528.3 537.7 544.05 552.75 560 566.45 575.55 582.8 589.8 596.65 603.6 610.3 615.9 622.3 632.3 636.35 645.3 648.75 655.8 663.75 673.15 681.6 686.55 692.85 700.9 707.25 712.2 717.4 728.15 731.3 738 743.35 748.5 755.5 762.4 768.45 ">coordinationdesachatsetdesd&#xE9;penses(CIRCAD).Cetteinstance</text>
<text y="188" x="1.25 7.75 14.6 24.95 32.2 43.1 50 56.35 61.3 66.45 72.85 80.3 86.6 93.7 100.3 107.25 113.35 123.6 131.2 133.8 139.75 146.55 153.75 ">ch&#xE9;denettoyage,cedispos</text>
<text y="188" x="159.7 162.25 167.75 170.5 178.75 189.6 196.45 203.45 208 219.55 222.15 231.3 238.65 249.55 253.55 260.15 267.15 270.5 273.05 278.7 285.65 293.45 300.75 307.15 316.65 323.3 329.3 337.15 344 351.8 363.3 366.15 372.55 398.55 ">iti&#xE000;apermisder&#xE9;aliserdes&#xE9;conomiesp</text>
<text y="188" x="405.3 412.35 416.9 428.1 434.45 443.05 450.35 461.05 472.6 475.4 482.4 488.85 498.85 503.15 510.1 513.25 517.25 527.55 534.2 541.9 548.75 555.75 559.75 566.75 574.6 585.35 588.3 598.45 603.75 609.3 613.45 619.8 625 631.35 638.75 641.55 651.6 659 661.7 668.35 674.8 681.7 688.05 693.05 702.7 706.7 713.1 719.1 725.9 733.65 740.35 745.9 752.95 760.1 763.1 769.5 ">ermetdemieux&#xE000;aireadh&#xE9;rer&#xE0;lastrat&#xE9;gied&#x2019;achatsresponsables</text>
<text y="205.55" x="1.25 8.7 11.7 18.7 25.6 32.6 36.35 43.8 46.6 53.1 60.75 68.1 ">d&#x2019;&#xE9;nergie,d&#x2019;</text>
<text y="205.55" x="70.85 77.45 83.55 89.95 93.95 100.5 104.25 109.8 113.8 125.65 128.6 140.35 144.35 150.95 157.55 163.35 168.95 171.3 178.45 181 186.2 197.3 204.55 211 221.8 228.55 235.55 239.55 245.15 252.95 260.2 267.05 274.05 276.9 282.45 290 297.25 309.05 313.05 319.7 327.3 334.55 337.7 341.7 353.55 356.65 359.3 366.4 373.3 ">accro&#xEE;trelar&#xE9;activit&#xE9;despersonnels,der&#xE9;duirel&#x2019;ab-</text>
<text y="205.55" x="398.55 401.55 407.95 416.7 422.35 429.3 433.05 440.2 442.95 449.1 455.45 464.15 471.2 477.65 482.95 488.55 491.35 499.1 506.35 513.2 520.15 523.35 527.35 533.75 542.7 549.7 560.3 571.45 577.85 583.35 586.15 593.15 597.15 606.85 614.1 624.05 630.15 637.9 644.6 650.2 657.95 669.55 680.7 687.1 692.6 695.4 703.2 713.4 719.75 728 735.4 738.15 744.75 751.25 758.1 764.45 769.45 ">lesservicesgestionnairesenmati&#xE8;redeconsommationetd&#x2019;achats</text>
<text y="223.1" x="1.1 6.7 13.7 20.25 25.5 32.45 35.05 41 52.25 58.8 64.6 72.05 74.75 81.75 92.95 100 103.3 106.15 113.9 117.9 124.9 132.55 135.5 144.85 152.5 159.3 166.35 169.7 172.25 177.45 186.8 194.05 203.05 210.2 213 222.7 229.7 239.05 244.65 248.8 254.95 261.75 268.7 271.95 278 284.4 292.3 299.65 308.55 315.3 322.4 325.3 333.15 337.65 340.25 345.8 352.8 360.05 366.15 372.55 ">sent&#xE9;isme,d&#x2019;am&#xE9;liorerlaqualit&#xE9;devieautravailetdevaloriserces</text>
<text y="223.1" x="398.2 404.55 415.3 422.7 425.4 432.4 435.2 442.45 449.45 459.45 472.3 483.85 486.7 493.65 500.1 509.55 517.15 519.9 524.15 528.85 535.5 541.1 548.1 555.6 562.8 569.7 579.25 585.7 593 595.7 601.25 608.5 612.5 622 628.65 635.15 642 648.35 653.35 661.85 668.85 678.45 684.05 691 694.15 703.7 710.95 720 725.15 732.95 739.55 744.75 751.15 760.1 763.1 769.5 ">etd&#x2019;aider&#xE0;mieuxdi&#xE000;&#xE000;userunecultureachatsauseindetoutesles</text>
<text y="240.65" x="1.65 12.85 19.25 24.75 27.55 34.55 38.5 44.35 51.35 57.7 68.1 75.55 83.25 89.3 96.95 103.95 106.9 116.5 122.05 126.2 132.35 139.2 146.1 149.3 155.8 162.8 171.95 176.55 184.3 191.55 196.05 203 209.55 219.55 225.15 232.15 236.3 246.15 253.2 260.2 267.05 274.05 278.2 285.25 288.55 291.15 296.75 306.9 317.45 320.55 323.55 330.55 337.25 342.8 349.8 361.5 368.65 371.55 ">m&#xE9;tiers.En2018,letravailenjourn&#xE9;eserag&#xE9;n&#xE9;ralis&#xE9;&#xE0;l&#x2019;ensemble</text>
<text y="240.65" x="397.95 403.3 408.8 413.4 420.2 426.1 431.65 438.85 442.85 449.3 457.7 464.95 475.2 478.15 488.3 492.3 498.65 506.05 508.85 516.6 523.8 ">structuresdelar&#xE9;gion.</text>
<text y="258.2" x="1.25 8.5 18.1 24 26.6 31.8 38.25 46.7 54.35 64.1 72.2 79.2 85.8 91.35 95.35 102.2 106.4 114.8 121.85 127.65 134.95 145.35 150.8 158.55 161.75 165.75 172.6 ">desitesduCentre-ValdeLoire.</text>
<text y="847.55" x="1.95 7.35 18.75 24.6 27.5 33.8 40.85 52.8 56.8 63.1 70.55 73.35 81.1 87.95 95 102.6 109.85 122.05 127.5 134.5 141.25 147.55 154.6 166.2 173.2 185.3 189.3 195.7 203.05 205.9 213.65 225.25 235.8 241.95 248.3 250.9 256.05 263.05 270.25 273.05 284.55 291.2 297.25 303.7 310.55 317.5 320.75 324.15 327.05 333.7 341.3 348.65 355.55 362.8 370 372.55 ">Lesi&#xE8;ger&#xE9;gionaldeLab&#xE8;geenr&#xE9;gionOccitanieaccueille,depuis</text>
<text y="847.55" x="398.8 407.3 414.15 420.7 429.8 432.65 442.7 453.7 460.6 464.45 470.8 477.55 487.65 494.35 500.55 505.95 508.6 516.2 522.95 529.85 535.6 542.75 552.45 558.35 566 572.55 578 585.6 597.05 608.05 614.95 622 624.8 631.1 640.1 643.15 649.85 654 661.65 666 677.05 683.25 688.65 691.3 698.75 705.5 711.75 720.8 724.65 731.5 738.25 745.85 752.15 758.7 765.6 768.45 ">Danslemarch&#xE9;nationaldeconsommablesin&#xE000;ormatiquesrenouvel&#xE9;</text>
<text y="865.1" x="1.25 8.7 16.6 24.1 29.45 37.1 44.35 51.35 57.85 69.95 76.75 83.75 87.7 93.3 101.05 108.3 115.2 121.6 131.8 139.25 142.6 149.85 156.8 168.3 175.3 181.95 187.5 191.5 198.5 205.7 210.2 212.8 218.4 229.9 236.55 243.8 250.75 257.3 262.5 269.15 281.05 287.9 295.65 302.9 312.3 319.55 326.5 338.4 345.55 349.55 356 361.3 366.5 373.3 ">2007,deuxpersonnesd&#x2019;uneentrepriseadapt&#xE9;epourunepresta-</text>
<text y="865.1" x="398.2 404.95 414.55 425.6 432.45 436.2 444.15 451.45 458.95 464.45 469.65 475.4 478.2 487.15 493.05 500.7 503.95 506.8 513.3 518.95 524 530.4 536.2 539 547.6 554.75 561 566.2 571.6 576 582.7 588.35 593.75 596.4 604.05 613.2 619.45 627.35 630.15 639.45 643.3 649.75 654.9 662.1 668.45 671.25 677.4 684.35 693 700.1 706.35 714.25 720.15 727 730.75 735.8 743.4 750.15 756.5 763.25 769.5 ">enmars2017,lacollecte,ladestructionetlerecyclagedescartouches</text>
<text y="882.65" x="1 6.5 9.35 17.1 30.35 37.75 40.5 47.1 53.2 59.6 66.5 73.45 76.6 79.6 89.3 95.35 103.15 110.4 114.9 119.4 122.2 129.2 132.85 143 146.95 153.95 161.1 165.1 172.25 179.7 183.8 190.8 198.05 205.25 208.05 221.3 227.7 240 242.95 250.05 257.45 260.05 265.4 270.95 273.75 281.3 288.2 301.2 308.45 314.9 326.95 332.5 339.55 342.95 345.9 352.3 364.3 371.55 398.2 405.4 408.3 415.15 421.9 428.2 432.05 441.65 448.15 453.6 459.8 466.7 473.2 479.45 487.45 492.95 500.55 507.05 514.85 520.8 528.4 535.1 542.55 548.8 557 563.85 570.15 578.65 586.8 591.85 598.75 601.95 604.6 611.45 615.25 623.2 630.65 640.85 647.7 654.95 660.85 667 673.95 683.2 689.4 697.2 706.9 709.85 711.1 719.5 724.75 730.2 737.45 743.7 746.35 752.55 757.95 760.6 768.2 ">tiond&#x2019;accueil,courrier,reprographieetlogistiquedessallesded&#x2019;encreusag&#xE9;essontconf&#xE9;sauxAteliersduBocageet&#xE0;l&#x2019;Association</text>
<text y="900.2" x="1.65 5.6 12.6 19.85 27.1 29.85 37.6 44.85 51.8 60.95 72.3 79.1 86.1 90.05 95.6 103.4 110.65 117.55 124.6 131.6 137.7 145.45 152.1 158.05 160.85 168.1 175.1 179.1 189.8 195.85 203.6 215.25 226.45 236.55 242.15 246.15 252.55 261.75 269.3 276.4 283.55 286.5 297.2 303.55 312.25 317.8 321.8 328.25 338.25 345.45 349.45 356.75 361.05 367.5 373.3 ">r&#xE9;union.Unpersonnelconsid&#xE9;r&#xE9;commetr&#xE8;sfableettr&#xE8;spro&#xE000;es-</text>
<text y="900.2" x="398.2 405.3 411.55 420.2 426.8 433.65 437.65 444.55 446.45 453.6 459.05 465.35 473.3 480.4 490.35 495.95 499.95 506.85 513.55 519.5 529.3 532.7 542 549.05 554.6 562.1 569.5 577.15 583.85 591.45 598.55 605.8 608.55 617.3 622.35 629.3 634.35 641.25 644.4 646.8 651.85 660.8 667.95 674.2 682.25 688.05 690.45 695.5 701.75 710.65 716.75 724.4 727.25 736.5 743.35 754.8 761.85 764.7 772.3 ">desparalys&#xE9;sdeFrance(APF34)pourlatotalit&#xE9;dessitesP&#xF4;leemploi</text>
<text y="917.75" x="1.1 7 9.85 17.6 24.85 31.75 38.8 42.05 47.05 54.5 61.95 68.95 75.55 83.85 90 97.75 104.6 112.2 121.7 128.95 135.95 143.1 150.3 152.95 162.05 ">sionnel.Ayantconf&#xE9;depuisp</text>
<text y="917.75" x="169.3 172.6 179.3 185.25 188.05 195.05 202.3 206.25 215 222 229.25 236.15 242.75 249.2 257.95 264.9 274.75 280.3 287 292.8 298 305 312.2 319.95 327.05 331.05 338.25 343.45 349.75 356.8 366.65 373 398.2 405.3 416.6 427.2 433.4 438.8 442.65 450.2 456.95 464.6 467.45 478.05 484.2 493.15 500.3 510.65 518.65 526.25 530.05 535.55 542.3 549.2 558.2 569.45 576.05 582.9 586.65 591.7 598.55 605.25 612.1 616.45 619.1 625.3 634.85 638.7 645.55 652.05 657.3 663.1 669.9 675.9 682.5 688.95 698.8 709.2 713.35 720.8 726.7 738 746.5 753.35 760 767 772.05 ">lusieursann&#xE9;esausecteurprot&#xE9;g&#xE9;etdeM&#xE9;tropoleetdeCorse.Unpartenariatr&#xE9;ussiavecO&#xE000;fceD&#xE9;p&#xF4;t,</text>
<text y="935.3" x="1.25 7.85 15.1 22.1 28.6 33.85 44.6 47.7 50.75 57.75 64.35 69.85 73.85 80.25 85.8 88.6 95.6 105.9 113.15 119.6 128.85 135.3 141.3 148.05 154.7 160.75 167.1 175.7 182.35 189.35 193.3 198.3 207.95 215.15 222.3 224.95 234.7 237.65 247.95 254.05 261.8 265.25 268.2 274.8 280.65 285.8 296.15 302.55 311.8 314.8 325.55 329.55 336.15 341.4 348.75 355.25 358.2 364.55 371.55 398.2 405.3 411.45 416.55 423.4 429.9 434.9 441.7 448.85 457.45 464.95 476.95 487.95 494.85 498.7 505.05 511.7 518.2 525.7 533.15 540.25 548.15 554.8 561.65 566.05 577.1 583.35 593.25 600.1 606.6 611.85 617.65 624.9 632.05 643.8 647.65 653.65 660.25 667.05 673.8 681.3 685.15 696.5 708.55 714.6 722.3 725.1 736.5 743.35 754.75 761.85 764.7 772.25 ">adapt&#xE9;l&#x2019;entretiendesespacesvertspuislacollecteetlerecyclaged&#xE9;tenteurdumarch&#xE9;,quipermetaussiderevendre&#xE0;P&#xF4;leemploi</text>
<text y="952.8" x="1.25 8.5 15 24.85 32.1 38.7 45.2 52.1 58.45 63.45 73.95 80.7 87.7 94.85 97.6 104.65 108.35 116.35 119.3 130.85 134.8 141.1 148.55 151.35 159.1 ">desd&#xE9;chetspapier,lar&#xE9;gion</text>
<text y="952.8" x="171.25 176.6 185.35 193.3 206.55 213.55 220.75 227.95 231.95 238.55 244.95 247.8 259.3 262.3 268.75 278.9 284.95 292.7 304.3 311.05 317.45 322.65 329.65 336.55 342.55 349 358.8 366.15 372.55 ">PACAappr&#xE9;cielescomp&#xE9;tencesdes</text>
<text y="952.8" x="398.55 401.4 407.7 416.15 422.05 428.9 432.65 437.7 445.3 452.05 458.4 465.15 471.4 479.6 486.8 489.7 496.55 503.3 509.6 513.45 523.3 527.15 533.6 539.55 547.15 553.9 561.35 563.75 569.1 571.8 579.4 586.5 593.25 599.7 606 611.75 ">lescartouchesd&#x2019;encrereconditionn&#xE9;es.</text>
<text y="970.35" x="1.25 7.85 15.5 22.7 25.85 32.7 39.1 45 50.95 56.35 62.8 70.95 77 84.8 96.35 107.55 114.55 121.45 128.7 135.05 142.95 150.25 160.05 166.3 174.05 177.05 186.25 193.25 204.8 212.05 215 222.75 227.9 233.5 241.25 247.9 255.55 262.55 265.75 272.4 278.3 283.4 290.7 297.05 304.95 312.7 319.9 326.7 334.5 338.4 343.95 351.2 358.4 360.95 366.15 372.55 ">&#xE9;quipes.LescommandesdeP&#xF4;leemploisontainsidesopportunit&#xE9;s</text>
<text y="987.9" x="1.25 8.7 11.35 18 24.1 30.1 37.85 49.5 56.3 62.6 70.05 76.95 83.95 91.25 97.35 103.75 112.85 120.05 127.35 134.5 137.8 140.55 146.5 154.45 161.1 168.1 172.05 181.3 184.35 187.45 194.35 206 213.25 216.2 223.95 227.05 ">d&#x2019;accompagnercespublicsversl&#x2019;emploi.</text>
</g>
<g class="s0CkoBRa44" transform="translate(391.4 201.65)" >
<text y="0" x="0 13.15 24.4 37.35 49.9 65.05 78.65 89.95 104.8 118.35 129.6 140.85 152.85 162.3 172.95 187.8 199.6 210.85 225.8 239.15 ">RESPONSABLES,PARTOUT</text>
<text y="27.5" x="34.45 46.95 61.3 77.9 89.15 102.85 115.45 127.55 140.7 153.85 158.55 169.8 184.95 190.6 203.8 ">SURLETERRITOIRE</text>
</g>
<g class="s0CkoBRa45" transform="translate(466.05 119.15)" >
<text y="0" x="0 3.5 10.35 16.85 25.05 32.1 39.85 47.15 54.8 62.55 65.65 74.95 83.3 ">ILLUSTRATIONS</text>
</g>
<g class="s0CkoBRa46" transform="translate(452.65 48.75)" >
<text y="0" x="0 6.6 12.35 18.05 24.2 30.6 36.6 42 48.05 54.45 57.65 63.35 70.8 77 83 88.5 94.7 104.35 110.75 114 ">Responsablesensemble</text>
</g>
<g class="s0CkoBRa47" transform="translate(499.9 1408.45)" >
<text y="0" x="0 7.1 11.4 20.8 ">-17-</text>
</g>
</svg>
