<?xml version="1.0" encoding="UTF-8" standalone="no"?>
<!DOCTYPE svg PUBLIC "-//W3C//DTD SVG 1.1//EN" "http://www.w3.org/Graphics/SVG/1.1/DTD/svg11.dtd">
<svg xmlns="http://www.w3.org/2000/svg" xmlns:xlink="http://www.w3.org/1999/xlink" version="1.1"
     viewbox="0 0 1024.00 1448.20" width="1024.00" height="1448.20" style="overflow:hidden" xml:space="preserve">
<defs>
<style type="text/css">
<![CDATA[
@font-face { font-family: 'f3G2aBRa413#25'; font-weight: normal; font-style: normal;  src: url(svg/font12.ttf) format('truetype'); }
@font-face { font-family: 'f3G2aBRa416#39'; font-weight: normal; font-style: normal;  src: url(svg/font15.ttf) format('truetype'); }
@font-face { font-family: 'f3G2aBRa412#20'; font-weight: normal; font-style: normal;  src: url(svg/font11.ttf) format('truetype'); }
@font-face { font-family: 'f3G2aBRa417#44'; font-weight: normal; font-style: normal;  src: url(svg/font16.ttf) format('truetype'); }
@font-face { font-family: 'f3G2aBRa415#34'; font-weight: normal; font-style: normal;  src: url(svg/font14.ttf) format('truetype'); }
@font-face { font-family: 'f3G2aBRa418#49'; font-weight: normal; font-style: normal;  src: url(svg/font17.ttf) format('truetype'); }
@font-face { font-family: 'f3G2aBRa410#57'; font-weight: normal; font-style: normal;  src: url(svg/font9.ttf) format('truetype'); }
@font-face { font-family: 'f3G2aBRa411#15'; font-weight: normal; font-style: normal;  src: url(svg/font10.ttf) format('truetype'); }
@font-face { font-family: 'f3G2aBRa414#29'; font-weight: normal; font-style: normal;  src: url(svg/font13.ttf) format('truetype'); }

.s3G2aBRa40 { fill: rgb(  3,  56, 120); font-family: 'f3G2aBRa410#57'; font-size: 12.00px; }
.s3G2aBRa41 { fill: rgb(  0,  74,  78); font-family: 'f3G2aBRa411#15'; font-size: 12.00px; }
.s3G2aBRa42 { fill: rgb( 51, 125, 109); font-family: 'f3G2aBRa412#20'; font-size: 65.35px; }
.s3G2aBRa43 { fill: rgb( 51, 125, 109); font-family: 'f3G2aBRa411#15'; font-size: 65.35px; }
.s3G2aBRa44 { fill: rgb(  0,  74,  78); font-family: 'f3G2aBRa413#25'; font-size: 24.05px; }
.s3G2aBRa45 { fill: rgb(255, 255, 255); font-family: 'f3G2aBRa414#29'; font-size: 25.80px; }
.s3G2aBRa46 { fill: rgb( 51, 125, 109); font-family: 'f3G2aBRa415#34'; font-size: 41.25px; }
.s3G2aBRa47 { fill: rgb(  3,  56, 120); font-family: 'f3G2aBRa416#39'; font-size: 18.90px; }
.s3G2aBRa48 { fill: rgb( 51, 125, 109); font-family: 'f3G2aBRa417#44'; font-size: 17.20px; }
.s3G2aBRa49 { fill: rgb( 74,  74,  73); font-family: 'f3G2aBRa418#49'; font-size: 15.45px; }
]]>
</style>
</defs>
<image x="0" y="0" width="1024" height="1448.2" xlink:href="svg/svg.jpg"/>
<g class="s3G2aBRa40" transform="translate(468.35 48.75)" >
<text y="0" x="0 6.75 12.85 19.25 ">Rapp</text>
<text y="0" x="25.4 31.75 36.15 42.4 49.25 56.35 64.25 70.75 77.6 82.1 ">ortRSE2017</text>
</g>
<g class="s3G2aBRa41" transform="translate(499.4 1408.45)" >
<text y="0" x="0 7.15 11.65 21.8 ">-10-</text>
</g>
<g class="s3G2aBRa42" transform="translate(290.95 520.6)" >
<text y="0" x="0 41.4 74.1 119.7 154.4 176.1 209.8 242.45 276.4 287.2 315.8 348.55 370.45 382.2 416.9 ">Uneorganisation</text>
</g>
<g class="s3G2aBRa43" transform="translate(313.9 582.5)" >
<text y="0" x="67.45 97.6 112.2 133.15 167.35 200.8 234.5 268.6 301.75 ">citoyenne</text>
<text y="61.85" x="0 33.7 69.5 92.1 123.15 154.15 187.7 222.4 254.95 284.1 317.15 351.7 369.15 ">etresponsable</text>
</g>
<g class="s3G2aBRa44" transform="translate(83.2 728.95)" >
<text y="0" x="208 221.1 233.4 245.9 258.55 271.7 283.85 290.2 304.9 316 334.3 347.1 353.45 365.6 370.95 382.85 389.15 405.1 417.4 423.55 434.45 445.55 453.9 463.6 469.8 478.75 493.45 504.05 513.55 526.55 539.05 551.5 566.4 575.15 581.4 591.4 603.9 614.5 623.75 633.3 645.15 ">PourP&#xF4;leemploi,ladiversit&#xE9;estunerichesse.</text>
<text y="28.85" x="169.85 182.2 195.05 207.5 219.8 231.8 244.8 254.4 266.55 285.45 304.2 314.8 328.15 340.25 349.15 358.1 369.2 381.6 390.7 396.95 404.4 417.75 433.8 440.15 456.1 468.5 480.8 493.1 499.55 505.75 514.65 529.4 541.55 556.25 567.25 573.5 588.15 600.55 616.65 625.75 634.4 646.55 657.4 669.75 676.05 683.3 ">Etnoussommesattentifs&#xE0;laqualit&#xE9;devieautravail.</text>
<text y="67.5" x="6.8 18.45 26.8 34.8 48.2 56.2 66.05 74.45 86.45 97.85 109.2 118.1 129.7 141.25 146.85 156.2 166.5 176.45 182.8 192.7 201.5 212.8 224.45 235.75 244.25 253.3 261.8 272.5 285.25 290.85 301.45 313.4 324.95 336.7 347.9 353.5 367.55 379.65 385.25 396.8 408.55 418.7 426.95 438 446.7 461.25 472.8 484.2 496.25 508 519.25 527.65 535.55 548.8 560.3 571.65 589.75 601.3 606.9 618.65 628 638.3 647.4 657.8 663.4 677.9 687.05 698.5 709.9 718.9 724.05 732.8 741.05 754.3 768.8 780.4 786.05 804.15 809.8 821.8 833.45 843.8 ">&#xCA;treresponsable,c&#x2019;estaussiagirpourlaplan&#xE8;te.Dansnotredomaine,celaconsiste&#xE0;diminuer</text>
<text y="96.4" x="28 40.45 52.35 61.55 70.2 84.95 95.95 114.3 127.15 135.8 146.85 153.25 165.6 174.6 189.35 199.2 211.5 220.35 232.45 244.65 257.1 271.8 282.85 299.25 307.95 318.9 331.3 343.75 349.65 359.2 371.5 383.9 396.8 403.1 413.7 427.1 438.15 457.05 462.9 472.15 481.9 488.1 500.25 512.4 525.75 537.9 551.9 565.15 577.15 592.4 608.3 619.25 627.05 634.9 645.8 658.5 670.65 685.05 694.55 705.65 714.55 723.25 737.5 750.3 759 771.05 783.4 795.9 802.05 811.05 821.65 ">notreempreintecarboneenr&#xE9;duisantles&#xE9;missionsdegaz&#xE0;effetdeserreproduites</text>
<text y="125.3" x="0 12.1 24.45 36.55 50.05 57.2 64.2 74.35 86.7 97.85 106.55 116.55 122.7 132.6 147.35 159.5 174.35 186.8 198.5 211.85 224 233.8 242.9 249.1 260.15 266.3 275.25 285.85 294.6 306.35 317.2 329.95 345.85 358 367.9 377.75 389.9 408.2 420.9 432.3 445.75 458.2 469.25 481.9 488.25 498.8 511.45 524.9 533.55 545.9 558.3 570.4 581.05 594.55 613.55 625.8 634.8 646.9 656 662.25 674.4 686.5 699.8 712 726.8 739.3 751.3 760.4 769.05 783.4 793.05 805.05 815.05 821.3 832.2 841.15 852.95 ">dansl&#x2019;exercicedenosactivit&#xE9;s,et&#xE0;accompagnerlesgrandesmutationsdenotresoci&#xE9;t&#xE9;.</text>
</g>
<g class="s3G2aBRa45" transform="translate(371.85 983.6)" >
<text y="0" x="0 11.25 22.5 38.25 52 64.5 77.05 82.25 97.35 111 128.2 144.6 156.75 171 183.1 194.35 211.5 223.65 241.25 253 265.75 274.4 ">LESACTIONSMEN&#xC9;ESEN2017</text>
</g>
<g class="s3G2aBRa46" transform="translate(505.95 1040)" >
<text y="0" x="0 ">&#x2022;</text>
</g>
<g class="s3G2aBRa47" transform="translate(314.1 1062.7)" >
<text y="0" x="76 85 95.9 106.3 117.5 126 136.85 146.8 158.55 166.5 174.5 186 196.05 207 214.9 222.25 232.65 242.15 253 262 271 280 288.4 298.75 307.9 316.65 ">POURTOUSLESCOLLABORATEURS,</text>
<text y="22.7" x="0 10.35 20.75 31.25 40.25 51.25 59.25 63.25 72.35 76.8 87.75 98.1 108.6 118.25 130.7 140.3 148.3 158 167 177.95 187.85 196.6 207 216.65 224.6 234.4 244.4 256.5 266.15 274.65 279.25 291.75 302.15 310.1 321.4 331.1 339.5 348.15 358.5 362.9 373.15 381.15 392.85 ">UNEPOLITIQUERHRESPONSABLEAUSEINDESSERVICES!</text>
</g>
<g class="s3G2aBRa48" transform="translate(105.9 1133.9)" >
<text y="0" x="0 8.35 17.5 25.25 35.15 44.5 50.65 59 68.15 77.15 86.75 91.4 103.35 117.65 121.25 130.65 134.35 141.6 153.45 162.4 172.2 181.6 190 197.2 207.05 215.7 222.95 231.45 242.45 247.2 255.65 266.25 274.1 283.9 298.4 307.25 315.65 322.85 331.85 340.95 348.75 357.25 ">Encouragerlamixit&#xE9;pourtouteslescomp&#xE9;tences</text>
<text y="0" x="490.65 502.2 512 521.4 530.5 539.5 548.95 558.3 570.7 579.8 589.6 598.15 607.05 615.75 624.7 636.45 644.15 653.95 662.75 669 680.6 692.2 704.2 708.9 720.15 729.85 738.9 748 752.8 756.55 763.75 ">Donnerunnouveausou&#xE000;fe&#xE0;laqualit&#xE9;</text>
<text y="18.5" x="574.05 583.5 594.25 603.45 607.5 619.05 628.05 639.35 646.9 653.1 661.25 670.3 679.1 683.6 ">devieautravail</text>
</g>
<g class="s3G2aBRa49" transform="translate(73.25 1162.2)" >
<text y="0" x="0.15 13 19.75 28.25 31.55 41.5 49.05 61.5 69.3 72.6 80.9 84.05 90.6 ">&#xC0;P&#xF4;leemploi,p</text>
<text y="0" x="147.7 154.25 161.4 169.65 174.05 183.8 190.25 198.05 205.15 213 220.55 227.5 237.65 244.6 250.4 259.25 267.05 274.5 284 288.7 296.25 308.7 320.7 328.2 333.1 342.45 351.05 361 368.85 379.25 382.95 390.1 395.45 401.1 408.65 ">cadresurdeuxestune&#xE000;emme.Afndelutter</text>
<text y="0" x="98.4 102.1 109.3 117.9 125.85 129.65 137.45 ">lusd&#x2019;un</text>
<text y="18.55" x="0.5 6.9 15.15 22.15 28.05 32.25 42.3 45.5 52.3 60.9 67.75 71.25 74.25 81.1 88.4 95.15 104.15 108.4 115.8 123.05 129.5 137.7 144.75 150.6 154.85 161.65 169.9 177.55 184.95 192.05 201.05 204.2 211 219.95 231.85 238.6 244.45 247.4 254.8 259 267.25 275.35 285.65 293.35 301 312.85 320.25 325.05 328 336.05 343.3 350.3 356.6 359.75 370.1 379.6 382.95 387.2 394.2 400.35 406.2 409.2 417.4 449.2 459.05 471.05 478.7 482.35 485.45 493.85 498.2 505.8 513.6 516.85 526.85 533.4 541.8 549.25 556.15 559.75 563.4 566.5 573.4 579.4 582.5 590.9 601.15 608.7 615.85 621.9 626.3 635.4 643.15 646.3 656.65 664.4 668.8 676.7 681.45 688.4 694.25 700.7 703.85 712.2 720.05 727.5 735.1 738.85 742.15 752.1 759 766.65 774.35 777.5 787.85 795.6 800.55 803.2 810.45 817.6 824.75 ">contrelesclich&#xE9;srencontr&#xE9;sdanslesm&#xE9;tiersdunum&#xE9;rique,laDirectionAm&#xE9;liorerlaconciliationentreviepro&#xE000;essionnelleetviepriv&#xE9;e,</text>
<text y="37.1" x="0.5 8 14.65 22.7 28.5 35.75 39.55 46.95 49.8 56.05 62.65 71.3 74.5 81.6 86 94.1 98.75 110.4 117 122.7 125.5 133.4 140.5 147.15 156 160.65 169.85 177.65 180.25 187 191.35 197.8 204.75 212.8 217.4 220 225.8 235.6 238.6 248.3 252.4 259.25 265.9 270.55 277.4 282.75 290 301.7 308.95 315.8 323.3 330.85 339.7 344.15 351.4 363.5 375.2 381.85 389.8 397.3 404.55 411.5 ">desservicesin&#xE000;ormatiques(DSI)&#xE000;avoriselerecrutementde&#xE000;emmesdans</text>
<text y="37.1" x="449.95 457.4 465.1 470.75 478.3 490.7 502.75 510.3 517.45 525.9 532.6 539.85 547 556.85 560.1 569.8 577.45 585 592.45 600 604.5 612.15 615.8 618.7 624.75 631.65 637.65 640.8 649.15 659.1 667.35 676.95 682.6 690.25 693.55 700.4 706.45 711 717.7 725.05 732.6 736.15 739.4 745.6 752.3 755.7 762.65 768.45 777.35 780.75 783.45 791.9 797.8 802.85 810 816.3 822.3 825.4 832.6 ">notammentaveclag&#xE9;n&#xE9;ralisationdut&#xE9;l&#xE9;travail,c&#x2019;estl&#x2019;objecti&#xE000;d</text>
<text y="37.1" x="840.85 ">u</text>
<text y="55.75" x="0.25 6.2 13 21.3 27.3 34.7 38.65 46.2 49.2 55.6 62.4 68.65 74.9 81.4 89.75 92.9 102.55 109.95 122.2 129.9 133 141.2 147.2 151.45 158.45 165.4 169.9 178.35 183.1 195 204.45 210.4 218.6 228.55 235.95 242.95 250.4 257.1 264.6 272 283.85 291.25 298.3 306.1 313.75 321.15 328.25 337.25 340.4 350.5 354 361 366.25 371.75 381.4 387.8 396.05 403.05 408.95 413.15 ">sesservices.P&#xF4;leemploir&#xE9;a&#xE000;frmesonengagementdanslaluttecontre</text>
<text y="55.75" x="449.95 457.55 466.1 473.2 480.65 488.4 494.8 502.1 508.85 515.6 524.1 528.65 539.4 546 554 562.1 565.55 575.5 583.85 591.4 599.2 603 606 611.8 621.75 629.75 639.2 647.1 650.4 660.65 668.35 678.3 684.5 689.2 696.05 703.55 711.2 714.95 721.35 729.5 738 744.3 752.15 757.6 765.75 774.2 780.8 789.05 795.3 801.9 804.9 ">nouvelaccordsurlaqualit&#xE9;devieautravail2017-2019,sig</text>
<text y="55.75" x="813.1 820.7 ">n&#xE9;</text>
<text y="74.3" x="0.2 6.15 14.8 22.25 28.3 38.3 43.4 52.1 57.35 69.65 80 88.15 98.4 106.95 110.15 116.55 123.8 129.05 132.9 145.55 149.4 157.1 164.3 170.65 174.05 182.75 193.6 200.6 208.2 215.65 226.1 229.7 240.05 246.8 249.95 258.3 266 273.2 279.55 287.7 292.35 302.65 310.95 315 323.15 333.95 341.45 348.35 355.2 363.9 368.6 380.25 384.95 392.85 396.45 403.65 409.95 413.35 ">toute&#xE000;ormedediscriminationaveclasignatured&#x2019;unaccordrelati&#xE000;</text>
<text y="74.3" x="450.05 453.35 463.25 469.45 480.1 492.1 499.65 504 512.85 520.85 529.15 535.35 541.4 547.95 552.85 555.85 563.05 569.6 576.2 584.55 588.95 598.75 606.5 609.4 615.5 625.45 633 640.2 646.05 652.5 658.4 668.75 676.5 680.9 687.85 693.95 701.5 705.6 712.85 720.4 728.25 731.5 741.15 749.35 756.75 764.35 768 770.85 776.5 786.15 794 800.95 810.25 814.65 822.25 825.5 832.4 838.4 841.55 849.9 857.15 ">le17mars2017.L&#x2019;accordviseaussi&#xE0;pr&#xE9;serverlaqualit&#xE9;desrelations</text>
<text y="92.85" x="0.45 11.2 14.75 18.25 25.25 33.05 40.8 44.65 47.65 53.45 64.15 72.05 76.6 84.65 89.55 96.65 102.7 109.3 112.55 121.1 129.1 136.7 144.45 148.35 151.8 161.6 166.5 174.2 186.75 198.95 205.9 212.3 219.9 228.45 241 253.2 263.5 270.55 279.25 290 293.4 303.7 310.45 318.95 326.55 333.65 337.4 341.2 344.45 351.5 357.65 360.95 369.45 380 387.75 395.05 401.25 405.8 ">&#xE0;l&#x2019;&#xE9;galit&#xE9;pro&#xE000;essionnelle&#xE000;emme/hommeet&#xE0;laconciliationentre</text>
<text y="92.85" x="449.6 457.45 466.8 472.85 477.4 484.1 491.45 498.95 502.55 508.65 516.2 523.35 529.4 533.8 543.7 550.6 558.25 565.8 572.95 578.4 584.4 590.6 600.05 604.75 611.45 618.75 627.1 632 634.95 641 648.55 656.4 659.7 667.25 675.05 682.45 689.15 696.85 704.6 709 715.95 721.8 728.25 731.4 739.75 750 756.9 765.3 775.25 782.45 789 795.6 803.95 816.4 823.7 830.6 838.6 846.05 853.6 ">detravailentreagents,&#xE0;&#xE000;avoriserleurexpressionet&#xE0;accompagner</text>
<text y="111.5" x="0 7.9 11.2 18.25 27.9 35.8 40.3 48.4 53.3 60.4 66.4 73.05 76.3 84.85 92.85 100.4 108.2 112.1 115.55 122.85 128.85 133.7 141.4 153.95 157.7 161.5 ">viespro&#xE000;essionnelle,&#xE000;amili</text>
<text y="111.5" x="164.75 172.5 175.95 186.25 193.3 202.45 209.95 217.7 222.2 228.4 236.95 244.95 252.55 260.3 264.2 267.65 275.3 282.15 288.25 298.2 306.2 313.9 319 326.95 330.25 337.95 345.6 352.95 359.65 366.4 374.95 379.5 390.4 400.7 407.75 413.55 ">aleetpersonnelle.Ledernieraccorda&#xE9;t&#xE9;</text>
<text y="111.5" x="450.05 453.45 456.8 463.55 470.8 479.25 482.9 490.05 496.05 499.2 507.55 517.5 525.35 535.8 539.2 541.9 550.3 554.45 562.05 569.6 577.4 580.35 586.4 593.3 599.3 602.4 610.8 620.75 628.95 638.6 644.65 649.2 655.9 663.25 670.75 674.35 677.95 ">l&#x2019;&#xE9;volutiondel&#x2019;organisationdutravail.</text>
<text y="130" x="0.25 6.7 9.5 17.5 25 35 42.55 52.45 60.4 66.75 72.4 80.85 88.55 92.9 102.9 110.9 119.2 125.75 137.05 144.35 151.9 158.7 164.75 169.1 177.45 180.4 188.95 197.3 201.5 209.1 216.65 224.45 227.35 233.45 240.3 246.3 249.45 257.85 265.05 273.75 278.95 287.4 294.85 303.05 306.2 312.75 320.35 323.65 330.6 337 ">sign&#xE9;enoctobre2016partroisorganisationssyndicales.</text>
</g>
</svg>
