<?xml version="1.0" encoding="UTF-8" standalone="no"?>
<!DOCTYPE svg PUBLIC "-//W3C//DTD SVG 1.1//EN" "http://www.w3.org/Graphics/SVG/1.1/DTD/svg11.dtd">
<svg xmlns="http://www.w3.org/2000/svg" xmlns:xlink="http://www.w3.org/1999/xlink" version="1.1"
     viewbox="0 0 1024.00 1448.20" width="1024.00" height="1448.20" style="overflow:hidden" xml:space="preserve">
<defs>
<style type="text/css">
<![CDATA[
@font-face { font-family: 'f00yhBRa412#25'; font-weight: normal; font-style: normal;  src: url(svg/font11.ttf) format('truetype'); }
@font-face { font-family: 'f00yhBRa415#39'; font-weight: normal; font-style: normal;  src: url(svg/font14.ttf) format('truetype'); }
@font-face { font-family: 'f00yhBRa411#20'; font-weight: normal; font-style: normal;  src: url(svg/font10.ttf) format('truetype'); }
@font-face { font-family: 'f00yhBRa416#44'; font-weight: normal; font-style: normal;  src: url(svg/font15.ttf) format('truetype'); }
@font-face { font-family: 'f00yhBRa49#52'; font-weight: normal; font-style: normal;  src: url(svg/font8.ttf) format('truetype'); }
@font-face { font-family: 'f00yhBRa414#34'; font-weight: normal; font-style: normal;  src: url(svg/font13.ttf) format('truetype'); }
@font-face { font-family: 'f00yhBRa410#15'; font-weight: normal; font-style: normal;  src: url(svg/font9.ttf) format('truetype'); }
@font-face { font-family: 'f00yhBRa413#29'; font-weight: normal; font-style: normal;  src: url(svg/font12.ttf) format('truetype'); }

.s00yhBRa40 { fill: rgb(  3,  56, 120); font-family: 'f00yhBRa49#52'; font-size: 12.00px; }
.s00yhBRa41 { fill: rgb(  0,  74,  78); font-family: 'f00yhBRa410#15'; font-size: 12.00px; }
.s00yhBRa42 { fill: rgb( 51, 125, 109); font-family: 'f00yhBRa411#20'; font-size: 65.35px; }
.s00yhBRa43 { fill: rgb( 51, 125, 109); font-family: 'f00yhBRa410#15'; font-size: 65.35px; }
.s00yhBRa44 { fill: rgb(  0,  74,  78); font-family: 'f00yhBRa412#25'; font-size: 24.05px; }
.s00yhBRa45 { fill: rgb(255, 255, 255); font-family: 'f00yhBRa413#29'; font-size: 25.80px; }
.s00yhBRa46 { fill: rgb( 51, 125, 109); font-family: 'f00yhBRa414#34'; font-size: 41.25px; }
.s00yhBRa47 { fill: rgb(  3,  56, 120); font-family: 'f00yhBRa415#39'; font-size: 18.90px; }
.s00yhBRa48 { fill: rgb( 74,  74,  73); font-family: 'f00yhBRa416#44'; font-size: 15.45px; }
.s00yhBRa49 { fill: rgb( 74,  74,  73); font-family: 'f00yhBRa416#44'; font-size: 11.15px; }
]]>
</style>
</defs>
<image x="0" y="0" width="1024" height="1448.2" xlink:href="svg/svg.jpg"/>
<g class="s00yhBRa40" transform="translate(468.35 48.75)" >
<text y="0" x="0 6.75 12.85 19.25 ">Rapp</text>
<text y="0" x="25.4 31.75 36.15 42.4 49.25 56.35 64.25 70.75 77.6 82.1 ">ortRSE2017</text>
</g>
<g class="s00yhBRa41" transform="translate(499.6 1408.45)" >
<text y="0" x="0 7.05 11.5 21.35 ">-14-</text>
</g>
<g class="s00yhBRa42" transform="translate(182.05 519.45)" >
<text y="0" x="0 39.85 70.15 112.55 144.3 174.2 206.45 239.15 258.75 302.5 324.2 354.45 385.05 418.15 452.85 484.45 513.15 545.8 579.8 595.2 625.45 653.9 ">Desachatsresponsables,</text>
</g>
<g class="s00yhBRa43" transform="translate(109.75 519.45)" >
<text y="61.85" x="58.6 74.75 103.2 136 148.3 180.6 212.45 245.65 289.5 321.35 352.2 392.4 424.75 456.55 489.6 520.35 553.6 585.95 636.35 668.7 701.5 721.65 ">levierdenosengagements</text>
<text y="123.75" x="0 28.65 61.1 89.9 102.15 134.55 155.1 186.45 214 257.55 289.9 322.1 354.45 382.6 415.4 428.65 449.95 483.35 516.2 548 580.4 630.8 663.15 695.95 716.5 747.85 775.35 ">soci&#xE9;tauxetenvironnementaux</text>
</g>
<g class="s00yhBRa44" transform="translate(108.45 726.55)" >
<text y="0" x="20.35 31.1 43.1 53.45 63.6 72.6 81.3 90.3 102.7 109.65 121.65 133.6 147.5 165.9 171.3 180.05 189.3 195.05 206.7 222 233.65 247.05 256.15 266.75 274.95 285.5 291.2 300.6 313.95 326.4 338.4 350.2 356.15 361.9 370.45 381.2 396.15 407.8 417.95 427 435.6 441.5 453.45 465.1 473.7 479.45 491.1 506.4 516.9 531.8 544 555.8 563.9 572.55 578.3 587.9 599.9 605.9 611.65 622.3 633.8 645.4 655.55 667.55 679.8 686 697.5 709.9 717.4 725.55 736.55 749.5 755.3 761.15 771.3 779.55 ">Investid&#x2019;unemissiondeservicepublic,&#xE0;destinationenparticulierdesplus&#xE000;ragiles,</text>
<text y="28.9" x="99.1 111.8 123.45 129.35 143.1 153.7 171.5 183.85 189.7 201.35 210.55 228.8 239.4 251.35 265.4 277.35 289.35 302.65 314.85 326.55 332.5 338.2 346.85 352.55 364.5 376.35 390.1 402.55 409.15 420.8 430.3 442.3 453.9 462.05 474.6 482.8 492.9 501.6 513.75 525.4 537.05 546.15 558 569.8 575.65 585.75 598.15 607.75 619.65 630.3 648.05 660.4 666.3 678.05 683.9 692.15 703.5 ">P&#xF4;leemploim&#xE8;neunepolitiqued&#x2019;achatsresponsablesexemplaire.</text>
<text y="67.55" x="0 15.75 25.2 37.2 47.6 56.1 66.7 71.85 82.7 92.85 99.45 109.6 118.65 130.35 142.85 149.45 161.25 172.9 184.6 192.8 207.45 216.55 228.15 236.75 242.15 251.3 258.6 270.4 276.3 284.5 298.4 310.35 321.55 334.1 345.75 355.9 365 376.65 382.55 394.15 406.15 418.35 430.15 442.1 453.8 465.6 471.3 481.9 497.2 504.5 516.15 528.15 537.5 546.15 551.8 563.55 575.65 587.65 598.25 609.75 620.15 631.9 642.5 654.65 663 668.65 678.25 690.3 696.25 707.9 719.8 731.3 740 748.15 761.9 773.5 780.8 788.3 796.5 ">Acheter,c&#x2019;estd&#x2019;abordsatis&#xE000;airenosbesoinspourbien&#xE000;onctionneretenrichirnotreo&#xE000;&#xE000;re</text>
<text y="96.45" x="28.05 39.7 53.1 62.2 72.8 80.95 91.55 97.3 106.65 116.8 129.2 140.85 154.15 166.5 174.7 184.8 193.9 202.35 213.95 222.6 228.3 240 251.65 264.05 273.4 285.1 302.95 315.25 321.1 331.7 349.95 360.55 372.5 380.95 392.75 398.65 406.8 416.95 429.35 441.3 456.55 468.25 478.85 490.8 501.25 514.25 523.55 537.3 549.05 559.15 571.55 583.15 593.8 612.05 623.8 635.8 647.5 658.15 670.15 678.05 690.4 702.9 709.5 720.05 737.9 750.25 756.05 767.8 774.4 ">deservicesdeprestationscompl&#xE9;mentairesaub&#xE9;n&#xE9;fcedesdemandeursd&#x2019;emploi.</text>
<text y="135.1" x="93.2 108.05 118.05 130.5 142.5 147.9 159.85 172.2 178.3 189.85 199.1 204.8 215.55 227.5 235.4 247.8 259.6 271.7 283.7 294.15 304.25 312.5 323.5 336.15 347.8 353.65 367.4 378 395.85 408.15 414 425.7 434.4 444.3 450.9 461.5 472.75 485.55 496.5 509.3 522.55 534.8 546.55 558.55 570.05 582 593.8 607.3 616.4 630.9 643.05 654.75 660.75 666.4 675.05 680.8 692.75 704.55 ">Depuisplusieursann&#xE9;es,P&#xF4;leemplois&#x2019;engagepourquesapolitique</text>
<text y="164" x="76.05 88.45 95.1 106.7 116.3 128.25 139.85 151.3 160.4 172.1 177.75 189.7 197.9 208 216.7 228.85 240.55 252.2 261.3 273.1 284.9 290.75 300.35 311.05 319.55 331.35 343.25 354.7 364.05 376.05 387.7 393.55 406.9 419.2 425.05 436.85 452.15 462.75 474.7 485.25 491.1 499.3 511 523.05 535.05 545.65 563.9 574.55 586.4 594.9 606.75 615.9 627.8 639.65 653.05 662.15 673.65 683.25 688.9 699.4 707.8 719.65 726.3 ">d&#x2019;achatsoitresponsable,tantsurleplanenvironnementalquesoci&#xE9;tal.</text>
</g>
<g class="s00yhBRa45" transform="translate(371.85 981)" >
<text y="0" x="0 11.25 22.5 38.25 52 64.5 77.05 82.25 97.35 111 128.2 144.6 156.75 171 183.1 194.35 211.5 223.65 241.25 253 265.75 274.4 ">LESACTIONSMEN&#xC9;ESEN2017</text>
</g>
<g class="s00yhBRa46" transform="translate(210.95 1034.95)" >
<text y="0" x="0 ">&#x2022;</text>
<text y="0" x="294.55 ">&#x2022;</text>
<text y="0" x="594.9 ">&#x2022;</text>
</g>
<g class="s00yhBRa47" transform="translate(86.45 1057.7)" >
<text y="0" x="0 9.6 17.6 27.3 36.45 44.45 53.95 63.1 71.45 82.85 92.45 100.45 112.2 122.6 130.8 138.1 148.6 152.8 164.55 174.95 185.45 193.3 203.8 208.4 216.8 229.25 237.65 247.4 258.35 ">RESPECTERSESD&#xC9;LAISDEPAIEMENT:</text>
<text y="0" x="331.15 341.55 354.05 362.45 372.6 382.2 392 402.6 411 423.45 431.85 441.65 452.4 461.85 472.55 482.85 487.5 495.05 502.6 513 ">UNENGAGEMENTSOCI&#xC9;TAL</text>
<text y="0" x="642.15 651.8 660.05 670.4 680.9 685.5 695.15 707.8 718 727.9 737.05 746.65 757.25 761.8 774.3 782.15 792 801.5 ">R&#xC9;DUIRENOTREIMPACT</text>
<text y="22.7" x="0.25 10.45 20.6 30.75 39.8 48.6 57.3 66.3 70.55 81.2 91.45 101.55 111.15 113.55 123.2 133.2 142.7 151.45 162.25 171.7 179.5 188.95 197.8 208.55 218.3 226.85 237.05 246.5 254.25 ">UNEPRATIQUED&#x2019;ACHATRESPONSABLE</text>
<text y="22.7" x="300.65 309.05 321.3 331.35 342.3 352.65 360.85 370.5 378.9 389.1 399.3 409.15 417.95 428.2 436.25 448.55 458.75 469.2 480.9 493.4 497.65 506.8 516.5 520.9 531.9 541.8 ">ENCOH&#xC9;RENCEAVECNOSMISSIONS</text>
<text y="22.7" x="656.9 665.3 675 685.3 689.9 699.3 710.25 720.55 730.9 739.3 751.8 760.15 770 777.55 787.9 ">ENVIRONNEMENTAL</text>
</g>
<g class="s00yhBRa48" transform="translate(78.35 1129.15)" >
<text y="0" x="0.95 8.05 18.6 26.75 35.2 41.55 47.45 54.4 57.8 67.8 76.15 79.8 84.35 91.7 98.15 104.3 107.6 116.1 126.65 133.4 141.95 154.5 161.75 167.5 175.3 183.2 186.65 196.9 206.85 214.85 222.55 234.75 242.45 247.55 252.1 ">En2017,ladirectioncomptablead&#xE9;marr&#xE9;</text>
<text y="0" x="295.5 301.45 311.75 319.15 327.6 331.25 334.1 340.1 343.25 351.4 358.85 368.5 376.5 379.5 386.7 393.7 401.15 408 416.15 424 434.65 441.4 449.85 453.15 463.15 470.65 483.1 490.9 494.15 502.55 508.3 514.5 518.15 521.75 528.9 535.05 542 546.9 549.8 ">Lapolitiqued&#x2019;achatdeP&#xF4;leemplois&#x2019;inscrit</text>
<text y="0" x="595.85 603.4 606.3 613.55 622.85 630.75 637.85 647.65 650.6 660.35 672.05 677.5 682.25 690.3 694.9 697.4 702.8 711.85 719.35 726 734.65 746.35 753.6 757.65 764.4 771.55 778.15 786.15 793.65 803.75 810.15 818.3 821.25 830.6 837.85 849.95 857.5 860.45 868.5 ">Bienquelamajorit&#xE9;desmarch&#xE9;sdeP&#xF4;leemploi</text>
<text y="18.25" x="0.7 3.85 13.9 21.5 25.7 32.2 37.05 43.8 51.65 59.45 62 70.2 77.15 83 86.35 98.6 101.35 107.25 114 119.85 122.8 131.05 140.65 148.75 159.05 ">leprojetd&#x2019;optimisationdup</text>
<text y="18.25" x="166.6 170.05 173.2 180.75 186.2 192.9 200.4 209.75 217.45 224.25 232.5 240.2 247.65 250.8 258.15 260.9 ">ilotagedesd&#xE9;lais</text>
<text y="18.25" x="294.85 302.65 310.2 317.45 326.75 330.2 333.25 340.75 353.25 360.9 363.75 369.75 372.9 381.25 391.9 399.25 407.65 411.95 417.6 424.75 435.1 442.4 450 457.85 461.25 465.35 471.6 477.15 484.1 492.55 500.1 510.75 522.75 529.65 535.65 538.75 546.3 550.65 ">dansl&#x2019;ambitionport&#xE9;eparl&#x2019;&#xC9;tatenmati&#xE8;re</text>
<text y="18.25" x="595.15 601.6 609.8 617.1 623.5 630.9 635.65 643 652.35 660.05 666.85 675.8 683.4 687.65 694.4 700.1 705.55 712.3 718.15 721.1 729.35 736.4 745.35 748.65 755.65 761.15 768.65 772.25 775.4 782.4 788.55 794.4 801.65 809.15 812.75 815.9 822.7 831 839.2 ">concernedesprestationsintellectuellesou</text>
<text y="36.6" x="0.25 7.95 18 25.2 32.55 35.55 42.95 54.8 62.2 69.2 75.1 81.3 90.45 97.25 105.8 112.85 119 124.85 127.8 136 143.1 151.35 159.6 166.6 174.45 182.25 184.75 193 197.25 204 212.6 219.35 227.2 234.9 240.5 245.35 255 261.75 267.25 294.85 302.7 313 317.45 324.4 330.85 338.2 346.6 353.85 359.9 367.5 375.15 378.7 382.35 385.2 390.85 400.5 408.4 415.35 424.2 431.35 438.4 445.8 452.65 458.1 467.4 475.15 483.05 490.75 494.4 497.55 503.9 510.3 516.85 523.8 534.05 541.15 545.8 550.55 557.4 563.1 ">depaiement.Desactionsontd&#x2019;oresetd&#xE9;j&#xE0;&#xE9;t&#xE9;deresponsabilit&#xE9;desachatspublics.Ene&#xE000;&#xE000;et,</text>
<text y="36.6" x="595.15 602.65 609.35 618 625.4 629.5 636.15 641.65 646.9 653.55 659.25 662.05 670.1 677.05 685 692.55 701.65 707.4 714.65 718.5 725.9 728.75 735 741.8 748.1 754.5 762.65 765.65 775 782.25 794.35 801.85 804.85 812.85 818.55 821.9 828.9 834.4 841.1 849 853.2 ">desprestationsdeservice,P&#xF4;leemploiint&#xE8;gre</text>
<text y="54.9" x="0.65 12.85 20.55 28.15 35.45 42.55 51.75 59.45 67.4 75.35 79.85 86.95 95.85 103.85 114.6 118 129 138.65 146.95 152.8 159.75 168.2 177.75 185.65 189.25 196.5 203.95 208.75 220.65 228.85 236.5 239.25 245.2 252.6 259.65 266.4 ">men&#xE9;esaupr&#xE8;sdelaDSIafnd&#x2019;harmoniseret</text>
<text y="54.9" x="294.75 303.95 310.15 317.45 322.75 331.5 339 345.6 353.35 361.4 366.95 371.6 378.35 384.25 389.9 392.5 396.7 404.75 411.55 417.75 425.75 432.8 440.8 452.8 455.5 463.3 470.35 476.9 485.1 495.9 503.35 505.9 511.3 516.6 524.55 529.1 531.85 539.65 546.65 553.25 561.75 569.4 ">&#xE0;c&#xF4;t&#xE9;desobjecti&#xE000;s&#xE9;conomiques&#xAB;historiques&#xBB;,</text>
<text y="54.9" x="595.15 602.85 609.65 618.15 625.1 628.15 635.6 642.65 648.6 655.4 663.9 670.65 678.55 686.25 693.05 701.6 708.4 713.15 715.9 721.35 728.75 733 739.8 748.35 755.75 762.5 770.1 773.4 777.65 785.9 793.6 800.9 808.3 820.15 827.55 834.55 840.05 847.45 854.25 ">desclausesetdescrit&#xE8;resenvironnementaux</text>
<text y="73.25" x="0.25 7.95 17.4 23.35 30.35 37.15 44.8 49.6 52.35 58.25 65.65 73.1 80.7 88.65 98.2 106.15 110.65 118.8 125.55 132.65 138.7 145.3 152.65 159.2 166.1 173 180.75 188.35 196 199.75 203.7 207.15 214.85 222.8 227.35 233.5 240.45 244.05 247.25 254.95 267.35 ">des&#xE9;curisernosprocessus.Parailleurs,l&#x2019;am-</text>
<text y="73.25" x="295.25 298.45 305.25 313.5 321.75 327.5 332.4 339.4 345.5 351.4 354.35 358.7 366.95 375 377.7 383 391.65 402.35 408.25 416.15 422.9 425.9 432.6 438.1 445.5 452.3 462.6 472.85 480.55 490.65 493.9 496.8 503.8 510.65 517.9 524.65 533.15 540.8 548.55 556.1 559.6 562.6 ">lesobjecti&#xE000;sdits&#xAB;soci&#xE9;taux&#xBB;del&#x2019;achatpublic</text>
<text y="73.25" x="594.9 601.25 608.9 615.65 623.35 630.15 639.1 650.9 658.35 662.6 669.4 676.75 683.55 692.5 699.75 707.9 715.6 723.1 726.4 729.6 737 744.1 750 757.4 769.75 777.3 780.4 789.8 797.5 804.3 813.25 817.5 824.2 832.05 835 843.25 850.3 856.2 ">surdesmarch&#xE9;spourl&#x2019;ensembledesr&#xE9;gions,</text>
<text y="91.5" x="0.7 8.5 11.5 17.7 20.95 29.5 39.75 47.75 58 64.75 75.4 83 87.25 93.7 98.6 105.3 113.45 120.25 125.9 133.75 141.55 144.45 151.45 159.6 166.9 174.3 178.5 185.9 192.95 203 206.3 208.85 217.15 224.05 230 237.4 241.35 248.55 255.8 ">bitiondeceprojetestd&#x2019;adh&#xE9;rer&#xE0;l&#x2019;observa-</text>
<text y="91.5" x="294.85 303 310 318.2 325.6 337.5 344.9 348.9 356.4 366 372.5 379.25 387.5 395.25 402.65 407.45 415.1 418.05 425.45 429.7 436.5 445 452.4 460.1 467.4 474.4 481.15 489.55 495.5 503.65 510.75 519.8 523.05 526.65 530 542.25 549.85 557.6 560.9 ">ont&#xE9;merg&#xE9;cesderni&#xE8;resann&#xE9;essousl&#x2019;impul-</text>
<text y="91.5" x="595.15 601.4 609.5 621.6 633.3 643.05 650.1 657.35 664.1 670.5 677.25 684.5 696.6 704.15 707.1 716.9 719.9 726.55 735.15 746.9 754.15 758.15 764.9 772.05 778.65 786.65 794.6 804.6 811.75 818.3 823.35 828.7 835.3 843.05 849.6 856.95 863.75 ">commeparexemplelesmarch&#xE9;sdunettoyage,</text>
<text y="109.85" x="0 5.5 13.65 17.05 21.25 30.6 38.3 45.1 53.35 61.05 68.5 71.65 79 81.75 90 97.85 108.25 115.55 123.1 126.2 133.75 145.8 153.35 160.55 166.55 172.15 180.85 188.45 192.15 199.9 203.25 208.55 215.5 221.8 229.55 233.95 241.95 250.15 257.95 260.75 ">toiredesd&#xE9;laisdepaiement.Celui-ciproduit</text>
<text y="109.85" x="294.6 300.9 303.9 312.1 321.75 329.75 340.2 343.25 350 357.9 360.65 367 370.1 376.85 382.35 389.75 397.4 402.15 409.25 ">siondul&#xE9;gislateur*.</text>
<text y="109.85" x="595.15 603.1 613.1 625.15 632.75 635.4 641.15 644.15 648.9 654.25 661.1 667.8 675.35 682.85 685.65 693.55 700.65 707.4 712.75 720.65 729.65 735.4 740.05 745.05 752.55 759.15 767.15 774.65 781.55 788.3 795.4 802 807.15 812.85 818.1 825.65 832.3 840.55 847.2 853.2 ">dumulti-technique,dutridesd&#xE9;chets,deses-</text>
<text y="128.15" x="0.25 7.3 14.7 21.85 30.05 37.5 47.45 55 62.8 70.25 77.45 87.8 95.9 107.15 112 119.9 127.95 135.65 144.3 148.9 157.7 166.15 174.25 180.75 187.85 195.45 203.25 216 219.85 227.6 238.6 242.25 249.5 ">chaqueann&#xE9;eunrapportquiexamineles</text>
<text y="128.15" x="595.55 602.55 609.4 615.65 622.35 629.75 636.65 643.9 647.9 653.05 661 669.1 678.65 685.9 693.1 699.35 707.4 711.5 720.55 728.05 734.65 742.5 746.9 755 762.5 767.15 774.6 777.15 782.9 790.4 794.4 801.1 809.05 816.6 826.4 833.8 841.3 845.35 852.2 859.45 866.85 ">pacesvertsouencoredes&#xE000;ournituresdebureau.</text>
<text y="133.05" x="295.5 302.25 310.7 314 324 331.5 343.95 351.75 355.1 363.4 369.25 379.65 383.15 390.4 396.5 403.45 408.35 411.2 419.65 426.25 433.2 442.4 450.25 455.15 458.65 466.1 473.05 476.55 483.9 490.9 499.75 507.35 517.6 525.6 533.9 540.4 ">P&#xF4;leemploiainscritcesprincipesen2015</text>
<text y="146.5" x="0.25 7.15 15.85 23.6 32.1 35.25 41.6 45 53.7 61.25 70.45 78.6 85.85 95.05 103.2 111.15 114.7 122.55 125.75 134.95 143.15 154.1 158.8 165.95 174.35 177.95 185.85 198.2 206.05 213.5 222.3 230.45 237.7 ">conditionsdesd&#xE9;laisder&#xE8;glementdes</text>
<text y="151.35" x="294.85 302.35 309.6 316.5 324.5 330.25 339.65 345.95 354 360.6 367.5 374.75 381.65 387.35 390.15 398.25 407.25 413 417.6 420.8 427.85 435.1 439.05 444.75 447.3 452.65 462.65 468.65 473.9 480.55 488 496.15 505.75 512.85 519.65 527.6 530.4 538.85 547.55 553.9 562.1 565.1 ">danssaconventiontripartite&#xC9;tat/Un&#xE9;dic/P&#xF4;le</text>
<text y="151.35" x="595.85 602.9 613.5 621.65 630.1 636.4 642.35 649.3 652.65 663.4 670.85 678.6 683.05 691.5 699.5 706.6 716.15 728.3 736.05 740.55 747.75 755.35 762.4 771.35 779.35 790 ">En2017,lapartdesmarch&#xE9;sdep</text>
<text y="151.35" x="798 801.85 809.15 818.1 826.1 ">lusde</text>
<text y="164.8" x="0.65 8.3 16.15 19.55 27.45 39.75 47.65 55.1 60.85 70.7 74.55 82 88 95.85 100.55 106.15 113.55 120.6 126.45 130.7 138.1 145.7 150.45 153.2 159.15 165.95 171.8 177.7 184.45 192.95 197.2 204.2 210.65 231.1 ">paiementsinter-entreprises,etr&#xE9;cop</text>
<text y="164.8" x="218.85 238.35 245.75 252.8 258.75 ">mense</text>
<text y="169.65" x="294.85 302.1 314.2 321.7 324.7 332.7 338 344.6 352.15 359.65 366.9 373.75 381.85 387.65 395.7 405.7 413.15 417.25 423.55 428.25 434.85 442.4 447.9 453.65 457.9 464.5 469.85 476.4 484.05 486.9 494.75 501.9 511.25 518.9 526.9 534.65 543 ">emploietdanssonprojetstrat&#xE9;gique2020.</text>
<text y="169.65" x="595.15 603.3 612 623.65 632.35 641.05 652.55 660.25 668.15 672.75 680.65 690.25 697.75 705.4 713.1 720.8 731.35 738.15 745.6 752.9 763 771 778.6 788.9 795.6 804.15 811.75 820.1 823.1 829.25 832.55 841.1 ">200000eurosparanavecunecondition</text>
<text y="183.1" x="0.7 3.85 10.65 19.2 26.6 33.65 39.5 43.75 51.15 58.75 63.5 66.25 72.2 79 87.25 95.65 106 112.2 119.55 126 131.8 139.5 147.5 155.55 163.45 171.5 179.4 183.2 186.5 196.5 201.1 208.2 214.85 222.35 229.7 236.15 241.9 249.6 256.95 ">lesentreprisesdusecteurpublicrespectant</text>
<text y="188" x="595.15 602.9 606.15 612.75 619.65 626.65 633.5 640.5 646.35 649.35 657.55 667.5 674.9 681.65 689.25 692.6 696.8 705.05 712.65 720 727.4 739.3 746.65 753.65 759.15 766.65 769.75 779.15 785.25 788.5 795.9 799.1 805.65 812.75 822.4 832.05 839.7 849.4 862.05 ">d&#x2019;ex&#xE9;cutionenvironnementales&#x2019;&#xE9;l&#xE8;ve&#xE0;22%.</text>
<text y="201.4" x="0.7 4.15 11.25 20.85 ">lesp</text>
<text y="201.4" x="28.8 32.25 39.5 44.4 52.95 60.55 68.3 77.95 81.4 88.4 96.2 103.9 111.05 121.15 129.15 139.15 147.15 154.9 158.35 166 169.1 177.95 185.95 196.65 204.15 211.8 215.1 222.8 235 242.7 250 256.2 ">la&#xE000;ondsl&#xE9;gauxded&#xE9;laisdepaiement.</text>
</g>
<g class="s00yhBRa49" transform="translate(373 1317.2)" >
<text y="0" x="0.25 8.1 12.3 19.75 24.35 30.05 35.6 42.85 48.4 53.35 60.35 68.85 74.25 77.3 82.25 87.5 92.35 99.35 104.85 110.45 115.95 118.45 120.6 125.1 131.8 139.5 145 148.1 154 162.85 170.25 175.85 180.75 187.45 192.75 201.7 207.1 209 213.25 215.45 221.35 226.5 233.45 238.75 244.65 249.6 254.7 260.1 262.7 264.95 269.9 ">*Lecodedesmarch&#xE9;spublicsapromudesambitionsnouvelles</text>
<text y="13.35" x="0 5.35 13.3 18.8 21.85 27.4 33.05 39.15 44.8 52.6 54.85 62.6 68.1 71.1 76.6 80.55 85.6 90.05 94.3 96.4 102.35 109.85 115.35 123.2 125.55 127.85 133.2 138.1 143.5 146 149 155 160.5 165.75 171.1 179.7 185 190.1 194.1 198.6 204.2 209.1 216.25 221.75 230.5 237.35 243.25 250.75 256.25 261.2 ">auproftdelaprotectiondel&#x2019;environnement,desPMEoudes</text>
<text y="26.8" x="0.3 5.5 10.85 13.85 18.1 24.1 29.6 34.85 39.8 46.5 51.85 59.3 65.1 67.25 70.5 76.3 81.25 86.8 88.85 92.85 100.1 105.85 108 110.35 115.55 119.8 125.1 128.1 132.35 134.5 140.45 145.95 ">personnesendi&#xE000;fcult&#xE9;d'insertion.</text>
</g>
</svg>
