<?xml version="1.0" encoding="UTF-8" standalone="no"?>
<!DOCTYPE svg PUBLIC "-//W3C//DTD SVG 1.1//EN" "http://www.w3.org/Graphics/SVG/1.1/DTD/svg11.dtd">
<svg xmlns="http://www.w3.org/2000/svg" xmlns:xlink="http://www.w3.org/1999/xlink" version="1.1"
     viewbox="0 0 1024.00 1448.20" width="1024.00" height="1448.20" style="overflow:hidden" xml:space="preserve">
<defs>
<style type="text/css">
<![CDATA[
@font-face { font-family: 'f0mUq3Ta414#44'; font-weight: normal; font-style: normal;  src: url(svg/font13.ttf) format('truetype'); }
@font-face { font-family: 'f0mUq3Ta416#39'; font-weight: normal; font-style: normal;  src: url(svg/font15.ttf) format('truetype'); }
@font-face { font-family: 'f0mUq3Ta49#16'; font-weight: normal; font-style: normal;  src: url(svg/font8.ttf) format('truetype'); }
@font-face { font-family: 'f0mUq3Ta411#26'; font-weight: normal; font-style: normal;  src: url(svg/font10.ttf) format('truetype'); }
@font-face { font-family: 'f0mUq3Ta412#30'; font-weight: normal; font-style: normal;  src: url(svg/font11.ttf) format('truetype'); }
@font-face { font-family: 'f0mUq3Ta413#34'; font-weight: normal; font-style: normal;  src: url(svg/font12.ttf) format('truetype'); }
@font-face { font-family: 'f0mUq3Ta415#53'; font-weight: normal; font-style: normal;  src: url(svg/font14.ttf) format('truetype'); }
@font-face { font-family: 'f0mUq3Ta410#21'; font-weight: normal; font-style: normal;  src: url(svg/font9.ttf) format('truetype'); }

.s0mUq3Ta40 { fill: rgb( 91, 197, 242); font-family: 'f0mUq3Ta49#16'; font-size: 16.30px; }
.s0mUq3Ta41 { fill: rgb(255, 255, 255); font-family: 'f0mUq3Ta410#21'; font-size: 14.60px; }
.s0mUq3Ta42 { fill: rgb(255, 255, 255); font-family: 'f0mUq3Ta411#26'; font-size: 14.60px; }
.s0mUq3Ta43 { fill: rgb(255, 255, 255); font-family: 'f0mUq3Ta412#30'; font-size: 14.60px; }
.s0mUq3Ta44 { fill: rgb( 36,  87,  33); font-family: 'f0mUq3Ta413#34'; font-size: 25.80px; }
.s0mUq3Ta45 { fill: rgb(255, 255, 255); font-family: 'f0mUq3Ta414#44'; font-size: 44.70px; }
.s0mUq3Ta46 { fill: rgb(255, 255, 255); font-family: 'f0mUq3Ta415#53'; font-size: 12.00px; }
.s0mUq3Ta47 { fill: rgb(255, 255, 255); font-family: 'f0mUq3Ta416#39'; font-size: 12.00px; }
]]>
</style>
</defs>
<image x="0" y="0" width="1024" height="1448.2" xlink:href="svg/svg.jpg"/>
<g class="s0mUq3Ta40" transform="translate(72.1 951.25)" >
<text y="0" x="1.1 11.9 20.2 26.4 33.05 41.55 49.3 55.3 61.9 65.55 73.5 84.3 91.15 97.9 105.15 110.45 114.5 120.3 128.6 132.6 140.2 143.85 149.85 159.05 168.05 170.7 178.4 188.65 201.5 209.15 215.2 221.9 230.6 ">Docsourcingesttitulaired&#x2019;unmarch&#xE9;</text>
<text y="0" x="606.85 615.15 622.1 631.9 640.75 648.8 657.05 662.65 669 677.85 686.65 694.05 701.65 710.35 715 722.15 731.15 740.1 748.4 756.65 764.65 774.1 780.5 787.35 798.9 802.8 813.15 ">Etpourtrouverlesbonsprofls?</text>
<text y="0" x="305 316.75 324.75 330.5 337.5 345.75 355 363.4 368 375.25 384.1 392.65 400.25 413.45 421.4 430.4 438.95 447.1 455.15 460.65 469.55 478.85 481.65 489.3 501.65 511.65 516.35 524.6 530.8 539.85 547.9 ">Quisontlesdemandeursd&#x2019;emploiqui</text>
<text y="19.6" x="1.2 9.45 17.75 26.9 32.95 39.85 46.55 51.85 59.9 65.2 69.15 77.1 85 93.2 101.45 110.2 116.95 122.85 131.15 137.85 145.4 152.65 161.55 170.75 179 188.15 196.4 204.7 212.15 219.9 233.1 240.4 249.25 254.1 ">deprestationsdestockagededocuments</text>
<text y="19.6" x="304.5 312.75 322 329.95 338.9 346.5 355.5 361.7 373 379.95 384.25 394 402.65 413 417.35 427.85 435.35 439.7 448.15 455.85 462.8 472.65 480.9 488.85 497.1 506.5 511.15 521.3 528.25 536.55 544.75 551.15 ">ontb&#xE9;n&#xE9;fci&#xE9;delaclausedanslecadre</text>
<text y="39.25" x="0.9 9.4 16.6 26.1 32.45 39.65 48.5 57.05 67.15 75.85 84.7 89.35 99.5 107.1 119.45 129.5 134.15 142.4 148.6 157.15 163.9 173.95 182 185.5 193.5 203 209.35 216.55 225.4 234 ">aupr&#xE8;sdeP&#xF4;leemploidepuispr&#xE8;sde</text>
<text y="39.25" x="304.5 313 323.2 330.7 340.5 353.75 361.7 368 375.1 384.1 395.45 ">decemarch&#xE9;?</text>
<text y="58.85" x="1.2 9.95 17.7 25.75 31.05 37.1 45.95 53.55 61.5 68.45 74.25 80.85 83.45 89.8 98.3 101.5 108.2 114.05 121.35 130 137.15 146.35 155.35 158 165.7 174.4 183.9 191 195.1 203.25 210.6 217.2 226 232.6 240.9 247.5 251.15 259.35 263.65 ">quatreans.L&#x2019;existenced&#x2019;uneclausesociale</text>
<text y="78.45" x="1.2 9.15 16.75 24.7 33.4 37.75 46.9 59.8 67.4 73.45 80.15 88.85 97.75 105.8 111.35 117.2 122.4 130.25 134.75 139.1 148.6 155.3 163.7 171.3 179.3 188.2 197.6 204.7 213.1 218.35 224.4 233.25 240.05 249.95 ">danslemarch&#xE9;a-t-ellechang&#xE9;votreap-</text>
<text y="98" x="0 9.15 15.2 23.5 30.2 38.9 48.1 56.35 66.05 70.1 79.6 92.45 95.65 101.5 107.8 111.75 119.75 127.4 134.3 142 149.2 157.45 167.15 172.25 174.35 177.95 185.85 192.5 199.75 205.8 211.05 215 222.95 234.7 ">prochedelamission,etdel&#x2019;insertion?</text>
</g>
<g class="s0mUq3Ta41" transform="translate(73.5 983.45)" >
<text y="0" x="606.6 612.2 622 626.1 632.9 639.45 644.15 650.9 656.25 663.4 674.75 681.85 688.65 697 703.95 711.1 717.85 725.6 731.35 740.3 744.75 751.85 755.2 759.3 768.75 775.85 785.9 789.2 796 801.3 808.45 813.15 820.15 826.9 833.1 844.45 851.55 854.3 ">Lerecrutementpeutse&#xE000;aireeninterne,mais</text>
<text y="17.5" x="605.9 612.9 619.55 624.95 630.9 635.9 643.35 647.5 654.1 660.2 669.3 678.85 681.9 684.65 691.25 697.35 703.4 711.15 722.75 729.55 735.85 743.3 750.2 757.2 768.4 775.4 782 789.7 796.05 803.7 810.7 817.15 826.2 831.8 838.8 842.55 849.7 852.5 858.6 865 ">aussigr&#xE2;ce&#xE0;l&#x2019;accompagnementetauxservices</text>
<text y="35.05" x="605.95 613.35 623.45 629.8 637.75 640.9 650.3 657.45 669.15 676.55 679.65 687.55 690.8 697 703.2 706.5 713.5 720.7 723.8 730.95 742.3 749.45 756.2 761.55 767.85 770.9 780.7 792.4 795.15 800.9 810.3 817.45 826.85 839.2 845.8 853.1 857.25 ">deP&#xF4;leemploi.Finalement,lamiseen&#x153;uvre</text>
<text y="39.15" x="304.15 313.6 321.15 327.6 335.25 341.1 348.65 360 366.35 371.35 378.85 385.35 392.7 399.75 406.5 412.75 421.05 425.2 432.8 439.4 445.6 452.95 460 469.05 476.05 479.8 486.9 494.75 500.05 504.55 511.6 517.8 525.8 532.75 536.55 543.15 ">Nouscomptonsdeuxtypesdeprofl:despr&#xE9;-</text>
<text y="52.6" x="605.95 613.35 623.2 626.3 635.7 642.35 645.4 652.55 659.35 665.1 674.35 680.1 687.6 694.15 697.1 704.3 707.4 716.8 723.05 730.95 735.6 739.75 746.35 752.45 759.4 767.3 774.35 784.75 791.7 798.85 803.1 807.55 814.65 817.35 822.65 829.8 841.15 848.3 855.05 ">delaclausesocialecorrespondpar&#xE000;aitement</text>
<text y="56.75" x="303.85 310.4 317.2 321.1 327.25 332.2 339 346 349.75 357.1 364.15 372.85 378.7 386.25 397.6 408.55 415.35 422 429.05 435.25 442.7 448.45 455.45 461.4 468.45 474.65 481.85 485.95 493.5 500.15 505.75 511.05 513.65 521.2 527.65 534.75 540.1 543.85 550.05 ">parateursdecommandessurdes&#xE000;onctionstr&#xE8;s</text>
<text y="70.2" x="605.9 612.75 619.05 628.4 639.8 642.25 647.5 653.3 655.95 663.6 670.1 678.3 685 691.2 696.65 703.7 707.55 714.45 717.7 720.55 726.8 734.3 741.45 750.95 757 764.7 767.5 776.35 783.2 794.6 801.7 804.55 812.1 814.75 819.95 828.6 ">auxmissionsnaturellesdeP&#xF4;leemploi,&#xE0;s</text>
<text y="70.2" x="834 840.05 846.65 854.2 857.25 ">avoir</text>
<text y="74.25" x="303.9 306.65 313.55 320.75 323.1 328.25 333.55 336.15 343.5 350.15 356.35 361.7 366.8 372.95 379.9 386.95 393.15 400.8 406.9 413.75 420.55 426.95 431.7 439.75 446.3 453.85 460.9 467.55 470.25 479.3 496.8 ">logistiques,etdesagentspourlapp</text>
<text y="74.25" x="486.25 490.05 503.35 510.15 514.05 520.2 525.5 528.1 535.65 ">r&#xE9;aration</text>
<text y="87.75" x="606.35 609.9 613.7 617.3 624.45 630.5 637.9 642.25 648.2 651.45 659.65 670.3 677.9 682.35 690.1 694.9 701.75 707.6 713.95 717.2 725.4 733.1 740.4 747.9 751.75 755.15 764.85 772.55 779.4 788.75 796 803.45 807.85 813.85 822.1 829.75 837.1 843.95 ">l&#x2019;insertionpro&#xE000;essionnelledespersonnes</text>
<text y="91.8" x="303.5 310.9 320.2 331.15 337.3 342.3 349.05 353.35 355.9 362.75 367.5 374.55 382.75 386.85 394.4 398.7 409.7 415.8 421.1 423.7 431.25 439.9 446.95 453.7 460.15 468.25 471 479.7 485.5 491.9 499.3 503.1 511.5 518.55 527.65 530.35 539.4 550.4 557 ">dumat&#xE9;rielde&#xE000;ormationdanslecadredelam&#xE9;-</text>
<text y="98" x="0.8 5.45 8.65 15.75 22.5 29.7 36.2 43.4 50.55 61.9 69.05 75.85 83.35 87.8 94.9 97.6 105.95 112.85 120 124.05 129.7 132.65 141.8 149.2 159.05 162.3 163.8 173.4 182.85 195.05 202.45 212.55 221.3 228.85 234.85 ">L&#x2019;engagement&#xE000;aitpartiedel&#x2019;ADNdeDoc-</text>
<text y="105.25" x="606.35 609.75 616.65 625.95 ">lesp</text>
<text y="105.25" x="633.65 637.4 644.55 653.05 658.15 662.75 669.5 677.35 681.05 684.45 691.3 697.65 ">lus&#xE000;ragiles.</text>
<text y="109.35" x="303.2 308.6 315.3 322.45 329.5 337.9 344.95 354 357.75 364.2 370.4 374.7 381.1 386.05 392.85 403.85 410.6 417 424.6 431.2 437.95 444 449.7 452.65 464 471.1 473.8 479.95 485.25 487.85 495.4 504.9 509.2 520.4 527.45 533.9 538.6 ">thodederecrutementparsimulation(MRS).</text>
<text y="115.55" x="0 5.75 13.65 21 25.2 31.75 35.05 41.8 49.3 55.5 61.05 69 73.1 78.85 86.55 93.6 103.35 110.4 118.3 125.15 133.5 139.8 146.7 154.6 161.4 170.2 174.3 181.45 193.2 200.1 208.05 212.1 217.45 227.25 230.4 ">sourcing.Lorsquenousavonsremport&#xE9;le</text>
<text y="126.95" x="304.15 309.6 316 324.5 328.45 335.1 341.55 346.05 352.65 357.85 364.85 376.05 383.05 389.7 394.65 402.55 408.15 417.1 422.7 430.45 437.05 444.45 452.25 459.05 466.05 470 476.45 484.35 489.95 497.7 504.35 512.9 515.85 524.5 528.8 536.6 541.1 552.3 ">Lesrecrutementssesontop&#xE9;r&#xE9;ssousla&#xE000;orme</text>
<text y="133.1" x="0.5 11.9 19 23.15 29.8 36.8 43.55 49.8 56.8 64.75 71.55 79.9 86.4 92.1 95.05 103 109.8 118.2 125.35 132.35 138.6 146.5 150.65 160.4 ">march&#xE9;,nous&#xE9;tionsencorep</text>
<text y="133.1" x="167.8 171.25 178.1 186.85 198.2 205.5 211.15 213.7 220.55 227.1 235.85 242.8 250.75 258.1 ">lusmotiv&#xE9;spour</text>
<text y="144.5" x="303.5 310.75 322.15 331.1 340.4 349 354.35 363.3 372.6 377.6 385.35 394.45 401.7 411.2 422.75 425.35 430.75 436.7 439.5 447.25 453.95 462.35 465.55 472.15 477.35 484.35 488.85 492 503.55 509.4 514.85 521.3 529.75 536.9 540.9 548.25 556.3 559.05 ">deCDD,CDIoudemissionsint&#xE9;rim.Lesprofls</text>
<text y="150.7" x="0.5 11.95 18.45 23.5 29.2 33.3 42.75 49.9 59.3 71.65 78.25 85.55 89.65 99.55 102.65 112.05 118.7 121.8 128.9 135.75 141.45 150.7 156.45 164 170.55 173.45 180.65 183.75 190.8 196.1 204.3 210.8 215.9 221.25 230.65 237.3 240.35 247.5 254.3 260.05 ">mettreen&#x153;uvrelaclausesociale.Cetteclause</text>
<text y="162" x="303.3 308.6 316.05 322.4 329.5 335.4 341.6 346.9 350.6 357.3 368.2 374.9 385.8 392.5 398.85 405.15 411.65 418.35 422.55 425.1 431.2 436.8 441.25 449 457.35 462.65 470.1 476.45 483.25 490.2 496.35 504.25 510.75 518.2 525.1 532.1 534.75 540.85 546.05 548.6 556.05 562.45 ">sontextr&#xEA;mementvari&#xE9;s.Cesontdespopulations</text>
<text y="168.25" x="0.2 6.4 14.3 19 23.15 29.7 35.8 42.8 50.7 57.65 67.75 77.55 84.55 91.9 99.5 106.45 113.65 116.75 123.9 131.3 135.4 143.8 150.3 158.25 168.05 175.05 182.35 188.05 192.2 200.8 208.1 210.85 216.95 219.9 227.8 237.2 244.75 248.3 255.65 262.7 ">correspond&#xE0;nosvaleurset&#xE0;notrevisiond&#x2019;une</text>
<text y="179.55" x="303.5 310.25 312.9 320.35 322.6 329.75 336.3 342.65 348.8 356 363 371.95 374.75 377.5 384.2 395.45 402.4 405.1 412.55 415 420.4 427.2 429.7 436.4 445 450.3 457.75 463.9 470.35 477.05 483.35 490.25 495.95 502.85 505.1 510 518.5 526.75 533.75 539.85 547.35 553.65 559.45 565.55 568.3 ">&#xE9;loign&#xE9;esdel&#x2019;emploi,biensouventsuite&#xE0;desacci-</text>
<text y="185.75" x="0.5 7.5 15.5 18.95 21.65 27.3 30.25 38 45 55.1 62.5 70.15 79 86.15 92.85 100.05 106.55 113.75 120.55 129.65 137.4 144.75 150.15 155.9 164.75 170.45 174.6 182.5 189.1 195.95 205.35 211.85 217.55 221.7 231.1 238.2 ">politiqueRSEengag&#xE9;equisetrouve&#xEA;treau</text>
<text y="197.1" x="303.5 310.45 317.15 323.5 328.2 335.4 342.4 351.35 354 361.75 368.6 371.1 377.4 382.1 389.55 398.35 405.05 414.2 418.05 424.7 427.05 432.35 439.8 448.3 455.3 463.55 470.85 473.3 477.3 484.6 490.75 497.75 500.15 505.05 511.15 518.5 523.8 530.9 537 539.5 546.25 548.9 555.05 560.65 ">dentsdelavie,ouenraisondedi&#xE000;fcult&#xE9;ssociales.</text>
<text y="203.25" x="0.2 6.4 18.75 26.15 32.8 40.25 50.05 57.05 64.35 70.05 74.15 83.4 88.9 94.6 98.85 105.35 110.7 117.2 124.75 127.7 136.8 144.35 147.55 154.65 161.45 167.15 171.3 178.4 185.75 190.35 193.1 198.85 205.95 ">c&#x153;urdenotrestrat&#xE9;gied&#x2019;entreprise.</text>
</g>
<g class="s0mUq3Ta42" transform="translate(616.45 825.1)" >
<text y="0" x="0 9.8 21.65 29.25 37 41.35 51.85 59.75 70.1 81.5 88.65 96.15 103.25 ">AmaurydeMeaux</text>
</g>
<g class="s0mUq3Ta43" transform="translate(616.5 847.55)" >
<text y="0" x="0 9 12.1 17.1 23.85 30.35 35.2 42 48.75 55.5 62.7 71.35 80.75 88 93.7 99.5 106.85 113.6 118.6 124.7 127.75 134.6 ">DirecteurdeDocsourcing</text>
</g>
<g class="s0mUq3Ta44" transform="translate(130.5 186.5)" >
<text y="0" x="0 14.4 32.05 42.75 57.6 69.4 82 94.05 107.1 121.95 127.6 140.8 ">UNPARTENAIRE</text>
<text y="36.15" x="0.15 13.3 24.65 37.55 50.15 65.3 78.85 90.15 105 118.6 129.85 ">RESPONSABLE</text>
</g>
<g class="s0mUq3Ta45" transform="translate(504.35 422.35)" >
<text y="0" x="19 51.25 82.15 117.1 162.35 178.85 201.9 236.5 261.5 302.1 342.75 372.15 399.1 422.9 ">&#x201C;Lamiseen&#x153;uvre</text>
<text y="53.65" x="20.85 50.5 83.6 100.65 136.25 158.5 175.6 200.85 232.25 255.25 289.85 312.9 341.35 364.25 381.1 406 422.9 ">delaclausesociale</text>
<text y="107.35" x="90.6 114.35 142.15 165.4 189.25 214.75 236.5 267.25 295.15 326.6 365.4 390.65 420.65 ">correspondaux</text>
<text y="161" x="0 45.15 61.75 84.65 106.85 123.5 151.4 182.75 214.15 245.85 270.75 288.85 319.75 343.6 367.65 383 399.9 425.4 ">missionsnaturelles</text>
<text y="214.65" x="81.9 111.6 146.15 177.6 204.5 221.4 256.1 281.1 325.75 355 371.9 399.5 425.8 ">deP&#xF4;leemploi&#x201D;</text>
</g>
<g class="s0mUq3Ta46" transform="translate(468.35 48.75)" >
<text y="0" x="0 6.75 12.85 19.25 ">Rapp</text>
<text y="0" x="25.4 31.75 36.15 42.4 49.25 56.35 64.25 70.75 77.6 82.1 ">ortRSE2017</text>
</g>
<g class="s0mUq3Ta47" transform="translate(499.6 1408.45)" >
<text y="0" x="0 7.05 11.55 21.35 ">-16-</text>
</g>
</svg>
