<?xml version="1.0" encoding="UTF-8" standalone="no"?>
<!DOCTYPE svg PUBLIC "-//W3C//DTD SVG 1.1//EN" "http://www.w3.org/Graphics/SVG/1.1/DTD/svg11.dtd">
<svg xmlns="http://www.w3.org/2000/svg" xmlns:xlink="http://www.w3.org/1999/xlink" version="1.1"
     viewbox="0 0 1024.00 1448.20" width="1024.00" height="1448.20" style="overflow:hidden" xml:space="preserve">
<defs>
<style type="text/css">
<![CDATA[
@font-face { font-family: 'f1KGbVZW49#16'; font-weight: normal; font-style: normal;  src: url(svg/font8.ttf) format('truetype'); }
@font-face { font-family: 'f1KGbVZW410#21'; font-weight: normal; font-style: normal;  src: url(svg/font9.ttf) format('truetype'); }
@font-face { font-family: 'f1KGbVZW412#30'; font-weight: normal; font-style: normal;  src: url(svg/font11.ttf) format('truetype'); }
@font-face { font-family: 'f1KGbVZW414#44'; font-weight: normal; font-style: normal;  src: url(svg/font13.ttf) format('truetype'); }
@font-face { font-family: 'f1KGbVZW416#39'; font-weight: normal; font-style: normal;  src: url(svg/font15.ttf) format('truetype'); }
@font-face { font-family: 'f1KGbVZW411#25'; font-weight: normal; font-style: normal;  src: url(svg/font10.ttf) format('truetype'); }
@font-face { font-family: 'f1KGbVZW413#34'; font-weight: normal; font-style: normal;  src: url(svg/font12.ttf) format('truetype'); }
@font-face { font-family: 'f1KGbVZW415#51'; font-weight: normal; font-style: normal;  src: url(svg/font14.ttf) format('truetype'); }

.s1KGbVZW40 { fill: rgb( 91, 197, 242); font-family: 'f1KGbVZW49#16'; font-size: 16.30px; }
.s1KGbVZW41 { fill: rgb( 91, 197, 242); font-family: 'f1KGbVZW410#21'; font-size: 16.30px; }
.s1KGbVZW42 { fill: rgb(255, 255, 255); font-family: 'f1KGbVZW411#25'; font-size: 14.60px; }
.s1KGbVZW43 { fill: rgb(255, 255, 255); font-family: 'f1KGbVZW410#21'; font-size: 14.60px; }
.s1KGbVZW44 { fill: rgb(255, 255, 255); font-family: 'f1KGbVZW412#30'; font-size: 14.60px; }
.s1KGbVZW45 { fill: rgb( 36,  87,  33); font-family: 'f1KGbVZW413#34'; font-size: 25.80px; }
.s1KGbVZW46 { fill: rgb(255, 255, 255); font-family: 'f1KGbVZW414#44'; font-size: 44.70px; }
.s1KGbVZW47 { fill: rgb(255, 255, 255); font-family: 'f1KGbVZW415#51'; font-size: 12.00px; }
.s1KGbVZW48 { fill: rgb(255, 255, 255); font-family: 'f1KGbVZW416#39'; font-size: 12.00px; }
]]>
</style>
</defs>
<image x="0" y="0" width="1024" height="1448.2" xlink:href="svg/svg.jpg"/>
<g class="s1KGbVZW40" transform="translate(73.05 951.25)" >
<text y="0" x="0 8.9 15.85 20.2 23.95 34 38.3 45.55 54.2 61.6 73.05 83.2 91.8 100.1 107.55 115.7 120.35 127.8 136.35 ">Scity.coopad&#xE9;velopp</text>
<text y="0" x="146.25 156.6 164.6 173.6 183.2 190.3 198.85 ">&#xE9;uneapp</text>
<text y="0" x="208.95 213.25 217.55 224.5 232.9 238.5 242.75 251.05 ">lication</text>
<text y="19.6" x="0.25 8.85 19 30.3 43.8 52.25 60.85 65.35 69.6 74.05 80.2 90.05 93.95 102.95 110.45 115.3 123 129.6 134.25 141.7 151.55 161.25 ">de&#xAB;mobilit&#xE9;inclusive&#xBB;.</text>
<text y="39.25" x="0.15 8 18.9 27.95 36.35 44.65 51.15 58.35 66.7 74.95 81.6 85.1 92.1 98.35 106.3 112.15 118.35 123.9 132.05 136.85 141.55 152.85 ">Enquoiconsiste-t-elle?</text>
<text y="88.5" x="606.55 618.25 626.65 634.8 639.7 644.35 651.55 659.95 666.95 675.2 684.45 692.8 697.45 704.65 713.75 720.65 729.1 733.8 741.9 750 755.5 766.55 775.6 784.05 794.1 801.5 810.35 818 ">Quellessontlesvaleursquevous</text>
<text y="108.05" x="604.8 614.3 622.25 628.6 634.25 641.8 651.05 658 667.35 675.85 683.25 691.2 700.6 709.3 718.15 722.8 733 740.6 752.9 762.95 767.6 775.9 783.55 ">partagezavecP&#xF4;leemploi?</text>
<text y="123.55" x="304.05 313.25 321.55 334.75 348.25 355.8 365.05 373.4 378.05 387.05 396.55 402.9 408.8 416.05 424.05 432.2 439.4 446.45 452.65 457.85 462.35 469.2 475.95 483.9 493.7 501.3 507.2 511.15 524.65 532.25 541.45 547.65 ">Commentleprojetest-ilexp&#xE9;riment&#xE9;</text>
<text y="143.2" x="303.25 311.7 319.05 327.05 336.45 345.2 354.05 358.7 368.8 376.45 388.75 398.8 403.45 411.75 419.4 ">avecP&#xF4;leemploi?</text>
</g>
<g class="s1KGbVZW42" transform="translate(73.65 949.95)" >
<text y="0" x="303.15 308.9 316.75 323.6 331.7 339.15 348.9 360.25 368.25 375.45 378.85 382.25 385 390.25 397 402.4 406.85 414 420.75 426.1 435.2 442.65 452.4 459.35 467.3 473.85 480.7 488.6 491.9 498.65 504.4 513.55 520.95 528.1 535.45 538.55 545.35 551.55 558.7 562.8 ">sonsdemobilit&#xE9;,&#xE001;autedepouvoirsed&#xE9;placer.</text>
<text y="0" x="606.2 609.15 612.05 618.9 630.3 632.75 638 643.8 646.45 654.1 662.9 670 676.25 684.45 691.1 697.95 701.7 707.05 709.75 716 723.15 726 732.25 740.45 747.1 754.8 758 761.2 767.9 774.75 781.25 786.25 792.55 798.3 803.9 811.15 813.8 820.15 827.15 834.1 843.7 850 855.15 ">l&#x2019;&#xE9;missiondesparticulespolluantes.Ridygoest</text>
<text y="17.5" x="304 309.5 316.25 322.5 331.9 341.25 347.5 356.95 363.15 371.1 377.9 383.4 388.7 395.2 400.5 406.85 409.95 419.7 426.65 433.8 437.85 443.2 450.3 457.3 464.45 469.1 472.05 478.55 486.5 492.8 499.65 506.45 516 522.35 530.3 533.4 ">Face&#xE0;ceconstat,lepartenariatavecP&#xF4;le</text>
<text y="17.5" x="606.15 612.8 619.65 623.6 627.75 634.55 636.95 642 648.85 659.95 666.75 673.25 680.65 687.5 696.95 704.05 710.75 717.05 722.5 731.3 737.3 743.9 750.35 759.05 761.85 771.05 777.7 785.4 788.55 790.95 796.35 799 806.45 813.15 822.35 826.2 832.5 838.3 844.95 852.6 859.55 ">par&#xE001;aitementenphaseaveclapolitiquerespon-</text>
<text y="35.05" x="303.35 310.45 322.2 329.6 332.7 340.6 346.5 353.5 361.5 368.25 376.65 385.85 391.6 398.75 410.55 417.85 420.95 430.75 437.75 444.25 449.95 457.35 461.5 468.7 474.75 480.6 483.95 489.5 495.4 498.25 504.7 512.3 514.95 520.3 526.15 532.45 539.35 546.1 ">emploinousasembl&#xE9;naturel:ils&#x2019;agit,avec</text>
<text y="35.05" x="605.6 611 617.9 624.95 627.75 636.3 643.4 652.9 659 666.65 669.5 678.3 685.15 696.6 703.7 706.5 714.1 717.05 ">sabledeP&#xF4;leemploi.</text>
<text y="52.6" x="303.75 307 310.5 317.25 322.95 326.35 329.75 332.5 338.25 344.75 350.45 353.4 361.25 370.7 378.1 387.95 391.2 394 401.2 408.5 ">l&#x2019;utilisationdel&#x2019;app</text>
<text y="52.6" x="415.9 419.35 422.3 428.5 435 440.65 443.6 451.5 458.5 464.05 471.5 481.3 484.45 490.75 497.6 504.75 512.15 515.25 521.8 529.75 534.6 538.7 545.85 549.15 555.95 ">lication,deleverles&#xE001;reins</text>
<text y="72.65" x="0.25 7.25 13.75 16.4 21 28.55 31.4 37.6 45.15 53.1 62.65 69.25 74.75 83.1 90.5 97.5 106.75 112.2 117.5 124.65 128.7 134 139.45 146.75 156.75 163.75 170.85 174.9 180.6 183.5 190.1 197.5 200.95 203.95 211.1 215.2 221.95 227.8 234.15 237.35 243.9 249.4 ">Scity.coopestunestart-upparticuli&#xE8;re,c&#x2019;est</text>
<text y="70.15" x="303.25 313.15 316.4 319.5 326.7 338.45 345.75 348.95 356.75 362.4 368.9 376.85 386.7 389.95 393.45 396.75 403.6 409.35 416.5 420.55 426.2 429.15 437.1 444.4 ">&#xE0;l&#x2019;emploiet&#xE0;l&#x2019;insertion.</text>
<text y="90.25" x="0 6.3 13.25 20.4 27.15 34.6 39.9 47.85 54.65 63 70.35 77.4 86.75 93 100.5 108.5 115.45 122.6 126.85 133.35 139 141.5 148.4 157.75 164.5 170.5 176.2 180.85 183.85 190 199.15 206.6 216.4 219.65 222.85 229.6 235.8 243.7 250.7 258.5 ">avanttoutunecoop&#xE9;rativeactricedel&#x2019;&#xE9;cono-</text>
<text y="107.75" x="0.35 12.05 15 24.25 30.05 37.55 44.05 47.05 54.25 57.35 66.75 73.25 81 86.75 94.75 98.15 101.15 108.5 115.65 119 123.1 130.2 136.35 146.2 154.1 160.9 169.25 175.6 182.45 190.4 197.2 205.3 212.7 219.05 225.9 233.1 236.2 244.15 251.45 258.4 ">miesocialeetsolidaire.Nousavonsd&#xE9;velopp&#xE9;</text>
<text y="125.3" x="0.4 3.65 6.5 13.65 21 28.35 31.8 34.8 41 47.5 53.15 56.15 64 74.4 81.9 84.9 91.5 98.85 106 113.5 119.35 126.45 133.75 141.2 144.65 147.6 153.75 160.25 165.95 168.9 176.75 186.2 193.6 203 209.2 216.2 223.1 230.95 233.65 239.35 246.7 251.05 257.5 264.75 ">l&#x2019;applicationRidygo,applicationdecovoiturage</text>
<text y="142.85" x="0 6.6 14.6 21.6 28.8 40.5 43.4 51.1 58.15 64.9 70.25 78.25 84.65 91.9 95.25 102.6 105.7 115.1 121.6 129.4 135.15 143.1 146.5 149.5 156.9 164 167.25 171.45 178.2 184.4 191.35 199.2 206.65 214.05 217.15 223.7 231.55 237.2 241.55 246.95 251.7 258.25 263.4 ">dynamique,fexibleetsolidaire,pourlestrajets</text>
<text y="141.55" x="605.45 613.4 620.1 626.75 636 642.2 650 653 662.1 669.1 680.7 687.9 690.9 698.65 701.4 707.3 714.2 721.95 728.65 737.1 743.9 750.85 754.75 759.95 766.25 773.35 779.95 787.75 794.4 802.95 805.9 812.35 819.65 826.45 833.5 836.45 843.45 850.65 854.65 ">AvecP&#xF4;leemploi,nouspartageonslesvaleurs</text>
<text y="160.45" x="0 6.25 14.15 21.5 25.55 30.9 40.05 47.8 50.55 56 61.35 68.5 75.5 81.75 88.75 95 100.5 110.35 117.7 122.35 125.65 132.7 139.25 142.5 149.5 159.25 163.45 170.5 177.5 184.85 190.6 199.85 205.95 213.3 220.7 223.8 233.55 245.2 247.95 253.7 ">courtedistance.Leprincipereposesurlamise</text>
<text y="159.1" x="605.8 613.6 617.45 624.5 630.45 634.15 637.9 640.85 646.5 656.3 662.35 670.15 677 680.25 687.7 691.15 701.15 707.95 716.2 724 727.2 734.6 741.95 748.8 753.4 760.15 767.65 778.1 781.5 789.35 795.8 803.3 809.6 817.05 827.1 833.15 840.55 844.15 ">d&#x2019;utilit&#xE9;socialeetd&#x2019;ancragelocalausein</text>
<text y="178" x="0 7.15 17.25 21.3 28.55 31.6 38.1 43.8 46.8 54.65 64.1 71.85 75.15 79.25 86 92 97.35 106.45 114.4 124.4 ">enrelationdirecteoup</text>
<text y="178" x="131.75 134.85 142 149.4 152.25 160 166.75 175.9 183.35 193.1 200 207.2 211.3 217.05 224.95 232.35 239.4 245.95 ">lani&#xE000;&#xE9;edepersonnes</text>
<text y="176.7" x="304 312.5 319.35 326.4 333.45 335.9 344.15 346.9 355.25 363.1 371.9 379 388.25 391.2 393.75 400.65 407.75 414.5 420.95 429.8 437.05 444.6 450.15 455.3 460.95 463.8 470.05 477.85 483.8 491.4 497.95 503.4 510.2 513.3 516.55 519.35 526.2 530 537.55 544.65 550.95 ">Depuisla&#xE000;ndel&#x2019;ann&#xE9;e2017,lesconseillersdes</text>
<text y="176.7" x="605.8 613.2 619.75 627.6 632.95 640.1 644.75 649.4 652.1 657.45 665.3 668.65 672.75 679.35 685.4 691.55 697.75 701.1 708.1 715.3 718.4 725.55 736.9 744 750.8 756.15 762.35 769.4 777.3 784.1 792.85 800.2 804.35 812.25 819.2 826.55 832.3 840.2 847.05 ">desterritoires.Finalement,nousproposons</text>
<text y="195.5" x="0 7.75 15.1 20.5 26.3 34.15 41.6 48.6 55.75 58.4 63.75 70.9 77.65 86 92.9 100.1 104.15 109.45 115.95 123.15 130.25 137.65 140.75 147.9 155.25 159.4 167.25 172.95 177.25 182.7 187.45 193.95 199.1 ">quisouhaitentpartagerleurstrajets</text>
<text y="194.25" x="303.25 309.5 316.4 323.25 330 335.95 342.2 350.45 353.25 360.5 366.4 373.25 376.1 382.4 389.9 397.15 398.4 407.35 413.85 419.2 422.3 428.9 435.2 440.85 444.9 453.15 460.05 463.3 466.1 472.95 480 484.4 486.85 494.65 500.85 507.95 515.1 523.7 533.4 537.4 543.65 548.9 554.35 ">agenceslocalesd&#x2019;Antibes-VallaurisetdeGrasse</text>
<text y="194.25" x="605.8 613.05 619.5 627.4 633 640.8 644.15 650.75 656.25 659.1 666.85 673.5 681.35 688.6 698.1 709.3 717.1 724.2 727.45 730.75 733.3 738.45 747.95 751.1 758 764.5 767.8 774.5 780.4 782.8 789.5 796.1 802 808.8 816.6 823.8 830.9 833.85 840.05 846.75 853.75 ">dessolutionsdemobilit&#xE9;inclusive,pourlever</text>
<text y="213.05" x="0 7.1 16.5 24.25 31.3 38.55 44.25 47.15 54.9 57.9 65 72 78.25 81.4 87.9 96.75 104.1 107.6 114.4 122.35 127.15 131.25 138 145.75 152.85 159.95 166.75 171.85 180.25 186.7 192 199.2 205.95 ">auquotidien,lesplus&#xE001;r&#xE9;quents&#xE9;tant</text>
<text y="211.75" x="303.7 310.35 317.2 323.5 330 336.9 343.4 351.15 358.2 362 369.65 376.25 383.35 388.75 395.65 402 408.85 415.15 423.85 430.95 437.8 448.85 455.65 462.4 469.55 476.4 483.45 487.3 494.8 502.05 504.95 511.8 523.2 530.3 533.1 540.7 545.45 552.9 559.95 ">peuventproposerauxdemandeursd&#x2019;emploiqui</text>
<text y="211.75" x="606.2 609.05 615.3 622.65 627.2 631.05 637.85 640.9 647.4 655.2 664.45 667.4 670.3 677.15 688.55 695.65 698.5 706.05 709 713.05 723.45 728.5 735.35 739.75 750.8 757.25 762.85 769.6 777.25 783.75 791.35 796.8 804.4 811.55 818.3 825.1 827.5 832.55 839.4 843.75 846.4 854 860.55 ">les&#xE001;reins&#xE0;l&#x2019;emploi.&#xC0;terme,noussouhaiterions</text>
<text y="230.6" x="0.4 3.55 10.1 18 23.65 28 33.4 38.15 44.65 49.8 57.9 65.35 73.25 84.9 87.9 94.4 97.85 100.9 110 117.6 123.25 127.6 133.95 140.85 148 151.35 154.75 ">lestrajetsdomicile/travail.</text>
<text y="229.25" x="303.35 310.2 319 326.6 333 340.9 347.5 353.75 359.2 366.75 369.85 379.35 382.25 385.5 392 397.4 400.5 403.65 406.1 411.5 417.75 423.1 425.75 433.4 442.2 449.3 458.55 461.5 464.1 470.9 477.95 485.05 488.2 490.85 496.75 502.95 508.35 511 518.65 528.4 535.65 538.35 544.65 551.7 558.6 566.15 ">enontbesoinl&#x2019;utilisationdel&#x2019;applicationRidygo.</text>
<text y="229.25" x="606.15 609.15 620.6 627.7 630.85 633.5 640.95 647.65 654.5 660.35 665.35 673 679.5 687.75 690.55 696.85 704.6 711.1 716.75 721.8 728.65 735.75 739.55 747.15 752.95 760.05 766.85 769.7 777.95 783 789.85 794.25 798.6 801 806.05 813.6 816.65 820.5 829.9 833.35 838.75 842.75 848.8 855.45 862.25 865.35 868.35 ">impliquertouslesacteurssurleterritoire(travail-</text>
<text y="248.2" x="0.25 7.25 14.35 17.5 25.4 35.5 42.85 52.85 57.15 64.35 71.65 78.65 86.5 90.6 98.25 105.7 115.5 118.75 121.75 132.95 139.6 145.35 152.5 156.35 163.25 169.75 175.15 183 186.35 190.45 199.6 207.05 216.85 219.95 229.7 241.1 249.05 256.25 259.45 ">Selonunrapportdel&#x2019;Observatoiredelamobi-</text>
<text y="246.8" x="304 313.5 321.15 327.7 335.2 342.4 346.5 351 354.9 362.5 369 376.5 383.65 390.5 397 405.25 408.1 416.9 422.8 429.3 436.8 440.65 449.15 456.65 466.1 472.75 479.6 483.35 488.4 495.2 501.95 508.75 513.15 515.75 522 529.1 536.2 542.5 ">Nouso&#xE001;&#xE001;ronsdanslecadredupartenariatdes</text>
<text y="246.8" x="606.2 609.35 616.45 623.85 627.95 636.15 641.9 649.45 656 658.9 666.05 672.65 679.55 685.8 697.5 700.25 705.8 711.85 714.8 722.7 729.55 738.35 741.5 749.05 755.2 762.4 765.5 772.1 777.8 783.65 790.75 797.55 803.25 807.4 814.5 821.85 826.5 829.25 835 841.55 848.4 860.15 864.9 ">leurssociaux,missionslocales,entreprises&#x2026;),</text>
<text y="265.7" x="0.4 3.9 6.55 11.9 18.65 24.6 32.05 42.05 56.25 63.65 70.25 79 85.9 93.1 97.15 102.95 110.85 118.25 125.25 131.85 140.25 147.4 157.4 160.75 167.5 173.25 180.45 184.45 190.15 193.1 200.95 210.4 218.3 225.1 232.7 240.2 245.65 250.4 ">lit&#xE9;,50%despersonneseninsertionontd&#xE9;j&#xE0;</text>
<text y="264.35" x="303.35 309.6 313.45 319.95 327.4 329.75 334.65 342.15 349.25 358.1 364 370.75 377.25 384.9 387.25 392.7 399.75 403.75 409.95 416.9 425.45 432.75 436.75 442.95 448.35 455.4 457.8 462.65 468.4 ">cr&#xE9;ditsdecovoituragegratuits.</text>
<text y="264.35" x="605.75 612.5 620.6 629.95 637.4 647.15 654.5 658.65 665.75 672.8 680.6 684.7 694.15 701.25 710.95 717.15 725.05 736.8 743.5 748.85 758.65 762.1 764.65 771.75 778.6 784.35 791.5 803.25 810.6 813.7 822.8 830.25 836.8 ">a&#xE000;ndeprendreencomptel'ensembledes</text>
<text y="283.25" x="0.35 4.5 11.25 16.05 22.85 28.6 38.4 45.8 55.5 62.65 74.35 81.75 84.85 92.75 98 105.95 116 123.4 130.4 139.35 143.85 151.75 156.4 167.75 174.25 179.95 182.9 190.75 200.85 207.8 215.7 223.1 229.7 237.15 243.7 252.45 256.75 263.9 267 ">re&#xE001;us&#xE9;unemploiouune&#xE001;ormationpourdesrai-</text>
<text y="281.95" x="304 310.1 316.95 323.25 330.1 333.2 336.45 339.25 346.1 353.2 357 362.45 367.4 374.85 381.5 388.4 395.15 404.25 411.95 421.4 428 434.85 438.6 443.65 449.8 456.75 465.4 470.85 478.45 487 492.4 496.4 501.55 506.05 512.25 517.3 522.25 529.9 539.35 543.2 549.65 557.15 564.2 566.6 ">Parailleurs,quandonpartagesontrajet,onr&#xE9;duit</text>
<text y="281.95" x="606.15 610.3 617.05 624.25 627.7 630.35 635.7 642.3 650.4 657.8 664.35 673.1 680.05 687.15 691.3 697.55 705.45 712.8 716.95 725.05 732.55 735.75 742.9 754.6 762 765.1 773 776.25 ">r&#xE9;alit&#xE9;sdesparcoursd&#x2019;emploi.</text>
</g>
<g class="s1KGbVZW43" transform="translate(615.85 807.6)" >
<text y="0" x="0 6.1 14 17.9 21.25 31.6 37.75 41.1 49.25 56.85 63.75 69.85 75.6 83.25 91.5 99.35 103.9 111.6 118.5 ">JulieLionet-Bourgat</text>
</g>
<g class="s1KGbVZW44" transform="translate(616.4 830)" >
<text y="0" x="0.1 7.8 13.85 18.6 26.85 33.85 40.6 46.45 53.25 60.75 64.45 73 84.05 90.75 95.35 102.05 109 113.25 116.35 123.2 133.25 140.1 145.85 153.85 160.6 165.6 170.5 176.85 184.05 190.75 195.35 198.5 205.7 ">Responsablemarketingetpartenariat</text>
<text y="17.5" x="0 7.45 13.5 17.1 19.5 27.95 33.75 40.1 47.35 53.6 ">Scity.coop</text>
</g>
<g class="s1KGbVZW45" transform="translate(130.5 186.5)" >
<text y="0" x="0 14.4 28.65 44.15 54.85 69.65 81.4 94.05 106.15 119.2 134 139.7 152.85 ">UNEPARTENAIRE</text>
<text y="36.15" x="0.15 13.3 24.65 37.55 50.15 65.3 78.85 90.15 105 118.6 129.85 ">RESPONSABLE</text>
</g>
<g class="s1KGbVZW46" transform="translate(518.3 395.55)" >
<text y="0" x="0 29.5 64 91.5 117.1 149.9 181.3 208.2 225.1 259.8 284.75 329.5 358.7 375.6 403.25 421.35 ">&#x201C;AvecP&#xF4;leemploi,</text>
<text y="53.6" x="55.05 86.5 113.75 145.15 175.9 206.85 232.7 255 274.5 300.05 326.8 352.35 380.2 411.6 ">nouspartageons</text>
<text y="107.3" x="19.3 35.35 59.95 88.15 114.9 138.95 155 178.45 208.45 231.35 261.65 290.75 300.3 329.35 346.95 361.15 376.35 390.55 408.95 ">lesvaleursd&#x2019;utilit&#xE9;</text>
<text y="160.95" x="7.15 29.3 56.85 78.9 94.8 118.85 134.9 167.75 190.9 217.5 246.6 257.55 282.55 313.1 335.4 358.5 383.15 409 ">socialeetd&#x2019;ancrage</text>
<text y="214.65" x="153.1 170 198.45 222.4 247.3 273.5 298.75 339.25 362.3 387.05 403.1 ">localausein</text>
<text y="268.3" x="75.5 105.15 130.65 161.2 180.5 205.5 228.8 251.8 266.9 286.2 313.85 329.9 353.75 379.25 411.9 ">desterritoires&#x201D;</text>
</g>
<g class="s1KGbVZW47" transform="translate(468.35 48.75)" >
<text y="0" x="0 6.75 12.85 19.25 ">Rapp</text>
<text y="0" x="25.4 31.75 36.15 42.4 49.25 56.35 64.25 70.75 77.6 82.1 ">ortRSE2017</text>
</g>
<g class="s1KGbVZW48" transform="translate(499.85 1408.45)" >
<text y="0" x="0 7.05 11.4 20.85 ">-12-</text>
</g>
</svg>
