<?xml version="1.0" encoding="UTF-8" standalone="no"?>
<!DOCTYPE svg PUBLIC "-//W3C//DTD SVG 1.1//EN" "http://www.w3.org/Graphics/SVG/1.1/DTD/svg11.dtd">
<svg xmlns="http://www.w3.org/2000/svg" xmlns:xlink="http://www.w3.org/1999/xlink" version="1.1"
     viewbox="0 0 1024.00 1448.20" width="1024.00" height="1448.20" style="overflow:hidden" xml:space="preserve">
<defs>
<style type="text/css">
<![CDATA[
@font-face { font-family: 'f24kYBRa47#17'; font-weight: normal; font-style: normal;  src: url(svg/font6.ttf) format('truetype'); }
@font-face { font-family: 'f24kYBRa411#66'; font-weight: normal; font-style: normal;  src: url(svg/font10.ttf) format('truetype'); }
@font-face { font-family: 'f24kYBRa48#22'; font-weight: normal; font-style: normal;  src: url(svg/font7.ttf) format('truetype'); }
@font-face { font-family: 'f24kYBRa49#27'; font-weight: normal; font-style: normal;  src: url(svg/font8.ttf) format('truetype'); }
@font-face { font-family: 'f24kYBRa410#32'; font-weight: normal; font-style: normal;  src: url(svg/font9.ttf) format('truetype'); }
@font-face { font-family: 'f24kYBRa412#37'; font-weight: normal; font-style: normal;  src: url(svg/font11.ttf) format('truetype'); }

.s24kYBRa40 { fill: rgb(166, 202,  92); font-family: 'f24kYBRa47#17'; font-size: 41.25px; }
.s24kYBRa41 { fill: rgb( 91, 197, 242); font-family: 'f24kYBRa48#22'; font-size: 18.90px; }
.s24kYBRa42 { fill: rgb(166, 202,  92); font-family: 'f24kYBRa48#22'; font-size: 18.90px; }
.s24kYBRa43 { fill: rgb(255, 255, 255); font-family: 'f24kYBRa49#27'; font-size: 14.60px; }
.s24kYBRa44 { fill: rgb(255, 255, 255); font-family: 'f24kYBRa49#27'; font-size: 8.50px; }
.s24kYBRa45 { fill: rgb( 36,  87,  33); font-family: 'f24kYBRa410#32'; font-size: 25.80px; }
.s24kYBRa46 { fill: rgb(255, 255, 255); font-family: 'f24kYBRa410#32'; font-size: 15.80px; }
.s24kYBRa47 { fill: rgb(255, 255, 255); font-family: 'f24kYBRa411#66'; font-size: 12.00px; }
.s24kYBRa48 { fill: rgb(255, 255, 255); font-family: 'f24kYBRa412#37'; font-size: 12.00px; }
]]>
</style>
</defs>
<image x="0" y="0" width="1024" height="1448.2" xlink:href="svg/svg.jpg"/>
<g class="s24kYBRa40" transform="translate(240.65 338.15)" >
<text y="0" x="0 ">&#x2022;</text>
<text y="0" x="264.6 ">&#x2022;</text>
<text y="0" x="529.2 ">&#x2022;</text>
<text y="758.85" x="80.75 ">&#x2022;</text>
<text y="758.85" x="477.65 ">&#x2022;</text>
</g>
<g class="s24kYBRa41" transform="translate(156.7 360.85)" >
<text y="0" x="34.3 41.85 51.65 60.2 69.25 77.65 89.75 99.8 110.75 120.5 129.6 139.25 ">LUTTERCONTRE</text>
<text y="0" x="258.65 263.25 273.45 283.65 291.2 301.6 311.25 321.7 330.25 341.1 351.05 363.3 371.25 379.25 391.5 400.65 411.05 420.65 428.65 433.1 442.9 ">INCLURETOUSLESPUBLICS</text>
<text y="0" x="546.8 557.65 567.3 577.55 587.3 591.95 604.25 612.15 620.15 632.4 644.8 652.4 661.55 666.2 674.55 683.7 ">OUVRIRLESM&#xC9;TIERS</text>
<text y="22.65" x="0 7.3 20.35 28.35 37.35 47.2 56.65 65.7 76.05 85.7 96.75 107.05 117.45 129.9 138.1 147.85 152.3 163.15 173.55 ">LAFRACTURENUM&#xC9;RIQUE</text>
<text y="22.65" x="302.75 312.1 322.5 332.45 344.75 350.65 355.4 363.8 376.2 385.4 392.75 403.75 ">DANSL&#x2019;EMPLOI</text>
<text y="22.65" x="557.3 567.75 578.75 586.05 599.05 611.5 619.9 631.55 644 652.5 663.4 673.3 ">DELAMER&#xC0;TOUS</text>
<text y="758.9" x="103 110.7 121.65 131.3 143.75 152.15 163.75 176.8 184.1 197.1 204.65 214.45 223 232.1 ">FORMER&#xC0;LALUTTE</text>
<text y="758.9" x="460.55 467.2 477.7 482.3 491.95 502.95 512.65 520.65 530.8 541.2 549.15 557.55 569.8 577.75 585.75 598 606.8 617.2 626.8 636.55 641.2 649.45 659.05 667.05 ">FAIRERECULERLESBARRI&#xC8;RES</text>
<text y="781.6" x="63 73.05 84 93.8 102.85 112.5 123.55 131.5 139.45 151.75 162.2 166.45 175.8 186.05 195.75 200.4 212.9 217.5 227.2 236.15 245.3 249.75 260.7 270.65 ">CONTRELESDISCRIMINATIONS</text>
<text y="781.6" x="519.8 530.15 543.15 552.8 563.2 573.55 584.05 588.5 597.9 608.3 ">DUHANDICAP</text>
</g>
<g class="s24kYBRa42" transform="translate(187.3 406.25)" >
<text y="0" x="0 7.85 16.4 25.65 37.9 48.3 59.35 66.65 79.65 87.05 98.05 102.6 112.3 ">PAYSDELALOIRE</text>
<text y="0" x="269.9 275.95 283.8 292 297.95 308.4 316.5 322.5 330.45 339.45 349.9 360.05 370.3 ">&#xCE;LE-DE-FRANCE</text>
<text y="0" x="552.65 562.3 571.95 579.7 587.25 597.05 607.65 618.05 ">BRETAGNE</text>
<text y="758.9" x="97.75 107.95 118.85 128.55 140.3 150.7 161.05 171.55 176.1 ">NORMANDIE</text>
<text y="758.9" x="429.9 438.95 449.9 457.8 468.85 477.2 489.65 498.85 506.2 517.2 524.05 533.7 542.05 550.8 561.15 565.55 575.8 583.75 595.05 605 614.7 619.3 627.2 637.8 ">P&#xD4;LEEMPLOISERVICES/SI&#xC8;GE</text>
</g>
<g class="s24kYBRa43" transform="translate(124.55 438.45)" >
<text y="0" x="0.5 11.7 15.6 22.75 29.95 37.3 40.05 45.8 52.6 65.6 72.75 85.85 91.6 98.75 105.4 110.75 117.9 129.7 136.95 141.05 154.05 161.6 169.5 175.3 180.75 190.6 193.75 207.45 216.55 219.25 ">Organis&#xE9;eenseptembre2017,laDig</text>
<text y="0" x="265.55 271.95 279.05 283.8 295.15 301.65 306.75 312.45 316.55 327.3 337.8 345.25 351.8 362 368.95 376.05 380.2 385.95 393.8 401.2 408.2 414.85 424.95 436.3 442.2 446.1 451.8 456.45 459.2 464.95 472.05 478.85 488.6 495.55 502.65 530.2 538.95 546.1 552.95 565.15 568.25 581.1 587.25 594.05 601.8 605.95 618.5 625.9 639.15 642.25 655.05 672.4 679.15 686.9 689.6 695.3 698.25 706.15 718.95 726.35 739.6 742.7 755.3 762.3 769.3 ">Permettre&#xE0;despersonnesma&#xEE;trisantpeuDanslecadredela2&#xE9;ditiondelaSe-</text>
<text y="0" x="226.8 229.5 234.8 242 ">ital</text>
<text y="17.55" x="0 12.85 19.7 26.85 37.85 50.05 57 64.1 68.85 80.55 83.3 94.05 105.95 114 121.45 134.05 141.5 148.6 159.95 167.05 174.1 181.55 188.7 196.05 200.1 210.65 218.2 221.4 228.55 240.05 ">Weekapermis&#xE0;450demandeursd&#x2019;em-</text>
<text y="17.55" x="264.95 272.8 286.25 297.55 304.75 314.3 317.4 329.75 334.55 338.8 346 353 359.2 366.3 369.05 380.55 387.95 400.45 407.8 414.6 420.8 428.7 435.3 442.65 447.3 450.6 460.65 468.05 474.65 486.2 491.9 498.7 504.7 529.9 541.25 548.35 551.65 558.7 570.45 577.85 590.3 593.55 596.75 603.85 615.6 623 626.1 634 642.6 653.9 661.05 665.7 668.4 674.05 677.4 688.75 695.45 704.6 710.95 718.95 722.05 734.1 741.25 752.95 760.35 763.45 771.35 ">oumalle&#xE000;ran&#xE7;aisded&#xE9;couvrirdessec-mainedel&#x2019;emploimaritime,P&#xF4;leemploi</text>
<text y="35.1" x="0.7 8.1 11.2 19.1 27.35 34.8 47.6 54.5 61.6 68.6 75.35 83.1 89.6 92.6 99.75 109.4 116.9 120.45 127.85 140.5 147.25 153.45 159.7 167.55 179.3 186.25 192.75 200.3 207.3 214.5 225.8 233 239.75 ">ploideb&#xE9;n&#xE9;fcierd&#x2019;unaccompagnement</text>
<text y="35.1" x="264.7 270 277.15 284.55 288.65 300.45 307.4 315.3 319.3 324.7 331.8 339.2 343.3 354.75 361.25 371.95 379.5 383 385.95 393.4 400.45 407.3 412.95 415.85 423.6 430.7 440.45 447.85 454.4 466.2 477.55 484.05 489.7 492.7 499.85 503.95 530.2 537.7 541.85 548.35 553.65 560.15 567.7 574.75 589.05 602.55 609.5 616.7 619.8 627.75 632.4 635.15 640.85 655.6 658.85 661.7 668.5 674.7 680.9 687.45 700.45 707.9 714.45 727.25 731.75 738.9 750.6 761.95 768.55 ">teursporteursetd&#x2019;identiferdesm&#xE9;tiersBretagneavaloris&#xE9;l&#x2019;acc&#xE8;sdes&#xE000;emmes</text>
<text y="52.65" x="0.25 7.45 20.6 28.05 35.45 46.8 53.95 58.6 61.55 69.3 76.3 88.6 96 103.15 109.95 121.95 125.1 137.7 143.8 150.6 158.35 162.55 174.8 182.3 195.3 198.45 205.55 212.95 217.05 229 233.15 240.05 ">aunum&#xE9;riquedanslecadredeleursre-</text>
<text y="52.65" x="264.95 271.15 279.05 283.75 287.9 294.45 300.55 307.5 315.45 322.45 329.8 337 343.75 355.25 368.55 371.75 378.8 386.25 390.3 402.65 409.95 414.15 421.6 429.8 432.7 444.95 452.3 456.45 463.95 468.4 474.95 480.45 486.6 489.55 497.45 504.7 ">correspondant&#xE0;leursproflspro&#xE000;ession-</text>
<text y="52.65" x="529.5 536.65 543.25 554.15 565.5 572 577.7 580.65 587.75 591.9 600.95 608.35 619.2 622.25 633.05 644.4 651.55 655.65 662.35 671.65 678.65 689.05 695.3 703.2 710.15 714.65 721.75 725.9 733.05 740.1 746.3 756.5 762.6 770 ">auxm&#xE9;tiersdelamer.Unecon&#xE000;&#xE9;rencesur</text>
<text y="70.15" x="0.35 7 14 21.1 25.25 31.95 38.95 45.55 51.55 69.35 75.75 82.85 89.85 97.3 104.45 111.2 124.05 ">cherches.Pendantp</text>
<text y="70.15" x="131.35 134.85 141.7 154.3 161.8 165.35 172.75 179.8 193.5 199.25 206.4 217.7 224.8 228.15 235.15 241.9 ">lusd&#x2019;unesemaine,</text>
<text y="70.15" x="265.3 272.3 279.55 282.45 293.8 301.45 306.8 314 322.45 329 334.5 345.55 348.8 351.4 359.3 364.95 369.7 376.45 382.4 388.05 390.95 400.45 407.9 414.45 425.55 432.05 437.4 444.6 448.05 450.95 458.1 462.2 473.1 478.85 485.6 491.55 496.9 504.65 ">nels:telestl&#x2019;objecti&#xE000;desatelierssecto-</text>
<text y="70.15" x="529.95 533.2 536.35 542.7 549.55 557.55 561 567.75 573.45 576.4 584.3 597.65 605.1 611.65 624.4 635.75 642.25 647.95 650.9 658 662.1 674.85 686.2 693.35 698 700.65 706.35 709.65 721 727.6 739.95 746.45 758.85 761.95 768.55 ">l&#x2019;&#xE9;volutiondesm&#xE9;tiersmaritimesetles</text>
<text y="87.65" x="0.7 7.6 14.2 26.55 37.95 45.8 49.1 55.95 67.6 75.05 88.2 95.6 103.05 117.2 124.35 136.05 143.45 146.55 153.05 160.55 167.75 175.05 179.2 191.2 197.7 209.65 216.55 223.75 227.8 233.05 240.05 ">pasmoinsde550employeursetparte-</text>
<text y="87.65" x="265.3 269.95 272.9 280.05 283 292.8 300.3 303.9 307.2 314.25 320.9 324.3 331.2 337.25 340.2 348.05 359.5 370.3 377.75 384.3 389.8 395.45 398.8 405.8 412.3 417.95 420.95 428.85 439.95 447.4 453.95 464.45 468.55 475.3 480.1 486.85 494.4 497.35 503.95 529.9 536.95 544.85 556.6 563.9 568 575.15 581.75 592.85 598.15 605.3 616.65 624.55 627.2 634.8 641.8 648.25 655.5 662.05 672.25 679.65 691.5 698.85 703 710.45 714.95 721.5 727.05 733.15 736.1 744 751.4 758.4 765.6 768.55 ">rielsd&#x2019;inclusion&#xE0;destinationdesr&#xE9;&#xE000;ugi&#xE9;snombreuxt&#xE9;moignagesdepro&#xE000;essionnels</text>
<text y="105.25" x="0.7 7.7 14.85 18.1 22.25 28.85 37.2 45.1 51.85 60.45 67.35 74.5 78.55 84.25 87.2 93.75 97.05 104 113.65 120.15 128.75 136.05 140.2 146.8 152.55 159.6 166.45 171.75 181.8 184.95 192.05 199.5 203.55 211.9 219.4 223.8 228.65 232.8 239.3 265.3 277 279.75 289.2 296.3 307.4 ">nairesontparticip&#xE9;etpr&#xE9;sent&#xE9;leurso&#xE000;&#xE000;resmisenp</text>
<text y="105.25" x="314.8 317.9 324.65 330.9 341.3 347.65 354.5 361.3 371 377.05 384.05 390.3 396.55 403.05 412.55 419.7 430.4 437.95 445.8 451.65 462.7 469.7 476.8 485.45 491.85 499.85 502.95 529.55 537.45 544.2 554.95 561.9 569 573.7 585.4 588.15 598.6 606.15 609.35 616.45 623 630.3 633.05 638.75 645.25 652.45 659.6 669.35 672.6 675.8 682.9 694.65 702 705.15 713 721.35 732.7 739.8 744.45 747.15 752.85 756.15 767.5 ">laceavecsucc&#xE8;sen2017parP&#xF4;leontpermisd&#x2019;envisagerl&#x2019;emploimaritime</text>
<text y="122.8" x="0.35 7.85 11 18.2 29.95 37.3 40.45 48.3 59.35 67.3 83.1 90.45 94.6 102.1 109.9 112.55 120.15 127.15 142.05 149.45 156.05 170.2 176.45 184.3 191.1 196.85 204 207.4 210.3 224.45 231.55 238.2 ">d&#x2019;emploiouprodigu&#xE9;desconseilsaux</text>
<text y="122.8" x="264.95 272.05 283.8 291.2 294.3 302.2 307.7 312.45 315.55 322.55 327.55 334.95 341.95 347.55 353.55 357.8 364.95 372 378.2 385.3 ">emploi&#xCE;le-de-France.</text>
<text y="122.8" x="529.55 536.95 550.95 555.4 562.2 568.4 576.3 590.8 598.55 601.45 605.85 610.3 617.45 621.6 628.75 635.5 640.85 655.35 661.85 674.6 682.05 696.95 700.45 707.2 712.25 717.6 724.75 736.8 743 750.9 757.7 763.4 767.55 ">de&#xE000;a&#xE7;ondi&#xE000;&#xE000;&#xE9;renteetdeluttercontre</text>
<text y="140.3" x="0.35 7 14 21.1 25.25 31.95 38.95 46.1 53.5 57.6 66.35 73.85 77.05 84.2 95.95 103.3 106.45 114.3 117.55 ">chercheursd&#x2019;emploi.</text>
<text y="140.3" x="529.95 533.05 539.65 548.5 553.95 559.3 566.45 570.55 577.35 584.65 589.15 597.15 604.1 610.65 616.7 ">lesst&#xE9;r&#xE9;otypes.</text>
<text y="758.8" x="15.6 21.7 29.35 32.2 44.75 51.6 63 70.1 72.95 80.5 89.85 99.35 107.05 111.4 122.45 129.3 136.05 143.5 146.1 158.5 164.05 166.95 173.2 178.35 189.8 196.5 203.3 207.05 212.45 215.15 221.4 228.55 231.75 234.4 241.25 245.05 251.9 263 269.8 276.3 287.75 290.75 297 303.55 309.8 315 320.4 329.45 336.15 343.75 350.8 360.55 367.75 373.75 380.3 387 ">P&#xF4;leemploiNormandies&#x2019;estparticuli&#xE8;rementinvestipourd&#xE9;ve-</text>
<text y="758.8" x="412.55 418.9 426.85 429.95 443.05 450.2 461.9 469.3 472.4 480.3 489.35 495.1 502.2 506.1 513.4 516.35 522.6 529.15 541.15 554.6 565.95 573.1 580.15 593.55 600.95 608 621.05 627.25 634.4 646.1 653.05 659.5 667.1 674.15 686.9 694.3 707.2 712.95 720.05 726.9 733 736.35 743.6 746.95 750.4 753.15 758.9 765.4 771.05 774 781.9 ">P&#xF4;leemploiservicesamen&#xE9;unecampagnedesensibilisation</text>
<text y="776.35" x="15.35 18.25 25.85 32.85 39.55 46.35 54.5 57.35 63.6 72.75 78.6 86.3 97.7 104.4 110.6 115.65 122.5 129.25 135.1 141.45 150.3 157.35 167.3 172.8 179.05 188.2 194.1 201.8 205.05 207.8 214.75 221.3 228.95 232.95 239.2 244.2 251.05 258.15 261.95 271.05 277.3 286.05 291.95 299.65 302.9 305.7 312.55 319.2 326.8 330.8 337 342.4 346.8 349.45 355.3 361.65 370.75 377.15 385 ">lopperlescomp&#xE9;tencesdesescollaborateursetcollaboratricesafn</text>
<text y="776.35" x="411.85 418.35 428.45 436.05 439.55 442.9 449.85 454.35 462.2 466.95 478.2 484.7 490.45 493.4 501.3 513.4 525 532.4 538.95 544.45 550.15 553.45 560.45 566.95 572.65 575.6 583.5 595.35 602.75 614.4 620.15 626.75 637.55 644.05 651.25 658.4 665.15 670.3 680.95 687.05 694.45 704.25 707.35 718.95 726.65 733.7 740.25 745.75 751.4 754.35 762.25 774.1 781.9 ">etd&#x2019;in&#xE000;ormation&#xE0;destinationdesesagentssurlaquestiondu</text>
<text y="793.95" x="15 22.1 32.55 43.95 46.6 53.45 59.75 70.3 77.35 81.2 87.25 93.8 100.6 107.7 110.75 118.8 121.6 127.9 136.75 142.5 144.85 150.3 157 163.25 168.55 171.3 178.85 185.45 194.2 201.3 211.05 218.55 221 226.45 232.75 237.05 240.05 251.5 254.55 261.25 267.5 272.8 275.5 283.15 290.15 297 303.25 313.55 320.8 328.4 333.95 339.05 346 348.95 352.15 355.2 361.75 366.9 372.3 374.7 380.05 387.05 ">demieuxpr&#xE9;venirlessituationsdediscrimination.En2017,l&#x2019;institu-</text>
<text y="793.95" x="412.3 419.3 426.45 433.45 441.2 444.15 450.35 457.45 464.7 472.8 479.7 486.45 493.65 497.1 499.85 505.6 512.2 522.45 529.55 541.1 547.3 555.3 558.85 561.9 569.1 576 583.9 588.2 594.7 600.35 603.3 611.25 622.75 629.05 635.95 642.7 653.85 656.95 663.5 673.2 678.9 683.2 689.55 696.5 703.6 706.95 710.5 713.6 720.75 728.15 732.25 742.3 748.05 755.6 762.15 765.05 772.2 778.8 785.7 ">handicap.R&#xE9;alis&#xE9;sencollaborationaveclestravailleurssociaux,</text>
<text y="811.5" x="14.7 20.1 22.75 30.35 40.7 50.8 56.7 64.35 71.05 77 83.85 90.3 95.7 99.55 109.45 114.85 124.65 131.8 138.6 149.6 156.5 160.3 166.7 173.45 183.25 190.3 197.1 203.7 213.2 216 225.8 232.95 240.55 251.55 258.4 261.45 268.15 277.95 285.05 295.55 298.55 301.45 307.55 314.5 321.4 324.55 327 332 341.65 345.8 352.65 364.05 375.15 381.45 386.55 ">tionaconcentr&#xE9;sad&#xE9;marchedansledomainedel&#x2019;&#xE9;galit&#xE9;&#xE000;emmes/</text>
<text y="811.5" x="412.3 415.4 421.95 431.45 437.6 444.95 452.3 459.2 467.2 471.2 476.35 485.8 493.2 504.35 507.45 518.2 524.4 531.5 543.25 550.2 556.65 564.25 571.3 581.75 589.65 596.4 606.1 613.05 620.2 624.85 636.55 639.3 648.75 656.25 659.15 665.45 672.35 680.2 683.55 692.2 699.55 706.6 716.55 723.85 726.6 732.7 735.65 743.55 754 759.7 764 771.15 777.95 783.9 ">lessupportsdelacampagneontpermisd&#x2019;avoirunevisiontrans-</text>
<text y="829.05" x="15.35 22.1 29.75 41.2 52.25 58.55 64.3 75.85 84.35 90.6 100.2 106.7 112.35 117.7 120.4 128 134.55 143.8 150.95 161.35 166.8 173.7 180.25 186.05 189.05 196.05 199.1 202.3 204.75 210.15 216.4 221.75 224.45 232.05 242.65 249.75 256.05 266 277.05 283.9 290.55 296.8 303.75 310.55 314.4 323.7 331.3 337.8 347 353.25 358.25 369.25 380.3 387 ">hommes.Desactionsdesensibilisationdesmanagersont&#xE9;t&#xE9;me-</text>
<text y="829.05" x="411.45 418.3 425.4 429.55 435.2 442.45 445.55 458.2 465.95 479.6 486.6 493.7 500.7 508.45 511.45 517.65 524.75 531.65 541 547.5 558.7 566.1 579.4 591.1 594.05 601.2 607.8 620.9 627.1 635 646.75 654.05 658.2 665.35 672.35 680.15 684.3 696.65 702 709.9 716.7 729.05 732.15 738.75 750.65 757.8 763.5 768.25 775.4 782 ">versaleduhandicap,etdemieuxcomprendretouslesenjeux</text>
<text y="846.6" x="15.35 22.1 28.55 34.85 43.3 50.1 60.3 63.45 66.1 72.95 82.6 88.7 95.25 101.75 111.1 113.9 123.05 130.2 137.05 139.85 146.05 153 159.2 164.55 167.25 174.8 184.95 188.8 195 202.25 204.95 212.55 219.25 226.15 229 238.15 245.3 251.55 260.7 269.55 273.4 280.95 283.3 288.2 296.3 303.5 309.75 317.75 321.9 328.75 340.2 351.25 357.55 366.3 373 380.65 387.7 411.85 419.3 435.05 438.15 453.85 457.95 464.7 470.95 478.85 486.2 493.2 500.35 503.1 508.65 514.4 521.5 528.55 534.75 549.8 557.2 573 576.05 591.1 598.85 605.85 613.05 616.5 619.2 624.5 639.55 646.95 661.75 667.45 671.75 678.05 685 692.1 695.5 699.05 702.15 709.3 716.65 730 737 744.1 751.15 758.9 761.85 768.05 775.15 782.15 ">n&#xE9;esenlienaveclad&#xE9;l&#xE9;gationr&#xE9;gionaledesDroitsdes&#xE000;emmespourdelareconnaissancedelaqualit&#xE9;detravailleurhandicap&#xE9;</text>
<text y="864.1" x="15.35 26.75 29.35 36.25 42.55 52.2 58.1 65.75 77.1 84.2 88.05 94.85 101.6 109.1 112.95 122.45 128.6 136.7 142.6 150.25 161.75 168.3 174.55 179.3 184.7 188.55 198.5 201.3 207.55 215.8 221.05 226.05 232.9 236.75 243.25 250.25 254.45 262.15 268.8 275.05 283.25 290.4 299.55 306.5 313.3 320.45 324.3 331.05 ">mieuxcomprendreetcombattrelesst&#xE9;r&#xE9;otypesdegenre.</text>
<text y="864.1" x="412.4 417.1 424.3 434.45 442.7 451.8 460.2 467.3 474.55 479.85 486.95 498.7 510.1 517.25 524 529.7 ">(RQTH)notamment.</text>
</g>
<g class="s24kYBRa44" transform="translate(786.7 433.55)" >
<text y="0" x="0 ">e</text>
</g>
<g class="s24kYBRa45" transform="translate(391.4 201.65)" >
<text y="0" x="0 13.15 24.4 37.35 49.9 65.05 78.65 89.95 104.8 118.35 129.6 140.85 152.85 162.3 172.95 187.8 199.6 210.85 225.8 239.15 ">RESPONSABLES,PARTOUT</text>
<text y="27.5" x="34.45 46.95 61.3 77.9 89.15 102.85 115.45 127.55 140.7 153.85 158.55 169.8 184.95 190.6 203.8 ">SURLETERRITOIRE</text>
</g>
<g class="s24kYBRa46" transform="translate(466.05 119.15)" >
<text y="0" x="0 3.5 10.35 16.85 25.05 32.1 39.85 47.15 54.8 62.55 65.65 74.95 83.3 ">ILLUSTRATIONS</text>
</g>
<g class="s24kYBRa47" transform="translate(452.65 48.75)" >
<text y="0" x="0 6.6 12.35 18.05 24.2 30.6 36.6 42 48.05 54.45 57.65 63.35 70.8 77 83 88.5 94.7 104.35 110.75 114 ">Responsablesensemble</text>
</g>
<g class="s24kYBRa48" transform="translate(501.75 1408.45)" >
<text y="0" x="0 7.15 17.1 ">-9-</text>
</g>
</svg>
