<?xml version="1.0" encoding="UTF-8" standalone="no"?>
<!DOCTYPE svg PUBLIC "-//W3C//DTD SVG 1.1//EN" "http://www.w3.org/Graphics/SVG/1.1/DTD/svg11.dtd">
<svg xmlns="http://www.w3.org/2000/svg" xmlns:xlink="http://www.w3.org/1999/xlink" version="1.1"
     viewbox="0 0 1024.00 1448.20" width="1024.00" height="1448.20" style="overflow:hidden" xml:space="preserve">
<defs>
<style type="text/css">
<![CDATA[
@font-face { font-family: 'f348FVZW42#15'; font-weight: normal; font-style: normal;  src: url(svg/font1.ttf) format('truetype'); }

.s348FVZW40 { fill: rgb(255, 255, 255); font-family: 'f348FVZW42#15'; font-size: 12.00px; }
]]>
</style>
</defs>
<image x="0" y="0" width="1024" height="1448.2" xlink:href="svg/svg.jpg"/>
<g class="s348FVZW40" transform="translate(73.65 1360.6)" >
<text y="0" x="0.25 7.25 13.4 19.85 ">Rapp</text>
<text y="0" x="26.15 32.75 37.25 44.55 51.4 58.65 67.65 74.15 81.25 85.9 95.35 100.9 110.9 117.65 123.5 129.25 135.6 142.1 148.25 153.75 159.95 166.4 169.75 175.6 184 190.35 196.45 202.15 208.45 218.3 224.7 228.1 237.1 243.05 248.8 256.5 259.4 263.65 269.75 275.4 279.85 282.45 289 298 304.5 313.6 317.2 325.95 333 337.4 341.7 347.9 351.9 358 364.75 367.4 373.25 379.1 385.5 394.7 398.4 401.25 404.25 410.65 416.9 422.6 428.6 434.8 439.25 441.85 448.4 457.15 467.65 474.1 483.25 486.8 495.95 502.85 510.05 519.2 ">ortRSE2017:&#xAB;Responsablesensemble&#xBB;.DirectiondelaStrat&#xE9;gie,del'Innovation&amp;delaRSE-</text>
<text y="0" x="526.5 533.15 539.65 545.9 551.2 557.5 564 568.4 571.05 577.55 586.6 592.9 600.05 604.35 610.45 616.65 620.5 623.05 628.5 634.75 639.15 641.8 648.3 657.45 663.2 670.75 677.25 683.25 688.9 694.25 700.75 704.75 710.4 719.35 ">Conceptionetr&#xE9;alisation:Hopscotch-</text>
<text y="0" x="726.9 729.9 733.05 736.65 742.5 748.2 752.55 756.85 763.05 767.5 770.1 776.6 785.75 791.5 798.9 803.45 809.65 815.9 825.35 834.05 840.3 846.5 853.05 ">Illustration:BrunoMangy</text>
<text y="0" x="859.35 865.95 871.9 ">oku</text>
<text y="14.45" x="0 6.85 11 17.05 23.65 26.35 30.3 38.35 44.8 50.85 57.25 61.15 67.4 73.9 78.1 84.15 90.6 96.9 99.4 105.95 111.85 117.5 125.5 130.4 137.4 143.6 149.7 153.65 157.5 163.7 167.75 173.4 177.25 183.45 189 ">Cr&#xE9;ditsphotographiques:Shutterstock</text>
</g>
</svg>
