<?xml version="1.0" encoding="UTF-8" standalone="no"?>
<!DOCTYPE svg PUBLIC "-//W3C//DTD SVG 1.1//EN" "http://www.w3.org/Graphics/SVG/1.1/DTD/svg11.dtd">
<svg xmlns="http://www.w3.org/2000/svg" xmlns:xlink="http://www.w3.org/1999/xlink" version="1.1"
     viewbox="0 0 1024.00 1448.20" width="1024.00" height="1448.20" style="overflow:hidden" xml:space="preserve">
<defs>
<style type="text/css">
<![CDATA[
@font-face { font-family: 'f4WSlVZW49#23'; font-weight: normal; font-style: normal;  src: url(svg/font8.ttf) format('truetype'); }
@font-face { font-family: 'f4WSlVZW410#28'; font-weight: normal; font-style: normal;  src: url(svg/font9.ttf) format('truetype'); }
@font-face { font-family: 'f4WSlVZW47#52'; font-weight: normal; font-style: normal;  src: url(svg/font6.ttf) format('truetype'); }
@font-face { font-family: 'f4WSlVZW411#33'; font-weight: normal; font-style: normal;  src: url(svg/font10.ttf) format('truetype'); }
@font-face { font-family: 'f4WSlVZW48#18'; font-weight: normal; font-style: normal;  src: url(svg/font7.ttf) format('truetype'); }
@font-face { font-family: 'f4WSlVZW412#38'; font-weight: normal; font-style: normal;  src: url(svg/font11.ttf) format('truetype'); }

.s4WSlVZW40 { fill: rgb(  0,  74,  78); font-family: 'f4WSlVZW47#52'; font-size: 12.00px; }
.s4WSlVZW41 { fill: rgb(  0,  74,  78); font-family: 'f4WSlVZW48#18'; font-size: 12.00px; }
.s4WSlVZW42 { fill: rgb( 51, 125, 109); font-family: 'f4WSlVZW49#23'; font-size: 41.25px; }
.s4WSlVZW43 { fill: rgb(  3,  56, 120); font-family: 'f4WSlVZW410#28'; font-size: 18.90px; }
.s4WSlVZW44 { fill: rgb( 74,  74,  73); font-family: 'f4WSlVZW411#33'; font-size: 15.45px; }
.s4WSlVZW45 { fill: rgb(255, 255, 255); font-family: 'f4WSlVZW412#38'; font-size: 18.90px; }
.s4WSlVZW46 { fill: rgb(  0,  74,  78); font-family: 'f4WSlVZW412#38'; font-size: 18.90px; }
.s4WSlVZW47 { fill: rgb(255, 255, 255); font-family: 'f4WSlVZW411#33'; font-size: 14.60px; }
.s4WSlVZW48 { fill: rgb(255, 255, 255); font-family: 'f4WSlVZW412#38'; font-size: 25.80px; }
.s4WSlVZW49 { fill: rgb( 36,  87,  33); font-family: 'f4WSlVZW49#23'; font-size: 49.65px; }
.s4WSlVZW410 { fill: rgb( 36,  87,  33); font-family: 'f4WSlVZW48#18'; font-size: 16.25px; }
.s4WSlVZW411 { fill: rgb(  0,  74,  78); font-family: 'f4WSlVZW49#23'; font-size: 49.65px; }
.s4WSlVZW412 { fill: rgb(  0,  74,  78); font-family: 'f4WSlVZW48#18'; font-size: 16.25px; }
.s4WSlVZW413 { fill: rgb( 36,  87,  33); font-family: 'f4WSlVZW49#23'; font-size: 16.25px; }
.s4WSlVZW414 { fill: rgb(  0,  74,  78); font-family: 'f4WSlVZW49#23'; font-size: 16.25px; }
]]>
</style>
</defs>
<image x="0" y="0" width="1024" height="1448.2" xlink:href="svg/svg.jpg"/>
<g class="s4WSlVZW40" transform="translate(452.65 48.75)" >
<text y="0" x="0 6.6 12.35 18.05 24.2 30.6 36.6 42 48.05 54.45 57.65 63.35 70.8 77 83 88.5 94.7 104.35 110.75 114 ">Responsablesensemble</text>
</g>
<g class="s4WSlVZW41" transform="translate(499.65 1408.45)" >
<text y="0" x="0 7.15 11.5 21.3 ">-15-</text>
</g>
<g class="s4WSlVZW42" transform="translate(281.35 205.35)" >
<text y="0" x="0 ">&#x2022;</text>
</g>
<g class="s4WSlVZW43" transform="translate(211.95 228.05)" >
<text y="0" x="37.55 44.15 53 62.65 73.65 83.35 87.6 97.15 105.6 ">FAVORISER</text>
<text y="22.65" x="0 7.9 18.4 28.05 35.8 44.35 55.15 65.6 76.65 89.15 95.15 99.85 108.25 120.7 129.9 137.2 148.25 ">LERETOUR&#xC0;L&#x2019;EMPLOI</text>
</g>
<g class="s4WSlVZW44" transform="translate(73.4 297.15)" >
<text y="0" x="1 6.55 15.9 22.65 25.6 32.85 39.8 45.55 54.65 60.5 68.15 74.75 77.5 84.9 87.85 97.15 103.85 109.35 117.6 125.1 135.15 138.15 144.5 152 154.75 162 169.2 176.25 184.25 191.75 198 202.45 208.85 215.8 223.85 228.45 231.1 236.85 244.1 251.3 254.4 257.85 261 267.95 273.75 281 284.95 290.65 293.5 301.5 311.5 319 323.1 330.7 335.15 341.75 347.35 353.45 356.25 364.35 371.85 379 386.25 389.75 392.75 399.9 ">Laclausesocialeestunlevierpour&#xE000;avoriserl&#x2019;insertionpro&#xE000;essionnelle.</text>
<text y="18.3" x="0.5 10.25 13.75 21.6 29.15 35.55 46.15 53.05 61.75 69.25 75.6 80.4 87.9 94.5 100.85 108.6 116.5 120.6 124.2 134.45 142.75 146.75 154.95 166.2 178.5 186.4 191 198.4 206.15 213.6 220.4 228.35 232.4 235.95 246.95 255.05 259.75 266.75 274.25 282.95 286.15 294.9 303.4 311.1 321.5 327.9 336.6 346.85 353.15 356.35 362.7 370.85 374.45 382.25 386.1 390.75 ">Clausecontractuelled&#x2019;unmarch&#xE9;,ellepr&#xE9;voitquesontitulaire</text>
<text y="36.65" x="0.3 6.8 15.1 22.25 28.25 35.3 42.25 46.55 56.75 64.5 71.85 82 89.25 96.75 101 109 116.75 123.65 132.75 140.2 147.65 155.4 159.7 166.6 175 182.75 191.95 197.95 202.45 209.05 216.35 223.7 227.2 232.9 241.05 251.55 263.45 270.95 275.25 282.2 289.5 299.35 308.85 316.6 323.5 332.6 339.9 347.35 351.65 357.65 365.95 373.7 381.1 388.6 391.6 ">consacreunepartdesheuresdetravaildumarch&#xE9;&#xE0;despersonnels</text>
<text y="54.95" x="0.3 7.6 17.1 25.05 27.9 32.35 40.3 47.05 54.75 57.5 62.9 72.15 79.85 83.35 86.65 93.65 99.5 106.85 110.9 116.65 119.5 127.7 137.85 145.4 149.5 157.25 161.75 168.45 174.1 180.25 183.2 191.35 198.95 206.15 213.55 217.05 220.1 229.95 235.3 242.65 254.9 261.9 269.25 276.45 283.25 290.45 297.35 303.4 306.7 313.65 319 326.4 331 334.35 346.1 351.6 357.45 365.6 372.6 378.65 383.45 389.25 393.5 400.85 403.95 ">endi&#xE000;fcult&#xE9;d&#x2019;insertionpro&#xE000;essionnelle:embauche,int&#xE9;rim,sous-trai-</text>
<text y="73.25" x="0 5.65 13.25 20.65 27.25 36.85 45.3 55.5 62.1 70.25 75.35 81.35 85.9 93.4 96.25 101.9 109.45 116.9 123.45 133.4 140.1 147.4 154.5 163.6 171.45 178.4 187.1 192.9 198.95 203.9 211.3 217.6 223.65 231.45 235.85 242.8 251.4 259.25 269.65 273 276.75 280.25 287.5 293.65 301.2 305.45 311.5 314.6 323 333.6 340.95 348.5 356.35 359.75 362.75 369.95 376.25 382.25 384.9 392.65 395.5 401.15 ">tanceouco-traitanceavecdesstructuresdel&#x2019;insertionparl&#x2019;activit&#xE9;</text>
<text y="91.55" x="0.3 7.5 14.05 22.4 29.85 38.3 50.6 53.8 62 69.4 79.1 87.4 97.4 105.6 115.65 121.7 128.9 135.2 140.85 148.4 156.2 163.95 171.7 176.1 183.75 189.45 196.25 203.95 213.6 221.95 232.2 239.35 247.2 254.7 261.85 267.5 274.95 ">&#xE9;conomiqueoudusecteurprot&#xE9;g&#xE9;ouadapt&#xE9;.</text>
<text y="114.75" x="1 7.6 15.85 19 28.65 36.05 48.3 56 59.15 67.35 72.9 82.6 89.5 96.75 105 107.75 114 119.35 127 136.2 143.75 150.7 158.1 165.65 168.75 178.2 184.15 191.5 199.2 202.6 208.1 215.7 222.55 231.6 238.9 246.3 253.95 258.2 264.95 273.25 281 284.65 288 295 301 308.4 312.5 318.4 321.35 329.5 339.5 349.1 356.5 366.75 378.7 386.9 390.25 397.25 ">P&#xF4;leemploiachoisidefxerleseuildesheuresd&#x2019;insertion&#xE0;aumoins</text>
<text y="133.1" x="0.4 10 24.75 32.8 42.15 47.65 55.25 60.65 68.15 73.65 81.35 88.15 97.15 104.45 111.85 119.5 123.75 130.5 138.75 146.75 156.5 162.7 167.4 174.25 181.75 189.45 193.15 196.95 202.85 211.7 218.7 224.2 230.05 240.05 248.4 251.45 258.1 265.6 273.5 280.15 283.15 289.25 292.5 301.1 311.45 317.75 321 328.7 336.6 351.7 ">5%dutotaldesheuresdetravail.Cettedispositions&#x2019;appq</text>
<text y="133.1" x="344.6 348.4 360 367.6 377.85 385.5 392.7 ">liueaux</text>
<text y="151.4" x="0.65 12.9 20.75 25.3 32.55 40.3 47.5 56.5 64.6 75 83.25 92 103.85 112.65 121.4 133 140.75 148.85 153.5 161.5 170.85 177.95 187.2 ">march&#xE9;sde200000eurosetp</text>
<text y="151.4" x="195.25 199.2 206.65 216.4 223.95 232.6 240.65 248.2 256.35 261.25 266.6 271.75 275.5 283.25 291.1 294.75 302.25 308.95 315.75 323.75 331.45 341 348.5 356.35 361.5 364.6 370.45 378.25 386.25 389.75 ">luspouro&#xE000;&#xE000;rirainsiunev&#xE9;ritable</text>
<text y="169.7" x="0.3 8.8 16.75 24.25 32.8 37.3 43.4 51.4 59.4 62.4 68.15 78.15 86.25 90.15 93.85 101.25 107.5 115.2 119.65 125.75 129.1 137.6 148.15 155.85 163 173.85 181.25 188.95 196.65 203.9 212.2 219.35 222.6 230.2 233.95 238.45 245.6 254.45 262.45 273.2 276.6 286.9 294.1 297.5 305.2 312.6 318.75 326.45 ">opportunit&#xE9;d&#x2019;insertionauxb&#xE9;n&#xE9;fciairesdelaclause.</text>
<text y="192.9" x="1 7.05 17.3 24.5 27.9 35.65 43.05 49.3 59.35 65.6 73.75 80.75 84.1 91.85 95.25 105.95 113.7 117.2 124.35 130.25 139.45 146.95 154 163.7 167.15 177.2 183.45 191.15 199.2 206.05 209.45 216.35 224.2 227.55 235.2 243.3 250.6 256.75 260.5 264.25 267.4 273.6 283.6 291.5 299.25 306.65 316.25 319.75 330 336.75 344 352.45 357 366.95 374.95 385 391.25 398.35 ">Laclausesocialen&#x2019;estpasleseullevierutilis&#xE9;danslecadredeses</text>
<text y="211.2" x="0.25 7.6 14.75 22.35 29.4 35 41.55 48.35 55.25 63.9 67.35 77.65 85.35 97.9 105.9 109.35 117.85 123.6 128.45 136.1 139.1 147.85 155.4 162.6 168.5 174.9 180.5 188.7 192.2 196.65 203.75 210.1 215.7 223.3 235.35 242.9 250.05 258.5 266 273.75 ">achats.P&#xF4;leemploi&#xE000;aitaussidirectementapp</text>
<text y="211.2" x="281.15 288.75 294.85 302.4 312.45 318.5 325.7 332 337.65 345.2 353 360.75 368.5 372.9 380.6 386.25 393.1 400.75 ">elausecteurprot&#xE9;g&#xE9;</text>
<text y="229.55" x="0.3 7.25 15.6 22.9 30.9 38.6 45.85 51.65 62.5 67 74.65 82 88.15 92.75 103 110.7 118 124.2 128.75 135.85 145.45 152.9 160.65 168.75 172.35 176.2 179.9 187.2 192.95 200.7 205.85 217.95 225.35 233.7 236.95 244.65 248.3 252.85 262.75 270.75 277.9 287.5 299.65 307.35 311.9 319.1 326.7 333.75 343.35 347.9 355 361.25 368.95 373.2 380.65 387.75 393.75 399.25 ">etadapt&#xE9;(entreautresparl&#x2019;interm&#xE9;diairedesmarch&#xE9;sr&#xE9;serv&#xE9;s).</text>
<text y="247.85" x="0 9.55 12.9 20 26.3 29.25 35.1 42.55 52.5 60.35 68.4 74.5 80.1 86.65 93.25 101.5 104.7 114.35 121.75 134 141.65 144.75 153 158.6 168.65 172.85 179.85 187.25 190.75 193.5 199.45 208.85 216.55 223.35 231.85 238.9 245.7 252.95 259.75 265 273.6 281 288.65 296.25 300.45 307.25 315.5 323.25 332.85 341 348.5 359 364.65 370.5 375.25 382.6 388.75 394.6 402.25 406.5 413.3 ">Ainsi,en2017,P&#xF4;leemploiar&#xE9;alis&#xE9;desachatsaupr&#xE8;sde353structures</text>
<text y="266.15" x="1 7.6 14.5 22.6 32.8 41 50.9 58.35 65.35 71.25 75.4 82.85 90.4 95.25 98 103.9 110.7 119.25 126.25 133.95 141.35 148.25 153.75 160.75 167.6 173.75 ">ESATouentreprisesadapt&#xE9;es.</text>
</g>
<g class="s4WSlVZW46" transform="translate(627.05 264.75)" >
<text y="0" x="0 10.05 21.05 30.65 41.55 49.55 60.1 73.75 84.95 95.8 104.85 114.35 124.8 136.8 147.2 158.75 167.6 178.7 186.95 195.2 203.35 212.5 221.75 ">NOUVEAUMARCH&#xC9;DECOLLECTE</text>
<text y="29.25" x="0.55 8.65 20.5 30.85 41.5 50.75 59.5 70.4 73.8 83.05 91.95 104 112.85 122.55 134.4 144.75 153.05 165.65 176 184.2 193.65 204.15 212.25 220.6 ">ETDETRAITEMENTDESD&#xC9;CHETS</text>
<text y="58.5" x="23.3 33.65 45.65 55.2 65.75 75.4 83.45 93.95 107.65 117.3 125.45 134.35 143.7 153.15 160.5 171.4 181.35 189.6 197.85 ">DEBUREAURECYCLABLES</text>
</g>
<g class="s4WSlVZW47" transform="translate(556.55 363.2)" >
<text y="0" x="0.1 16.05 19.25 22.45 29.2 35.85 42.9 49.65 56.75 63.8 70 83.1 90.5 97.05 109.75 121.1 128.2 132.35 139 146 152.6 164.9 171.65 177.6 183.3 190.35 197.5 200.45 206.15 216.35 219.45 226 238.05 245.8 249.15 253.25 260.05 266 271.65 274.6 282.5 289.35 302.05 306.2 312.65 320.2 323.15 331.1 338.1 345.3 348.4 354.95 ">Al&#x2019;&#xE9;ch&#xE9;ancedesmarch&#xE9;sactuels,lesdirectionsr&#xE9;gionales</text>
<text y="17.55" x="0 6.9 14.8 21.55 30.95 42.35 48.85 53.9 59.6 63.75 74.25 81.4 92.5 ">vontmettreenp</text>
<text y="17.55" x="99.85 102.95 109.75 115.95 126.85 129.95 137.1 144.5 152.9 159.9 167.8 174.4 181.25 188 195.15 206.25 217.55 224.7 228.85 235.45 242.5 252.7 260.1 270.6 276.8 284.75 288.3 291.45 298.2 304.15 309.5 319.95 326.45 331.8 338.95 346 353.75 ">laceleurnouveaumarch&#xE9;decollecte&#xE9;tendu</text>
<text y="35.1" x="0.45 7.55 14.15 24.95 31.5 34.85 41.85 52.85 60.25 67 73.65 80.7 87.2 92.35 102.5 106.95 113.85 121.75 124.5 130.2 137.65 144.55 151.7 159 161.95 169.1 173.05 178.55 184.75 191.85 195.9 201.25 209.15 216.15 222.45 229.3 236.45 241.15 245.25 252 259.45 270.8 277.3 282.6 289.8 292.9 300.35 ">auxcinqd&#xE9;chets(bois,papier/carton,verre,m&#xE9;tal,p</text>
<text y="35.1" x="307.75 310.8 317.4 322.85 328.55 331.5 339.2 346.25 352.8 357.9 ">lastique).</text>
<text y="52.65" x="1.15 5.7 8.9 16.05 21.8 26.55 33.65 45.2 51.8 57.25 66.85 74.25 85.35 91.1 102.4 108.6 116.55 123.5 128 135.9 140.55 151.95 159.05 167.9 179.6 182.7 194.4 197.55 205.4 212.6 220 230.75 236.5 240.75 247.9 254.7 260.8 263.5 269.15 272.1 280.05 291.6 298.75 305.75 312.9 316.85 324.05 330.55 336.25 339.2 346.95 353.95 ">L&#x2019;enjeuestdesecon&#xE000;ormer&#xE0;laloidetransition&#xE9;nerg&#xE9;tique</text>
<text y="70.15" x="0.45 6.95 16.05 23.45 33.95 41.2 48.35 52.45 59.6 67.65 75.05 85.4 89.85 96.6 102.85 110.75 121.8 128.5 132.95 140.7 147.25 150.2 157.35 164.1 169.45 180.6 187.65 195 204.45 211.9 218.65 225.3 232.3 238.85 243.95 253.75 259.95 267.85 275.25 279.55 286.65 293.45 298.55 308.05 315.45 322.6 329.4 339.55 346.95 353.95 ">etdeg&#xE9;rerde&#xE000;a&#xE7;one&#xE000;fcientenosd&#xE9;chetscourantsdansune</text>
<text y="87.75" x="0.9 4 11.25 18.8 21.75 29.5 36.5 46.85 54.35 57.55 64.3 70.55 78.45 85.45 93.4 105.1 108.05 118.65 125.2 128.5 132.65 139.2 146.65 149.75 156.85 160.15 164.3 171.05 177.5 182.85 190.75 197.5 206.7 213.8 225.05 232.35 237 239.55 246.85 250.25 253.35 259.8 267.4 270.3 277.45 284.2 293.8 296.9 307.9 312 318.8 325 332.9 340.3 344.4 353.95 ">logiqued&#x2019;&#xE9;conomiecirculaire,toutenprivil&#xE9;giantlerecours&#xE0;</text>
<text y="105.3" x="0.45 7.85 14.45 24.05 29.5 35.2 39.9 46.9 52.85 58.55 65.95 70.1 76.65 86.15 93.9 101.25 107.75 112.2 118.55 125.4 133.3 137.95 140.7 146.45 153.6 160.35 170.15 173.4 176.6 183.7 195.45 202.85 205.95 213.85 220.55 227.95 234.5 244.65 251.65 259.55 266.85 274.3 277.4 283.9 289.6 292.55 300.45 307.25 317.5 320.6 327.15 337.35 ">desstructuresqui&#xE000;avorisentl&#x2019;emploidespopulationslesp</text>
<text y="105.3" x="344.7 348.2 355 ">lus</text>
<text y="122.85" x="0.4 5.25 9.55 16 23.55 26.95 30.05 36.6 42.65 50.6 59.15 62.35 68.85 74.15 81.25 83.95 94.3 101.75 107.2 111.9 124.45 127.55 139.65 145.8 152.4 163.8 170.75 178.65 186.05 196.1 199.2 205.8 217.2 228.55 235.7 239.8 246.45 253.5 260.05 270.8 278.25 290.3 296.55 304.5 308.05 311.15 317.9 323.9 329.2 341 348.4 355 ">&#xE000;ragiles.C&#x2019;&#xE9;taitd&#xE9;j&#xE0;lecaspourlesmarch&#xE9;sdecollectedes</text>
<text y="140.4" x="0.45 7.85 14.65 21.3 28.3 34.8 39.95 49.35 56.3 63.45 70.75 73.7 80.8 84.95 ">d&#xE9;chetspapier.</text>
</g>
<g class="s4WSlVZW48" transform="translate(377.45 662.9)" >
<text y="0" x="0 11.25 22.5 39.75 52.9 64.15 76.65 91.05 98.9 108.85 121.25 132.6 149.8 161.9 179.9 192.8 207.05 212.8 224.2 235.55 248.75 260.05 ">LESR&#xC9;SULTATSENCHIFFRES</text>
</g>
<g class="s4WSlVZW49" transform="translate(247.1 873.95)" >
<text y="0" x="0 26.25 58.75 ">47%</text>
<text y="304.95" x="450.55 472.4 ">17</text>
</g>
<g class="s4WSlVZW410" transform="translate(176.25 902.25)" >
<text y="0" x="0 10.4 18.75 30.8 41.9 52.8 61.9 71.4 81.85 90.15 102.3 112.7 123.5 132.1 141.75 153.95 163.55 173.2 185.85 194.6 205.2 214.25 224.8 ">DESMARCH&#xC9;SDE200000EUROS</text>
<text y="19.5" x="46.3 54.4 65.75 75.35 83.15 92.9 105.1 112.85 123.7 134.8 145.6 158.25 169.6 179.25 ">ETPLUSPARANONT</text>
<text y="39" x="41.9 52.5 62.9 74 83.5 90.85 101.35 111.1 120.7 131.7 140.75 151.6 161.1 164.2 175.05 183.35 ">UNECLAUSESOCIALE</text>
<text y="324.45" x="436 446.5 457.1 466.7 476.35 484.7 497.45 507.7 521 530.55 538.8 547.9 557.15 565.9 576.5 589.35 598.95 608 617.95 627.2 635.45 646.1 ">AUPR&#xC8;SDUSECTEURPROT&#xC9;G&#xC9;</text>
<text y="343.95" x="449.85 457.95 468.75 479.65 488.75 499.6 508.4 517.65 529.75 537.55 547.85 556.4 566 574.3 587.05 596 608.95 617.6 626.95 633 ">ETADAPT&#xC9;PASS&#xC9;SEN2017</text>
</g>
<g class="s4WSlVZW411" transform="translate(202.1 873.95)" >
<text y="0" x="473.85 500.25 532.55 ">22%</text>
<text y="304.95" x="0 27.55 53.95 92.15 122.15 152.15 ">375000</text>
</g>
<g class="s4WSlVZW412" transform="translate(157.9 902.25)" >
<text y="0" x="415.55 425.95 434.3 447.05 458.15 469 478.1 487.6 498.05 506.4 519.15 529.55 540.95 549.6 559.2 572.05 581.65 591.25 604.55 613.35 623.9 633 643.55 656.3 664.4 676.35 685.95 693.8 703.55 ">DESMARCH&#xC9;SDE200000EUROSETPLUS</text>
<text y="19.5" x="434.5 442.3 453.15 464.85 475.75 489 497.5 508.5 520.25 529.15 540.15 548.4 557.35 565.95 575.3 586.45 596.7 606.85 617.85 626.4 637.4 647.55 657.6 660.5 669.4 672.7 683.7 ">PARANCOMPORTENTUNECONDITION</text>
<text y="39" x="445.25 454.65 458.2 465.8 476.2 484.15 493.2 502.6 511.55 514.8 525.8 538.8 547.4 556.6 567.1 570.75 579.55 590.55 600.7 610.8 619.4 631.15 639.75 649.1 656 666.55 674.55 ">D&#x2019;EX&#xC9;CUTIONENVIRONNEMENTALE</text>
<text y="304.95" x="21.5 32 40.75 51.35 61 69.25 82 91.75 95.65 99.65 109.65 119.2 128.1 136.7 145.95 149.6 160.9 174.15 184.75 193.7 204.15 213.05 222.7 231.65 239.95 ">HEURESD&#x2019;INSERTIONG&#xC9;N&#xC9;R&#xC9;ES</text>
<text y="324.45" x="0 7.75 18.65 31.5 39.75 48.15 60.9 72 82.9 91.9 101.45 111.95 120.2 129.1 136.1 145.15 156.45 159.65 171.6 178.95 182.75 191 202.2 212.8 215.85 224.45 235.35 243.7 252.6 262.25 ">PARLESMARCH&#xC9;S,SOITL&#x2019;&#xC9;QUIVALENT</text>
<text y="343.95" x="39.3 48.25 61.9 70 79.25 92 102.45 ">ENETPDE</text>
</g>
<g class="s4WSlVZW413" transform="translate(648.25 1207.2)" >
<text y="0" x="0 11.5 22.75 32 41.7 52.35 60.7 73.25 83.1 91.35 100.85 109.75 118.6 129.85 138.2 ">MARCH&#xC9;SR&#xC9;SERV&#xC9;S</text>
</g>
<g class="s4WSlVZW414" transform="translate(271.65 1246.2)" >
<text y="0" x="0 8.45 17.4 30.3 40.2 49.15 58.4 67.45 78.65 89.35 100 108.35 ">233PERSONNES</text>
</g>
</svg>
