<?xml version="1.0" encoding="UTF-8" standalone="no"?>
<!DOCTYPE svg PUBLIC "-//W3C//DTD SVG 1.1//EN" "http://www.w3.org/Graphics/SVG/1.1/DTD/svg11.dtd">
<svg xmlns="http://www.w3.org/2000/svg" xmlns:xlink="http://www.w3.org/1999/xlink" version="1.1"
     viewbox="0 0 1024.00 1448.20" width="1024.00" height="1448.20" style="overflow:hidden" xml:space="preserve">
<defs>
<style type="text/css">
<![CDATA[
@font-face { font-family: 'f48PuBRa412#32'; font-weight: normal; font-style: normal;  src: url(svg/font11.ttf) format('truetype'); }
@font-face { font-family: 'f48PuBRa414#41'; font-weight: normal; font-style: normal;  src: url(svg/font13.ttf) format('truetype'); }
@font-face { font-family: 'f48PuBRa410#22'; font-weight: normal; font-style: normal;  src: url(svg/font9.ttf) format('truetype'); }
@font-face { font-family: 'f48PuBRa48#49'; font-weight: normal; font-style: normal;  src: url(svg/font7.ttf) format('truetype'); }
@font-face { font-family: 'f48PuBRa49#17'; font-weight: normal; font-style: normal;  src: url(svg/font8.ttf) format('truetype'); }
@font-face { font-family: 'f48PuBRa413#36'; font-weight: normal; font-style: normal;  src: url(svg/font12.ttf) format('truetype'); }
@font-face { font-family: 'f48PuBRa411#27'; font-weight: normal; font-style: normal;  src: url(svg/font10.ttf) format('truetype'); }

.s48PuBRa40 { fill: rgb(  0,  74,  78); font-family: 'f48PuBRa48#49'; font-size: 12.00px; }
.s48PuBRa41 { fill: rgb(  0,  74,  78); font-family: 'f48PuBRa49#17'; font-size: 12.00px; }
.s48PuBRa42 { fill: rgb(  3,  56, 120); font-family: 'f48PuBRa49#17'; font-size: 65.35px; }
.s48PuBRa43 { fill: rgb(  3,  56, 120); font-family: 'f48PuBRa410#22'; font-size: 65.35px; }
.s48PuBRa44 { fill: rgb(255, 255, 255); font-family: 'f48PuBRa411#27'; font-size: 25.80px; }
.s48PuBRa45 { fill: rgb(255, 255, 255); font-family: 'f48PuBRa411#27'; font-size: 17.20px; }
.s48PuBRa46 { fill: rgb(  3,  56, 120); font-family: 'f48PuBRa412#32'; font-size: 16.30px; }
.s48PuBRa47 { fill: rgb(166, 202,  92); font-family: 'f48PuBRa413#36'; font-size: 20.60px; }
.s48PuBRa48 { fill: rgb( 74,  74,  73); font-family: 'f48PuBRa414#41'; font-size: 14.60px; }
.s48PuBRa49 { fill: rgb(  3,  56, 120); font-family: 'f48PuBRa410#22'; font-size: 13.75px; }
]]>
</style>
</defs>
<image x="0" y="0" width="1024" height="1448.2" xlink:href="svg/svg.jpg"/>
<g class="s48PuBRa40" transform="translate(452.65 48.75)" >
<text y="0" x="0 6.6 12.35 18.05 24.2 30.6 36.6 42 48.05 54.45 57.65 63.35 70.8 77 83 88.5 94.7 104.35 110.75 114 ">Responsablesensemble</text>
</g>
<g class="s48PuBRa41" transform="translate(499.6 1408.45)" >
<text y="0" x="0 7.1 11.5 21.35 ">-19-</text>
</g>
<g class="s48PuBRa42" transform="translate(350.85 238.6)" >
<text y="0" x="0 34 66.3 87.3 117 149.25 180.6 209.1 231.15 241 271.6 301.35 ">Perspectives</text>
</g>
<g class="s48PuBRa43" transform="translate(448.1 315.95)" >
<text y="0" x="0 34.3 71.5 94.75 ">2018</text>
</g>
<g class="s48PuBRa44" transform="translate(237.35 530.9)" >
<text y="0" x="0 10.65 25 39.4 54.9 66.9 80.85 93.4 99.1 ">PAULBAZIN</text>
<text y="0" x="329.35 340 354 366.25 378.5 393.4 403.15 411.55 424.65 430.4 442.5 455.65 468.8 485.15 497.65 512.85 526.4 538.65 553.85 567.4 575.15 586.4 600.25 612.3 627.25 640.05 654.9 668.05 ">PASCAL-PIERREPONSON-SACQUARD</text>
<text y="263.05" x="420.3 431.6 446.4 462.9 468.6 480.55 499.4 512.9 525.05 536.3 550 564.9 579.35 ">SAMIRABELHOUL</text>
<text y="539.05" x="417.55 430.15 444.4 456.5 469.65 480.9 493.85 509.55 520.85 535.65 546.9 562.8 577.9 ">TH&#xC9;R&#xC8;SESALMON</text>
</g>
<g class="s48PuBRa45" transform="translate(122.8 558.45)" >
<text y="0" x="0 9.25 12.75 17.85 25.2 31.95 36.75 44.25 51.7 59.45 67.25 77.6 82 92 98.8 104.1 109.3 116.75 121.55 128.85 137 140.2 151.8 159.35 167.3 175.05 182.05 191.6 199.1 204 208.3 215.9 219.3 224.45 231.4 241.3 244.75 252.15 259 264.3 267.75 272.8 280.3 285.65 288.8 296.55 304.3 311.8 319.4 323.3 327.4 334.4 ">Directeurdelastrat&#xE9;gieetdesaffairesinstitutionnelles</text>
<text y="0" x="524.3 533.6 539.7 544.9 552.75 556.2 563.9 571.75 579.15 589.65 599 602.4 607.55 614.85 621.6 626.4 633.9 641.35 649.1 656.9 663.9 673.5 680.7 687.5 694.95 702.45 707.4 ">AdjointauDirecteurdesachats</text>
<text y="263" x="442.85 450.95 457.95 464.95 472.55 480.3 487.7 494.3 501.7 509.55 513.6 523.8 531.35 533.8 541.15 549.1 556.6 560.05 567.6 577.8 585.35 595.7 602.9 610.7 618.3 625.75 632.1 642.3 650.1 660.7 668.6 676.4 680.45 690.65 698.2 710 717.8 721.85 729.7 735.75 743.7 751.5 755.55 763.35 775.1 782.7 789.7 ">Responsabled&#x2019;&#xE9;quipeenagencedeP&#xF4;leemploiColombes</text>
<text y="539" x="446.3 454.45 461.45 468.45 475.95 483.8 491.2 497.7 505.2 513 517.05 527.25 535.2 545.2 551.95 559.55 564.8 572.6 575.8 582.15 592.7 596.35 604.05 611.55 618.4 625.65 633.15 638.5 641.7 649.45 656.8 662.9 671.25 679.85 690.75 699.85 707.25 714.7 719.7 726.4 731.6 739.4 746.7 752.25 759.15 764.35 771.8 779.3 785.65 ">ResponsableduserviceInnovation/RSEHauts&#xE000;de&#xE000;France</text>
</g>
<g class="s48PuBRa46" transform="translate(141.25 597.1)" >
<text y="0" x="18.55 30.4 39.05 47.3 52.4 57.15 64.55 73.3 80.4 88.9 98.25 106.95 111.8 119.1 128.3 136.7 140.8 147.35 155.45 163 168.75 173.2 181.6 190.05 198.35 208 214.05 218.5 226.95 233.05 237.55 243.35 251.45 255.55 262.1 269.45 ">Quellessontlesdirectionsprioritaires</text>
<text y="0" x="481.5 490.7 498.95 512.15 525.65 533.25 542.45 550.55 557.95 564.25 574.55 581.55 589.55 595.5 602.9 611.75 619.4 628.5 635.9 644.65 650.25 656.6 666.4 679.95 688 693.55 697.85 705.45 ">Commentvoyez-vousvotrem&#xE9;tier</text>
<text y="19.6" x="0 8.65 18.8 27.55 36.05 43.65 52 56.8 64.4 73.15 ">ded&#xE9;velopp</text>
<text y="19.6" x="83.15 90.9 104.65 112.4 121.75 129.95 138.6 149.35 153.85 164.6 173.85 182.55 192.6 203.35 212.25 221.3 226.1 236.6 244.35 256.85 267.05 271.85 280.3 288.3 ">ementdelaRSE&#xE0;P&#xF4;leemploi?</text>
<text y="19.6" x="447.1 455.35 463.3 471.55 480.95 489 500.25 507.5 515.8 525 531.2 537.9 547.15 553.3 563.15 572 582.85 587.2 597.6 606.75 615.25 625 633.45 641.55 647.7 655.65 660.05 667.95 674.15 682.9 688.5 697 701.65 709.25 722.8 730.4 739.6 ">dansuncontexteo&#xF9;laRSEauraittotalement</text>
<text y="39.15" x="444.85 448.8 458 464.2 471.75 480.6 487 497.35 502 509.2 516.65 523.9 532.2 539.45 547.75 556 564.85 573.4 583.35 588.95 595.1 603.6 610.5 618.45 622.9 627.8 632.45 640.05 647.9 658.3 667 675.85 680.5 690.65 698.25 710.6 720.65 725.3 733.55 741.25 ">int&#xE9;gr&#xE9;lesfa&#xE7;onsdetravailler&#xE0;P&#xF4;leemploi?</text>
<text y="263" x="432.05 441.4 449.85 463.2 476.85 484.6 494 502.5 509.9 518.35 527.55 535.2 543.7 551.25 559.7 563.8 572.8 581.05 590.2 599.95 607.15 612.9 619.25 627.8 634.15 641.85 650.9 655.35 665.75 675.05 683.7 693.25 703.25 711 717.5 725.3 734.1 743.3 754.95 ">Commentconcevoirunestrat&#xE9;gieRSEp&#xE9;renne?</text>
<text y="280.9" x="57.4 69.25 77.8 86.15 90.15 99.65 107.45 118.3 125.35 133.85 143.25 151.85 156.75 164.1 173.6 181.95 186.75 194.5 208.2 215.95 225.35 230.7 ">Quelsensontles&#xE9;l&#xE9;ments</text>
<text y="300.6" x="78.4 83.15 90.55 98.9 109.05 114.1 121.85 131.1 144.45 152.55 159.1 168.3 176.6 184.7 194.05 199.35 210.1 ">lesplusmarquants?</text>
<text y="486.9" x="34.05 47.5 56.65 65.3 73.75 80.15 86.75 94.1 100.5 107.6 115.35 128.85 138.1 143 150.75 157.1 165.2 169.75 178.1 187 196 200.85 211.3 219.1 231.6 241.75 246.6 255.05 ">&#xC0;quoiressembleraitP&#xF4;leemploi</text>
<text y="506.45" x="28.3 36.75 44.8 53.3 62.4 71.65 80.25 88.6 93.4 102.6 111.2 118.55 127.35 135.55 144.35 153.5 161.6 169 177.85 186.5 194.05 202.1 212.2 220.45 229.6 240 249.3 257.95 ">dansquelquesann&#xE9;esavecuneRSE</text>
<text y="526.1" x="13.4 22.65 30.9 37.05 45.75 54 60.35 68.4 73 81.15 85.25 94.6 100.9 108.65 117.7 124.25 134.5 140.85 149.85 157.7 167.45 172.25 179.6 188.05 197.45 204.8 212.05 218.4 225.75 234.9 248.6 256.8 262.55 267 274.75 ">quiauraitint&#xE9;gr&#xE9;touslesgestesm&#xE9;tier</text>
<text y="532.9" x="465.75 473.1 483.8 493.15 501.75 512.5 519.85 527.05 533.4 539.1 547.45 552.45 557.3 567.15 575.8 583.6 590 596.75 603.8 612.05 623.5 631.05 639.15 646.7 653.05 661.35 669.6 678.05 686.8 696.5 703.65 711.4 719.8 ">LaRSEest-elleaussiunvecteurdesens</text>
<text y="545.65" x="38.5 46.65 55.4 60.25 67.6 75.9 85.55 91.9 100.4 106.2 110.65 119.85 128.35 135.8 144.95 153.7 164.35 170.8 173.35 177.5 185.85 193.1 198.85 203.45 209.7 218.4 224.15 228.6 237.05 249.75 ">etlespratiquesdel'institution?</text>
<text y="552.45" x="479.15 489.15 498.15 506.4 515.4 520.2 529.95 537.05 544.85 551.65 558.65 563.1 570.75 580.05 590.25 598.65 607.95 612.4 616.85 626.35 635.05 645.8 651.35 654.4 662.15 674.65 684.85 689.65 698.1 706.1 ">pourleservicepublicdel&#x2019;emploi?</text>
</g>
<g class="s48PuBRa47" transform="translate(75 648.85)" >
<text y="0" x="0 ">&#x2022;</text>
<text y="110.1" x="0 ">&#x2022;</text>
<text y="167.65" x="0 ">&#x2022;</text>
</g>
<g class="s48PuBRa48" transform="translate(74.35 648.85)" >
<text y="0" x="12.1 18.35 24.35 28.8 39.95 47.65 58.55 64.6 72.05 76.2 83.85 87.1 93.6 104.8 112.45 120.2 127.8 131.55 134.8 145.45 149.9 156.75 163.2 170.45 178.65 185.75 191.75 199.25 206.95 210.35 217.4 224.65 231.3 234.8 241.65 247.45 253.1 258.4 265.7 271 279 282.65 287.1 297.45 302.2 309.65 313.25 317.7 328.5 335.95 346.85 352.9 361.1 365.45 371.1 381.65 389.7 397 408.2 415.55 423.2 ">&#xCA;treunservicepublicresponsable,c&#x2019;est-&#xE0;-dire&#xE000;aireensortequenos</text>
<text y="17.5" x="11.25 17.3 24.8 29 36.65 39.95 46.5 53.4 63.15 69.25 77.45 80.75 88.25 95.35 105.3 ">servicessoientp</text>
<text y="17.5" x="113 116.45 123.9 127.55 134.9 142.4 154.1 161.55 168.65 178.2 185.25 191.85 198.4 205.3 211.2 217.6 221.35 229 232.45 239.35 249.3 260.75 264.25 267.75 275.25 282.45 288.5 296 308.15 315.75 319.25 329.95 337.7 344.6 354.25 362 369.5 381.15 388.65 396 403.75 411.25 418.95 423.4 ">leinementaccessibles&#xE0;l&#x2019;ensembledesdemandeurs</text>
<text y="19.6" x="448.9 457.9 463.35 467.85 475.4 482.55 486.4 493.6 496.9 504.05 511.1 513.75 517.4 522 524.55 531.35 536.4 543.55 552.65 563.8 570 575.35 578.05 584.9 591.35 598.4 601.6 608.05 613.1 620.1 626.65 631.65 639.3 646.4 650.8 657.55 665.25 671.85 678.65 682.5 690.4 693.25 699.55 707 713.3 719.1 725.8 732.25 737.9 742.75 749.9 757.1 766 772.65 779.5 783.4 787.65 795.25 799.65 810.65 817.55 824.3 830.2 838.75 845.2 851.15 858.75 865.5 872.95 ">Aujourd&#x2019;hui,j&#x2019;aiunm&#xE9;tierplut&#xF4;ttourn&#xE9;verslesaspectsdeper&#xE000;ormance&#xE9;cono-</text>
<text y="35.1" x="11.45 19 22.2 29.4 41.15 48.55 51.7 59.6 64.6 71.15 78.2 85.65 92.25 100 107.2 114 119.7 123.9 131.05 138.4 143.1 145.85 151.65 158.25 164.3 169.85 179.7 187.65 194.5 202 209.45 215.8 222.7 229.9 233.05 241 248.35 255.35 263.25 270.15 277.6 285 291.65 299.25 305 312.15 316 323.4 326.4 332.65 339.25 347.4 354.35 362.25 369.7 376.45 380.6 387.75 394.75 399.25 407.2 411.35 417.6 424.75 ">d&#x2019;emploietdesentreprises.Nousd&#xE9;velopponsdesservicespourren&#xE000;orcer</text>
<text y="37.1" x="449.65 461.1 463.75 471.15 477.9 484.4 490.75 501.8 508.6 511.1 519.55 526.4 532.9 538.15 544 549.5 555 562.25 568.5 571.15 577.4 582.4 589.3 595.65 605.3 611.5 619.6 626.4 632.65 639.75 642.8 646.65 654.3 661.4 668.15 675 686.1 692.9 699.4 704.5 711.35 717.65 724.65 730.9 739.4 746.3 757.35 764.15 767.15 773.9 778.6 783.05 792.9 799.65 806.5 813.05 818.5 827.75 835.2 841.95 851.8 862.9 870.55 ">mique,maisaussisoci&#xE9;tauxetenvironnementaux.Demain,jepensequemon</text>
<text y="52.6" x="11.85 15.25 18.25 25.15 31.55 37.9 44.6 50.3 56.5 60.05 67.4 70.95 74.55 77.35 82.85 89.75 96.6 103.75 111.2 116.65 123.95 135.8 147.3 154.6 161.5 169.85 177.35 184.65 191.6 201 208.2 215.7 224.7 231.3 238.7 245.95 253.15 259.5 266.2 272 278.5 285.2 294.2 301.4 309.45 316.4 325.85 329.5 336.4 341.6 347.1 355.15 362.15 371.15 377.5 385.6 392.5 398.35 402.65 413.1 416.35 423.1 ">l&#x2019;accessibilit&#xE9;,notammentdansnosagences,etnousluttonscontreles</text>
<text y="54.65" x="449.65 460.8 467.05 472.5 475.25 482.15 489.1 494.6 501.5 505.55 515.15 522.05 528.85 534.85 542.5 546.4 556.4 ">m&#xE9;tierseraencorep</text>
<text y="54.65" x="563.55 566.8 573.35 581.4 586.5 594.15 601.3 605.75 612.55 621.4 628 634.9 638.8 647.8 650.8 653.4 660.35 667.4 670.55 681.65 687.9 693.35 696.1 703.75 713.65 719.9 728.5 731.35 740.5 744.65 751.25 757.55 760.65 763.9 766.4 771.4 777.65 783.15 785.9 793.55 800.3 806.3 813.15 819.8 825.1 830.95 837.15 844.15 846.9 853.8 863.65 870.55 ">lustourn&#xE9;versl&#x2019;animationetla&#xE000;acilitation,aussibienen</text>
<text y="70.15" x="11.45 19.2 21.95 27.75 34.3 39 42.3 54.05 57.35 64.4 70.9 76.6 79.55 87.5 94.35 102.1 109.25 118.3 125.45 132.5 138.7 146.65 154.05 158.35 164.85 172.05 178.85 186 192.75 200.5 203.65 210.25 218 225.15 231.95 237.65 241.85 249 256.25 261 263.75 269.5 276.1 283.75 292.95 297.15 303.9 310.15 318 325.45 330.15 333.45 339.75 348.25 355.7 362.25 370.4 381.75 388.25 394 401.1 408.7 416.1 422.7 ">discriminationsenencourageantlesentreprises&#xE0;recourir&#xE0;desm&#xE9;thodes</text>
<text y="72.25" x="449.65 452.65 459.15 464.25 471.1 475.5 482.25 491 498 500.5 506.15 510.85 517.55 521.85 528.85 531.35 539.55 546.65 556.55 563.3 570.35 579.25 586.3 590.15 596.4 601.9 608.15 612.55 615.6 622.05 627.1 633.9 641.05 644.9 650.3 655.9 663.4 670.15 678.9 685.9 688.4 694.05 698.75 705.4 709.75 716.8 719.25 727.4 734.6 740.85 749.35 756.25 762.65 768.15 772 778.85 785.9 790.3 792.75 798.15 804.5 813.35 820 826.9 830.65 835.7 842.55 849.3 856.1 859.15 863 869.3 875.05 ">internevis-&#xE0;-visdenosprescripteurs,quevis-&#xE0;-visdesentreprisespartenaires.</text>
<text y="87.75" x="11.8 15.25 22.8 29.95 37.1 44.2 51.5 58.4 63.9 70.6 79 86.55 96.6 100.9 107.8 114.55 119.35 126.3 131.75 139.05 150.55 157.85 164.75 170.25 175.85 181.3 188.65 192.35 195.6 202.25 210.7 218.6 225.75 235.9 239.1 249.5 261.2 268.75 276.2 ">innovantesderecrutement,tellesquelaMRS.</text>
<text y="89.75" x="450 455.9 463.85 470.1 476.85 483.4 488.9 495.65 503.8 513.15 520.6 529.65 537.15 543.4 550.3 557.5 560.65 568.55 575.85 582.8 589.9 596.9 604.05 611.1 617.3 625.15 629.35 639.15 ">Etceciafnded&#xE9;velopperencorep</text>
<text y="89.75" x="646.5 650 656.8 665.65 668.65 678.8 686.15 693.9 700 705.85 713 723 726.3 733.1 738.4 745.55 750.25 757.3 766.65 773.15 781.15 788.3 798 804.35 811 816.35 823.45 ">luslaRSE,eninterneetenexter</text>
<text y="89.75" x="828.15 835.2 842.25 ">ne.</text>
<text y="110.1" x="12.1 18.35 24.4 28.85 40.3 48.05 59.35 66.85 78.9 86.6 90.05 96.95 104.8 112.25 120 128.95 133.45 140.35 146.8 154.1 162.35 169.5 175.55 183 190.7 194.15 205.55 213.05 217.55 224.65 231.55 236.6 243.65 249.35 256.75 265.15 272.9 279.75 290.2 297.5 304.95 309.4 315.5 323.75 331.45 338.85 345.75 355.75 363.25 374.4 380.75 383.85 389.85 397.2 404 410.05 413.35 421.6 ">&#xCA;treunemployeurresponsable:recruterdespersonnesensituation</text>
<text y="127.65" x="11.45 18.9 28.15 35.2 42.35 49.45 57.25 60.25 66.45 73.65 82.35 89.8 97 103.85 112.05 119.1 126.5 134.3 141.1 148.9 156.3 159.65 166.65 173.25 179 184 191.95 201 208.2 215.25 221.55 229.5 233.65 242 246.5 253.65 257 261.2 270 276.5 281.65 287 294.25 301 306.75 309.75 317.7 326.75 335.95 343 350.4 356.1 360.25 369.15 376.25 388 395.45 399.6 406.75 410.15 416.95 422.35 ">dehandicapdansnos&#xE9;quipes,ouencore&#xE000;aireattention&#xE0;notreempreinte</text>
<text y="145.25" x="11.45 17.75 25.05 29.9 36.95 45 52.2 59.4 ">carbone.</text>
<text y="167.65" x="12.1 18.5 24.7 29.35 41.85 49.75 62.15 69.4 76.55 84.05 91.05 96.9 104.55 112.4 122.5 127.1 134.15 140.8 148.25 156.65 163.95 170.2 177.85 185.7 189.25 196.5 205.1 211.95 215.6 222.7 228.65 234.5 240 247.45 252.95 261.2 ">&#xCA;treunacheteurresponsable,c&#x2019;est-&#xE0;-di</text>
<text y="167.65" x="265 269.65 282.15 285.95 293.5 300.5 303.7 309.5 317.2 327.25 334.75 342.6 353.25 358.25 366.65 374.5 379.7 387.5 390.75 396.85 403.1 410.75 418.6 423.2 ">reinciternos&#xE000;ournisseurs</text>
<text y="185.15" x="11.4 21.5 25.75 32.7 39.4 44.25 51.15 56.6 63.9 70.85 78.4 85.15 94.2 101.3 108.55 112.85 118.7 126.75 134.3 141.5 148.2 156.9 164.2 173.95 180.15 183 188.85 196 202.65 208.45 211.55 219.6 229.3 236.95 240.65 244.1 251.1 257 264.25 268.45 274.25 277.35 285.45 295.75 303.25 307.5 315.15 319.75 326.5 332.2 338.4 341.5 349.5 357.1 364.25 371.65 375.25 378.5 385.75 ">&#xE0;recruterdespersonnesensituationd&#x2019;insertionpro&#xE000;essionnelle.</text>
<text y="243.4" x="450 456.15 464 471.3 478.65 484.75 492.55 499.4 505.55 511.8 518.5 526.3 529.5 537.25 544.5 551.4 561.05 566.4 572 576.15 582.55 587.8 594.15 601.6 604.4 614.9 622.25 629.8 639 645.6 649.9 657.55 663.6 670.25 676.35 686.15 692.6 701.35 708.15 715.25 719.25 726.25 733.55 740.4 747.05 753.65 756.9 762.65 767 774 780.65 788.85 794.6 797.35 803.8 809.15 815.15 822.45 826.5 833.5 840.6 847.9 857.55 863.15 870.95 ">Pourconcevoirunestrat&#xE9;gieRSEe&#xE000;fcaceetp&#xE9;renne,il&#xE000;auts&#x2019;assurerdeson</text>
<text y="260.9" x="449.65 456.4 464.05 467.85 472.9 479.15 486.1 494.35 501.25 509.8 515.75 523.4 529.9 535.35 538.4 545.55 554.4 561.15 568 574.25 577.1 585.75 588.9 591.4 598.65 605.5 614.15 625.15 632.1 638.85 645.1 652.05 658.9 663.35 666.05 672.9 675.85 682.3 686.65 694 696.3 704 712.9 715.9 719.15 722.25 733.65 740.4 ">portageencontinuparlalignemanag&#xE9;riale,d&#x2019;o&#xF9;l&#x2019;impo</text>
<text y="260.9" x="748.1 751.9 756.9 763.85 770.6 776.6 784.8 791.35 797.3 803.65 808.05 814.85 823.1 830 837.95 843.05 849.95 854.35 865.45 871.8 ">rtanceaccrueentermes</text>
<text y="281" x="0.9 6.75 18.15 25.85 33.85 43.95 55.4 62.05 70.3 73.7 84.5 91.9 103.95 111.6 115 123.2 130.5 137.8 148.3 155.95 162.75 168.4 179.5 186.75 193.6 203 210.85 214.75 222.45 225.7 233.1 237.55 245.05 254.15 261.6 269.2 276.85 279.9 289.65 297.5 305.6 311.9 318.2 325.75 333 341.25 348.4 358.5 366.1 373.85 381.45 385.2 388.45 396.65 403.75 413.85 421.55 ">LaRSE&#xE0;P&#xF4;leemploinedatepasd&#x2019;hier.Depuis2011,nouspublionsun</text>
<text y="278.5" x="449.3 456.4 465 471.65 478.55 482.35 488.15 494.9 501.35 507.05 512.4 514.65 521.25 527.55 534.4 541.9 550.65 554.55 562.25 565.1 573 580.15 586.4 593.9 605 611.85 618.6 624.8 631.75 638.6 642.4 649.3 656.4 665 672.05 675.9 682.5 689.5 692.5 703.9 706.35 711.4 717.85 722.4 728.4 735.25 741.6 749.6 757.1 764.15 768.5 774.65 782 784.4 789.65 795.15 802.05 808.55 815.25 822.1 830.9 838.05 841.25 847.75 855.3 862.35 866.2 872.5 ">deperspectivesdur&#xF4;ledesmanagersdeproximit&#xE9;,ceuxquiagissentaupluspr&#xE8;s</text>
<text y="298.5" x="0.65 8 11.55 14.75 22.05 31.9 38.25 45.5 50.4 57.45 65.5 72.7 79.9 86.25 91.95 102.25 109.8 117.6 126.6 133.35 138.95 146.55 152.4 156.7 163.4 172.35 175.8 187.65 195.15 199.45 206.05 213.8 220.95 227.9 237.45 244.75 254.4 260.25 267.5 271 280.5 288.5 298.7 303 309.7 315.6 322.5 329.75 339.35 346.9 357.15 363.7 371.75 375 384.65 391.95 403.75 411.35 414.6 422.65 426 ">bilancarbone.LaRSEesttr&#xE8;simpr&#xE9;gn&#xE9;eauseindur&#xE9;seaudeP&#xF4;leemploi.</text>
<text y="296" x="449.3 456.5 462.85 470.55 477.1 482.6 488.9 495.9 502.8 506.65 514 520.3 526.9 534.1 540.4 547.75 553.75 561.5 564.85 567.65 574.65 581.35 589.05 593.1 599.4 604.5 611.4 618.6 622.4 628.3 633.4 639.65 648.3 654.8 659 663.25 669.55 674.65 679 683.15 690.1 693.15 697.1 705.9 708.8 717.5 724.15 731.1 735.55 739.8 746.9 755.75 758.6 766.9 772.9 780.65 787.4 794.9 801.8 808.6 814.6 821.1 825.9 832 835 841.35 846.6 853.05 857.25 864.15 867.25 871.15 ">desusagersetdescollaborateurs.Ene&#xE000;&#xE000;et,&#xE000;aireleparidelaconfance,c&#x2019;est&#xE000;aire</text>
<text y="313.6" x="449.75 452.5 460.9 467.4 474.25 478.55 482.4 489.55 498 500.85 504.05 507 513.4 518.4 525.25 528.4 531.55 533.85 540.65 547.5 554.15 560.05 568.1 573.9 581.55 584.75 587.5 593.9 599.55 604.85 607 613.5 619.9 624.35 630.35 633.15 639.4 644.5 651.1 657.35 661.15 668.65 671.6 675.4 683.4 690.15 698.9 701.65 709.25 713.35 720.9 724.65 730.55 738.3 745.35 753.75 ">leparidel&#x2019;intelligencecollective,c&#x2019;estcroireenla&#xE000;orceden</text>
<text y="313.6" x="760.4 767.4 774.4 780.3 787.85 799.25 806.25 809.05 815.8 826.8 833.6 840.05 845 851.75 856.05 858.4 863.4 869.6 874.95 ">oscompl&#xE9;mentarit&#xE9;s,</text>
<text y="320.9" x="0.4 7.85 12.45 17.35 26.75 34.35 40.8 47.9 55.15 58.05 67.1 71.4 78.05 83.5 90.8 98.3 101.8 109.4 116.95 124.1 134.2 138.45 145.35 152.7 156.3 159.2 165.05 171.7 177.5 180.6 188.7 199 210.5 217.8 222.05 229.95 237.1 244.35 251.3 256.75 263.65 268.45 273.35 283.45 290.5 297.75 ">Sijedevaisreteniruner&#xE9;alisationmarquante,jepar</text>
<text y="320.9" x="302.7 305.95 313.25 317.65 324.9 327.75 336.2 344.1 353.75 361.35 368.6 376.15 379.4 387.45 390.5 397.75 409.35 416.6 423.55 ">leraisdud&#xE9;ploiement</text>
<text y="331.15" x="449.3 456.4 464.9 471.6 478.6 485.4 492.85 495.4 499.5 503.65 510.4 514.3 521.1 527.8 533.65 539.9 545.65 550.55 561.1 567.9 570.3 577.1 584.5 591.35 594.15 600.4 605.6 612.3 618.15 626 633.4 640.4 645.1 649.05 655.3 660.55 665.9 672.75 684.25 691.25 694 702.5 709.15 716.25 723.05 730.4 733.05 737.1 741.3 748.1 751.9 758.65 765.4 771.35 777.55 784.9 792.4 800.85 803.1 809.35 814.5 821.15 827.15 833.8 840.6 847.05 853.15 858.2 865.75 872.2 ">denosdi&#xE000;&#xE000;&#xE9;rences.Maisqu&#x2019;estcequirassemblenosdi&#xE000;&#xE000;&#xE9;rences?C'estavanttout</text>
<text y="338.5" x="0.6 4.85 11.8 18.15 25.4 32.35 37.85 43.05 50.55 57.85 64.8 72.3 77.8 85.85 92.75 98.25 104.95 113.4 116.65 123.35 131.4 138 145.35 152.65 159.85 166.2 172.9 180.65 188.2 197.95 204.45 212.55 215.8 224.9 232.15 244.05 251.55 254.8 262.85 265.9 271.1 278.75 282.5 290 299 306.95 309.85 316.1 323.2 330.7 336.9 339.75 345.5 348.6 355.1 362.75 365.75 372.7 379 385.75 392.95 400.2 403.7 408.85 416.4 423.1 ">r&#xE9;cent,danstouteslesagencesdeP&#xF4;leemploi,d&#x2019;undispositi&#xE000;d&#x2019;accueildes</text>
<text y="348.65" x="449.3 456.4 465 471.65 478.55 482.35 487.35 493.6 500.55 507.4 512.85 520 526.3 532.65 539.4 546.3 549.15 556 563.15 567 574.15 580.1 587.75 599.15 610.65 617.8 624.55 630.85 636.3 640.65 647.75 654.05 660.4 667.15 674.1 676.9 683.8 690.9 694.75 701.9 708.15 710.65 715.65 721.9 729.15 736.05 743.15 749.9 756.25 761.65 766.35 772.6 778.1 785.15 787.85 795.3 802.05 808.35 813.8 818.15 825.3 831.6 838 ">departagerdesvaleurscommunes,desvaleurscitoyennes,&#xE9;thiques,desv</text>
<text y="356" x="0.6 7.65 14.95 19.2 25.05 33.1 40.65 47.8 54.5 62.3 68.15 76.2 83.7 88 95.55 102.25 110.25 116.85 124.8 136.3 143.6 146.85 154.1 161.05 166.5 173.75 180.95 188.45 195.7 202.6 208.1 214.8 220.6 226.05 232.5 239.5 246.4 255.2 262.4 269.75 275.25 282.5 294.35 305.85 313.1 320 328 335.5 344.5 350.45 357.7 361.75 369.15 372.25 378.6 387.35 395.2 398.1 403.7 409.15 416.4 423.3 ">personnessourdesetmalentendantes,avecnotammentunservicedistant</text>
<text y="348.65" x="844.65 851.6 854.45 861.3 868.4 872.25 ">aleurs</text>
<text y="366.25" x="449.1 454.65 461.9 468.3 471 477.3 482.4 489.35 492.25 498.6 506.1 514 520.75 527.75 530.65 537.55 548.65 555.6 562.15 567.3 573.05 579.8 587.5 591.35 596.4 603 609.35 617.65 624.4 631.3 637.5 644.65 651.05 659.4 670.5 677.4 684.15 690.4 697.4 704.35 708.25 716.15 723.15 729.65 736.65 742.9 749.9 756.25 764.15 770.5 778.4 782.3 788.65 794.55 801.3 809 815.6 821.1 828.05 835.15 838.05 844.4 850.2 ">soci&#xE9;talesfnalement,port&#xE9;espardesmanagersengag&#xE9;setresponsables.</text>
<text y="373.6" x="0.2 8.1 11.1 14.55 21.5 26.95 34.25 39.1 46.55 50.85 57.5 62.95 69.6 75.4 78.5 86.55 96.3 103.6 113.75 117 124.25 131.15 138.9 146.05 155.25 162.8 169.5 177.75 184 186.75 194.5 201.7 208.4 217.4 222.25 228.2 236 241.8 249.3 255.95 263.7 271.25 280.2 286 290.45 297.75 304.7 310.6 317.35 322.1 325.6 332.45 338.25 341.35 349.4 359.5 362.95 369.9 375.5 381 388.25 395.2 400.65 407.95 415.1 422.05 ">d'interpr&#xE9;tationenlanguedessignes(LSF)etdetranscriptioninstantan&#xE9;e</text>
<text y="391.15" x="0.2 7.75 17.9 21.15 31.2 38.3 45.55 49.85 57.95 61.25 68.45 ">delaparole.</text>
<text y="526.15" x="0.9 7.3 15.3 18.45 28.6 35.8 47.55 55 58.15 66.1 69.05 75.35 82.75 89.95 96.8 105.65 113.45 120.5 127.75 130.9 138.7 145.75 152.35 161.45 168.65 176.1 183.15 189.95 196.6 202.35 209.3 216.7 219.85 227 230.4 237.45 244.65 256 263.25 270 279.1 282.45 294.25 301.6 305.75 312.25 319.95 327 337.5 344.5 351.7 359.85 362.95 373.75 381.25 388.95 395.15 401.7 408.1 411.35 417.95 423.45 ">P&#xF4;leemploi,dansquelquesann&#xE9;es,pleinementimpr&#xE9;gn&#xE9;parlaRSE,c&#x2019;est</text>
<text y="532.9" x="450 455.5 466.3 470.4 477 483.1 490.05 497.9 504.75 510.4 517.6 524.85 528.15 531.65 534.3 539.65 549.85 555.6 563.1 569.65 572.6 579.1 584.35 591.55 594.65 605.05 611.6 617.1 626.4 633.8 643.65 650.55 657.3 663.25 668.6 675.65 683.05 690.75 698.15 708.35 714.1 721.15 728 737.8 744.75 752.65 760 768.4 771.5 781.65 787.4 794.55 798.4 805.65 808.65 814.85 825.65 832.95 840.4 847.7 851.1 854.05 863.65 871.05 ">Laresponsabilit&#xE9;soci&#xE9;taleestunvecteurdesenspourleservicepublicde</text>
<text y="543.65" x="0.9 7.25 15.2 18.35 27.7 34.85 46.6 53.95 57.1 64.95 70.25 77.6 84.75 91.6 100.35 103.5 110.25 118 125 132.2 138.35 141.6 144.8 151.9 158.75 164.5 171.65 183.4 190.7 193.85 202.95 210.35 216.9 225.05 230.8 238 241.05 248.2 252.85 255.8 262.35 270.75 277.25 282.75 290.75 296.95 304.85 311.7 317.45 324 326.95 334.1 340.85 348.5 355.95 365.1 370.85 378.75 388.75 392 403.75 410.75 417.5 423.45 ">P&#xF4;leemploidanslequell&#x2019;ensembledessalari&#xE9;sestconscientdesonimpact</text>
<text y="550.45" x="449.75 452.75 455.65 462.65 474.15 481.3 484.15 491.85 494.9 501 507.15 514.1 518.6 530.05 536.05 538.9 545.3 553.65 560.55 567.05 574.05 580.3 587.3 594.15 605.35 612.3 618.85 623.75 631.8 639 649.05 655.15 662.9 665.8 675.15 682.1 693.6 700.8 703.65 711.35 714.05 720.25 723.25 725.9 732.4 738.4 744.4 750.8 756.1 762 765.15 772.15 775.3 778.55 781 786.15 794.9 800.4 803.15 810.05 816.6 824.9 832.05 838.9 848.6 855.8 858.65 865.2 871.2 ">l&#x2019;emploi.ParmilesengagementsdeP&#xF4;leemploi,l&#x2019;accessibilit&#xE9;tientuneplace</text>
<text y="561.2" x="0 5.6 13.05 19.45 22.25 29.3 32.25 37.15 43.6 49 54.6 61.55 64.4 72.6 79.85 88.75 91.75 100.6 104.6 111.6 118.45 122.8 130.55 134.55 140.65 147.65 151.35 156.3 162.65 169.7 175.8 183.5 190.25 195.9 202.25 205.1 212.1 218.75 227.35 234.65 242.9 248.55 256.25 265 272 283.65 290.85 294.85 301.75 305 311.65 316.85 325.35 332.35 338.75 345.9 349.1 353.1 360.9 368.15 375 382 393.25 400.25 406.9 412.1 419.15 422.15 ">social,essaiedeleren&#xE000;orcer,etconscientdesonempreinteenvironnementale</text>
<text y="567.95" x="449.65 456.9 461.1 468.15 475.1 483 490 497.4 504.5 508.75 515.85 522.6 527.9 534.9 541.15 549.3 555.85 565.15 572.25 578.9 586.15 592.6 599.8 606.9 618.15 625.3 632.05 637.15 646.4 652.65 660.55 667.55 675.3 682.6 685.35 691.05 698.15 704.9 713.75 724.4 735.75 742.25 747.3 752.9 757.1 767.85 770.9 777.4 786.55 792.25 799.35 803.15 810.5 813.4 819.6 826.15 835.15 842.55 853.55 859.85 867.8 870.9 ">pr&#xE9;pond&#xE9;rante.Cesengagementsconduisent&#xE0;mettrelesservicesdeP&#xF4;le</text>
<text y="578.8" x="0.2 6.8 12.3 18.05 25.15 28.1 37.2 44.65 54.45 57.55 66.7 74.45 77.75 89.45 92.75 100.15 107.2 114.3 118.45 ">essaiedeladiminuer.</text>
<text y="585.55" x="449.3 456.3 467.85 475.05 478 485.75 491.65 498.65 509.05 516.15 520.15 526.9 534 537.15 548.65 551.25 556.4 565.9 573.15 582.35 587.5 595.25 601.85 607.05 613.4 622.15 628.5 636.3 641.4 649.15 655.85 661.4 667.6 673.75 676.8 683.15 688.5 693.65 698.55 705.35 710.15 717.75 720.9 724.9 734.65 744.75 751.9 755.9 763.65 774.85 782.6 789 795.65 803.4 806.6 814.3 817.25 826.7 834.3 836.65 843.35 850.3 854.25 860.2 862.7 867.9 874.45 ">emploienproximit&#xE9;detoutesettous,c&#x2019;est-&#xE0;-dire&#xE0;promouvoirladiversit&#xE9;,</text>
<text y="601.15" x="0.9 6.8 15.7 23.05 30.4 33.15 41.85 49.2 56.35 63.2 72.1 78.35 89.45 96.55 103.4 109.1 115.95 119.2 121.75 129.7 135.3 140.05 146.8 152.75 158.45 161.35 169.05 175.4 178.55 185.15 190.6 199.15 206.3 213.1 218.65 224.75 230.6 238.35 245.35 256 262.4 270.35 273.5 283.5 290.65 302.35 309.75 312.85 320.75 326.7 332.45 340.35 343 351.95 356.1 362.85 369.1 377 384.4 391.75 401.75 409.15 416.25 423.1 ">Etpuisdans10ans,l&#x2019;objecti&#xE000;c&#x2019;estaussiqueP&#xF4;leemploisoitreconnudans</text>
<text y="603.1" x="449.3 459.5 462.85 469.5 474.4 479.65 486.65 494 500.05 507.85 514.5 520.05 524.05 534.3 537.3 543.65 552.15 559.85 562.4 568.05 574.5 579.05 582.15 593.8 596.9 603.85 610.15 615.75 618.6 626.35 633.05 641.85 648.15 656.55 666.35 673 679.5 686.4 692.75 698 705 712.65 716.65 723.15 729.1 735.9 743.75 750.4 756 763.05 770.25 773.25 783.4 790.15 797.15 805 808.1 811.5 814.65 821.35 827 834 837.9 843.45 846.25 854.05 863.85 871.1 ">&#xE0;luttercontrelesdiscriminationset&#xE0;acheterresponsableparl&#x2019;insertionde</text>
<text y="618.7" x="0.65 4 15 21.4 29.05 36.35 43.75 48.1 59.7 67.3 75 82.6 86.3 89.5 97.5 104.8 116 122.8 132.95 ">lasph&#xE8;republiqueetp</text>
<text y="618.7" x="140.6 144.3 151.4 162.05 165.4 172.8 176.95 184.45 191.85 203.5 210.9 217.9 227.4 235.05 242.45 249.55 260.15 263.5 274.5 280.5 288.35 295.15 298.4 305.15 310.75 321.95 328.45 336.6 348.6 360.25 371.75 379.45 390.95 397.95 404.2 409.8 417.2 424.85 ">luslargementdanslasoci&#xE9;t&#xE9;commeunacteur</text>
<text y="620.65" x="449.3 455.85 458.85 465.9 472.65 478.3 484.75 493.4 499.1 506.55 513 515.85 522.9 526 532.4 541.05 548.35 555.4 562.1 571.35 578.3 585.55 594.8 606.05 613.1 617.15 623.65 630.65 637.1 642.65 648.75 656.4 663.65 670.1 677 684.05 688.65 699.9 706.3 711.3 716.55 723.6 730.3 738.75 748.35 755.65 762.15 771.35 778.6 785.9 793.15 796.55 799.4 805.35 814.15 821.3 824.35 832.15 834.7 842.2 849.15 855.65 864.2 871.55 ">clausessocialesdansnosmarch&#xE9;s,quipermettent&#xE0;despublics&#xE9;loign&#xE9;sde</text>
<text y="636.3" x="0.2 7.6 17.4 21.55 28.25 32.75 39.85 44 51.15 58.15 64.4 73.8 80.95 91 102.3 108.8 114.5 117.45 124.6 128.7 137.85 145.25 155.05 159.15 165.75 171.85 178.8 186.7 193.5 199.25 206.45 213.7 217.05 220.5 223.2 228.55 237.75 243.5 251.05 257.6 260.5 267 272.35 279.5 282.65 292.1 298.6 306.6 313.7 320.25 327.5 330.85 335 342.9 350.25 357.35 364.5 375.85 382.95 389.75 395 402.25 405.35 412.4 ">der&#xE9;&#xE000;&#xE9;renceenmati&#xE8;rederesponsabilit&#xE9;soci&#xE9;taleetenvironnementale.</text>
<text y="638.15" x="449.75 452.75 455.65 462.65 474.15 481.3 484.15 491.85 496.65 504.05 506.15 516 522.55 528.55 534.55 541.1 548.3 555.15 562.1 569.25 572.5 579.1 586.6 590.8 597.35 603.65 606.85 609.75 616.65 627.8 634.65 641.25 646.75 ">l&#x2019;emploid&#x2019;yacc&#xE9;derplus&#xE000;acilement.</text>
</g>
<g class="s48PuBRa49" transform="translate(284.85 1344.95)" >
<text y="0" x="127.45 135 142.55 145.35 152.35 156.05 164.5 171.55 174.2 181.5 188.5 198.1 202.8 209.9 217.05 221.55 228.15 235.25 242.25 248.65 253.4 255.4 262.1 268.6 277 284.4 292.35 297.4 305.75 312.85 315.4 321.85 326.9 ">Voirlavid&#xE9;o&quot;perspectives2018&quot;ici:</text>
<text y="16.5" x="0 4.6 11.6 18.9 26 33.5 38.35 42.75 48 55 62.15 69.25 76 83.15 87 89.85 96.9 104.35 107.75 114.6 119.95 127.1 138.5 145.8 149.2 156.7 159.35 161.75 169.1 173.85 180.85 185.1 189.75 196.75 204.05 211.15 218.55 223.5 227.85 233.15 240.4 247.25 252.85 257.5 264 270.65 277.75 285.15 292 298.15 305.15 312.5 315.35 319.4 322.25 326.4 333.25 338.4 344.75 352 358.4 361 368.25 372.65 379.65 383 389.75 395 402 409.5 420.65 427.75 430.6 437.85 442.5 453.9 ">rapport-annuel.pole-emploi.org/rapport-de-responsabilite-societale/home.html</text>
</g>
</svg>
