<?xml version="1.0" encoding="UTF-8" standalone="no"?>
<!DOCTYPE svg PUBLIC "-//W3C//DTD SVG 1.1//EN" "http://www.w3.org/Graphics/SVG/1.1/DTD/svg11.dtd">
<svg xmlns="http://www.w3.org/2000/svg" xmlns:xlink="http://www.w3.org/1999/xlink" version="1.1"
     viewbox="0 0 1024.00 1448.20" width="1024.00" height="1448.20" style="overflow:hidden" xml:space="preserve">
<defs>
<style type="text/css">
<![CDATA[
@font-face { font-family: 'f4aIFVZW48#15'; font-weight: normal; font-style: normal;  src: url(svg/font7.ttf) format('truetype'); }
@font-face { font-family: 'f4aIFVZW412#34'; font-weight: normal; font-style: normal;  src: url(svg/font11.ttf) format('truetype'); }
@font-face { font-family: 'f4aIFVZW411#30'; font-weight: normal; font-style: normal;  src: url(svg/font10.ttf) format('truetype'); }
@font-face { font-family: 'f4aIFVZW410#25'; font-weight: normal; font-style: normal;  src: url(svg/font9.ttf) format('truetype'); }
@font-face { font-family: 'f4aIFVZW49#20'; font-weight: normal; font-style: normal;  src: url(svg/font8.ttf) format('truetype'); }
@font-face { font-family: 'f4aIFVZW47#42'; font-weight: normal; font-style: normal;  src: url(svg/font6.ttf) format('truetype'); }

.s4aIFVZW40 { fill: rgb(  3,  56, 120); font-family: 'f4aIFVZW47#42'; font-size: 12.00px; }
.s4aIFVZW41 { fill: rgb(  0,  74,  78); font-family: 'f4aIFVZW48#15'; font-size: 12.00px; }
.s4aIFVZW42 { fill: rgb(  3,  56, 120); font-family: 'f4aIFVZW49#20'; font-size: 18.90px; }
.s4aIFVZW43 { fill: rgb(  3,  56, 120); font-family: 'f4aIFVZW410#25'; font-size: 18.90px; }
.s4aIFVZW44 { fill: rgb( 74,  74,  73); font-family: 'f4aIFVZW411#30'; font-size: 17.20px; }
.s4aIFVZW45 { fill: rgb( 74,  74,  73); font-family: 'f4aIFVZW411#30'; font-size: 10.00px; }
.s4aIFVZW46 { fill: rgb( 51, 125, 109); font-family: 'f4aIFVZW410#25'; font-size: 17.20px; }
.s4aIFVZW47 { fill: rgb( 51, 125, 109); font-family: 'f4aIFVZW48#15'; font-size: 17.20px; }
.s4aIFVZW48 { fill: rgb(255, 255, 255); font-family: 'f4aIFVZW412#34'; font-size: 25.80px; }
]]>
</style>
</defs>
<image x="0" y="0" width="1024" height="1448.2" xlink:href="svg/svg.jpg"/>
<g class="s4aIFVZW40" transform="translate(468.35 48.75)" >
<text y="0" x="0 6.75 12.85 19.25 ">Rapp</text>
<text y="0" x="25.4 31.75 36.15 42.4 49.25 56.35 64.25 70.75 77.6 82.1 ">ortRSE2017</text>
</g>
<g class="s4aIFVZW41" transform="translate(501.95 1408.45)" >
<text y="0" x="0 6.9 16.75 ">-3-</text>
</g>
<g class="s4aIFVZW42" transform="translate(73.35 593.35)" >
<text y="0" x="0.65 14.15 23.9 33.35 39 44.4 56.8 65.15 73.3 83.65 88.65 100.1 111.7 116.75 126.35 135 147.05 156.95 169.6 174.65 187 194.45 202.75 209.45 220.8 230.4 239.95 248.05 257.45 267.35 272.5 277.5 282.65 289.75 301.35 309.4 319.4 327.4 332 341.85 347.25 ">Quelleestlaplacedelaresponsabilit&#xE9;sociale</text>
<text y="0" x="454.1 464.75 474.35 489.6 505.25 514.05 524.65 534.4 550.05 559.35 566.35 572.8 580.15 592.6 601.4 614.65 630.55 640.75 648.65 656.05 668.75 674.15 682.4 692.35 703.3 710.15 714.65 725.15 733.15 736.75 748.1 756.4 ">Commentmettreen&#x153;uvrelesprincipes</text>
<text y="20.6" x="0 9.3 19.4 28.2 38.95 46.9 51.45 58.8 68.4 78.45 88.85 97.65 113.3 122.1 132.8 139.3 149.15 154.55 166.2 176.05 183 191.35 201.5 210.9 218.3 229.1 232 243.05 252.4 259.85 269.65 281.75 289.75 298.6 303.15 ">etenvironnementaleaujourd&#x2019;huiausein</text>
<text y="20.6" x="453.5 463.4 476.05 481.1 493.5 500.85 509.15 515.9 527.25 536.85 546.4 554.5 563.85 573.8 579 584 589.05 596.15 607.75 615.85 625.8 633.85 638.4 648.3 653.65 666.1 675.4 685.5 694.3 705 712.9 717.55 724.9 734.5 744.55 754.9 763.75 779.4 788.15 798.9 805.4 815.25 820.6 ">delaresponsabilit&#xE9;socialeetenvironnementale</text>
<text y="41.25" x="0 10.8 14.2 23.55 36.35 44.4 53.2 60.85 68.8 73.75 82.45 93.45 105.05 114.6 125.2 130.2 135.15 148.15 ">d&#x2019;unservicepublic?</text>
<text y="41.25" x="453.1 462.9 475.05 483.1 491.9 496.4 509.65 519.65 531.9 542.05 552.25 557.65 570.05 578.85 593.15 604.75 610.15 619.75 629.3 ">auseindeP&#xF4;leemploi?</text>
</g>
<g class="s4aIFVZW44" transform="translate(73.3 665)" >
<text y="0" x="1.1 9.5 21.5 27.25 35.2 43.3 51.95 61.1 69.45 77 85.6 94.6 97.95 102.85 106.25 111.3 123.05 130.85 139.75 147.6 150.7 159.5 164.85 173.45 177.5 189.75 198 200.05 208 215.9 225 233.95 238.4 246.4 257.65 266.8 275.75 281.5 284.55 293.75 302.55 311.15 320 323.95 327.95 336.65 ">Laresponsabilit&#xE9;soci&#xE9;talen&#x2019;estplusoptionnelle.</text>
<text y="0" x="454.6 465.1 474.05 482.05 493.3 502.2 510.05 518.2 527.35 535.7 546.95 555.75 561.45 567.15 579.4 585.1 593.1 601.15 609.85 618.95 627.3 634.85 643.45 652.4 656.45 664.4 675.65 684.45 692.8 700.6 709.45 723.5 732.45 736.5 745.15 752.1 761.4 769.4 777.45 786.15 795.25 803.6 811.15 819.75 828.7 832.75 840.7 ">Nousdevons&#xEA;treresponsablesensemble.Responsables</text>
<text y="20.6" x="1.1 10.35 14.25 18.35 30.35 39.25 46.6 54.2 62.7 71.35 83.35 92.35 104.6 113.55 118 126 137.25 146.05 158.35 167.3 171.75 179.75 191 199.95 212.2 221.15 225.65 233.95 241.3 253.3 262.2 270.8 279.05 290.55 294.65 306.4 314.2 322.8 330.55 335.65 344.3 352.8 ">Elleoccupedeplusenplusdeplacedanslesecteur</text>
<text y="20.6" x="454.15 462.95 475.2 480.6 489.2 498.05 506.9 515.95 524.15 535.9 543.75 552.55 558.2 566.9 570 577.3 589.6 598.35 606.85 615.8 620.7 623.8 635 643.7 652.65 661.15 670.25 675.95 684.75 693.35 702.55 708.25 720.55 729.45 733.95 741.95 753.45 758 766.35 774.2 777.55 781.6 793.85 797.55 800 808.35 815.7 823.05 831.1 ">entantqueservicepublicpourrendreplus&#xE000;acilel&#x2019;acc&#xE8;s</text>
<text y="41.25" x="0.95 9.9 15.95 18.25 26.45 38.45 47.3 55.85 63.35 66.75 70.1 84.2 92.85 101.2 109.05 121.05 128.35 137.5 151.6 165.35 177.5 186 194.55 206.8 215.45 224 231.3 239.3 246.5 254.65 258 263.05 275.05 283.95 292.55 300.9 312.4 317.45 326.45 334.9 340 347.95 ">priv&#xE9;ets&#x2019;imposecommeunen&#xE9;cessit&#xE9;danstoutes</text>
<text y="41.25" x="454.15 463.1 475.35 483.95 492.3 503.3 511.1 519.95 525.55 534.25 537.35 544.7 552.65 563.85 575.9 579.6 582.2 590.2 597.75 606.1 615.05 623.85 628.2 635.15 644.15 652.05 655.45 658.85 666.55 674.4 683.6 686.95 695.8 704.75 713.6 727.3 735.9 744.5 753.45 762.1 770.6 779.4 788 790 798.85 812.9 821.85 825.9 835.15 ">denosservices&#xE0;l&#x2019;usager,qu&#x2019;ilsoitdemandeurd&#x2019;emploi</text>
<text y="61.95" x="0.95 5 12.95 24.2 33.35 39.05 47.9 56.5 65.45 68.25 75.8 84.35 90.2 93.25 102.35 110.75 122.25 131 139.5 148.45 153.35 156.45 165.5 173.75 181.7 189.55 ">lesorganisationspubliques.</text>
<text y="61.95" x="454.15 463.1 474.8 483.65 497.7 506.65 510.7 519.65 528.3 536.95 545.45 550.25 557.2 566.5 574.45 582.55 591.2 600.35 608.7 616.25 624.85 633.8 637.8 645.8 656.95 665.4 673.35 680.55 688.7 695.25 704.1 716.35 721.7 730.3 739.15 748 757.05 764.95 766.95 776.1 781.8 790.65 799.25 808.2 811.05 818.6 827.2 832.95 836.05 845.15 ">ouemployeur.Responsablesaussientantqu&#x2019;organisation</text>
<text y="82.6" x="454.4 463.3 472.4 481.1 490.2 497.7 507.05 513.95 519.5 527.9 537.15 545.55 554.55 563.95 567.8 570 577.65 586.4 589.7 598.8 607.8 616.55 624.05 636.65 645.8 651.65 661 665.6 673.75 681.15 689.45 692.75 702.05 711.05 719.8 728.8 732.95 737.15 749.5 758.55 767.3 775.8 787.65 792.3 804.7 819 822 830 ">pourconjuguerl&#x2019;exigencepro&#xE000;essionnelledanslamise</text>
<text y="92.35" x="0.7 9.45 21 28.95 30.65 38.25 45.8 54.25 62.5 70.25 80.55 88.35 91.35 105.1 113.7 117.4 125.85 139.35 147.8 156.3 164.55 172.7 180.95 192.25 201.05 209.65 214.2 217 225.5 233.75 239.15 241.9 250.7 262.3 275.75 284.55 289.8 298.05 301.8 310.05 316.3 324.4 335.75 339.9 348.05 352.8 357.55 368.9 375.9 384.7 393.2 398.55 403.9 ">Cen&#x2019;estpassimplementuneobligationmorale.Laluttecontre</text>
<text y="103.25" x="454.15 462.8 474.45 489.1 496.35 504.55 510.1 521.75 530.55 542.45 550.85 559.05 570.2 584.2 586.85 593.9 601.9 604.8 613.8 621.95 632.75 640 648 656.4 667.25 671.55 683 691.85 699.85 708.25 713 716.2 721.1 732.75 741.5 752.25 760.75 763.7 775.25 783.55 795.1 800.65 806.1 813.3 821.25 829.75 832.95 ">en&#x153;uvredenosmissionsaveclaqualit&#xE9;devieautravail</text>
<text y="113" x="0.95 4.65 12.25 22.75 31.75 34.25 41.7 49.15 54.85 57.85 71.7 74.7 82.85 91.1 96.55 99.3 108.05 116.05 123.2 129.7 133.05 134.75 142.95 151.45 159.75 164.3 167.3 172 183.55 187.75 196.2 209.95 223.4 231.05 238.15 244.2 252.45 261.25 275 288.45 296.05 303.2 309.7 313.05 315.2 323.2 330.2 337.2 344.8 351.65 359.5 362.5 371.15 374.2 378.75 381.75 386.5 ">lesdiscriminations,l&#x2019;&#xE9;galit&#xE9;&#xE000;emmes/hommes,l&#x2019;accessibilit&#xE9;</text>
<text y="123.85" x="454.15 462.95 471.95 480.45 492.7 497.2 506.3 514.9 522.7 528.45 531.55 540.65 549.5 558.1 566.9 580.75 589.55 598.4 607.5 616.45 622.15 631 639.5 648.1 656.95 665.8 674.6 686.65 694 703.1 717.2 726.15 731.2 743.5 752.05 761.2 766.85 772.6 784.95 788.3 802.35 810.95 819.3 827.1 ">etun&#xE000;onctionnementprenantencomptenotreimpact</text>
<text y="133.6" x="0.7 9.6 21.9 26.95 35.9 43.9 55.05 63.5 70.85 82.3 90.1 98.95 104.6 113.3 116.4 123.7 131.7 142.95 151.95 160.2 172.45 181.05 190 198 209.5 215.2 224.05 232.65 241.55 250.7 259.05 270.3 279.05 288.2 292.7 304.75 310.45 319 328.05 336.3 344.05 349.8 352.9 362.05 374.05 383 391 ">detousauxservicesquenousrendonsetlar&#xE9;ductiondes</text>
<text y="144.5" x="454.15 463.35 471.2 480.2 483.95 490.05 499.45 508.7 517.6 526.8 540.95 550.1 559.3 565 573.9 578.9 586.55 596.2 604.5 612.95 621.95 631.45 640.1 648 656.95 666.25 670.65 678.95 690.9 700.05 709.25 715.1 718.8 731.75 740.8 750.1 758.95 768.7 777.7 786.9 792.85 807 816.15 821.7 827.7 833.75 ">environnemental.Responsablesen&#xE000;inpourpermettre</text>
<text y="154.25" x="0.7 9.85 24.35 27.55 35.1 43.6 47 56.5 65.1 77.1 86.35 99.1 108.65 130 135.25 138.6 147.6 155.85 167.75 180.45 189.35 198.05 209.95 218.65 226.75 232.8 235.55 244.55 248.3 253.7 262.05 273.75 281.95 291.4 300.55 310.05 318.8 325.55 331.2 340.5 349.3 355.4 364.3 368.05 377.05 386.05 ">&#xE9;missionsdeCOli&#xE9;es&#xE0;nosactivit&#xE9;ssontaujourd&#x2019;hui</text>
<text y="165.1" x="454.05 466.8 475.7 484.45 496.65 505.6 514.5 520.85 526.25 535.4 544.25 553.3 557 563.05 571.35 583.3 592.6 605.55 614.85 620.9 630.1 639.65 645.7 654 661.55 669.7 678.9 688.45 695.6 708.05 715.75 728.7 734.8 738.5 744.55 750.6 759.15 767.05 771.85 784.6 793.6 803.1 808.35 812.05 818.15 821.6 830.95 839.55 ">&#xE0;nospartenairesdeprogresser:&#xE0;cetitre,lapolitique</text>
<text y="174.85" x="0.7 9.6 17.6 28.85 37.95 44 47.1 55.95 64.8 70.1 78.7 84.5 87.6 96.7 105.05 116.65 120 128.55 137.85 140.7 148.75 157.45 166.3 174.6 182.1 190.75 199.7 203.75 211.7 219.55 226.55 234.95 247 251.05 259.55 268.9 272.25 278 281.3 295.5 298.8 303.95 315.95 324.9 332.8 344 352.3 360.15 365.9 369 378.15 386.45 ">desorientationsindispensables.Lal&#xE9;gitimit&#xE9;desactions</text>
<text y="185.75" x="454.15 462.4 464.55 472.55 480.05 488.2 496.45 501.3 512.1 517.45 525.1 532.8 541.15 549.95 557.9 565.15 573.4 582 585.7 593.3 603.85 612.55 620.45 632.05 640.25 648.9 656.5 667.35 680.8 689.3 697.55 706.3 714.3 724.85 732.5 740.05 748.3 756.45 767.8 776.4 784.55 790 793 800.3 808.8 813.5 821.1 828.15 836.15 843.15 ">d&#x2019;achatsresponsablesquenousmenonsestunoutile&#xE000;fcace</text>
<text y="195.5" x="0.7 9.7 17.95 30.2 38.8 47.75 55.75 67.25 81.05 89.85 98.45 107.6 115.95 127.2 136.05 144.6 152.95 164.2 171.55 179.5 190.75 199.7 208.8 222.55 231.25 234.55 243.2 251.15 262.4 270.4 278.3 287.4 291.8 301 309.55 318.55 327.05 338.8 346.75 355.25 364.05 373 380.95 ">quenousmenonsdanscesdomainesest&#xE000;ond&#xE9;esurdes</text>
<text y="206.45" x="454.4 463.45 472.7 481.6 491.35 497.3 506.2 520.4 529.6 538.5 547.7 557.2 566.55 575.4 581.35 590.3 599.6 604 613.15 627.3 636.5 645.65 654.25 662.8 671.95 677.75 689.95 694 696.4 705.55 719.95 729.25 733.65 743.2 750.7 755.05 763.4 775.6 784.6 793.8 799.6 807.75 817.2 826.4 835.3 843.65 ">pourramenerdurablementversl&#x2019;emploilespersonnes</text>
<text y="216.2" x="0.7 9.95 12.75 20.85 29.55 37.9 46.05 49.45 55.2 58.3 67.35 75.75 87.25 91.3 99.85 108.7 117.3 121.35 129.35 140.6 149.35 158.5 164.25 172.8 182 186.05 194.8 208.7 217.5 226.3 231.7 240.3 243.7 249.45 257.4 265.3 271.8 280.95 289.75 298.45 307.3 315.8 324.7 333.3 342.15 347.75 354.95 368.75 377.55 391.4 403.15 411.3 ">dispositionsl&#xE9;galesetr&#xE9;glementaires.Cependant,m&#xEA;mesi</text>
<text y="227.1" x="454.15 463.2 471.7 478.3 487.15 499.15 507.95 513.3 522 525.1 533.95 542.75 551.9 555.95 568.2 577.15 581.6 589.6 600.85 609.65 613.7 622.95 626 635.2 643.8 652.4 660.35 671.6 680.4 689.25 698.1 710.4 724.2 733 746.85 759.1 764.15 773 787.05 795.25 806.25 814.1 822.1 829.9 837.75 841.15 846.2 855.05 ">quien&#xE9;taientleplus&#xE9;loign&#xE9;esetenm&#xEA;metempssusciter</text>
<text y="236.85" x="0.95 9.5 18.5 26.45 37.65 45 53.2 62.35 70.6 82.2 87.85 96.35 104.95 109.85 112.7 120.5 132.55 141.45 153.75 159.35 165.1 173.1 184.35 193.6 199.25 207.8 216.45 225.05 236.65 245.55 251.3 260.15 269.3 275.05 283.15 294.4 303.25 311.8 320.15 331.4 338.75 350.75 359.7 368.8 382.55 391.25 394.55 403.2 411.45 ">nousavonsr&#xE9;alis&#xE9;detr&#xE8;sgrandsprogr&#xE8;sdanscedomaine,</text>
<text y="247.75" x="454.4 459.05 471.45 485.8 488.8 496.7 509.1 518.1 530.75 539.85 544.5 553 560.55 572.9 582 594.6 603.45 612.8 617.85 621.4 627.3 630.6 639.8 648.2 656.35 667.95 676.95 684.65 693.55 697.05 702.95 712.25 721.25 730 739 753 762 771 776.5 785.3 789.5 797.65 809.15 817.75 829.5 837.5 846.55 850.1 ">lamiseenplacedepolitiquesenvironnementalesausein</text>
<text y="257.5" x="0.7 9.65 13.75 18 26.15 37.75 47.05 56.05 65.25 74.25 83 90.55 99.85 105.75 118.1 127.3 139.55 153.45 162.25 170.5 182.35 190.3 202.7 211.8 220.55 228.5 233.55 237.05 245.8 254.8 264 271.5 280.8 289.55 297.55 303.4 312.4 317.65 326.65 340.65 349.65 358.65 367.8 376.9 385.65 394.15 ">ellesontencoredumal&#xE0;sed&#xE9;clinerconcr&#xE8;tementdans</text>
<text y="268.35" x="454.15 463.1 471.05 482.3 491.15 499.95 505.65 511.35 520.2 529.15 535.2 538.05 545.85 553.8 564.95 572.35 580.55 589.15 600.35 604.4 612.35 620.15 629.2 637.45 646.25 650.2 654.25 662.2 673.7 682.3 691.25 699.25 710.75 716.45 722.05 729.45 737.55 746.25 749.6 753.55 757.6 766.75 775.05 782.95 ">desentreprisesaveclesquellesnoustravaillons.</text>
<text y="278.1" x="0.95 9.5 17.9 29.15 38.25 43.95 52.85 61.45 70.35 73.2 80.75 89.35 95.1 98.2 107.35 115.65 126.9 135.75 144.85 153.45 161.8 173.05 182 189.95 197.8 202.95 210.9 222.4 236.2 245.05 250.8 253.9 262.75 268.2 279.45 288.45 300.15 309.15 317.4 326.55 332.3 335.4 344.7 347.8 356.55 364.8 372.05 377.4 386 394.8 ">nosorganisationsetnosgestesm&#xE9;tiersduquotidien,tant</text>
<text y="298.75" x="0.7 9.65 13.75 18 26.15 38 46.75 55.5 63 71.1 78.55 86.85 90.35 95.6 104.65 113.65 122.95 131.6 140.35 152.95 162.1 168.3 171.3 179.3 191.6 200.75 213.05 220.65 229.95 238.45 246.4 254.45 257.75 266.7 275.5 283 295.7 299.2 307.95 317.45 319.95 328.8 332.05 341.3 349.7 358.7 362.8 367.05 379.4 388.3 ">ellesn&#xE9;cessitentuneprisedeconscienceindividuelleet</text>
<text y="298.75" x="453.65 462.3 474.55 480.3 483.4 492.2 500.55 511.7 523.75 529.45 538.3 552.1 560.95 566.65 574.5 577.6 586.45 594.95 603.15 606.5 615.05 622.4 631.25 636.95 645.75 659.6 668.4 677.25 686.35 691.45 700.4 708.9 713.95 721.95 733.45 737.5 745.45 756.7 764.05 773.2 777.15 781.6 790.2 798.9 808.05 813.65 822.25 827.95 834 837.1 844.45 852.4 ">Jetiens&#xE0;remerciersinc&#xE8;rementtouteslescollaboratrices</text>
<text y="319.4" x="0.7 8.2 17.5 21.65 25.85 34.6 42.55 48.45 50.95 59.3 71.6 80.85 89.6 96.5 105.65 114.6 128.5 137.3 146.05 155.1 167.5 176.7 189 194.25 203.25 217.5 225.8 233.9 ">collectivequidemandedutemps.</text>
<text y="319.4" x="454.15 462.95 472.1 477.2 486.15 494.1 505.65 509.65 517.65 528.9 536.25 545.35 549.3 553.8 562.4 571.1 580.2 585.85 594.45 599.5 608.15 616.65 622.1 633.35 642.4 651 657.25 665.05 676.8 684.65 693.75 702.6 708.2 715.15 724 732.6 740.95 752.45 756.5 768.5 775.9 784.25 793.45 799.2 811.2 820.15 832.4 836.45 845.1 853.6 ">ettouslescollaborateursquisesont,danslecadredeleur</text>
<text y="340" x="454.4 468.7 471.7 479.15 487.45 490.7 500.05 508.45 515.75 524.75 533.5 542.55 551.05 560.15 568.4 580 589 597.8 606.3 617.85 625.4 634.4 639.7 644.95 657.3 666.45 675.45 689.35 698.1 704 712 720.75 733.1 742.25 754.85 760.75 768.85 777.1 785.95 795.3 803.75 811.5 820.25 829.45 833 838.05 841.6 846.85 ">mission,engag&#xE9;sdanscetted&#xE9;marchederesponsabilit&#xE9;</text>
<text y="349.75" x="0 11 19.45 26.25 35.55 44.7 49.55 62 71.3 84.25 88.3 90.6 99.85 105.95 115.2 118.65 128 136.6 149.3 158.6 171.55 177.6 185.85 194.3 203.3 212.8 221.5 229.4 238.3 247.7 251.4 256.65 260.3 265.8 278.45 287.8 296.75 304 313.3 322.8 326.55 336.05 345.25 351.3 357.3 ">Au-del&#xE0;del&#x2019;&#xE9;thiquederesponsabilit&#xE9;quidoit&#xEA;tre</text>
<text y="360.7" x="453.9 462.05 471.3 479.45 482.9 492.1 497.7 506.7 511.1 520.1 527.75 536.45 549.2 555.25 564.4 578.95 582.1 590.25 602.95 612.25 620.55 632.75 638.75 644.85 654.3 663.7 672.6 681.5 689.85 701.75 711.05 724 728.8 741.75 751.75 762.25 771.45 779.05 788.55 794.6 803.8 812.75 822 825.2 833.35 842.25 ">soci&#xE9;tale.Laremisedestroph&#xE9;esdelaRSE,organis&#xE9;e</text>
<text y="370.45" x="0.95 5.75 18.5 27.4 36.9 42.9 48.95 61.6 70.85 83.8 89.45 98.35 107.6 117.15 126.55 135.1 147.55 155.7 164.85 170.85 179.85 183.3 191 203.95 213.05 221.95 231.2 236.45 239.9 247.95 255.8 264.75 274.05 282.4 294.3 302 311.5 320.15 328.4 334.05 343.05 348.45 357.95 366.55 ">lan&#xF4;treentantqueservicepublic,nousconstatons</text>
<text y="381.3" x="454.15 463.15 473.65 479.2 487.95 491.45 503.55 512.75 522.7 528.55 536.8 543.95 556.1 565.2 574.2 588.2 597.5 606.5 612.35 618.25 630.85 635.5 647.9 652.55 661.85 668 673.25 685.9 689.45 703.7 712.8 717.9 721.15 728.75 737.55 743.45 746.75 756.05 768.4 777.5 785.65 797.25 806 815.2 823.95 827.5 836.35 844.45 ">enjuin2017,ad&#xE9;montr&#xE9;la&#xE000;orteimplicationdes&#xE9;quipes</text>
<text y="391.05" x="0.7 9.7 17.95 30.2 34.7 46.75 52.1 59.7 67.45 75.8 84.55 92.55 99.75 108 116.7 119.7 124.25 127.3 132 143.05 150.55 159.05 166.6 169.25 177.5 181.2 192.55 201 209.2 217.65 224.8 233.25 236.25 241.55 250.4 258.9 267.15 275.55 289.05 297.55 306.05 311.05 319.3 323 334.3 341.95 349.5 357.75 365.9 377.25 385.8 394 399.45 402.45 ">quelaresponsabilit&#xE9;socialeetenvironnementaleestunoutil</text>
<text y="402" x="454.15 463.35 473.15 482.15 491.35 497.3 511.8 515 526.9 536.2 549.15 563.3 572.5 578 584 590.05 602.75 611.95 623.7 632.15 641.1 645.5 654.5 663.3 673.05 677.45 685.75 697.95 712.1 721.35 725.05 729.35 733.75 742.75 751.6 757.65 765.95 778.15 787.45 793.4 802.35 808.45 811.9 821.3 829.85 838.2 ">etpermisdemettreenvaleurlesmeilleurespratiques</text>
<text y="411.75" x="0.7 8.95 12 15 23.5 31.75 39.35 47.1 55.35 60.75 63.5 72.3 80.2 86.45 95.05 106.1 113.7 119.1 122.1 135.6 143.8 147.95 156.2 161.6 164.35 173.1 184.5 193 201.1 209.4 211.05 219.55 233.15 241.3 245.4 253.65 259.05 261.8 270.65 282.3 285.3 293.8 298.55 307.05 312.3 320.55 328.8 334.7 344.05 352.55 356.3 365.05 376.5 384.65 392.9 ">d&#x2019;innovation,destimulationetd&#x2019;&#xE9;mulationinterne.Selonune</text>
<text y="422.55" x="454.15 463.35 475.95 484.65 493.95 503.1 512.05 519.7 528.7 ">enagence.</text>
<text y="432.3" x="0.7 9.5 14.85 23 32 44.3 58.1 66.85 75.5 84.05 96.35 104.95 113.55 122.75 130.8 136.45 145.05 153.6 161 173 183 188.6 194.3 202.85 207.95 216.55 225.8 228.95 240.95 249.75 261.45 270.45 280.25 286.4 295.05 302.3 306.3 314.3 325.55 334.4 343.25 348.9 354.55 363.45 372.4 378.45 381.3 389.05 397.05 ">&#xE9;tudemen&#xE9;eparFranceStrat&#xE9;gieen2016,lesentreprises</text>
<text y="453" x="0.7 9.75 12.45 20.35 28.85 37.05 44.45 52.85 61.55 70.05 78.5 80.95 89.25 97.6 109.6 118.1 127.05 135.75 144.1 155.55 163.3 168.8 174.25 182.6 187.55 195.95 205.05 208 219.65 228.45 240.3 245.9 253.7 261.55 270.05 279.05 287.2 294.55 303.05 311.9 315.05 319.8 323 327.9 339.3 346.95 355.65 363.3 366.25 374.9 380.05 388.5 392.3 ">disposantd&#x2019;unebonnestrat&#xE9;giederesponsabilit&#xE9;soci&#xE9;tale</text>
<text y="453" x="454.6 463.15 475.55 481.45 489.55 497.8 506.65 515.95 524.45 532.2 540.95 550.15 553.7 558.75 562.3 567.55 579.65 587.6 596.65 604.7 607.9 616.65 620.85 633.2 642.2 651.4 660.4 668.15 677 680.55 686.4 695.75 704.75 713.5 722.5 736.5 745.5 754.5 760 768.75 773 785.35 793.45 801.55 810.85 819.5 828.25 ">Laresponsabilit&#xE9;socialeetenvironnementaleestune</text>
<text y="473.65" x="0.4 8.5 18 27.25 36.8 45.95 58.85 73.1 82.35 91.35 100.55 109.75 118.7 131.05 137.1 148.85 164.85 174.1 178.95 187.3 199.5 208.55 217.7 224 228.8 238.3 244.25 258.3 267.3 276.5 281.9 290.2 302.15 311.5 320.05 333.05 337.45 345.75 357.55 366.3 375.2 381.25 387.3 395.55 ">sontenmoyenne13%plusper&#xE000;ormantesquelesautres</text>
<text y="473.65" x="454.15 463.45 472.6 486.7 495.65 501.7 509.9 518.8 531.5 539.3 548.25 551.7 561 569.55 578.5 587.7 593.1 605.8 615.15 624.1 631.3 640.6 649.8 663.85 672.8 681.75 691 703.95 712.9 721.85 728.15 733 742.55 745.75 757.65 766.95 779.65 787.85 796.7 805.65 814.6 823.85 833.05 ">d&#xE9;marcheexigeantequidemandepar&#xE000;oisdechanger</text>
<text y="494.3" x="1 5.85 11.5 20.4 24.85 33.45 39.25 42.3 51.45 59.8 71.3 80.25 86.3 88.6 97.3 100.6 104.7 113.3 122.55 125.65 134.25 142.2 153.35 160.75 168.95 177.5 188.7 192.75 200.75 212 219.75 224.65 227.75 236.55 245.4 250.55 258.05 265.3 268.7 282.75 291.7 296.2 304.8 313.65 318.95 327.55 333.3 336.4 345.55 357.8 361.9 370.75 378.2 386.8 390.8 399.05 ">(relationsprivil&#xE9;gi&#xE9;esaveclesclients,implantationlocale,</text>
<text y="494.3" x="453.9 461.9 469.95 481.95 490.65 499.4 508.6 512.15 517.65 526.05 535.15 543.3 551.35 558.65 568.1 572.2 576.45 588.8 596.9 605 614.1 622.7 629.25 634.75 643.85 652.55 658.4 667.2 670.75 679.6 688.35 695.5 704.25 713 720.5 728.65 736.05 743.75 752.6 756.15 762 774.65 783.5 792.65 801.3 810.45 819.45 825.3 831.2 ">seshabitudes.Elleestaujourd&#x2019;huin&#xE9;cessairepour&#xEA;tre</text>
<text y="514.95" x="0.95 6.65 15.45 24.25 32.75 38.05 46.65 52.45 55.55 64.6 72.85 79.85 88.35 95.75 104.45 110.95 119.75 124.85 132.75 140.6 143.7 152.55 161.1 168.45 176.7 182.05 ">r&#xE9;putation,&#xE9;co-e&#xE000;fcience).</text>
<text y="514.95" x="454.15 462.95 468.05 475.95 483.4 491.7 499.1 507.35 514.25 523.1 532.3 535.65 544.25 553.5 556.35 564.4 573.1 581.95 590.25 597.8 606.4 615.35 619.4 631.65 640.35 649.3 657.8 666.9 675.8 681.55 689.6 697.4 706.2 711.85 720.05 728.85 737.9 742.4 754.15 763.2 771.35 779.95 784.85 788.2 793.3 805.3 814.25 825.3 834 837.1 ">e&#xE000;fcace,etindispensablepourpr&#xE9;serverlaqualit&#xE9;devie</text>
<text y="535.55" x="1.1 9.65 22 27.95 36.1 44.3 53.2 62.5 71 78.7 87.5 96.7 100.2 105.3 108.8 114.05 126.15 134.1 143.2 151.2 154.35 163.1 167.35 179.75 188.75 197.95 206.95 214.65 223.55 227.05 232.95 242.25 251.25 260 269 283 292 301 306.5 315.3 319.5 331.8 340 348.05 357.25 366.3 375.7 384.45 ">Laresponsabilit&#xE9;socialeetenvironnementaleestdonc</text>
<text y="535.55" x="454.15 462.6 470.05 480.2 488.7 496.95 505.05 513.35 518.5 526.55 531.8 534.4 543 550.8 561.3 565.7 573.65 578.5 586.45 591.65 599.1 606.5 612.4 619.7 621.2 629.5 635.7 640.5 648.65 659.3 666.75 674.1 682.3 685.1 698.65 706.85 715.45 720.9 725.75 733.8 742.15 747.65 753.55 763.55 772 779.45 789.75 ">desg&#xE9;n&#xE9;rations&#xE000;utures.L&#x2019;enjeuestimportant.Nousy</text>
<text y="535.55" x="801.1 805.15 813.3 815.65 822.95 831.55 839.35 ">&#xE000;aisons</text>
<text y="556.2" x="0.95 9.5 18.65 30.4 38.25 46.9 55.35 59.35 68.25 82.05 90.85 99.7 108.65 117.15 125.75 137.75 146.85 155.85 160.75 163.85 172.7 181.3 187.05 190.1 199.3 211.55 225.4 234.5 240.15 248.75 252.8 261 268.2 281.95 290.65 293.45 304.7 312.25 314.25 322.25 330.05 338.9 347.3 355.3 362.5 370.65 377.3 385.8 ">nonseulementuneobligationmorale,maisc&#x2019;estaussiun</text>
<text y="556.25" x="454.4 458.45 466.3 473.1 484.2 489.65 496.65 498.2 505.65 513 520.85 527.65 538.65 547.05 555.7 564 572.1 576.65 584.95 598.25 606.95 609.55 618.25 626.3 637.25 644.1 655.35 663.85 666.7 670.65 678.75 689.4 697.9 707.15 712.35 719.9 725.8 734.2 742.85 751.15 759.25 767.3 775.75 783.2 793.7 801.85 810.3 817.25 824.95 833.55 841.35 ">&#xE000;ace:c&#x2019;estcedontt&#xE9;moignecebilan2017,dontnouspouvons</text>
<text y="576.8" x="0.7 9.5 13.5 22.35 36.2 45 53.85 62.7 71.6 83.85 92.6 101.45 107.4 111.85 121 126.65 140.35 148.95 157.55 164.85 173.55 180.5 189.75 193.7 197.75 209.75 218.7 227.8 236.65 245.25 257.25 266.3 277.7 285.5 294.3 302.65 310.15 317.3 322.95 331.05 338.25 346.05 354.9 368.95 377.9 381.95 ">&#xE9;l&#xE9;mentdeper&#xE000;ormance.Elledonnedusens,rassemble</text>
<text y="576.8" x="454.15 462.8 468.3 473.85 485.8 493.45 502.15 507.45 514.75 521.35 530 538.25 546 554.3 563.05 566.9 575.3 584.15 592.2 600.9 608.8 617.2 626 633.8 644.95 653.5 662.25 669.55 677.6 686.55 694.7 705.85 714.25 723.05 730.85 741.7 750.1 758.9 775.65 801.5 ">&#xEA;trefers,etsurlequelnouspouvonsnousappyp</text>
<text y="576.8" x="767.5 784.15 792.8 810.05 818.8 827.15 835.55 843.95 847.75 851.6 860.25 ">uerouraller</text>
<text y="597.5" x="0.7 9.15 17.6 22.95 30.55 38.3 46.65 55.45 63.35 70.6 78.85 87.55 90.55 95.1 97.6 105.1 116.4 123.95 132.1 140.1 147.35 155.5 163.75 175.05 183.55 191.7 199.2 207.3 215.3 222.65 230.8 242.05 250.65 258.9 266.9 277.7 281.8 293.2 307 309.5 316.95 328.25 336.75 348.05 362.5 369.55 377.65 383 ">etresponsabilisechacuneetchacundanslamiseen&#x153;uvre</text>
<text y="597.5" x="454.15 462.8 471.2 478.4 487.35 492.9 504.8 513.6 517.9 525.7 536.85 540.75 549.8 552.95 564.65 573.3 584.65 593.5 603.1 609.05 622.65 631.3 639.8 648.5 656.95 665.1 676.25 680.15 687.9 698.75 707.15 715.85 724.25 732.65 740.45 751.25 761.75 769.75 778.4 787.15 790.35 794.95 ">encoreplusloinen2018etdanslesann&#xE9;es&#xE0;venir.</text>
<text y="618.15" x="0.7 9.25 20.35 27.8 35.4 46.25 60.05 62.55 69.35 77.2 80 88.75 96.75 104.3 ">desesmissions.</text>
</g>
<g class="s4aIFVZW45" transform="translate(193.35 825)" >
<text y="0" x="0 ">2</text>
</g>
<g class="s4aIFVZW46" transform="translate(457.6 499.45)" >
<text y="0" x="0 8.9 17.4 26.25 38.85 49 57.6 65.25 73.25 82.15 88.5 97 104.6 ">JeanBass&#xE8;res,</text>
</g>
<g class="s4aIFVZW47" transform="translate(451.3 520.1)" >
<text y="0" x="0 9.35 13.25 19.15 27.8 35.6 41.1 49.9 58.6 67.65 76.7 85.55 94.3 103.2 109.15 117.9 ">directeurg&#xE9;n&#xE9;ral</text>
</g>
<g class="s4aIFVZW48" transform="translate(484.2 122.9)" >
<text y="0" x="0 12.1 26.15 30.9 42.15 ">&#xC9;DITO</text>
</g>
</svg>
