<?xml version="1.0" encoding="UTF-8" standalone="no"?>
<!DOCTYPE svg PUBLIC "-//W3C//DTD SVG 1.1//EN" "http://www.w3.org/Graphics/SVG/1.1/DTD/svg11.dtd">
<svg xmlns="http://www.w3.org/2000/svg" xmlns:xlink="http://www.w3.org/1999/xlink" version="1.1"
     viewbox="0 0 1024.00 1448.20" width="1024.00" height="1448.20" style="overflow:hidden" xml:space="preserve">
<defs>
<style type="text/css">
<![CDATA[
@font-face { font-family: 'f40uMVZW414#44'; font-weight: normal; font-style: normal;  src: url(svg/font13.ttf) format('truetype'); }
@font-face { font-family: 'f40uMVZW411#29'; font-weight: normal; font-style: normal;  src: url(svg/font10.ttf) format('truetype'); }
@font-face { font-family: 'f40uMVZW412#34'; font-weight: normal; font-style: normal;  src: url(svg/font11.ttf) format('truetype'); }
@font-face { font-family: 'f40uMVZW413#39'; font-weight: normal; font-style: normal;  src: url(svg/font12.ttf) format('truetype'); }
@font-face { font-family: 'f40uMVZW48#58'; font-weight: normal; font-style: normal;  src: url(svg/font7.ttf) format('truetype'); }
@font-face { font-family: 'f40uMVZW410#24'; font-weight: normal; font-style: normal;  src: url(svg/font9.ttf) format('truetype'); }
@font-face { font-family: 'f40uMVZW49#19'; font-weight: normal; font-style: normal;  src: url(svg/font8.ttf) format('truetype'); }

.s40uMVZW40 { fill: rgb(  0,  74,  78); font-family: 'f40uMVZW48#58'; font-size: 12.00px; }
.s40uMVZW41 { fill: rgb(  0,  74,  78); font-family: 'f40uMVZW49#19'; font-size: 12.00px; }
.s40uMVZW42 { fill: rgb( 51, 125, 109); font-family: 'f40uMVZW410#24'; font-size: 41.25px; }
.s40uMVZW43 { fill: rgb(  3,  56, 120); font-family: 'f40uMVZW411#29'; font-size: 18.90px; }
.s40uMVZW44 { fill: rgb( 74,  74,  73); font-family: 'f40uMVZW412#34'; font-size: 15.45px; }
.s40uMVZW45 { fill: rgb( 74,  74,  73); font-family: 'f40uMVZW412#34'; font-size: 9.00px; }
.s40uMVZW46 { fill: rgb( 51, 125, 109); font-family: 'f40uMVZW413#39'; font-size: 17.20px; }
.s40uMVZW47 { fill: rgb(255, 255, 255); font-family: 'f40uMVZW414#44'; font-size: 25.80px; }
.s40uMVZW48 { fill: rgb( 36,  87,  33); font-family: 'f40uMVZW410#24'; font-size: 49.65px; }
.s40uMVZW49 { fill: rgb( 36,  87,  33); font-family: 'f40uMVZW49#19'; font-size: 16.25px; }
.s40uMVZW410 { fill: rgb(  0,  74,  78); font-family: 'f40uMVZW410#24'; font-size: 49.65px; }
.s40uMVZW411 { fill: rgb(  0,  74,  78); font-family: 'f40uMVZW49#19'; font-size: 16.25px; }
]]>
</style>
</defs>
<image x="0" y="0" width="1024" height="1448.2" xlink:href="svg/svg.jpg"/>
<g class="s40uMVZW40" transform="translate(452.65 48.75)" >
<text y="0" x="0 6.6 12.35 18.05 24.2 30.6 36.6 42 48.05 54.45 57.65 63.35 70.8 77 83 88.5 94.7 104.35 110.75 114 ">Responsablesensemble</text>
</g>
<g class="s40uMVZW41" transform="translate(502.1 1408.45)" >
<text y="0" x="0 6.9 16.35 ">-7-</text>
</g>
<g class="s40uMVZW42" transform="translate(505.95 175.9)" >
<text y="0" x="0 ">&#x2022;</text>
</g>
<g class="s40uMVZW43" transform="translate(306.7 198.6)" >
<text y="0" x="18.9 29.35 41.15 50.9 60.4 69.55 77.9 88.25 99.85 110.75 121.2 127.9 135.45 145.25 153.8 162.9 173.2 183.25 194.15 203.95 213.05 222.7 233.2 241.05 249.05 260.8 271.3 275.55 284.9 295.15 304.8 309.5 322 326.55 336.3 345.25 354.4 358.8 369.8 379.75 388.5 ">UNACTEURQUILUTTECONTRELESDISCRIMINATIONS,</text>
<text y="22.7" x="0 9.35 19.75 29.65 41.4 47.4 49.9 59.75 69.8 79.85 90.8 103.2 111.1 120.9 131.5 141.9 150.3 162.75 171.15 180.9 191.9 201.95 212.9 225.3 237.75 248.25 257.55 268 278 289.7 297.65 308.15 317.8 325.8 336.05 345.55 355.3 364.45 372.8 385.25 393.65 403.45 ">DANSL&#x2019;ACCOMPAGNEMENTCOMMEDANSLERECRUTEMENT</text>
</g>
<g class="s40uMVZW44" transform="translate(73.45 267.2)" >
<text y="0" x="1 6.85 16.8 23.45 39.2 46.45 54 58.35 66.7 78.8 85.7 91.7 96.1 105.7 113.6 124.05 127.3 137.6 145 152.6 156.95 163.55 171.1 178.2 184.2 187.3 195.7 205.65 213.5 220.45 229 237.2 240.15 246.2 253.2 258.1 261.6 274 277.5 284.95 291.8 297.85 300.95 309.35 316.55 325.15 332.95 340.5 347.75 357.05 360.5 363.85 371.4 383.85 391.65 394.95 403.3 406.4 ">Le10barom&#xE8;tredelaperceptiondesdiscriminationsdansl&#x2019;emploi,</text>
<text y="18.6" x="0.6 5.2 12.5 20.25 24.05 27.1 33.35 44.05 51.55 59.2 67.35 70.85 81.8 91.3 98.55 103.45 111.15 118.55 124.7 132.5 140.45 147.8 155.8 162.95 171.8 180.2 184.75 193.25 196.25 201.85 211.05 218.05 227.3 231.05 234.15 246.05 250.4 258.15 265.85 273.8 276.9 283.1 290.15 296.3 299.6 308.1 319.05 322.7 330 335.85 343.55 348.65 356.2 363.25 369.4 372.7 381.25 388.8 396.6 400.05 ">r&#xE9;alis&#xE9;parleD&#xE9;&#xE000;enseurdesdroitsetl'Organisationinternationale</text>
<text y="37.15" x="0.25 8.6 18.55 24.75 29.5 36.3 43.8 51.55 55.3 62.1 74.2 82.8 90.1 96.3 100.85 110.8 119.15 126.7 134 140.5 148.25 158.8 166.95 175.35 181.75 187.65 193.8 201.8 209.5 216.9 226.55 230.1 233.65 241.35 248.75 255 262.7 275.3 283.2 286.65 296.65 304.65 315.35 318.8 329.45 337 345.5 353.4 361.45 364.9 371.9 378.1 381.35 389.9 397.45 ">dutravailmontreque,en2017,dansl&#x2019;ensembledelapopulation,</text>
<text y="55.75" x="0.25 7.85 18.8 33.55 41.25 48.05 56.95 64.2 71.6 75.8 81.7 89.95 97.6 104.95 111.7 119.95 127.7 134.7 141.6 144.7 152.1 156.3 163.7 170.75 178.85 185.4 192.5 200.7 204.05 211.1 217.85 223.35 232.7 240.75 243.5 249.4 256.25 261 264.35 276.6 279.95 287.25 294.25 301.05 309.6 317 326.9 333.35 341.55 349.25 353.45 361.7 369.4 379.5 382.65 390.05 397.7 ">23%despersonnesd&#xE9;clarentavoir&#xE9;t&#xE9;discrimin&#xE9;esaucoursdeleur</text>
<text y="74.3" x="0.25 6.5 13.75 18.35 23 25.8 33.05 37.1 46.85 54.35 58.35 66.05 70.45 77.1 82.6 88.8 91.6 99.6 107.2 114.35 121.65 125.1 128.05 137.35 144 151.8 158 168.1 182.55 190.05 197.3 204.25 212.95 215.95 225.3 231.55 238.4 246.3 250.4 259.4 267.1 270.55 278.05 285.2 294.9 299 305.85 312.55 319.7 326.95 331.05 337.75 344.9 353.9 361.6 364.65 371.9 384 391.5 394.5 402.55 405.65 ">carri&#xE8;repro&#xE000;essionnelleet15%danslecadred&#x2019;unerecherched&#x2019;emploi.</text>
<text y="92.9" x="1 6.1 8.8 16.35 28.8 36.6 39.95 48.25 54.2 61.1 66.95 75.85 79.1 89.45 97.2 101.6 109.2 121.6 124.7 132.25 139.35 147.2 155.55 167.55 175.05 178.6 186.05 195.15 202.45 209.6 215.9 221.55 229.1 236.9 244 251.85 261.5 269.7 272.6 278.7 285.65 290.6 294.1 306.5 310 317.4 324.3 330.3 333.45 341.8 349.05 355.45 ">L'emploiestlepremierdomainevecteurdediscriminations.</text>
<text y="116.35" x="1 6.8 14 20.55 30.55 40.5 47.05 53.95 59.35 64.95 74.7 81.2 84.05 90.05 97.45 104.35 110.35 113.45 121.85 129.3 136.2 142.85 151.35 154.6 164.6 172.1 184.6 192.4 195.7 204.05 209.75 215.95 219.35 226.9 234.05 241.65 248.5 256.15 265.65 270.35 277.95 282.9 294.9 302.45 314.5 322.05 329.2 337.45 343.95 351.75 359.55 362.85 372.5 380.7 388.1 395.05 400.85 406.85 410 418.4 ">Face&#xE0;cettesituation,P&#xF4;leemplois&#x2019;engage&#xE000;ermementsurlaquestion</text>
<text y="134.95" x="0.25 7.75 17.55 20.55 29.55 37.5 39.8 46.8 54.05 58.1 64.2 66.7 72.1 81.45 88.05 95.55 103.1 112.9 115.95 119.1 125.65 132.95 140.25 143.6 146.1 151.45 158.6 164.55 173.55 180.2 188.45 195.3 201.3 207 209.8 217.85 224.8 232.85 238.6 246.7 253.55 261.75 273.5 280.75 287.85 294.7 301.35 309.6 316.85 324.35 331.8 335.85 342.5 350.45 358 364.65 372.9 379.15 386.4 393.55 401.45 404.25 411.75 418.35 423.45 ">deladiversit&#xE9;etdel&#x2019;&#xE9;galit&#xE9;.Desactionssontmen&#xE9;esaupr&#xE8;sdescandidats</text>
<text y="153.5" x="0.25 6.8 14.35 21.85 28.55 36.8 44.05 50.95 56.6 60.7 67.95 75.45 80.05 82.6 88.35 95.05 102.95 110.7 114.95 121.8 128.1 137.35 147.2 150.1 159.85 172 174.6 180.35 189.7 196.95 206.95 214.5 217.45 224.3 230.55 239.6 247.15 256.9 268.6 275.2 280.95 288.1 295.8 303.35 309.95 318.25 324.8 332.35 340 342.4 350.45 357.3 363 366.3 369.05 377.65 380.9 388.4 395.55 402.65 409.7 416.95 423.8 428.9 435 ">etdesentreprisesgr&#xE2;ce&#xE0;lamiseenplacedem&#xE9;thodesetd&#x2019;outilsinnovants.</text>
<text y="238.5" x="1 10.55 18.45 26 35.95 39.55 50.1 56.95 64.45 72.95 77.7 87.95 96.1 107.2 110.7 120.85 125.9 134.6 139.85 152.1 159.35 165.6 169.1 177.8 188.65 195.55 204.25 211.7 218.05 221.85 230 237.75 248 256.15 263.45 272.95 279.85 288.5 296.05 302.45 310.3 314.15 318.2 321.85 329.7 334.35 340.7 347.9 356.05 367.3 379.65 387.9 396.45 404.65 408.25 ">Danslecadredela&#xE000;ormationcontinuedesconseillers,unmodule</text>
<text y="257.05" x="0.25 8.2 17.8 22.6 31.05 36.1 48.2 55.2 61.2 64.45 72.85 82.95 90.95 100.7 108.7 116.3 123.35 132.3 137.35 145.85 153.75 158.1 167.2 174.25 180.1 188.4 196.35 203.6 211.85 215.05 225.15 235.75 239.1 249.65 253.4 260.65 266.1 271.8 281.95 288.6 297.05 304.3 310.4 314.9 325.45 328.85 335.85 344.6 352.85 355.85 362 369.05 374.05 377.65 390.1 393.7 401.2 408.15 414.25 417.45 425.9 433.2 ">de&#xE000;ormationdedeuxjoursestd&#xE9;di&#xE9;&#xE0;laluttecontrelesdiscriminations</text>
<text y="275.65" x="0.25 10.6 14.05 17.45 25 37.5 44.75 52.3 59.7 66.8 74.2 81.7 88.2 91.8 97.85 104.45 112.85 125.35 133 136.5 143.95 154.35 157.6 164.6 173.85 185.9 193.9 201.7 209.35 213 215.85 221.5 228.45 237.35 244.7 250.45 253.75 260.9 268.45 273.4 281.2 284.7 291.85 302.3 309.2 318.05 325.8 330.15 337.1 343.2 350.75 357.95 363.95 367.05 374.7 378.3 ">&#xE0;l&#x2019;embauche.Ilcombinelesmodalit&#xE9;se-learningetpr&#xE9;sentiel.</text>
<text y="299.05" x="1 6.55 13.25 21.5 27.8 35.8 42.7 48.05 55.3 62.8 69.7 77.7 85.2 91.85 99.6 104.05 112.1 116.7 128.45 135.05 140.75 143.55 151.6 158.55 166.5 174.55 181.35 189.2 196.45 203.35 208.95 215.05 220.35 226.95 232.3 241.65 248.9 256.4 261 263.85 270.55 278.05 280.65 286.75 292.65 301.65 308.3 316.55 323.15 328.9 336 343.55 350.2 358.15 365.7 375.05 381.25 387.9 396.55 404 408.25 415.3 ">Lescontenusdes&#xE000;ormationsontaussi&#xE9;t&#xE9;enrichis.Des&#xE9;tudesdecaspra-</text>
<text y="317.7" x="0 5.7 8.5 16.35 23.5 30.1 38.2 44 52.05 58.85 66.45 73.95 80.6 86.35 94.45 99.1 110.8 117.95 120.6 129.25 136.7 140.8 148.85 155.85 163.35 169.1 176 182.65 190.9 197.5 205.7 212.75 220 224.65 236.4 242.95 248 253.35 260.6 267.45 275.25 282.5 289.2 298.7 304.95 313.05 319.95 325.75 332.95 336.2 339.65 342.65 349.9 353.9 361.85 369.55 372.95 375.75 383.3 390.55 397.4 403.1 405.85 413.75 421 ">tiquessontd&#xE9;sormaispropos&#xE9;esetpermettentauxconseillersd&#x2019;identifer</text>
<text y="336.25" x="0.25 6.8 17.55 29.6 32.45 39.7 46.35 56.3 67.95 73.85 77.7 83.45 88.05 90.6 96.45 103.7 110.9 113.9 120.45 128.8 135.45 140.05 142.6 147.95 155.2 159.25 165.85 172.8 177.85 185.4 190 192.85 200.75 203.55 211.45 218.55 225.2 233.45 240.05 248.3 251.3 260.65 266.9 273.75 281.7 285.75 295.55 298.55 305.1 312.4 319.7 324.85 332.4 339.05 347 354.9 357.5 363.3 369.95 374.55 377.75 389.85 393.05 400.15 406.7 412.4 415.25 423.3 430.2 436.3 ">etmieuxma&#xEE;triserlescrit&#xE8;resjuridiquesetlecadrel&#xE9;galdesdiscriminations.</text>
<text y="402.7" x="1 7.55 17.25 24.95 32.85 39.2 46.85 52.85 60.35 67.45 77.2 81.85 89.45 96.85 101.45 104.3 112.15 119.3 128.75 140.05 147.1 153.95 160.6 165.25 172.1 177.45 184.7 191.25 197 204.2 211.15 219.1 227 229.6 235.35 242.05 246.65 249.85 261.9 265.15 272.25 279.5 286.7 296.95 306.3 312.9 318.2 327.55 334.2 338.3 345.15 352 361.15 367.3 374.8 382 385 394.15 400.25 402.8 408.15 ">En2016,unerubrique&#xAB;Recrutersansdiscriminer&#xBB;a&#xE9;t&#xE9;cr&#xE9;&#xE9;esurlesite</text>
<text y="421.25" x="0.6 4.1 11.25 16.95 24.5 29.5 36.95 43.8 52.25 59.1 68.05 71.45 74.45 82.05 89.85 ">internetetl&#x2019;app</text>
<text y="421.25" x="97.6 101.3 104.45 110.95 117.85 123.9 126.95 135.35 146 158.05 166.5 174.1 177.7 181 191.7 198.4 206.85 210.15 220.15 227.7 240.1 247.9 251.2 259.55 265.15 273 280.2 288.4 291.5 298.5 307.35 314.9 321.85 332 339.55 351.95 359.8 363.1 370 377.95 385.5 393.3 397.65 404.05 ">licationmobileP&#xF4;leemploid&#xE9;di&#xE9;sauxemployeurs.</text>
<text y="439.85" x="1 8.25 12.3 15.95 26.95 31.8 39.6 47.7 55.35 63.3 67.35 70.95 81.95 85.6 92.85 102.7 107.45 114.65 123.05 126.65 133.85 143.1 151.25 162.25 170 178.7 186.65 192.25 200.75 204 210.4 217.65 222.9 226.7 239.4 243.25 250.95 258.15 264.5 267.9 276.6 287.45 297.45 303.4 312.1 319.55 325.5 332.75 342.7 346.35 353.6 363.1 370.3 376.2 384.1 391.75 399.05 ">Ellerappellelesr&#xE8;glesdenon-discrimination&#xE0;toutesles&#xE9;tapes</text>
<text y="458.4" x="0.25 8.1 18 21.95 28.75 35.3 39.85 46.6 51.95 59.1 70.7 77.85 84.7 92.35 98.85 106.2 113.7 121.7 129.1 136.2 145.1 152.55 159.1 167.2 173.35 181.35 188.25 193.95 201.1 204.25 206.95 215.45 222.45 230.45 237.85 244.9 247.8 257.35 261.35 268.15 275.55 282.35 288.25 293.9 296.65 304.6 313.8 321.35 324.75 332.15 339.25 348.1 355.65 359.95 364.7 368.7 377.55 385.15 388.15 395.3 407.35 414.75 417.65 425.65 428.7 ">durecrutementetdonnedesconseilspourlar&#xE9;dactiond&#x2019;uneo&#xE000;&#xE000;red&#x2019;emploi.</text>
<text y="477" x="1 10.45 17.5 27.05 30.8 38.3 43.2 51.75 56.85 68.95 76.05 82.2 85.45 94.05 101.35 110.6 117.35 125.85 133.5 140.2 147.85 153.05 160.6 168.3 175.6 184.85 188.3 195.4 204.6 211.7 216.8 219.8 225.6 233.3 237.85 244.95 254.6 258.4 261.7 268.8 277.95 288.7 292.1 302.1 310.45 313.5 319.75 326.85 331.95 335.6 348.15 351.85 359.4 366.45 372.6 375.9 384.4 395 402 411.25 414.7 421.8 ">Desin&#xE000;ormationsconcernantlescrit&#xE8;resli&#xE9;s&#xE0;ladiscriminationetles</text>
<text y="495.55" x="0.6 12.7 19.55 27.55 35.05 42.3 50.85 58.7 69.1 73.45 80.7 87.2 95.6 103.45 107.8 116.4 124.7 131.85 140.35 147.25 152.85 162.85 170 176.3 182.35 189.75 197.4 201.05 203.95 210 217.2 224.15 232.8 239.3 247.1 254.45 261.05 268 277.3 289.3 296.85 308.9 315.85 325.1 330.05 337.95 345.65 350.55 353.7 361.85 369.3 376.25 385.1 392.65 402.9 409.5 417.85 425.65 430 ">moyensderecoursont&#xE9;t&#xE9;actualis&#xE9;essurcesm&#xEA;mesrubriquesaucours</text>
<text y="514.15" x="0.25 8.1 18.5 22 25 32.55 40.35 47.8 54.95 62.45 ">del&#x2019;ann&#xE9;e.</text>
<text y="537.55" x="0.5 9.8 17.25 24.45 32.6 40.05 50.45 54.8 61.95 68.95 73.85 81.05 86.7 94.2 102.1 109.15 117.35 120.2 126.7 134.1 141.85 147.95 157.85 165.45 175.45 181.55 189.05 192.6 202.5 210.35 220.1 226.2 234.6 244.85 251.8 258.25 265.6 272.75 279.35 290 296.75 305.2 308.5 318.45 326 338.45 346.25 349.55 357.9 360.95 366.85 374.85 378.6 386.4 396.3 404.7 411.85 417.85 421.4 ">ChaquerecruteurdisposeauseindesonespaceP&#xF4;leemploi,d&#x2019;unoutil</text>
<text y="556.2" x="0.6 8 16.35 24.25 31.55 38.2 46.55 53.8 59.6 65.6 70.6 78.35 81.85 86.2 95.95 102.05 111.45 117.45 122.05 129.6 141.6 151.25 159.25 162.6 170.1 177.35 183.4 187.75 194.65 200.65 203.8 211.35 219.1 225.65 233.15 240.1 246.2 256.55 264.4 272.2 275.3 283.5 290.95 298.5 310.5 318.05 325.25 333.5 339.95 347.75 355.6 358.9 368.85 375.8 380.75 383.6 389.25 396.8 401.2 410.85 418.7 ">pourconstruiresatramed&#x2019;entretien.Bas&#xE9;uniquementsurlecrit&#xE8;rede</text>
<text y="574.75" x="0.75 3.7 13 19.25 27.35 39.5 46.55 53.1 58.45 65.7 72.85 79.1 85.95 91.45 97.7 104.35 111.9 119.95 126.8 132.5 135.75 141.6 149.05 153.1 159.55 166.95 169.8 177 183.9 192.15 195.3 198.35 205.6 217.7 225.2 228.2 234.8 242.45 249.7 257.2 263.6 271.5 278.6 285.85 292.7 300.5 307.75 317.75 322.35 324.95 330.75 338.6 345.75 354.8 362.3 372.05 379.5 383.75 390.3 396 398.8 406.7 413.85 420.45 ">lacomp&#xE9;tence,cetoutilpr&#xE9;vientl&#x2019;employeurquantaurisquedepratiques</text>
<text y="593.3" x="0.25 8.2 10.75 16.5 23.2 27.8 31.05 43.05 46.3 53.35 60.6 67.45 72.85 79.45 85.6 ">discriminantes.</text>
<text y="616.8" x="1 10.25 20.6 32.7 40.25 52.25 59.35 65.95 73.35 81.7 89.55 97.35 100.6 107.6 116.2 124.05 131.6 143.6 151.1 158.6 166.45 174 181.8 186.15 194.75 202.7 206.1 213.65 226.05 233.85 237.15 245.5 248.6 254.45 262.3 269.25 278.5 282.05 289.4 294.15 302.5 307.5 319.5 326.35 332.35 335.5 343.9 351.1 360 366.55 374.95 382.4 389 396.55 401.5 408.9 416.45 423.6 ">Dem&#xEA;me,pourlesdemandeursd&#x2019;emploi,desin&#xE000;ormationsconcernant</text>
<text y="635.3" x="0.75 3.85 10.6 19.25 26.05 30.8 33.55 39 46.35 50.6 57.45 66.45 69.95 72.95 79.7 88.3 98.35 101.45 110.85 118.9 121.65 127.6 134.35 139.1 142.55 154.75 158.1 165.35 172.1 177.95 180.95 189.15 199.1 205.85 214.45 217.55 224.35 233.35 245.2 251.95 259.75 267.15 274.25 282.5 290.2 300.25 304.45 311.5 317.9 326.1 333.8 338 346.25 354.45 361.5 369.6 376.35 381.85 391.5 398.5 404.65 410.55 417.75 425.25 428.9 432.2 ">lescrit&#xE8;resli&#xE9;s&#xE0;ladiscriminationetlesmoyensderecoursont&#xE9;t&#xE9;actuali-</text>
<text y="653.95" x="0 6.1 13.25 20.25 28.95 35.35 43.25 51.05 54.35 64.1 70.55 73.35 79.05 89.35 92.85 100.05 105.7 113.2 118.2 125.65 132.55 141 147.85 156.8 160.2 163.25 170.8 178.55 186.4 190.05 193.15 199.7 206.6 212.6 215.75 224.1 234.75 246.75 255.2 262.85 266.45 269.75 280.4 287.15 295.6 298.9 308.85 316.4 328.8 336.65 339.95 348.3 351.7 ">s&#xE9;essurlesiteinternetetl&#x2019;applicationmobileP&#xF4;leemploi.</text>
</g>
<g class="s40uMVZW45" transform="translate(104.95 262.05)" >
<text y="0" x="0 ">e</text>
</g>
<g class="s40uMVZW46" transform="translate(149.6 458.8)" >
<text y="0" x="32.25 39.45 47.8 54.3 61.2 69.85 78.3 85.75 95.25 103.65 110.85 116.4 127.7 132.1 140.2 149.75 159 162.5 169.85 177.65 183.6 187.65 201.65 205.65 214.4 222.4 229.4 233.1 242.55 251.1 261.25 ">Luttercontrelesdiscriminations:</text>
<text y="18.55" x="0 9.05 17.8 28.3 37.25 43.15 49.55 55.15 65.7 74.8 85.1 91.25 100.7 106.85 120.7 128.65 135.7 139.4 148.85 160.5 166 174.7 183.45 192.9 201.15 209.75 218.5 222.85 231.2 242.1 250.75 261.9 271.4 280.65 287.95 ">uneoffredeformationrenouvel&#xE9;een2017</text>
<text y="182.7" x="12.9 26.45 34.75 41.65 49.2 55.1 67.1 71.7 75.65 84.35 92.15 100 109 117.75 127.65 135.7 145 154.6 159.25 167.75 178.4 186.2 196 210.55 219.45 227.75 235 244 253.1 260.9 269.35 280.45 ">Mettrel&#x2019;accentsurlescomp&#xE9;tences!</text>
</g>
<g class="s40uMVZW47" transform="translate(378.65 1001.4)" >
<text y="0" x="0 11.25 22.55 39.75 52.9 64.2 76.7 91.05 98.9 108.85 121.25 132.65 149.85 161.85 179.85 192.85 207.1 212.8 224.2 235.6 248.75 260.05 ">LESR&#xC9;SULTATSENCHIFFRES</text>
</g>
<g class="s40uMVZW48" transform="translate(156.05 1215.95)" >
<text y="0" x="0 34.25 60 87.6 ">3237</text>
<text y="0" x="609.5 635.9 670.2 ">69%</text>
</g>
<g class="s40uMVZW49" transform="translate(107.6 1244.25)" >
<text y="0" x="17.9 28 38.65 47.55 57.25 65.65 77.75 88.15 99.65 108.85 120.15 128.5 139.95 148.85 160.95 170.5 177.9 189.25 ">AGENTSDEP&#xD4;LEEMPLOI</text>
<text y="0" x="575.05 585.15 593.15 604.75 614 616.9 625.8 633.8 645.9 654.8 665.8 673.8 685.25 693.8 705.55 714.85 721.9 732.9 739.4 748.05 757.4 766.3 770 778.55 787.9 796.4 808.25 816.8 826.15 ">DESSITESP&#xD4;LEEMPLOIENTI&#xC8;REMENT</text>
<text y="19.5" x="5.7 13.55 24.9 34.55 46.65 54.95 66.6 80.5 87.85 101.7 109.55 119.35 127.8 137.05 148.7 157.5 168.9 178.5 187.75 197.45 ">FORM&#xC9;S&#xC0;LALUTTECONTRE</text>
<text y="19.5" x="595.5 605.6 614.4 623.9 632.3 640.9 650.4 654.4 664.4 672.75 681.1 692.65 703.15 712.65 726.6 736.15 745.1 754.3 763.35 774.65 785.15 795.6 803.9 ">ACCESSIBLESAUXPERSONNES</text>
<text y="39" x="0 8.3 16.65 29.4 39.8 43.3 52.35 61.85 71.5 75.5 87.6 91.6 101.1 110.1 119.35 122.95 134.3 144.3 157 165.95 178.9 187.5 196.9 203 ">LESDISCRIMINATIONSEN2017</text>
<text y="39" x="632.25 646.15 657.8 669.15 679.1 683.1 691.4 694.65 703.9 716 725.65 734.55 744.85 755.4 758.6 767.85 ">&#xC0;MOBILIT&#xC9;R&#xC9;DUITE</text>
</g>
<g class="s40uMVZW410" transform="translate(470.55 1216)" >
<text y="0" x="0 28.85 58.4 ">902</text>
</g>
<g class="s40uMVZW411" transform="translate(454.7 1244.25)" >
<text y="0" x="38.15 47.75 50.9 60.15 68.55 ">SITES</text>
<text y="19.5" x="11.6 20.8 32.1 40.4 51.9 60.8 72.9 82.5 89.8 101.15 ">P&#xD4;LEEMPLOI</text>
<text y="39" x="0 8.25 19.4 30 34 43.65 51.9 66.8 77.65 88.05 96.9 106.05 ">&#xC9;QUIP&#xC9;SADEDA</text>
</g>
</svg>
