<?xml version="1.0" encoding="UTF-8" standalone="no"?>
<!DOCTYPE svg PUBLIC "-//W3C//DTD SVG 1.1//EN" "http://www.w3.org/Graphics/SVG/1.1/DTD/svg11.dtd">
<svg xmlns="http://www.w3.org/2000/svg" xmlns:xlink="http://www.w3.org/1999/xlink" version="1.1"
     viewbox="0 0 1024.00 1448.20" width="1024.00" height="1448.20" style="overflow:hidden" xml:space="preserve">
<defs>
<style type="text/css">
<![CDATA[
@font-face { font-family: 'f4aDhBRa47#17'; font-weight: normal; font-style: normal;  src: url(svg/font6.ttf) format('truetype'); }
@font-face { font-family: 'f4aDhBRa411#67'; font-weight: normal; font-style: normal;  src: url(svg/font10.ttf) format('truetype'); }
@font-face { font-family: 'f4aDhBRa49#27'; font-weight: normal; font-style: normal;  src: url(svg/font8.ttf) format('truetype'); }
@font-face { font-family: 'f4aDhBRa48#22'; font-weight: normal; font-style: normal;  src: url(svg/font7.ttf) format('truetype'); }
@font-face { font-family: 'f4aDhBRa410#32'; font-weight: normal; font-style: normal;  src: url(svg/font9.ttf) format('truetype'); }
@font-face { font-family: 'f4aDhBRa412#37'; font-weight: normal; font-style: normal;  src: url(svg/font11.ttf) format('truetype'); }

.s4aDhBRa40 { fill: rgb(166, 202,  92); font-family: 'f4aDhBRa47#17'; font-size: 41.25px; }
.s4aDhBRa41 { fill: rgb( 91, 197, 242); font-family: 'f4aDhBRa48#22'; font-size: 18.90px; }
.s4aDhBRa42 { fill: rgb(166, 202,  92); font-family: 'f4aDhBRa48#22'; font-size: 18.90px; }
.s4aDhBRa43 { fill: rgb(255, 255, 255); font-family: 'f4aDhBRa49#27'; font-size: 14.60px; }
.s4aDhBRa44 { fill: rgb( 36,  87,  33); font-family: 'f4aDhBRa410#32'; font-size: 25.80px; }
.s4aDhBRa45 { fill: rgb(255, 255, 255); font-family: 'f4aDhBRa410#32'; font-size: 15.80px; }
.s4aDhBRa46 { fill: rgb(255, 255, 255); font-family: 'f4aDhBRa411#67'; font-size: 12.00px; }
.s4aDhBRa47 { fill: rgb(255, 255, 255); font-family: 'f4aDhBRa412#37'; font-size: 12.00px; }
]]>
</style>
</defs>
<image x="0" y="0" width="1024" height="1448.2" xlink:href="svg/svg.jpg"/>
<g class="s4aDhBRa40" transform="translate(241.55 338.15)" >
<text y="0" x="0 ">&#x2022;</text>
<text y="0" x="264.55 ">&#x2022;</text>
<text y="0" x="529.2 ">&#x2022;</text>
<text y="735.5" x="0.3 ">&#x2022;</text>
<text y="735.5" x="264.9 ">&#x2022;</text>
<text y="735.5" x="529.5 ">&#x2022;</text>
</g>
<g class="s4aDhBRa41" transform="translate(145.65 360.85)" >
<text y="0" x="0 7.9 18.4 27.4 36.4 45.25 53.9 64.4 69 76.4 83.85 93.65 98.4 106.35 115.15 126.85 134.15 146.7 155.45 165.9 175.7 184.7 192.9 ">LETRAVAIL,C&#x2019;ESTLASANT&#xC9;&#x2026;</text>
<text y="0" x="331.5 341.15 349.2 358.2 367.3 377.55 385.45 393.85 ">RECYCLER</text>
<text y="0" x="535.85 546.25 554.2 566.5 574.35 584.4 595.35 605.55 616.45 629 633.6 641.6 653.85 663.65 668.35 676.6 686.95 695.35 704.7 715.4 720 ">DES&#xC9;CONOMIESD&#x2019;&#xC9;NERGIE</text>
<text y="22.65" x="43.5 51.4 62 71.65 80.75 91.65 100.5 111.5 121.5 131.45 140.65 150.35 157.5 ">LESPORTAUSSI!</text>
<text y="22.65" x="300 308.5 319.4 329.35 341.6 349.5 357.5 369.8 380.2 388.05 398.3 408.6 416.35 424.85 ">TOUSLESD&#xC9;CHETS</text>
<text y="22.65" x="569.5 578.55 589.4 599.8 612.1 619.4 632.4 641.6 648.9 659.3 669.65 677.25 686.3 ">POURLAPLAN&#xC8;TE</text>
<text y="735.45" x="29.3 38.75 49.65 59.9 70.5 78.9 90.5 100.5 110.25 119.4 129 137.45 149.9 158.25 168 ">BOUGERAUTREMENT</text>
<text y="735.45" x="275.65 286 294 306.1 315.7 326 335 344.9 355.5 363.5 375.35 384.75 395.7 403.7 408.3 417.65 428.15 432.75 442.4 450.4 ">DESGARAGESSOLIDAIRES</text>
<text y="735.45" x="544.55 556.3 565.35 570.8 579.9 589.65 593.85 603.5 611.9 624.15 632.1 640.1 652.15 662.2 673.1 682.7 691.2 703.5 711.2 ">MA&#xCE;TRISERLESCO&#xDB;TSET</text>
<text y="758.15" x="40.65 49.65 60.5 70.9 83.15 90.5 103.5 112.7 120 130.45 140.75 148.35 157.45 ">POURLAPLAN&#xC8;TE</text>
<text y="758.15" x="314.7 323.75 334.6 345 357.25 363.25 367.95 376.35 388.8 398 405.3 416.35 ">POURL&#x2019;EMPLOI</text>
<text y="758.15" x="526.8 534.7 542.7 554.95 565.35 573.6 582.8 591.2 601.15 610.8 618.8 631.05 639.3 649.65 658.05 667.4 678 685.55 694.7 699.15 710.05 720.45 728.45 ">LESD&#xC9;PENSES&#xC9;NERG&#xC9;TIQUES</text>
</g>
<g class="s4aDhBRa42" transform="translate(181.85 406.25)" >
<text y="0" x="28.4 39.15 49.15 59.45 63.5 71.05 81.4 91.85 96.5 ">OCCITANIE</text>
<text y="0" x="283.5 294.15 303.5 313.9 324.25 332.65 340 350.9 361.25 370.5 ">GUADELOUPE</text>
<text y="0" x="486.65 496.1 507 517.35 526.65 537.15 547.9 558.5 568.9 577 583 591 600 610.4 620.55 630.8 641.1 649.25 655.05 665.1 676.05 687.9 697 ">BOURGOGNE-FRANCHE-COMT&#xC9;</text>
<text y="735.5" x="0 9.65 19.65 29.45 38 47.4 53.4 63.8 71.9 77.9 85.95 94.95 105.25 115.5 125.7 ">HAUTS-DE-FRANCE</text>
<text y="735.5" x="307.45 317.5 328.45 337.6 347.15 ">CORSE</text>
<text y="735.5" x="567.35 577.9 587.5 595.8 606.15 616.55 ">GUYANE</text>
</g>
<g class="s4aDhBRa43" transform="translate(125.6 438.45)" >
<text y="0" x="0.9 11.75 18.3 23.3 29.05 33.2 46.4 59.4 67.15 69.9 76 82.95 90.3 96.35 99.05 104.75 107.7 115.6 128.8 136.25 142.75 154.85 160.5 167.75 170.75 177.95 182.6 185.5 192.15 204 211.5 218.05 229.5 236.8 239.95 ">Mettre&#xE0;dispositiondessalari&#xE9;sdesvi-</text>
<text y="0" x="265.45 271.85 279.75 282.9 295.7 302.85 314.5 321.95 325 332.95 341.7 351.7 358.7 365.45 372.9 380.1 383.2 391.1 398.5 405.4 418.15 431 437.15 445.15 452.1 460.15 464.9 476.25 488.85 494.6 502.5 530.05 536.4 544.4 547.5 568.15 575.35 587.1 594.4 597.6 605.4 623.05 630.15 638.1 645.4 649.4 656.65 663.9 671.4 678.5 685.4 691.15 697.1 701.35 708.5 715.55 722.15 729.15 736.15 741.4 749.65 757.55 769.15 ">P&#xF4;leemploiGuadeloupeaconfrm&#xE9;sonP&#xF4;leemploiBourgogne-Franche-Com-</text>
<text y="17.55" x="0.2 7.55 14.4 21.75 32.95 40.3 51.75 59.25 66.5 73.7 80.45 89.4 95.9 107.35 114.3 121.45 126.1 137.5 144 149 154.75 158.9 171.4 183.9 190.5 197.5 204.25 210.9 218.3 230.75 238.2 ">d&#xE9;osdeyoga,etpermettre&#xE0;chacunde</text>
<text y="17.55" x="264.75 271.95 278.65 285.85 292.35 299.5 306.7 318 325.2 331.95 346 353.15 359.65 367 370.25 374.45 382.35 389.75 396.75 403.9 415.3 422.4 429.15 434.5 441.65 453.5 460 474.4 477.65 484.55 490.3 496.85 501.5 504.15 ">engagementenvironnementaletinscrit</text>
<text y="17.55" x="529.15 534.4 548.3 561.85 569.75 573.65 580.85 588 595.35 598.1 603.85 618.1 625.4 632.5 646.05 ">t&#xE9;aorganis&#xE9;uneg</text>
<text y="17.55" x="653.65 657.9 665.05 672.1 679.5 693.35 699.55 706.65 718.4 725.35 731.8 739.4 746.4 760 767.4 ">randecampagnede</text>
<text y="35.1" x="0.55 4.7 11.2 16.9 21.05 28.95 35.55 42.4 49.55 57.35 60.6 63.8 70.55 78.3 85.65 89 92.45 95.85 103.1 107.25 116.9 123 130.4 137.6 143.25 151.25 161.75 165.25 168.2 175.25 185.15 192.5 201.85 207.55 211.85 218.15 225.1 232.2 235.6 242.1 ">retrouverl&#x2019;&#xE9;quilibresursonlieudetravail:</text>
<text y="35.1" x="264.6 270.35 278.25 290.6 297.4 303.35 309 311.95 319.85 331.95 339.35 346.45 353.25 364.75 367.95 374.5 385.95 393.25 397.9 401.25 408.25 414.85 418.15 425.1 431.65 442.5 449.9 462.4 465.65 468.85 475.65 481.85 489.75 496.8 504.55 ">sonactiondanslesprincipesdel&#x2019;&#xE9;cono-</text>
<text y="35.1" x="529.15 534.9 542.05 548.9 555 558.35 565.6 568.9 572.4 575.15 580.85 587.4 593.05 596 603.9 615.05 621.9 629.05 633.15 644.15 647.3 653.85 664.4 670.9 678.15 685.3 692.1 697.15 708.15 711.5 718.25 723.6 730.75 735.4 742.4 749 759.35 767.15 ">sensibilisationverslesagentsinternesdu</text>
<text y="52.65" x="0.2 6.55 9.75 16.3 21.8 30.55 33.8 37.3 40.25 47.7 54.45 63.95 71.85 76.5 79.2 86.75 90.05 97.05 104.25 107.35 117.55 129.25 132 137.7 147.5 154.65 165.1 172.45 175.5 182.25 188.5 198.7 205.6 212.75 220.75 227.15 235.1 238.2 265.15 276.85 279.75 292.25 298.85 302.15 306.25 312.9 320.35 323.4 330.5 333.85 338 350.45 356.95 367.75 375.15 388 391.15 403.1 408.75 413.05 420.15 427.05 433.1 435.8 441.5 444.4 452.35 465.1 472.25 479.25 486.4 490.35 497.55 504.55 ">c&#x2019;estl&#x2019;id&#xE9;eoriginalemiseenplaceparP&#xF4;lemiecirculaireetdelatransition&#xE9;nerg&#xE9;-</text>
<text y="52.65" x="529.15 534.4 541.6 546.3 550.9 553.6 558.9 566.85 570.15 574.3 581.35 590.6 595.15 597.75 605.75 611.3 616.05 622.85 628.8 634.4 637.35 647.85 656.4 663.55 670.6 676.8 684.65 692.1 696.4 702.85 710.1 717.15 727.65 730.9 734.1 740.4 747.1 752.75 756.1 763.1 769.15 ">territoire.L&#x2019;objecti&#xE000;:encouragerl&#x2019;extinc-</text>
<text y="70.15" x="0.2 7.3 19.05 26.45 29.55 37.45 45.75 56.5 62.75 69.3 71.95 77.3 84.4 91.8 94.75 101.8 109.05 118.6 121.35 127.45 130.4 138.25 145.7 152.75 159.5 166.1 177.75 184.7 191.85 202.1 ">emploiOccitanie.Visionn&#xE9;esparp</text>
<text y="70.15" x="209.45 212.95 219.75 230.8 238.2 ">lusde</text>
<text y="70.15" x="264.5 270.2 273.15 280.9 287.9 295 305.65 310.25 313.4 320.5 327.4 333.15 340.25 352 359.35 362.5 376.1 383.5 390 402.65 410.05 416.8 423.4 430.5 437 442.1 454.65 462.25 465.4 472.15 479.9 487.25 490.6 497.55 504.55 ">tique.L&#x2019;ensembledesd&#xE9;chetsd&#x2019;&#xE9;quipe-</text>
<text y="70.15" x="529.15 534.8 537.75 545.65 555.9 563.35 569.9 578.9 586.85 591 598.75 602.05 609.05 615.55 620.9 628.05 635.4 639.55 647.55 652.65 659.4 665.15 672.9 680.05 682.9 690.05 700.1 705.4 712.55 719.15 729.6 736.15 739.5 746.85 749.9 760 767.4 ">tiondesordinateursjusqu&#x2019;autauxciblede</text>
<text y="87.65" x="0.15 9.8 17.45 25.5 37.4 44.4 51.5 55.65 61.35 69.3 76.7 83.7 90.3 96 103.3 106.4 112.95 121.6 128.9 131.85 139.25 ">1200personnes,lesvid&#xE9;</text>
<text y="87.65" x="146 153.4 163.15 170.5 174.6 182.5 189.5 196.85 202.6 209.7 216.5 225.2 232.6 239.2 265.15 276.5 283.65 290.45 295.5 307.6 314.75 317.9 324.65 330.65 336.35 341 343.95 351.65 358.7 365.25 377.25 383.75 395.4 402.6 405.65 412.5 418.4 424.15 428.3 436.15 443.55 446.5 454.25 461.25 467.85 480.4 485.1 491.9 498.8 504.75 529.6 537.6 547.55 565.15 571.65 583.15 ">osproposentdesments&#xE9;lectriqueset&#xE9;lectroniques(EEE)80%etp</text>
<text y="87.65" x="590.55 594 600.85 606.85 616.15 621.75 634.3 640.4 647.6 659.35 666.25 672.75 680.35 687.35 699.9 712.4 718.9 726.1 733.3 736.4 743.55 754.9 762.05 768.8 ">lus.Lacampagnea&#xE9;galement</text>
<text y="105.25" x="0.2 6.55 13.25 20.4 24.5 31.05 34.05 40.25 46.8 57.9 65.3 78.05 82.2 89.35 92.45 98.8 105.7 112.2 117.85 120.8 128.75 141.4 147.9 158.5 165.95 178.7 190 195.95 199.85 205.55 210.2 212.95 218.7 230.8 238.2 ">exercicesderelaxationetdema&#xEE;trisede</text>
<text y="105.25" x="264.75 271.35 276.85 289.1 296.5 303 308.75 316.7 321.4 332.75 339.85 342.6 355.9 360 366.75 372.2 379.7 386.35 389.4 396.5 407.25 413.6 421.55 428.9 440.85 443.9 458.25 ">estd&#xE9;sormaisrecycl&#xE9;.Pourlap</text>
<text y="105.25" x="465.6 469.65 476.85 488.55 491.5 498.65 502.8 ">remi&#xE8;re</text>
<text y="105.25" x="529.65 533.05 540 544.5 552.4 557.1 568.4 578.85 582 588.55 597.55 603.75 611.65 615.25 618.35 625.55 632.4 640.3 644.6 651.1 656.4 663.6 670.9 675.1 683.85 689.9 697.35 705.3 708.4 715 724.35 728.5 735.05 741.15 748.6 751.4 756.75 763.25 768.4 ">in&#xE000;orm&#xE9;lescollaborateurssurlesr&#xE9;sultats</text>
<text y="122.8" x="0 5.75 13.65 16.55 25 31.75 37.45 40.8 43.95 50.5 61.1 68.25 80.5 91.85 98.95 102.3 109.05 114.75 117.7 124.8 136.45 143.85 155.95 159 171 178 185.15 189.4 193.9 201.75 206.5 217.8 224.95 232 238.2 ">soi,utilesaumaintiendelaper&#xE000;ormance</text>
<text y="122.8" x="264.75 269.2 277.1 279.85 289 296.15 306.5 314.15 321.95 327.75 333.25 339.25 344.6 352.5 359.35 368.9 372 378.6 387.15 392.5 399.65 402.85 409.9 417.35 424.4 432.3 439.35 445.9 455.4 462.35 470.3 474.35 479.65 486.85 494.15 497.25 503.8 529.4 536.8 543.35 552.15 559.35 565.9 571.4 576.75 583.3 592.35 599.1 605.35 613.1 618.4 622.6 629.15 635.25 642.15 650.15 656.9 662.65 669.85 677.15 680.3 686.85 692.9 ">&#xE000;oisen2017,touslest&#xE9;l&#xE9;phonesportablesdesgestes&#xE9;co-responsables.</text>
<text y="141.4" x="0.2 6.7 15.05 22.5 29.05 38.5 45.4 53.3 60.7 67.75 74.3 83.75 87.85 95.05 98.15 104.65 110.3 113.3 121.2 128 136.75 144.2 153.7 159.4 163.7 170 176.95 184 187.45 190.85 ">etdesbonnesrelationsdetravail.</text>
<text y="140.3" x="264.75 272.2 278.9 283.4 290.15 296.1 301.75 308.85 315.95 322.5 332.5 340.4 347.2 355.6 361.75 369.1 371.6 378.9 385.15 391.4 401.4 408 411.3 415.4 422.05 429.4 432.1 437.75 ">d&#xE9;&#xE000;ectueuxontsuivicecircuit.</text>
<text y="735.5" x="1.2 7.75 15.95 19.3 30.8 38.2 50.15 57.75 61.05 69.15 77.55 87.05 94.4 101.4 106.75 112.9 118.1 125.75 132.95 138.85 145 149.5 156.85 164.1 170.5 182 193.95 201.5 205.85 212.65 218.6 225.95 232.95 238.5 265.75 272.15 279.25 283.95 295.25 301.85 306.9 312.6 316.75 328.25 339.6 347 353.6 363.85 371.25 378.4 389.75 396.9 403.9 411.35 418.4 425.85 429.9 440.25 447.75 450.9 458.1 469.8 477.15 480.3 488.15 495.65 503.1 529.9 537.25 544.6 547.3 552.65 567 581.85 585.05 587.9 595.05 602.05 609.25 611.5 618.9 624.65 638.75 646.15 660.35 666.1 674 689.1 696.35 699.65 702.8 709.9 724.6 730.8 737.9 742.65 749.55 757.4 764.5 771.15 ">P&#xF4;leemploiHauts-de-Franceapr&#xE9;sent&#xE9;Permettre&#xE0;desdemandeursd&#x2019;emploideSuite&#xE0;l&#x2019;analysedesonbilancarbone,</text>
<text y="753" x="0.3 6.3 14.4 26.95 34.2 42.3 49.15 56.2 63.15 70.55 82.8 96.55 103.9 107.2 114.55 127.4 138.5 146.7 154.15 157.75 161.4 164.25 169.85 182.2 195 202.35 214.5 222.3 230.35 236.4 242.35 ">sonnouveau&#xAB;PlanMobilit&#xE9;&#xBB;en2017.</text>
<text y="753" x="264.9 270.65 283.85 288 295.1 302.15 309.9 314 326.85 339.4 346.75 353.35 365.15 372.25 379.1 384.75 388.9 395.4 401.1 404 411.15 418 429.55 437.05 440.25 447.4 459.15 466.05 473.15 480.15 486.8 493.85 506.9 530.35 536.75 544.65 547.8 559.65 566.8 578.55 585.9 589.05 596.9 604.75 614.75 620.9 628.55 635.65 642.65 654.55 666.8 669.9 677.05 684.05 690.3 702.5 709.9 721.65 729.4 732.15 738.35 745.3 752.65 758.65 761.4 767.1 770 ">serendre&#xE0;desentretiensd&#x2019;embauche:P&#xF4;leemploiGuyanealanc&#xE9;undispositi&#xE000;</text>
<text y="770.55" x="1.2 7 13.8 22.9 31.05 36.9 41.8 48.8 55 60.9 64.05 68.5 77.65 85.25 95.7 102.1 112.9 120.15 128.3 135.1 142.15 149.15 156.5 167.5 175.15 178.45 185.75 196.75 203.65 208 215 223 230.55 234.1 238.45 ">Lesobjecti&#xE000;sdecenouveauplan:r&#xE9;duire</text>
<text y="770.55" x="265.1 271.45 274.65 281.2 286.7 298 301.1 313.75 321.1 325.25 331.5 336.25 342.75 353.35 360.75 367.25 378.7 391.9 399.1 406.25 410.5 417 424.15 430.8 441.85 447.6 455.55 459.05 462 469.35 476.4 479.8 483.9 490.5 502.15 529.65 537.1 547.65 559 564.9 568.8 574.5 579.15 581.9 587.65 597.6 605 615 620.75 627.3 636.15 643.6 650.75 657.65 664.85 671.65 677.4 684 693.15 700.3 707.35 714.4 718.4 725.65 732.15 737.8 740.75 748.5 755.5 762.1 771.55 ">c&#x2019;estleprojetdes&#xAB;garagessolidaires&#xBB;dema&#xEE;trisedesesd&#xE9;penses&#xE9;nerg&#xE9;tiques:</text>
<text y="788.05" x="0.95 4.3 11.05 21.45 29.05 36.4 44 47.3 54.3 60.75 68.1 79.7 87.05 94.05 99.4 110.05 117.4 124.4 130.3 134.65 146.75 150.1 161.5 169.15 177.25 189.2 192.35 199.15 202.75 206.05 217.75 224.5 235.15 238.5 ">lesd&#xE9;placementsentreledomicileetle</text>
<text y="788.05" x="264.9 270.65 278.5 285.25 290.65 297.75 305.2 312 323.95 330.9 338 348.85 355.2 363.2 366.25 378.95 386 397.75 405.15 408.25 416.15 424.75 433 440.9 445.05 450.8 457.85 467.25 472.8 479.4 490.65 497.85 504.85 ">soutenusparP&#xF4;leemploiCorse.Lesga-</text>
<text y="788.05" x="530.05 537 544.15 548.4 555.55 566.9 573.4 579.1 583.4 589.9 597.1 617.3 624.65 631.3 ">param&#xE9;tragedes</text>
<text y="788.05" x="651.1 654.4 666.1 673.4 678.1 681.4 692.75 699.9 706.65 712 718.55 ">imprimantes</text>
<text y="788.05" x="738.35 741.65 748.65 756.4 758.9 766.3 769.4 ">indivi-</text>
<text y="805.6" x="0.25 6.2 10.7 17.25 24.4 31.7 35.3 46.25 52.95 66.1 73.45 80.7 87.1 95.25 102.85 107.35 114.05 121.5 128.85 141.4 144.7 151.5 165 171.9 179.1 186.5 193.45 200.9 208.25 219.8 227.15 234.15 239.5 ">travailetencouragerleschangements</text>
<text y="805.6" x="265.45 269.75 276.25 283.45 290 304.15 323.5 ">ragespp</text>
<text y="805.6" x="311.45 315.6 330.5 337.75 343.5 350.7 357.45 370.5 377.95 384.5 398.65 401.75 409.35 415.55 422.05 427.65 430.65 438.6 445.4 458.85 466.3 480.3 487.15 494.35 501.65 504.85 ">roosentdeslocationsdev&#xE9;hi-</text>
<text y="805.6" x="529.65 537.5 544.5 551.65 555.25 558.35 564.9 575.8 582.9 595.4 599.6 606.35 612.3 617.65 624.85 629.9 636.75 643.9 648 653.75 661.15 669.5 676.65 683.65 690.85 693.05 700.4 706.15 717.8 725.25 731.8 742.65 748.9 756.8 763.55 768.65 ">duellesenrecto/verso,analysedesco&#xFB;ts</text>
<text y="823.2" x="0.5 8.15 23.25 29.7 37.8 49.75 56.95 65.05 69.35 74.9 82.25 93.85 101.2 108.2 113.55 127.6 134.15 141.2 148.2 163.15 166.5 181.95 ">decomportementsaveclap</text>
<text y="823.2" x="189.5 193.85 202 213.55 221.05 226.95 230.1 238.25 ">romotion</text>
<text y="823.2" x="265.1 271.7 279.15 282.25 292.5 298.25 305.4 312.25 322.1 329 336.2 340.85 352.5 355.25 364.75 374.75 380.45 384.5 391.15 401 407.9 414.5 423.9 430.15 438.1 444.85 453.9 460.4 469.9 473.4 480.15 485.25 490.6 497.65 504.5 529.65 537.25 540.4 547.6 550.75 557.5 563.4 569.15 573.8 576.75 583.3 586 591.35 603.15 611.05 623.4 630.55 637.6 643.8 651.65 655.85 667.65 674.9 682.05 689.05 696.15 700.5 707.65 711.1 713.85 719.6 726.1 731.75 734.65 742.65 754.65 762.1 768.65 ">culesanspermis&#xE0;tr&#xE8;sbasco&#xFB;tetluttentd&#x2019;&#xE9;lectricit&#xE9;ouencoreg&#xE9;n&#xE9;ralisationdes</text>
<text y="840.75" x="0.5 8.5 21.8 28.2 35.45 42.5 50.55 53.55 59.45 67.05 71.55 78.25 85.7 92.65 101.8 109.45 116.2 128.2 134.95 138.5 142.85 149.65 157.35 160.65 167.35 173.25 176.4 184.5 191.6 203.25 210.95 219.05 226.3 232.75 239.5 ">ducovoiturage,descirculationsdouces</text>
<text y="840.75" x="265.1 271.25 279.25 286 291.7 295.85 307.6 310.75 317.25 328 335.25 339.45 347.4 354.75 357.85 365 376.35 382.9 392.9 400.35 412.05 423.4 431.4 438.6 442 445.4 448.15 453.4 465.15 469.3 476.4 483.5 489.65 497.6 504.85 ">contrelesprobl&#xE8;mesdemobilit&#xE9;rencon-</text>
<text y="840.75" x="530.1 537.15 545.05 549.8 552.9 560.15 567.4 573.9 582.8 588.9 596.3 604.35 607.4 614 623.05 629.65 633.15 636.5 647.8 654.3 660 662.75 668.5 675.6 683 687.1 693.15 ">horlogessurlesclimatiseurs.</text>
<text y="858.3" x="1.05 4.9 11.95 19.3 22.7 30.3 42.7 ">(v&#xE9;lo,t</text>
<text y="858.3" x="48.65 53.15 60.5 67.55 73.9 81.05 89.2 93.45 98.8 114.25 121.6 138.35 144.75 152.95 164.9 176.75 184.45 191.5 205.65 213.8 230.25 238.25 ">ransportsencommun)oudu</text>
<text y="858.3" x="264.85 270.5 274.7 281.25 290.1 297 304.15 311.65 314.75 321.35 329.5 336.95 344.1 355.4 362.5 369.6 377 384.15 391.5 395.65 403.85 411.35 414.55 421.65 433.4 440.8 443.9 451.8 457.15 464.6 473.9 482.15 490.1 494.15 499.9 507 ">tr&#xE9;sparlesdemandeursd&#x2019;emploideCorse.</text>
<text y="875.85" x="0.25 5.8 13.25 16.55 23.3 29.2 33.7 40.25 47.45 54.75 58.35 61.95 ">t&#xE9;l&#xE9;travail.</text>
</g>
<g class="s4aDhBRa44" transform="translate(391.4 201.65)" >
<text y="0" x="0 13.15 24.4 37.35 49.9 65.05 78.65 89.95 104.8 118.35 129.6 140.85 152.85 162.3 172.95 187.8 199.6 210.85 225.8 239.15 ">RESPONSABLES,PARTOUT</text>
<text y="27.5" x="34.45 46.95 61.3 77.9 89.15 102.85 115.45 127.55 140.7 153.85 158.55 169.8 184.95 190.6 203.8 ">SURLETERRITOIRE</text>
</g>
<g class="s4aDhBRa45" transform="translate(466.05 119.15)" >
<text y="0" x="0 3.5 10.35 16.85 25.05 32.1 39.85 47.15 54.8 62.55 65.65 74.95 83.3 ">ILLUSTRATIONS</text>
</g>
<g class="s4aDhBRa46" transform="translate(452.65 48.75)" >
<text y="0" x="0 6.6 12.35 18.05 24.2 30.6 36.6 42 48.05 54.45 57.65 63.35 70.8 77 83 88.5 94.7 104.35 110.75 114 ">Responsablesensemble</text>
</g>
<g class="s4aDhBRa47" transform="translate(499.7 1408.45)" >
<text y="0" x="0 7.15 11.4 21.15 ">-13-</text>
</g>
</svg>
