<?xml version="1.0" encoding="UTF-8" standalone="no"?>
<!DOCTYPE svg PUBLIC "-//W3C//DTD SVG 1.1//EN" "http://www.w3.org/Graphics/SVG/1.1/DTD/svg11.dtd">
<svg xmlns="http://www.w3.org/2000/svg" xmlns:xlink="http://www.w3.org/1999/xlink" version="1.1"
     viewbox="0 0 1024.00 1448.20" width="1024.00" height="1448.20" style="overflow:hidden" xml:space="preserve">
<defs>
<style type="text/css">
<![CDATA[
@font-face { font-family: 'f281qBRa411#30'; font-weight: normal; font-style: normal;  src: url(svg/font10.ttf) format('truetype'); }
@font-face { font-family: 'f281qBRa48#15'; font-weight: normal; font-style: normal;  src: url(svg/font7.ttf) format('truetype'); }
@font-face { font-family: 'f281qBRa413#39'; font-weight: normal; font-style: normal;  src: url(svg/font12.ttf) format('truetype'); }
@font-face { font-family: 'f281qBRa414#66'; font-weight: normal; font-style: normal;  src: url(svg/font13.ttf) format('truetype'); }
@font-face { font-family: 'f281qBRa49#20'; font-weight: normal; font-style: normal;  src: url(svg/font8.ttf) format('truetype'); }
@font-face { font-family: 'f281qBRa410#25'; font-weight: normal; font-style: normal;  src: url(svg/font9.ttf) format('truetype'); }
@font-face { font-family: 'f281qBRa412#34'; font-weight: normal; font-style: normal;  src: url(svg/font11.ttf) format('truetype'); }

.s281qBRa40 { fill: rgb(255, 255, 255); font-family: 'f281qBRa48#15'; font-size: 20.60px; }
.s281qBRa41 { fill: rgb(255, 255, 255); font-family: 'f281qBRa49#20'; font-size: 25.80px; }
.s281qBRa42 { fill: rgb(255, 255, 255); font-family: 'f281qBRa410#25'; font-size: 18.90px; }
.s281qBRa43 { fill: rgb(255, 255, 255); font-family: 'f281qBRa411#30'; font-size: 14.60px; }
.s281qBRa44 { fill: rgb(255, 255, 255); font-family: 'f281qBRa412#34'; font-size: 14.60px; }
.s281qBRa45 { fill: rgb(255, 255, 255); font-family: 'f281qBRa413#39'; font-size: 12.00px; }
.s281qBRa46 { fill: rgb(255, 255, 255); font-family: 'f281qBRa414#66'; font-size: 12.00px; }
]]>
</style>
</defs>
<image x="0" y="0" width="1024" height="1448.2" xlink:href="svg/svg.jpg"/>
<g class="s281qBRa40" transform="translate(161.1 216.3)" >
<text y="0" x="70.4 82.05 93 98.85 109.7 117.65 123.1 131.75 141.65 153.2 162.9 174.75 182.65 192.45 201.25 212.15 228.25 239.55 249.45 260.25 268.85 278.75 290.4 296.25 305.75 318.15 328.95 339.75 351 362.1 371.6 384 389.85 401 406.75 415 420.65 431.5 439.65 445.4 455.15 464.65 476.9 486.85 501.75 518.15 528.9 537.15 542.9 552.85 560.65 574.15 584.9 598.6 610.9 622.3 ">Valoriseretr&#xE9;compenserlesbonnesinitiativesenmati&#xE8;redeRSE</text>
<text y="24.75" x="71.6 87.5 96.75 107.25 116.4 125.25 136 144.25 154.75 165 172.45 182.75 192.85 204 209.25 218.1 229.1 236.6 245.9 253.25 260.6 265.7 273.15 283.4 288.65 295.9 304.75 315.75 324.95 335.45 345.65 355.9 366.15 377.15 384.6 394.9 405 416.15 421.4 430.25 441 449.05 458.3 465.55 474.8 479.9 488.15 497.05 508.1 518.3 530.65 541.65 551.9 557.15 569.35 578.65 594.1 604.9 610.1 620.35 624.65 ">men&#xE9;essurtouslesterritoiresetdanstouslesservicesdeP&#xF4;leemploi,</text>
<text y="49.55" x="37.05 45.8 51.45 60.1 67.85 78.1 83.8 89.45 99.45 107.45 114.5 123.5 131.5 138.9 143.85 152.95 162.95 171.6 182.25 191.5 198.5 208.1 218.65 228.9 237.85 246.55 257.15 267.15 279.1 284.1 297.1 308.6 319.15 332.2 342.4 352.65 360.15 367.9 379.4 387.25 397.25 407.4 417.55 427.55 436.65 443.65 453.8 464.05 469.1 477.75 488.5 493.55 504.9 514 525.65 533.05 543.35 548.4 561.3 572.15 584.15 593.55 606.4 619.4 630.3 640.4 647.6 652.15 660.75 ">c&#x2019;estl&#x2019;objectifdesTroph&#xE9;esdelaRSEquisesontd&#xE9;roul&#xE9;sle12juin2017&#xE0;Paris.</text>
<text y="79.15" x="1.75 12.95 22.8 28.7 38.45 47.3 55.5 61.25 72.1 83.3 94.4 104.2 113.65 125.95 137 151.65 160.5 171.45 182.5 190.15 202.4 213.25 222.75 235 244 255.1 266 272 277.85 287.75 298.2 310 319.5 331.9 337.75 348.85 356.9 366.85 374.75 385.9 395.4 403.25 414.3 420.15 429.65 442.05 447.8 458.6 468.4 477.9 490.3 501.4 512.05 521.8 532.6 540.8 548.8 554.55 563.4 572.9 585.3 591.15 602.15 613.3 621.15 630.9 641.65 649.8 659.3 671.6 682.4 693.4 ">S&#xE9;lectionn&#xE9;esaucoursdeschallengesinternes,lesid&#xE9;esnovatriceslaur&#xE9;atesont</text>
<text y="103.95" x="0 7.65 18.2 28.75 36.4 45.5 56.95 66.45 80.35 88.8 99.25 115.45 131.7 142.4 156.45 161.85 175.65 191.75 196.85 205.1 217.7 227.2 241.1 256.15 266.7 276.15 283.6 296.25 306.65 315.7 326.75 337.75 345.35 350.75 361.5 370 375 385.9 394.9 409.65 420.05 432.8 440.25 449.35 457.15 468.05 478.4 488.85 497.05 507.6 518.1 523.55 529.1 534.4 542.1 554.65 564.05 574.9 585.35 597.9 606.55 611.85 619.5 629.9 639.65 649.15 660 670.65 680 687.65 697.8 ">toutesencommunlamiseen&#x153;uvredesprincipesderesponsabilit&#xE9;etdecitoyennet&#xE9;.</text>
<text y="133.55" x="66.75 77.1 86.6 98.85 108.65 119.7 130.75 136.15 147.45 156.95 169.2 180 193.65 205.3 216.15 222 235.45 245.35 261.45 272.85 278.7 289.5 298.9 309.75 320.75 332.5 343.6 358.15 366.25 377.15 383 392.9 404 411.35 421.9 433.15 444.1 451.9 460 470.9 481.9 493.35 502.15 513.3 524.9 530.8 544.15 552.3 562.15 570.15 578.15 583.85 591.9 602.8 608.65 616.5 630.75 ">Les&#xE9;quipesdeP&#xF4;leemploiontdutalent,partoutsurleterritoire!</text>
</g>
<g class="s281qBRa41" transform="translate(395.55 150.6)" >
<text y="0" x="0 11.25 22.55 37.9 50.55 62.9 78.05 91.15 105.5 117.55 128.8 146.05 160.2 176.55 186.55 205.4 217.9 230.8 ">LESTROPH&#xC9;ESDELARSE</text>
</g>
<g class="s281qBRa42" transform="translate(172.8 488.45)" >
<text y="1.1" x="22.05 29.6 39.4 48 57 65.4 77 87.05 98 107.8 116.85 126.55 137.05 144.3 156.8 164.8 173.8 183.6 193.1 202.2 212.55 222.2 ">LUTTERCONTRELAFRACTURE</text>
<text y="0" x="472.15 481.2 485.1 495.95 505.7 515.9 525.65 530.25 541.3 551.3 560.8 573.5 585.95 593.5 602.65 607.25 615.65 624.8 ">S&#x2019;OUVRIRAUXM&#xC9;TIERS</text>
<text y="23.8" x="83.75 94.05 104.45 116.85 125.05 134.8 139.3 150.1 160.55 ">NUM&#xC9;RIQUE</text>
<text y="22.75" x="476.7 487.15 497.65 503.6 508.3 516.2 526.25 537.15 547.3 558.3 570.8 575.4 585.25 595.5 603.9 612.7 621.8 ">DEL&#x2019;&#xC9;CONOMIEVERTE</text>
<text y="316.8" x="31.3 40.35 45.15 49.75 59.75 69.15 79.35 89.05 93.75 103.35 113.85 122.3 134.55 144.55 155.55 165.85 174.05 183.75 192.1 202.3 212.55 ">S&#x2019;INSCRIREENCOH&#xC9;RENCE</text>
<text y="316.95" x="435.2 444.85 453.2 463.6 471.3 482.2 491.55 501.8 510.2 521.95 529.25 541.55 551.55 562.55 572.9 581 584.95 595.3 605.55 615.75 626.25 634.65 646.75 656.15 667.15 ">RENFORCERLACONFIANCEENSOI</text>
<text y="339.5" x="0 8.75 19 27.05 39.35 47.3 55.35 67 79.5 83.8 92.9 102.6 107.05 118.05 128 139.75 150.1 160.6 169.7 180.55 188.55 199.05 207.45 219.9 229.05 236.4 247.45 ">AVECLESMISSIONSDEP&#xD4;LEEMPLOI</text>
<text y="339.65" x="460.6 469.65 480.45 490.9 501.95 511.8 521.8 532.05 540.3 550.7 559.05 570.2 582.7 588.65 593.3 601.75 614.2 623.4 630.7 641.75 ">POURACC&#xC9;DER&#xC0;L&#x2019;EMPLOI</text>
<text y="631.7" x="84.6 93.55 102.3 110.95 119.45 129.75 134.1 141.85 149.6 157.8 ">TRAVAILLER</text>
<text y="654.35" x="41.5 50.1 60.15 68 79.35 87.75 98.4 108.2 119.55 127.3 135.05 145.8 155.35 164.7 173.55 181.75 191.95 200.85 ">AVECTOUSLESACTEURS</text>
<text y="677.05" x="84.05 94.5 105 110.95 115.6 124.05 136.5 145.7 153.05 164.05 ">DEL&#x2019;EMPLOI</text>
</g>
<g class="s281qBRa43" transform="translate(103.35 548.3)" >
<text y="0" x="0.55 9.55 13.1 20.25 26.45 36.55 43.7 52.15 56.1 66.8 74.45 86.8 94.75 98.7 106.9 114.45 120.5 131.9 139.65 147.3 155.25 163.15 166.6 174.95 185.75 194 201.85 208.7 219.45 226.5 232.6 243.65 248.55 255.9 262.6 270.95 283.25 290.85 298.5 306 312.5 322.95 330.95 338.6 346.1 356.4 360.25 371 377.7 385.35 ">C&#x2019;estP&#xF4;leemploiLaR&#xE9;unionquia&#xE9;t&#xE9;r&#xE9;compens&#xE9;danslaca-</text>
<text y="17.55" x="0 5.95 12.85 20.5 28.75 33.95 37.25 47.3 59 66.25 72.8 79.35 86.35 92.5 99 102.7 110.25 113.95 117.9 120.95 126.85 137.25 145.7 ">t&#xE9;gorie&#xAB;accessibilit&#xE9;&#xBB;,</text>
<text y="34" x="575.3 582.15 590.35 594.05 604.15 611.55 623.6 631.3 635 642.9 648.3 658.05 665.05 672.35 679.75 684.25 692.1 699.55 706.85 712.5 720.75 728.15 736.25 743.65 751.05 755.65 765.5 769.4 776.75 783.65 ">P&#xF4;leemploiAuvergne-Rh&#xF4;ne-Alpes</text>
<text y="350.8" x="0.6 5.1 11.7 19.25 22.25 30.2 40.3 50.4 58.35 65.15 72.3 79.55 83.45 86.95 94.1 98.5 107.7 115.5 122.9 125.65 131.25 138.35 141.65 148.95 ">r&#xE9;gionNouvelle-Aquitaine</text>
<text y="368.1" x="601.05 608.05 616.35 620.1 630.1 637.6 649.8 657.6 661.4 669.4 675.4 686.4 692.9 699.65 702.65 708.6 716.1 723.85 727.15 ">P&#xF4;leemploiOccitanie</text>
<text y="688.05" x="110.55 117.5 125.8 129.6 139.95 147.45 159.6 167.4 171.2 179.25 184.85 194.7 201.75 209.25 216.75 221.35 229.3 236.85 244.3 250.1 258.4 266 274.2 281.75 289.2 293.9 303.9 307.95 315.4 322.4 ">P&#xF4;leemploiAuvergne-Rh&#xF4;ne-Alpes</text>
</g>
<g class="s281qBRa44" transform="translate(103.4 547.25)" >
<text y="0" x="428.1 434.9 438.8 445.1 450.65 457.5 464.05 468.95 475.9 483.05 489.95 496.5 503.2 508.3 515.95 522.55 530.2 533.1 539.4 546.45 551.95 558.5 564.2 569.3 576.2 583.35 587.2 594.15 601.45 604.05 610.6 616.3 621.75 624 631.05 633.5 638.6 645.1 650.25 653.1 659.4 667.05 678.15 684.4 689.85 692.55 699.45 703.3 710.3 717.45 726.15 729.15 732.1 738.6 744.6 752.25 759.05 766.7 778.15 780.85 788.35 794.95 801.85 805.65 810.75 ">Pr&#xE9;sentsdanstouslessecteursd&#x2019;activit&#xE9;,lesm&#xE9;tiersdel&#x2019;&#xE9;conomieverte</text>
<text y="17.5" x="427.25 432.85 440.6 447.4 451.7 456.4 460.35 467.35 474 481.35 488.2 495.95 503.2 507.1 512.25 519.25 525.85 532.6 539.85 548.7 555.55 563.35 574.95 582.1 586.05 593.05 599.5 608.1 616.9 624.1 628.6 631.4 639.15 643.65 646.75 652 657.45 665.6 672.85 679.85 686.65 693.6 697.55 702.7 709.7 720.9 727.9 734.55 741.65 751.15 757.7 762.85 769.25 774.75 777.35 782.7 788.2 791.05 798.6 805.5 811.9 ">sou&#xE000;&#xE000;rentpourtantdenombreuxapriori.Led&#xE9;partement&#xAB;Statistiques</text>
<text y="18.6" x="152.5 159.45 167.4 174.75 181.9 187.65 195.5 205.95 212.95 220.85 224.9 230.2 236.95 241.4 248.55 255.9 259.25 262.85 265.95 275.45 282.95 285.75 292.6 298.75 305 312.95 324.65 331.6 338 345.65 352.7 359.75 371.2 378.25 385.1 ">poursonporte&#xE000;euilled&#x2019;accompagnement</text>
<text y="36.1" x="0.65 4.75 11.9 18.9 23.35 31.25 35.4 41.65 51.15 62.4 65.75 73.1 75.75 81.5 84.4 90.9 96.6 99.5 107.45 117.1 124.25 133.6 141.35 144 151.6 154.2 159.6 166.7 172.95 180.9 ">ren&#xE000;orc&#xE9;&#xAB;Initiationaudigital&#xBB;.</text>
<text y="35" x="427.45 433.85 442.25 448.65 454.2 461.1 468.4 474.85 483.7 489.9 496.7 503.8 507.15 514.05 520.4 526 528.8 536.6 547.15 557.55 564.85 ">et&#xE9;tudes&#xE9;valuation&#xBB;de</text>
<text y="35" x="793.45 800.65 804.7 812.55 ">pro-</text>
<text y="52.6" x="427.8 434.6 441.8 447.4 456.9 464.15 471.05 480.5 483.7 490.5 494.85 502.6 507.15 518.35 524.7 530.2 533 540.8 550.55 554.55 560.9 568.3 571.1 578.85 585.7 592.75 595.75 604.65 610.65 617.85 624.55 630.6 637.05 645.5 656.75 663.1 668.65 671.45 678.4 682.4 687.95 693.9 700.7 707.7 712.2 723.45 729.8 734.7 739.9 746.85 753.5 760.9 ">poseunein&#xE000;ormationr&#xE9;gionalesurcesm&#xE9;tiers,permettantd</text>
<text y="52.6" x="768.2 777.05 784.3 792.05 799.3 806.2 813.2 ">edonner</text>
<text y="58.6" x="1 6.65 17.35 24.8 29.65 33.05 40.25 46.9 50.4 57.5 68.15 77.85 89.1 93.15 100.5 107.75 115.25 118.15 124 131.25 139.5 147 157.95 165 172.35 176.6 182.95 190.95 198.45 202.7 211.7 219.3 229.45 235.3 242.6 249.4 258.7 270.2 278.2 281.1 290.35 300.4 307.95 314.65 320.25 326 329.5 336.65 343.25 349.1 352.2 360.2 370.5 378 384.75 ">Leprincipe?Organiserunparcoursdeseptmois&#xE0;destinationdes</text>
<text y="70.1" x="427.45 434.7 441.15 449.1 455.6 458.55 465 472.7 479.95 489.4 492.35 498.95 504.8 510.35 517.55 521.55 530.55 536.95 544.2 551.6 554.3 560.95 566.75 572.25 575.1 582.85 592.1 599.05 605.5 614.65 621.65 628.3 633.85 637.85 644.8 652 656.5 659.1 664.7 671.15 679.1 685.2 692.95 704.5 715.75 724.7 731.7 738.15 747 754.3 761.25 772.45 779.45 786.35 793.6 800.6 807.8 811.8 ">descl&#xE9;sdelectureetd&#x2019;actionauxentreprisescommeauxdemandeurs</text>
<text y="76.1" x="0.25 7.85 15.15 26.75 34 41.25 48.8 56.15 63.65 68 77.25 85 88.4 95.65 107.6 115.15 118.45 126.5 133.35 140.7 144 152 154.9 162.65 169.85 176.6 185.9 193.85 205.15 212.7 220.2 231.8 239.1 243.95 247.05 254.95 262.15 273.2 280.25 288.4 295.95 304.5 307.85 314.6 323.75 328.35 335.7 347.5 351.1 354.75 357.85 365.15 369.95 372.9 378.75 386.15 ">demandeursd&#x2019;emploi&#xE9;loign&#xE9;sdunum&#xE9;riquepourles&#xE000;amiliariser</text>
<text y="87.7" x="427.45 434.8 437.85 444.85 456.45 463.65 466.65 474.4 479.05 485.4 492.2 499.55 502.95 506.1 512.8 518.4 524.85 529.35 532.5 536.5 545.4 548.4 554.8 562.65 573.85 580.25 585.75 588.55 595.55 599.5 607 613.95 623.15 626.45 629.25 636.25 645 651.15 657.9 664.5 672.85 675.85 684.05 691.3 697.5 704.2 711.25 714.2 722 729.15 736 742.95 754.2 761.15 767.8 774.55 782.2 789.45 793.55 800.6 807.8 810.75 ">d&#x2019;emploietd&#x2019;inscrirelesm&#xE9;tiersenlienavecled&#xE9;veloppementdurable</text>
<text y="93.6" x="0.25 7.35 14 23.55 31.5 38.25 43.9 47.3 50.25 58.65 66 76.15 80.25 87.1 93.65 100.75 107.9 112 118.65 125.7 135.45 142.5 152.95 156.45 159.1 166.7 173.7 180.45 189.95 193.2 196.7 200.1 207.45 210.15 215.8 218.7 225.2 230.95 233.9 241.8 251.7 258.9 269.25 276.65 284 295.4 302.5 307.2 310.15 317.85 324.9 331.6 340.25 344.75 351 357.9 365.85 370.5 373.25 378.95 386.1 ">auxoutilsderechercheenligne,l&#x2019;initiationaunum&#xE9;rique,&#xE000;avoriser</text>
<text y="105.25" x="427.45 434.7 441.65 448.35 456.85 459.95 462.35 469.7 474 478.7 482.65 491.5 498.75 507.7 513.3 520.25 524 531.15 533.95 540.05 548.85 556.15 565.95 572.15 579.95 582.95 592.05 599.05 610.65 617.85 620.85 628.55 631.65 ">dansl&#x2019;o&#xE000;&#xE000;redeservicedeP&#xF4;leemploi.</text>
<text y="111.2" x="0.75 3.9 7.5 10.75 17.8 24.5 27.9 34.75 40.8 43.75 51.75 61.1 68.5 75.1 83.15 90.6 97.75 109 116.2 123.25 130.65 137.75 145.15 149.25 157.4 164.9 168.1 175.2 186.95 194.35 197.45 205.35 210.95 217.45 225.85 228.95 236.1 243.45 250.8 ">l&#x2019;inclusiondesdemandeursd&#x2019;emploietleurp</text>
<text y="111.2" x="258.2 261.65 268.5 276.6 284.2 288.45 295.6 302.65 310 319.45 326.5 333.25 338.65 346.5 353.6 361.5 373.2 376.15 383.2 ">lusgrandeautonomie.</text>
<text y="316.75" x="0 11.6 14.5 16.8 24.05 30 35.9 42.15 47.9 50.65 58.25 67.25 74.4 83.9 86.75 95.65 102.35 109.2 120.25 127 130.1 136.75 145.9 152.7 159.85 163.7 171.25 177.95 184.45 191.25 198.4 205.15 213.95 221.45 231.45 239.95 245.95 252.55 259.45 262.25 269.9 276.9 283.6 290.45 301.5 308.35 314.75 322.2 329.7 336.75 340.75 347.65 354.7 357.5 363.95 369.85 376.9 383.65 ">&#xC0;l&#x2019;occasiondelaSemaineeurop&#xE9;enneduD&#xE9;veloppementdurable,une</text>
<text y="316.5" x="428.1 433.75 440.25 447.2 455.25 460.05 462.9 468.8 476.05 484.35 487.75 491.05 497.75 503.35 509.15 512.6 524.1 534.15 541.7 551.85 557.7 565.7 572.25 578.9 588.2 591.45 598.15 607.25 613.1 619.6 626.55 634.55 638.05 642.3 647.45 654.1 659.95 664.2 671.05 677.25 683.1 687.5 694 701.05 708.3 711.8 715.45 718.7 726 734.3 737.55 744.25 753 758.45 765.35 772.15 779.65 787.15 790.25 798.1 805.25 811.95 ">Favoriserl&#x2019;estimedesoietlessavoir-&#xEA;tre,travaillerlestechniques</text>
<text y="334.25" x="0.25 6.25 13.85 17.1 20 26.4 32.05 37.15 46.05 53.15 62.85 66 68.15 75.25 79.1 85.4 93.5 100.4 107.5 114.5 118.35 124.65 132.5 140 149.85 156.45 163.35 167.15 172.6 180.2 187.35 194.1 200.95 206.45 215.7 221.95 226.95 235.9 243.55 247.15 254.05 260.9 268 270.45 275.9 282.4 291.4 297.2 304.25 311 317.25 320.35 327 336.7 342.45 344.85 349.9 356.2 364.1 371.2 380.85 383.65 ">collectedelivresaupr&#xE8;sdupersonnela&#xE9;t&#xE9;organis&#xE9;esurcinqsitesdela</text>
<text y="334" x="427.45 434.95 445.65 449.9 456.8 463.55 470.7 477.95 482.2 488.95 496.1 506.1 513.75 517.1 524.35 536.15 543.65 546.9 554.9 560.6 568.05 571.1 581.1 588.6 595.3 604.4 610.6 614 625.85 633.4 636.65 643.25 649.05 652.1 660.15 667.1 676.1 683.7 687.05 694.3 701.15 707 711.25 717.85 723.65 726.75 734 741.1 747.85 754.45 763.05 771.05 775.1 782.4 789.7 797.15 800.05 805.9 813.15 ">derecherched&#x2019;emploiviadessimulationsd&#x2019;entretien,etorganiser</text>
<text y="351.85" x="158.65 162.4 169.85 172.9 176.7 183.2 188.85 194.2 196.9 204.45 213.95 217.85 223.95 231.3 233.95 241.55 248.2 255.15 258 264.45 269.5 275.25 277.7 282.7 291.5 298 305.5 316.9 319.9 327 329.45 334.65 340 344 350.25 355.65 358.25 364.5 371.6 380.85 383.65 ">(directionr&#xE9;gionale,siteadministrati&#xE000;dela</text>
<text y="351.6" x="427.45 434.85 441.4 450.1 459.55 464.3 472.25 478.95 487.2 494.6 501.1 506.75 510.1 516.8 527.3 538 543.15 548.45 555.65 558.55 566.9 572.65 580.55 587.35 595.9 599.05 605.6 613.85 621.8 627.4 632.15 638.95 644.9 650.55 653.45 657.7 666 673.75 683.7 695.1 702.65 705.55 709.95 717.25 724.35 736.1 743.45 746.6 754.45 760.65 768.25 774.6 782 791.85 798.05 805.55 812.55 ">des&#xAB;jobsdating&#xBB;:telssontlesobjecti&#xE000;sdu&#xAB;Ki&#xE000;&#xE000;emploi&#xBB;,uncoa-</text>
<text y="369.4" x="1 10.1 19.05 27.5 34.15 40.9 44 50.4 55.5 60.9 67.75 74.6 81.35 87.75 91.35 98.4 104.65 111.75 117.9 124.85 131.7 138.45 144.35 150.65 157.85 164.95 174.2 184.75 191.65 195.95 198.6 205.1 212.2 218.7 224.55 229.2 236.4 245.6 252.45 258.6 265.95 ">DR&#xE0;Saint-Beno&#xEE;tetagencesdeM&#xE9;riadec,deB&#xE8;gl</text>
<text y="369.4" x="268.75 275 282.6 288.75 295.6 302.75 311 319.6 326.25 332.5 337.5 344.45 347.7 350.5 357.4 361.4 368.2 375.35 377.95 382.75 387.2 ">esetdeCh&#xE2;tellerault),</text>
<text y="369.15" x="427.45 434.1 441.45 444.75 451.5 461.45 467.55 474.95 479.1 484.45 495.85 502.4 508.5 515.9 520.05 530.05 533.35 544.7 551.15 558.75 562.05 569.1 579.15 586.05 593.2 ">chingsur-mesureimagin&#xE9;par</text>
<text y="369.15" x="737.3 743.8 751.75 759.15 765.75 771.2 776.9 780.2 787.25 796.9 804.05 810.6 ">etdestin&#xE9;aux</text>
<text y="386.95" x="0.25 7.15 17.5 20.75 23.4 30.3 40.15 46.25 52.9 59.4 68.15 75.4 82.25 88.65 98.4 104.7 110 115.5 122.85 129.15 131.85 138.15 143.5 146.25 153.95 160.5 166 172.15 183.65 188.95 198.95 202.2 204.45 211.6 215.55 224.35 230.95 237.9 241.7 250.3 260.75 267 275.65 278.5 287.95 294.7 301.25 307.25 314.9 322 325.95 334.85 341.6 349.25 356.35 363.6 366.45 373.25 376.4 380.25 387.15 ">enlienavecdeuxassociations,&#xAB;Lelivrevert&#xBB;etleSecourspopulaire.</text>
<text y="386.7" x="426.15 430.9 438.05 445.4 452.45 459 466.5 473.9 480.45 487.95 495.7 502.65 509.8 513.85 519.55 522.5 529.6 533.75 541.85 549.2 553.85 556.8 564.7 569.35 572.05 577.35 584.45 587.8 591.9 598.5 605.95 613.35 622.6 625.7 633.7 641 644.35 647.9 651.05 660.4 664.6 674.7 683.65 691 696.05 ">jeunesdesquartiersprioritairesdelaville(QVT).</text>
<text y="386.7" x="701.65 707.2 713.8 721.95 726.05 732.65 738.75 746.2 749.05 754.35 760.85 766 773.55 779.3 787.2 794 801.75 804.85 814.3 ">Lesr&#xE9;sultatssontl&#xE0;!</text>
<text y="404.5" x="1 7.75 10.9 17.4 24.25 31.3 39.4 46.8 54.6 62.35 71.25 78.9 85.15 92.15 96.15 102.25 109.2 115.45 122.25 129.85 136.25 143 149.2 154.2 162.7 166.5 172.95 178.9 186.5 189 194.1 200.35 206.05 210.95 216.2 222.45 229.1 233.2 240.85 247.6 254.45 261.6 267.5 275.15 278.35 281.15 287.6 293.25 298.25 304.5 312 314.85 322.45 326.25 333 340.15 348.7 351.45 358.75 365.35 372.15 378.6 383.6 ">Plusde1000ouvragesont&#xE9;t&#xE9;r&#xE9;colt&#xE9;s.Les&#xE000;ondscollect&#xE9;slorsdelavente</text>
<text y="404.2" x="428.05 437.35 444.35 453.2 460.35 472.05 479.45 482.55 489.1 496.7 503.9 511.1 514.5 517.95 520.65 525.95 535.15 539.3 546.45 553.4 557.9 565.8 569.95 576.15 582.9 591.75 598.25 606 613.4 620.45 629.25 635.5 643.4 650.35 658.1 665.2 672.25 678.45 687.65 691.8 698.3 704 708.15 716.05 722.65 729.5 736.25 743.35 748.05 756.25 764.8 772.55 775.3 781.4 788.35 795.7 801.8 804.45 810.15 813.05 ">Uneemployabilit&#xE9;ren&#xE000;orc&#xE9;eetuneconfanceretrouv&#xE9;e.Cedispositi&#xE000;</text>
<text y="422.05" x="0.25 7.85 14.35 21.75 28 33 42.25 46.05 52.15 58.65 65.5 69.35 74.75 81.1 88.85 98 105.15 111.9 120.7 126.95 132.2 137.65 144.95 151.2 153.75 160 165.4 168 175.7 184.45 191.7 194.25 201.1 203.75 210.9 219.7 226.55 232.85 242.2 248.85 255.7 259.5 264.95 272.6 279.7 286.45 292.7 300.5 307.35 316.15 323.6 326.2 330.35 337.75 344.1 351.25 353.75 358.85 365.6 ">ont&#xE9;t&#xE9;revers&#xE9;s&#xE0;uneassociationd&#x2019;aideauxpersonnesendi&#xE000;fcult&#xE9;.</text>
<text y="421.75" x="427.45 434 439.5 447.45 453.7 461.15 469.3 476.3 483.45 490.45 496.65 506.45 513.4 520.5 527.9 531 539.95 544.45 552.35 559.4 566.6 574.8 580.55 588.05 594.6 597.55 604.75 610.5 617.65 625 629.15 637.05 644.05 650.8 657.95 668.15 672.85 678.75 686.45 692.4 697.45 ">estcofnanc&#xE9;parle&#xE000;ondssocialeurop&#xE9;en(FSE).</text>
<text y="654" x="1 6.55 16.75 23.75 30.9 35 41.25 49.15 56.5 60.65 69.15 77 87.4 91.6 98.1 103.45 111.35 118.75 126.15 136.45 139.65 142.85 150 161.7 169.1 172.2 180.1 185.95 191.75 194.95 202.15 208.65 215.95 218.7 224.45 230.9 238.15 247.7 255.1 262.25 269 277.7 283.45 293 300.65 303.75 311.75 318.6 325.75 329.25 331.95 337.25 344.35 349.45 358.25 366.4 376.25 383.65 ">Leparcoursduretour&#xE0;l&#x2019;emplois&#x2019;envisagedanssaglobalit&#xE9;.Afnde</text>
<text y="671.55" x="0.65 4.75 11.9 19.3 26.65 30 36.75 42.05 50 56.85 66 69.15 75.65 84.4 91.15 97.15 102.45 109.6 117 121.1 129.85 136.35 145 152.35 156.45 163.95 168.45 175 180.5 186.65 189.6 197.45 204.9 211.95 219.15 222.05 230.45 237.9 248.1 251.35 254.55 261.65 273.4 280.75 283.9 291.75 294.7 300.6 308 318.2 321.4 324.95 328.25 335.1 340.85 347.95 352 357.7 360.65 368.5 378.6 385.1 ">r&#xE9;unirtouslesacteursetpro&#xE000;essionnelsdel&#x2019;emploi,del&#x2019;insertionet</text>
<text y="689.05" x="0.25 7.75 18.15 21.35 24.25 31 37 42.65 45.65 53.5 63.65 69.4 76.9 83.4 86.4 93.6 96.65 103.45 ">del&#x2019;actionsociale,</text>
<text y="689.05" x="331.85 341.6 349.5 353.45 360.65 367.75 375.15 377.9 383.65 ">aorganis&#xE9;</text>
<text y="706.65" x="0.75 3.8 13.3 23.75 30.75 37.9 49.25 56.35 59.65 66.65 76.4 80.6 87.1 94.65 97.6 105.5 112.5 119.7 122.75 131.95 139.35 149.2 152.4 156.25 162.75 174.5 181.95 185 192.9 198.95 206.85 ">la&#xAB;Semainer&#xE9;gionaledel&#x2019;Emploi&#xBB;.</text>
<text y="729.05" x="1 6.55 13.1 21.75 28.9 40.55 48 51.05 57.65 65.15 72.25 79.65 83.75 92.1 100 106.75 114.95 122 125.4 132.2 138.25 144.45 148.6 155.7 162.75 168.95 176.9 183.7 189.4 193.45 202.85 210.2 216.85 225.15 232.55 239.7 251.05 258.15 265.2 272.6 279.75 287.15 291.25 299.5 307.1 310.25 317.4 329.15 336.5 339.65 347.5 353.35 360.5 370.1 377.85 380.75 385.4 ">Lesemployeursontainsirencontr&#xE9;desdemandeursd&#x2019;emploiendi&#xE000;-</text>
<text y="746.55" x="0.25 8 14.55 22 24.9 30.15 36.9 42.4 47.75 55.65 62.4 70.65 77.75 88.15 95 102.15 109.2 115.9 123.65 130.2 133.1 140.25 147 154.95 162.35 172.4 175.65 178.45 185.6 188.5 195.95 205.65 211.85 219.7 231.45 238.85 241.95 249.1 260.45 267.6 274.4 279.7 286.75 290.1 294.25 303.6 311 317.5 325.65 331.35 335.6 341.95 348.9 356 359.35 362.9 366 373.15 380.5 384.65 ">fcult&#xE9;,toutenb&#xE9;n&#xE9;fciantdel&#x2019;aidecompl&#xE9;mentairedestravailleurs</text>
<text y="764.15" x="0.05 5.8 13.35 19.9 22.85 30 36.55 46.5 53.5 61.4 68.75 76.1 87.75 90.75 97.9 104.5 114.5 117.6 124.15 132.5 139.25 145.5 151.75 159.65 171.35 178.25 184.7 192.35 199.4 206.55 210.65 ">sociauxpourmieuxlesaccompagner.</text>
</g>
<g class="s281qBRa45" transform="scale(0.7526 1.0034)" >
<text y="417.15" x="936.25 943.35 950.45 952.7 963 970.7 979.6 985.05 ">PRIXDELA</text>
<text y="423.1" x="374.95 382 389.15 391.4 401.7 409.35 ">PRIXDE</text>
<text y="431.55" x="932.5 939.3 945.75 953.75 961.15 968.2 970.55 977.35 980.05 988.4 ">TRANSITION</text>
<text y="437.5" x="354 359.45 361.1 368.55 375.1 382.1 388.25 394.6 401.65 404.6 412 414.95 421.1 423.45 430.25 ">L&#x2019;ACCESSIBILIT&#xC9;</text>
<text y="445.95" x="930.8 936.85 943.4 951.75 957.2 965.25 973.1 975.75 984.05 991.85 ">&#xC9;COLOGIQUE</text>
<text y="732.85" x="367.1 374.2 381.3 383.55 393.85 401.5 410.45 415.9 ">PRIXDELA</text>
<text y="737.7" x="942.45 949.55 956.7 958.95 969.2 976.9 ">PRIXDE</text>
<text y="747.25" x="364.35 371.05 379.4 385.55 388.5 395.25 403.25 410.4 412.75 419.55 ">SOLIDARIT&#xC9;</text>
<text y="752.1" x="922.5 927.9 930.75 936.6 944.55 951.1 960.05 967.1 972.55 980.55 987.7 990.05 996.9 ">L&#x2019;EXEMPLARIT&#xC9;</text>
<text y="761.65" x="365.8 372.85 375.2 381.3 388.35 396.1 402.7 410.4 418.15 ">CITOYENNE</text>
<text y="1046.5" x="383 390.05 397.2 399.45 ">PRIX</text>
<text y="1060.9" x="354.2 360.7 368.95 376.75 386.2 393.9 402.55 409.05 420.95 428.75 ">COUPDEC&#x152;UR</text>
<text y="1075.3" x="372.8 380.35 389.9 396.1 403.9 410.05 ">DUJURY</text>
</g>
<g class="s281qBRa45" transform="translate(499.35 1408.45)" >
<text y="0" x="0 7.05 11.6 21.85 ">-18-</text>
</g>
<g class="s281qBRa46" transform="translate(468.35 48.75)" >
<text y="0" x="0 6.75 12.85 19.25 ">Rapp</text>
<text y="0" x="25.4 31.75 36.15 42.4 49.25 56.35 64.25 70.75 77.6 82.1 ">ortRSE2017</text>
</g>
</svg>
