<?xml version="1.0" encoding="UTF-8" standalone="no"?>
<!DOCTYPE svg PUBLIC "-//W3C//DTD SVG 1.1//EN" "http://www.w3.org/Graphics/SVG/1.1/DTD/svg11.dtd">
<svg xmlns="http://www.w3.org/2000/svg" xmlns:xlink="http://www.w3.org/1999/xlink" version="1.1"
     viewbox="0 0 1024.00 1448.20" width="1024.00" height="1448.20" style="overflow:hidden" xml:space="preserve">
<defs>
<style type="text/css">
<![CDATA[
@font-face { font-family: 'f0SdUBRa417#39'; font-weight: normal; font-style: normal;  src: url(svg/font16.ttf) format('truetype'); }
@font-face { font-family: 'f0SdUBRa416#34'; font-weight: normal; font-style: normal;  src: url(svg/font15.ttf) format('truetype'); }
@font-face { font-family: 'f0SdUBRa418#43'; font-weight: normal; font-style: normal;  src: url(svg/font17.ttf) format('truetype'); }
@font-face { font-family: 'f0SdUBRa420#53'; font-weight: normal; font-style: normal;  src: url(svg/font19.ttf) format('truetype'); }
@font-face { font-family: 'f0SdUBRa414#25'; font-weight: normal; font-style: normal;  src: url(svg/font13.ttf) format('truetype'); }
@font-face { font-family: 'f0SdUBRa415#29'; font-weight: normal; font-style: normal;  src: url(svg/font14.ttf) format('truetype'); }
@font-face { font-family: 'f0SdUBRa419#48'; font-weight: normal; font-style: normal;  src: url(svg/font18.ttf) format('truetype'); }
@font-face { font-family: 'f0SdUBRa413#20'; font-weight: normal; font-style: normal;  src: url(svg/font12.ttf) format('truetype'); }
@font-face { font-family: 'f0SdUBRa412#15'; font-weight: normal; font-style: normal;  src: url(svg/font11.ttf) format('truetype'); }
@font-face { font-family: 'f0SdUBRa411#61'; font-weight: normal; font-style: normal;  src: url(svg/font10.ttf) format('truetype'); }

.s0SdUBRa40 { fill: rgb(  3,  56, 120); font-family: 'f0SdUBRa411#61'; font-size: 12.00px; }
.s0SdUBRa41 { fill: rgb(  0,  74,  78); font-family: 'f0SdUBRa412#15'; font-size: 12.00px; }
.s0SdUBRa42 { fill: rgb( 51, 125, 109); font-family: 'f0SdUBRa413#20'; font-size: 65.35px; }
.s0SdUBRa43 { fill: rgb( 51, 125, 109); font-family: 'f0SdUBRa412#15'; font-size: 65.35px; }
.s0SdUBRa44 { fill: rgb(  0,  74,  78); font-family: 'f0SdUBRa414#25'; font-size: 24.05px; }
.s0SdUBRa45 { fill: rgb( 74,  74,  73); font-family: 'f0SdUBRa415#29'; font-size: 15.45px; }
.s0SdUBRa46 { fill: rgb( 51, 125, 109); font-family: 'f0SdUBRa416#34'; font-size: 17.20px; }
.s0SdUBRa47 { fill: rgb( 74,  74,  73); font-family: 'f0SdUBRa417#39'; font-size: 15.45px; }
.s0SdUBRa48 { fill: rgb(255, 255, 255); font-family: 'f0SdUBRa418#43'; font-size: 25.80px; }
.s0SdUBRa49 { fill: rgb( 51, 125, 109); font-family: 'f0SdUBRa419#48'; font-size: 41.25px; }
.s0SdUBRa410 { fill: rgb(  3,  56, 120); font-family: 'f0SdUBRa420#53'; font-size: 18.90px; }
]]>
</style>
</defs>
<image x="0" y="0" width="1024" height="1448.2" xlink:href="svg/svg.jpg"/>
<g class="s0SdUBRa40" transform="translate(468.35 48.75)" >
<text y="0" x="0 6.75 12.85 19.25 ">Rapp</text>
<text y="0" x="25.4 31.75 36.15 42.4 49.25 56.35 64.25 70.75 77.6 82.1 ">ortRSE2017</text>
</g>
<g class="s0SdUBRa41" transform="translate(501.75 1408.45)" >
<text y="0" x="0 7.3 17.1 ">-6-</text>
</g>
<g class="s0SdUBRa42" transform="translate(380.65 500.55)" >
<text y="0" x="0 40.8 84.2 113.2 146.1 166.8 199.25 210.35 237.6 ">Unservice</text>
</g>
<g class="s0SdUBRa43" transform="translate(369.8 500.55)" >
<text y="61.9" x="0 33.35 62.85 92.3 124.7 154.15 186.7 202.65 238.45 257.2 ">accessible</text>
<text y="123.8" x="14.5 48.15 84.3 98.85 132.05 161.8 180.65 211.65 242.95 257.7 ">etinclusif</text>
</g>
<g class="s0SdUBRa44" transform="translate(115.2 708.9)" >
<text y="0" x="51.35 64.8 77.3 90.05 103.15 122.1 133.35 146.1 157.45 170.4 186.95 199.45 205.9 217.25 233.6 243.45 260 279.1 285.2 294.7 304.7 311.15 323.55 340.25 352.6 367.5 377.3 388.65 397.55 408.8 415.25 425.4 440.15 453.3 466.05 478.55 485.25 491.75 505.85 518.25 533.55 540.9 548.25 559.55 578.15 591.15 597.75 610.15 615.75 628.15 641.55 653.9 660.55 675.75 687.05 705.55 718.65 725.25 737.65 ">Pourmener&#xE0;biensamissiondeservicepublicdel&#x2019;emploi,P&#xF4;leemploi</text>
<text y="28.85" x="0 10.55 17.85 30.3 42.8 51.7 62.6 72.1 81.85 97.1 113.45 122.65 135.2 147.4 161.4 168 178.8 192.25 205.4 218.1 230.65 237.35 243.8 253.6 264.3 274.95 291.45 304.8 312.3 318.9 329.15 339.75 347.1 358.75 372.4 378.55 388.05 397.8 413.05 425.45 440.2 453.1 464.4 473 482.85 495.25 508.1 520.75 531.55 545.4 556.75 573.15 583.05 589.55 599 611.55 623.9 633.25 639.65 652.05 668.8 681.15 695.9 709 717.9 729.05 739.25 751.75 760.8 767.25 776.4 786.75 ">s&#x2019;adresse&#xE0;touslespublics.Qu&#x2019;ils&#x2019;agissedepersonnesensituationdepr&#xE9;carit&#xE9;,</text>
<text y="57.8" x="7.6 20.5 31.95 48.6 56.6 69.2 88.3 94.85 101.6 108.1 120.6 129.7 135.8 145.65 156.8 167.65 181.5 193.85 204.95 216.15 230.45 237 247.85 261.7 274.05 285.4 304.35 316.9 325.8 336.1 348.75 359.6 373.45 385.85 398.3 417.5 424.1 436.9 443.05 452.8 462.15 471.1 483.4 492.75 499.2 510.3 521.15 535 547.55 564.05 575.4 582 594.4 600.15 613.8 626.5 637.65 648.55 662.4 674.75 685.55 699 711.9 724.4 733.3 743.5 756 768.75 777.3 ">peufamiliaris&#xE9;esaveclesd&#xE9;marchesadministrativesou&#xE9;loign&#xE9;esdesparcours</text>
<text y="86.7" x="12.35 21.85 27.7 39.1 47.85 57.1 62.85 74.7 86.6 96.7 109.1 121.55 128.3 134.2 145.85 154.95 165.5 173.7 182.3 188.05 199.7 212.8 238.35 247.85 259.85 271.5 281.15 293.15 308.4 318.5 327.6 339.35 351 360.4 370.05 381.9 392.5 398.4 404.4 410.35 419.4 429.8 441.6 452.05 461.45 473.25 485.05 493.5 504.85 514 525.05 535.15 547.55 556.9 568.65 580.3 589.4 600 605.8 611.8 617.65 628.3 636.15 648.55 660.25 674.15 686.8 698.55 704.4 718.15 728.65 746.55 758.9 764.75 776.4 ">classiquesd&#x2019;insertion&#x2026;chacunestaccueilliet&#xE9;cout&#xE9;.LesconseillersdeP&#xF4;leemploi</text>
<text y="115.6" x="59.6 71.35 83.2 94.6 106.8 118.6 130.6 142.1 151.5 163.15 174.8 184.05 189.05 202 214 227.75 239.4 253.15 260.5 272.3 278.15 286.35 299.7 312 318.15 329.65 341.6 353.8 365.6 377.6 389.1 398.5 409.05 415.1 420.95 431.05 443.45 453.85 465.65 475.05 485.75 496.75 512 523.9 535.9 544.9 555.5 570.8 582.4 594.4 606.3 612.15 625.5 637.8 643.9 655.4 668 679.65 689.75 698.8 710.55 716.4 729.25 ">ontpourconsignedefairepluspourcellesetceuxquienontleplusbesoin.</text>
</g>
<g class="s0SdUBRa45" transform="translate(73.5 1063.8)" >
<text y="0" x="599.65 609.8 619.8 627.05 635.75 648.55 653.2 660.6 668.95 676.8 684.1 691.65 694.75 702.6 712.55 720.1 727.1 736.9 744.75 752.3 764.3 771.85 779.3 787.15 794.7 802.55 806.9 815.45 823.45 826.8 834.35 846.75 854.6 857.9 866.25 ">ADEDA(pouraideauxdemandeursd&#x2019;emploi</text>
<text y="18.9" x="600 607.85 614.95 623.15 630.1 633.25 640.8 647.95 653.4 662.25 669.8 677.25 685.45 688.3 694.3 697.35 701.85 707.75 715.3 723.15 730.1 735.9 741.9 745.4 752.85 762.8 772.3 777 784.15 791.1 794.65 798.3 801.15 806.8 814.35 822.2 825.45 835.45 842 850.4 862.65 ">d&#xE9;fcientsauditi&#xE000;s)destin&#xE9;&#xE0;&#xE000;aciliterlacom-</text>
<text y="37.75" x="600.4 613.1 621.25 629.35 632.8 639.65 646.85 653.15 656.6 665.3 676.1 683.15 690.7 698.2 708.65 712.25 719.5 728.7 736.85 744.7 757.05 764.9 772.65 780.8 788.65 796.8 801.45 810.65 818.95 822.6 830.5 843.2 851.35 854.95 863.6 ">municationaveclesdemandeursd&#x2019;emploi</text>
<text y="47" x="0.95 10 17.45 24.5 33.55 36.7 46.75 54.35 58.6 65.55 72.9 85.3 92.8 100.55 103.7 113.05 120.75 130.15 136.05 145.75 152.15 160.4 167.15 174.25 181.65 188.6 194.5 197.45 205.7 215.05 220.9 225.7 229.05 236.25 243.65 247.75 253.6 256.3 261.8 268.8 ">Danslepr&#xE9;ambuledesaconventiontripartite,</text>
<text y="56.75" x="599.8 605.85 614.25 622.05 626.45 634.1 642.95 649.85 658.7 670.7 678.3 681.6 689.15 696.35 702 709.55 717 724.8 732.35 739.55 744.95 753.8 763.8 770.65 776.3 786 793.85 801.4 809.2 812.5 819.4 827.35 837 844.85 852.4 859.65 ">sourdsetmalentendantsa&#xE9;t&#xE9;d&#xE9;ploy&#xE9;dans</text>
<text y="60.6" x="300.35 308.75 316.85 323.75 329.55 336.15 339 346.2 353.1 360.6 368.15 377.3 383 392.75 396.85 403.45 409.65 416.7 424.75 431.7 437.4 444.75 452.05 455.35 458.7 461.2 466.55 475.6 483.1 490.35 497.25 506 509.1 512.55 519.4 525.1 528.35 531.7 534.3 540.05 546.65 552.35 555.15 563.2 ">Conscientdesaresponsabilit&#xE9;dansl&#x2019;utilisation</text>
<text y="65.5" x="0.95 7.5 15.75 18.95 28.55 36 48.25 55.9 59.1 67.25 72.65 78.6 87.75 95.35 102.3 111.65 119.35 126.15 134.7 142.1 149.1 156.55 163.25 170.75 178.15 190.05 197.45 204.45 209.75 218.3 225.2 228.3 235.65 239 243.2 ">P&#xF4;leemploisefxedesengagementsclairs</text>
<text y="75.65" x="600 607.35 615.05 622.55 631.05 638.8 649.35 656.5 664.45 672.35 680.1 687 697.55 704.75 714.25 721.9 730.55 734.4 741.85 751.3 756 763.95 767.5 775.35 778.55 788.8 795.85 804.6 808.2 818.8 826.65 839.35 847.5 851.1 859.75 ">chaqueagenceetpointrelaisP&#xF4;leemploi</text>
<text y="79.15" x="300.1 307.65 316.8 322.55 329.2 337.25 343.05 350.3 354.05 361.5 364.3 370.6 377.25 385.9 393.4 400.9 412.65 419.9 424.5 427.3 435.2 442.3 448.95 454.7 460.95 467.4 475.55 478.5 487.85 495.1 507.2 514.75 517.7 525.75 530.75 538.65 541.25 547.4 554.45 561.95 567.7 ">desesservicesnum&#xE9;riques,P&#xF4;leemploidispose</text>
<text y="84.15" x="0.25 6.65 14.9 22.15 28.55 36 40.8 48.05 55.4 62.4 71.05 74.35 77.15 84.15 90.65 97.05 103.85 109.6 115.85 119.3 126.8 130.2 133.7 136.4 141.9 149.2 ">concernantl&#x2019;accessibilit&#xE9;.</text>
<text y="94.6" x="599.95 610.95 618.6 626.45 631.05 637.4 641.2 648.9 657.05 667.4 673.8 681.65 689.05 695.05 702.9 715.7 723.65 728.35 738.95 747.25 755.85 762.35 768.75 774.95 784 792.7 800.45 807.75 812.4 819.6 825.6 833.45 845.8 853.65 861.15 867.1 ">&#xE0;partirdeseptembre2017.Concr&#xE8;tement,</text>
<text y="97.75" x="300.1 307.8 314.6 320.55 328.75 333.55 345.4 352.75 355.55 363.8 371.6 375.2 382.9 390.15 399.5 407.75 414.7 420.55 423.5 431.7 442.05 449.25 457.5 465.15 472.6 480.25 487.55 497.65 500.8 507.8 513.95 519.85 527.5 531.75 541.8 ">d&#xE9;sormaisd&#x2019;uneoptionpourunelecturep</text>
<text y="97.75" x="549.45 553 560.05 ">lus</text>
<text y="113.5" x="600.35 604.25 610.75 616.65 619.35 625.9 633.6 636.15 643.65 651.2 660.95 672.65 679.25 684.3 690.05 694.1 703.45 712.45 720.35 722.95 729.15 736.2 743.65 749.8 752.3 758 760.85 768.9 778.2 785.75 792.4 800.35 807.9 815.15 826.85 834.1 841.2 848.75 856 863.5 867.55 ">ils&#x2019;agitdemettre&#xE0;dispositiondesdemandeurs</text>
<text y="117.35" x="0.95 7.5 15.75 18.95 28.55 36 48.25 55.9 59.1 67.4 73.15 79.35 82.4 89.25 94.65 100.25 107.45 114.45 121.9 131.85 142.2 149.95 154.35 162.7 170.1 177.85 183.95 191.5 199.25 207.05 214.5 224.2 232.1 236.8 241.9 246.3 255.95 263.8 ">P&#xF4;leemplois&#x2019;attache&#xE0;proposeruneo&#xE000;&#xE000;rede</text>
<text y="116.35" x="300.1 306.4 314.45 321.3 327.05 331.25 337.9 343.4 348.75 355.6 364.95 371.55 379.8 383.15 385.75 391.9 395.15 402.6 405.6 414.6 422.15 431.95 435.05 438.5 441.7 448.75 453.2 461.25 465.9 477.6 484.2 489.9 492.7 500.75 508.2 ">contrast&#xE9;eetlisibledel&#x2019;in&#xE000;ormation.</text>
<text y="132.4" x="600 608 611.35 618.9 631.3 639.15 642.45 650.8 656.5 662.6 670.95 678.75 683.15 690.8 700.05 707.9 717.9 724 731.55 735.65 743.4 746.5 753.1 762.75 770.6 780 786 790.55 797.75 805.95 813.4 819.7 825.7 828.85 837.2 847.45 855 ">d&#x2019;emploisourdsunservicedetraductionen</text>
<text y="135.9" x="0 6.05 13.65 17.75 25.5 28.65 35.2 42.15 51.5 55.15 58.05 64.5 68.1 75.8 79.1 89.1 96 104.4 111.55 118.15 124.7 131.7 137.55 144 147.55 155.3 158.6 168.55 177.9 183.55 191.95 199.1 208.5 211.8 218.75 228 235.75 243.65 251.4 255.05 258.15 264.55 270.6 ">serviceslisibleetaccessible&#xE0;touslespublics,</text>
<text y="134.9" x="300.85 307.25 315.4 318.35 327.7 334.95 347.05 354.6 357.55 365.6 370.7 376.8 379.2 385.85 391.3 398.3 405.8 415.35 421.95 427 432.75 437.35 440.6 448 455.1 462.35 469.55 472.55 482.25 489.75 492.1 499.05 505.9 513.15 522.9 532.45 540.3 550.2 553.1 560.35 567.25 574.45 ">P&#xF4;leemplois'estvuattribuerleniveau5dulabel</text>
<text y="154.5" x="0.25 8.25 15.65 18.9 26.3 29.95 33.05 42.55 48.45 56.65 59.35 67.85 75.55 81.85 89.55 95.85 98.8 106.85 114.15 124.4 128.5 135.9 146.2 153.8 158.05 164.85 170.75 178.15 185.2 191.05 194 201.45 204.35 211.65 219.85 230.15 237.85 245.5 257.4 264.6 ">qu&#x2019;ellesoitphysique(enpr&#xE9;sentiel)ounum&#xE9;-</text>
<text y="153.5" x="300.85 308.3 318 326.9 339.4 344.25 351.45 358.4 363 370.35 374.6 382 389 394.85 397.85 405.3 410.8 418.3 425.7 432.95 440.35 444.75 452.2 457.7 465.5 468.4 475.4 481.85 488.25 495.05 500.75 507.05 510.45 517.95 521.4 524.9 527.6 533.05 543.1 550.35 558.55 566.2 ">RGAA(R&#xE9;&#xE000;&#xE9;rentielg&#xE9;n&#xE9;rald&#x2019;accessibilit&#xE9;pour</text>
<text y="151.35" x="600.45 604.05 611.9 619.35 627.7 635.4 645.7 653.85 661.15 670.4 677.15 680.3 688.65 696.4 703.65 713.15 720.35 729.1 737.25 747.3 753.6 758.45 766.35 773.85 780.25 787.55 792.8 796.6 804 810.3 813.75 822.45 833.65 837.15 844.4 850.2 855.85 863.4 871.05 ">languedessignesetdetranscriptioninstan-</text>
<text y="173.1" x="0.55 5.4 8.3 16.4 23.65 33.9 38 47.3 55.4 58.15 63.8 69.25 76.65 83.9 90.4 97.15 102.4 ">rique(&#xE0;distance).</text>
<text y="172" x="300.55 303.55 310.2 318.45 325.3 333.2 345.3 348.5 356 358.6 364.1 369.8 374.05 380.65 386.3 389.15 397.2 404.15 409.7 417.3 424.4 432.45 439.95 447.15 450.15 459.25 465.4 467.95 473.3 482.95 ">lesadministrations)pourlesite:</text>
<text y="170.25" x="599.7 605.35 612.9 620.35 627.5 637.15 645 655.45 658.7 669.05 676.4 683.95 688.35 696.8 700.05 707.55 713.55 723.4 734.05 741.5 749.9 756.85 764.1 771.25 778.8 788.8 794.9 802.45 806.55 814.3 817.4 824 834.35 841.8 848.15 852 856 859.2 865.6 ">tan&#xE9;edelaparole.Unnouveauserviceutilis&#xE9;</text>
<text y="190.65" x="299.9 305.65 312.95 315.95 324 331.15 338.4 346 349.3 351.85 359.55 366.7 373.85 376.95 384.05 392.15 395.15 402.2 407.2 414.45 426.55 434.05 437.05 445.1 448.2 450.9 455.7 459.75 ">salonenligne.pole-emploi.&#xE000;r.</text>
<text y="189.15" x="600.4 608.05 615.9 624.35 627.95 635.2 644.7 651.6 660.3 667.85 674.2 682.05 685.95 690 693.6 701.45 706.15 715.3 723.45 731.3 738.85 748.8 752.4 763 769.85 777.35 785.9 790.6 800.85 809 820.05 823.8 827.15 834.6 841.5 848.75 856.5 864.35 868.25 ">parlesconseillersdanslecadredel&#x2019;accueil</text>
<text y="208.1" x="600.4 608.5 615.3 623.45 630.2 633.65 642.15 649.9 660.25 667.05 675.2 682.95 689.7 692.85 698.8 706.6 ">physiquesursite.</text>
<text y="236.75" x="600.7 607.5 617.8 ">Enp</text>
<text y="236.75" x="625.45 629 636.05 644.3 652 659.4 666.25 676.5 683.65 691.85 699.15 706 709.15 715.95 724.5 734.5 737.9 745.15 753.25 760.55 766.7 772.55 775.5 783.7 794.05 805.9 812.6 820.5 827.75 834.5 840.35 843.35 851.35 858.65 ">lusdeuxboucles&#xE0;inductionmagn&#xE9;tique</text>
<text y="258" x="0.95 9.9 17.15 24.05 32.75 40.25 49.8 56.25 63.65 66.25 74.55 81.8 91.1 98.6 105.2 110.5 119.55 127.5 137.15 146.95 151.4 157.8 165.25 169.85 172.7 179.9 186.6 194.35 202.35 208.2 213.65 219.7 222.65 ">Dansunavisendatedu9&#xE000;&#xE9;vrier2017,le</text>
<text y="255.7" x="600.4 607.6 615.8 619.95 625.4 632.15 638 640.5 647.6 654.4 663.4 670.6 678.8 686.5 694 697.15 703.95 712.9 720.1 727.5 731.7 737.65 745.85 753.55 760.85 767.6 776.6 788.45 795.9 799.05 806.45 813.45 818.95 826.35 833.65 841.3 848.7 855.7 861.2 868 ">portativespourlespersonnesmalentendantes</text>
<text y="276.65" x="0.95 9.95 16.75 21.15 28.4 35.3 41.05 48.3 55.85 62.3 69.85 76.5 84.4 92.35 96.4 104.45 107 112.15 120.75 123.95 131.1 139 141.8 149.7 156.8 166.45 ">D&#xE9;&#xE000;enseurdesdroitsindique:</text>
<text y="275.65" x="299.8 307 314 319.8 325.45 335.1 342.95 350.5 358.25 366.05 368.95 377.85 385.85 394.15 400.65 408.3 414.9 422.7 432.65 440.5 448.05 460.1 ">Test&#xE9;depuis2015,und&#xE9;mo</text>
<text y="275.65" x="468.45 475.7 481.5 487.55 492.05 498.95 504.6 512.15 520 527.3 534.9 542.65 ">nstrateurapp</text>
<text y="275.65" x="550 557.6 560.9 ">el&#xE9;</text>
<text y="274.6" x="599.8 605.7 613.95 620.95 629.45 632.8 639.9 645.55 651 658.45 662.05 665.2 672.2 679 687.25 694.95 702.35 709.4 717.4 722.9 731.1 738.1 743.6 750.4 759.45 762.55 769.35 777.9 784.6 792.1 799.5 806.8 813.25 820 826.25 ">sontinstall&#xE9;esdanstouteslesagences.</text>
</g>
<g class="s0SdUBRa46" transform="translate(96.5 1063.85)" >
<text y="0" x="48.3 57.25 62.75 72.25 80.8 89.65 97.05 105.7 114.45 123.5 134.6 141.95 150.6 155.95 164.8 168.55 176 ">Proposerunservice</text>
<text y="18.6" x="54.15 62.4 69.9 77.4 85.55 92.65 100.1 104.25 113.3 117.65 128.55 138.8 145.65 155.1 163.6 174 ">accessible&#xE0;tous!</text>
<text y="211.1" x="18.3 27.2 32.75 41.4 50.15 59.6 65.15 76.4 80.85 90.9 99.75 103.8 109.6 117.6 126.45 137.7 146.75 155.8 169.6 178.3 184.25 188 197.3 206 ">Prendreleviragenum&#xE9;rique</text>
<text y="229.7" x="0 8 17.45 25.8 34.8 43.5 51.75 58.6 67.25 76.15 80.5 88.6 98.3 105.65 114.3 119.65 128.5 132.2 139.7 147.8 158.05 166.6 176.1 185.1 192.85 199.75 209.2 217.7 228.1 ">etadapterlesservicespourtous!</text>
<text y="228.65" x="318.75 326.45 334 339.9 351.6 356 365.45 374.55 383.35 392.45 401.45 410.2 420.35 428.65 438.8 447.45 455.3 463.1 471.55 479.05 486.85 491.35 500.7 505.4 ">&#xCA;treinnovantetaccessible</text>
<text y="247.25" x="324.65 333.65 345.4 353.1 361.85 366.25 377.95 387.4 399 407.25 416.3 425 434.7 443.7 455.3 463.6 472.8 481.8 490.9 498.75 ">auseindechaqueagence</text>
</g>
<g class="s0SdUBRa47" transform="translate(244.9 1063.8)" >
<text y="0" x="128.45 135.7 141.85 148.9 154.75 161.2 166.35 172.15 175.45 182.2 188.2 195.7 203.7 210.55 222.2 228.7 233.2 236.6 244.45 251.6 257.7 265.2 270.15 275.85 284 288.95 295.05 300.9 307.4 315.4 320.2 329.05 335.9 345.45 351.9 356.85 362.85 369.75 ">desservicesnum&#xE9;riquesrepr&#xE9;senteunenjeu</text>
<text y="18.5" x="127.4 135.5 140 143 154.7 161.85 166.75 173.7 176.7 183.95 189.2 196.15 202.95 209.7 217.6 220.85 229.95 233.7 241.05 245.85 250.65 259.4 265.85 272.9 280.9 285.15 290.1 298.95 302.5 308.6 316.1 323.05 325.6 331.5 337.55 342.1 345.1 356.45 359.45 366.7 374 378.25 381.6 388.7 395.5 ">primordialdanslaluttecontrelesdiscriminations</text>
<text y="37.15" x="126.7 132.75 139.9 147.45 154.7 161.5 167.6 174.7 180.65 187.45 194.35 197.95 206.45 213.65 220.45 228.05 234.95 238.3 244.4 250.4 258.65 263.95 ">fond&#xE9;essurlehandicap.&#xBB;</text>
<text y="276.65" x="0 9.55 15.65 17.45 24.55 31.25 37.95 44 49.15 54.7 57.75 65 68.45 71.7 75.2 79.95 ">&#xAB;L&#x2019;accessibilit&#xE9;</text>
</g>
<g class="s0SdUBRa48" transform="translate(373.1 910.55)" >
<text y="0" x="0 11.25 22.5 38.15 52 64.4 77.05 82.15 97.3 110.95 128.1 144.6 156.65 171 183 194.35 211.5 223.6 241.25 253 265.75 274.35 ">LESACTIONSMEN&#xC9;ESEN2017</text>
</g>
<g class="s0SdUBRa49" transform="translate(505.95 966.95)" >
<text y="0" x="0 ">&#x2022;</text>
</g>
<g class="s0SdUBRa410" transform="translate(394.75 989.65)" >
<text y="0" x="10.55 18.5 27.9 38 48.6 58.8 69.15 79.8 88.1 97.65 107.8 112.8 122.75 131.1 142.35 151.75 163 173.75 185.7 194.6 205.85 216.2 ">&#xCA;TREACCESSIBLEPOURTOUS</text>
<text y="22.7" x="0 8.1 20.05 28.3 39.05 48.25 57.15 68.4 78.6 90.1 100.05 110.85 123.35 131.6 142.25 151.75 160.5 170.6 180.7 185.1 194 205.4 210.4 220.4 231.65 ">ETPARTOUTSURLETERRITOIRE!</text>
</g>
</svg>
