<?xml version="1.0" encoding="utf-8"?>
<!-- Generator: Adobe Illustrator 16.0.0, SVG Export Plug-In . SVG Version: 6.00 Build 0)  -->
<!DOCTYPE svg PUBLIC "-//W3C//DTD SVG 1.1//EN" "http://www.w3.org/Graphics/SVG/1.1/DTD/svg11.dtd">
<svg version="1.1" xmlns="http://www.w3.org/2000/svg" xmlns:xlink="http://www.w3.org/1999/xlink" x="0px" y="0px" width="650px"
	 height="1050px" viewBox="0 0 650 1050" enable-background="new 0 0 650 1050" xml:space="preserve">
<g id="Repères" display="none">
</g>
<g id="icons">
	<path fill="none" stroke="#000000" stroke-width="2" stroke-linecap="round" stroke-miterlimit="10" d="M299,78v-6l-7.1-1.2
		c-0.4-1.7-1.1-3.3-2-4.7l4.2-5.9l-4.2-4.2l-5.9,4.2c-1.5-0.9-3.1-1.6-4.8-2L278,51h-6l-1.2,7.1c-1.7,0.4-3.3,1.1-4.8,2l-5.8-4.2
		l-4.2,4.2L260,66c-0.9,1.5-1.6,3.1-2,4.8L251,72v6l7,1.2c0.4,1.7,1.1,3.3,2,4.8l-4.2,5.8l4.2,4.2l5.9-4.1c1.5,0.9,3.1,1.6,4.8,2
		L272,99h6l1.3-7.1c1.7-0.4,3.3-1.1,4.8-2l5.9,4.2l4.2-4.2l-4.2-5.9c0.9-1.5,1.5-3,2-4.7L299,78z M275,83c-4.4,0-8-3.6-8-8
		s3.6-8,8-8s8,3.6,8,8S279.4,83,275,83z"/>
	<polygon points="65,52.8 62.9,54.8 83.1,75 62.9,95.2 65,97.2 87.2,75 	"/>
	
		<rect x="151" y="58" fill="none" stroke="#000000" stroke-width="2" stroke-linecap="round" stroke-miterlimit="10" width="48" height="34"/>
	<line fill="none" stroke="#000000" stroke-width="2" stroke-miterlimit="10" x1="183.4" y1="75.7" x2="198.9" y2="87.9"/>
	<line fill="none" stroke="#000000" stroke-width="2" stroke-miterlimit="10" x1="151.1" y1="87.9" x2="167.3" y2="75.1"/>
	<path fill="none" stroke="#000000" stroke-width="1.9959" stroke-miterlimit="10" d="M151.1,62.1c0,0,18.4,16,19.9,17.3
		c1.5,1.3,3.1,1.6,4,1.6c0.9,0,2.5-0.3,4-1.6c1.5-1.3,19.9-17.3,19.9-17.3"/>
	<path fill="none" stroke="#000000" stroke-width="2" stroke-miterlimit="10" d="M380.2,85.3c0,0,4-2.3,5.1-2.9
		c1.1-0.6,2.2-0.7,2.8-0.3c1,0.6,9.5,6.2,10.2,6.7c0.7,0.5,1.1,1.9,0.1,3.3c-1,1.4-5.5,6.9-7.4,6.9c-1.9-0.1-9.8-0.2-24.8-15.2
		c-15-15-15.1-22.9-15.2-24.8c-0.1-1.9,5.5-6.4,6.9-7.4c1.4-1,2.8-0.6,3.3,0.1c0.6,0.8,6.1,9.2,6.7,10.2c0.4,0.7,0.3,1.8-0.3,2.8
		c-0.6,1.1-2.9,5.1-2.9,5.1s1.6,2.8,7.2,8.3C377.4,83.6,380.2,85.3,380.2,85.3z"/>
	<polyline fill="none" stroke="#000000" stroke-width="2" stroke-linecap="round" stroke-miterlimit="10" points="467,60 475,52 
		483,60 	"/>
	
		<line fill="none" stroke="#000000" stroke-width="2" stroke-linecap="round" stroke-miterlimit="10" x1="475" y1="82" x2="475" y2="52.3"/>
	<path fill="none" stroke="#000000" stroke-width="2" stroke-linecap="round" stroke-miterlimit="10" d="M467,67h-9v32h34V67h-9"/>
	<polygon fill="none" stroke="#000000" stroke-width="2" stroke-miterlimit="10" points="75,153.6 80.7,168.3 96.5,169.2 
		84.2,179.2 88.3,194.4 75,185.8 61.7,194.4 65.8,179.2 53.5,169.2 69.3,168.3 	"/>
	<path fill="none" stroke="#000000" stroke-width="2" stroke-linecap="round" stroke-miterlimit="10" d="M169,156v-3
		c0-1.1,0.9-2,2-2h8c1.1,0,2,0.9,2,2v3"/>
	<path fill="none" stroke="#000000" stroke-width="2" stroke-linecap="round" stroke-miterlimit="10" d="M190,156l-3.7,41.4
		c-0.1,0.9-0.8,1.6-1.7,1.6h-19.2c-0.9,0-1.6-0.7-1.7-1.6L160,156"/>
	
		<line fill="none" stroke="#000000" stroke-width="2" stroke-linecap="round" stroke-miterlimit="10" x1="158" y1="156" x2="192" y2="156"/>
	
		<line fill="none" stroke="#000000" stroke-width="2" stroke-linecap="round" stroke-miterlimit="10" x1="175" y1="161" x2="175" y2="194"/>
	
		<line fill="none" stroke="#000000" stroke-width="2" stroke-linecap="round" stroke-miterlimit="10" x1="181" y1="161" x2="181" y2="194"/>
	
		<line fill="none" stroke="#000000" stroke-width="2" stroke-linecap="round" stroke-miterlimit="10" x1="169" y1="161" x2="169" y2="194"/>
	<path fill="none" stroke="#000000" stroke-width="2" stroke-linecap="round" stroke-linejoin="round" stroke-miterlimit="10" d="
		M282,185c0,0,8.3,0,9.1,0c4.4,0,7.9-3.5,7.9-7.9c0-4.4-3.5-7.9-7.9-7.9c0,0,0,0-0.1,0c0.1-0.5,0.1-1,0.1-1.5
		c0-6.7-5.4-12.1-12.1-12.1c-5.2,0-9.7,3.3-11.4,7.9c-1.1-1.1-2.6-1.8-4.3-1.8c-3.3,0-6,2.7-6,6c0,0.1,0,0.2,0,0.3
		c-3.7,1-6.4,4.4-6.4,8.3c0,4.8,3.9,8.7,8.7,8.7c0.8,0,8.3,0,8.3,0"/>
	<polyline fill="none" stroke="#000000" stroke-width="2" stroke-linecap="round" stroke-miterlimit="10" points="280,191 275,196 
		270,191 	"/>
	
		<line fill="none" stroke="#000000" stroke-width="2" stroke-linecap="round" stroke-miterlimit="10" x1="275" y1="176" x2="275" y2="195.7"/>
	<circle fill="none" stroke="#000000" stroke-width="2" stroke-linecap="round" stroke-miterlimit="10" cx="375" cy="175" r="24"/>
	<path d="M373.8,166.2c-0.2,0-0.4-0.1-0.4-0.4v-2.6c0-0.2,0.1-0.4,0.4-0.4h2.4c0.2,0,0.4,0.1,0.4,0.4v2.6c0,0.2-0.1,0.4-0.4,0.4
		H373.8z M373.9,187.3c-0.2,0-0.4-0.1-0.4-0.4v-16.5c0-0.2,0.1-0.4,0.4-0.4h2.3c0.2,0,0.4,0.1,0.4,0.4v16.5c0,0.2-0.1,0.4-0.4,0.4
		H373.9z"/>
	<circle fill="none" stroke="#000000" stroke-width="2" stroke-linecap="round" stroke-miterlimit="10" cx="475" cy="175" r="24"/>
	<path d="M479.9,185.5c-0.1-1.6-0.1-2.7-0.1-4.2c0.7-0.4,2-2.8,2.3-4.9c0.6,0,1.5-0.6,1.7-2.8c0.1-1.2-0.4-1.9-0.8-2.1
		c0.9-2.8,2.9-11.5-3.6-12.4c-0.7-1.2-2.4-1.8-4.6-1.8c-8.9,0.2-9.9,6.7-8,14.2c-0.3,0.2-0.9,0.9-0.8,2.1c0.3,2.2,1.2,2.8,1.7,2.8
		c0.2,2.1,1.6,4.5,2.3,4.9c0,1.5,0.1,2.6-0.1,4.2c-1.3,3.4-7.7,3.7-11.5,6.9c3.9,3.9,10.2,6.7,16.9,6.7c6.7,0,14.5-5.3,15.8-6.7
		C487.7,189.2,481.2,188.9,479.9,185.5z"/>
	<polyline fill="none" stroke="#000000" stroke-width="2" stroke-linecap="round" stroke-miterlimit="10" points="91,265 78,265 
		78,252 	"/>
	<polygon fill="none" stroke="#000000" stroke-width="2" stroke-linecap="round" stroke-miterlimit="10" points="92,299 58,299 
		58,251 78,251 92,265 	"/>
	<polygon fill="none" stroke="#000000" stroke-width="2" stroke-linecap="round" stroke-miterlimit="10" points="199,264 186,271 
		186,279 199,286 	"/>
	<path fill="none" stroke="#000000" stroke-width="2" stroke-linecap="round" stroke-miterlimit="10" d="M186,286c0,2.2-1.8,4-4,4
		h-27c-2.2,0-4-1.8-4-4v-22c0-2.2,1.8-4,4-4h27c2.2,0,4,1.8,4,4V286z"/>
	<circle fill="none" stroke="#000000" stroke-width="2" stroke-linecap="round" stroke-miterlimit="10" cx="275" cy="274" r="12"/>
	<circle fill="none" stroke="#000000" stroke-width="2" stroke-linecap="round" stroke-miterlimit="10" cx="275" cy="274" r="8"/>
	<path fill="none" stroke="#000000" stroke-width="2" stroke-linecap="round" stroke-miterlimit="10" d="M297,260h-10
		c-1.5,0-2.5-4-4-4h-16c-1.5,0-2.5,4-4,4h-10c-1.1,0-2,0.9-2,2v27c0,1.1,0.9,2,2,2h44c1.1,0,2-0.9,2-2v-27
		C299,260.9,298.1,260,297,260z"/>
	<path d="M259,264c0,0-0.8,0-1,0c-1.1,0-2,0.9-2,2s0.9,2,2,2c0.2,0,0.8,0,1,0c1.1,0,2-0.9,2-2S260.1,264,259,264z"/>
	<path fill="none" stroke="#000000" stroke-width="2" stroke-linecap="round" stroke-miterlimit="10" d="M397,258c0,0-27.6,0-29,0
		c-1.5,0-2.5-4-4-4h-11c-1.1,0-2,0.9-2,2v4v30v4c0,1.1,0.9,2,2,2h44c1.1,0,2-0.9,2-2v-34C399,258.9,398.1,258,397,258z"/>
	<path fill="none" stroke="#000000" stroke-width="2" stroke-linecap="round" stroke-miterlimit="10" d="M351,277v-11
		c0-1.1,0.9-2,2-2h44c1.1,0,2,0.9,2,2v11"/>
	<polyline fill="none" stroke="#000000" stroke-width="2" stroke-linecap="round" stroke-miterlimit="10" points="369.9,485.9 
		359.1,475 369.9,464.1 	"/>
	
		<line fill="none" stroke="#000000" stroke-width="2" stroke-linecap="round" stroke-miterlimit="10" x1="391" y1="475" x2="359.6" y2="475"/>
	<polyline fill="none" stroke="#000000" stroke-width="2" stroke-linecap="round" stroke-miterlimit="10" points="90,357 90,366 
		81,366 	"/>
	<path fill="none" stroke="#000000" stroke-width="2" stroke-linecap="round" stroke-miterlimit="10" d="M92,375c0,9.4-7.6,17-17,17
		s-17-7.6-17-17c0-9.4,7.6-17,17-17c5,0,9.5,2.2,12.6,5.6c0.6,0.7,1.2,1.4,1.7,2.2"/>
	<path fill="none" stroke="#000000" stroke-width="2" stroke-linejoin="round" stroke-miterlimit="10" d="M588.5,297.2h-28.8
		c0,0-7.7,0.1-7.7-7.7c0-7.8,0-35.7,0-35.7"/>
	<path fill="none" stroke="#000000" stroke-width="2" stroke-linejoin="round" stroke-miterlimit="10" d="M598.1,289.5
		c0,7.7-6.7,7.7-6.7,7.7s-7.7,0-7.7-7.7s0-35.7,0-35.7h-31.8c0,0,0,27.9,0,35.7c0,7.8,7.7,7.7,7.7,7.7h30.8"/>
	<path fill="none" stroke="#000000" stroke-width="2" stroke-linecap="round" stroke-linejoin="round" stroke-miterlimit="10" d="
		M590.4,288.6v-24.2c0,0,0.1-3.8,3.8-3.8s3.8,3.9,3.8,3.9v25.1"/>
	<path fill="none" stroke="#000000" stroke-width="2" stroke-linejoin="round" stroke-miterlimit="10" d="M584.8,260.5"/>
	<path fill="none" stroke="#000000" stroke-width="2" stroke-linejoin="round" stroke-miterlimit="10" d="M594.2,260.5"/>
	<circle fill="none" stroke="#000000" stroke-width="2" stroke-linecap="round" stroke-miterlimit="10" cx="575" cy="175" r="24"/>
	
		<ellipse fill="none" stroke="#000000" stroke-width="2" stroke-linecap="round" stroke-miterlimit="10" cx="575" cy="175" rx="12" ry="24"/>
	<path fill="none" stroke="#000000" stroke-width="2" stroke-miterlimit="10" d="M556.4,190.4c4.4-2.7,11.1-4.4,18.6-4.4
		c7.4,0,14,1.7,18.5,4.3"/>
	<path fill="none" stroke="#000000" stroke-width="2" stroke-miterlimit="10" d="M593.6,159.6c-4.4,2.7-11.1,4.4-18.6,4.4
		c-7.4,0-14-1.7-18.5-4.3"/>
	<line fill="none" stroke="#000000" stroke-width="2" stroke-miterlimit="10" x1="551" y1="175" x2="599" y2="175"/>
	<line fill="none" stroke="#000000" stroke-width="2" stroke-miterlimit="10" x1="575" y1="151" x2="575" y2="199"/>
	<line fill="none" stroke="#000000" stroke-width="4" stroke-miterlimit="10" x1="363.7" y1="386.3" x2="386.3" y2="363.7"/>
	<line fill="none" stroke="#000000" stroke-width="4" stroke-miterlimit="10" x1="363.7" y1="363.7" x2="386.3" y2="386.3"/>
	<path fill-rule="evenodd" clip-rule="evenodd" fill="#1D1D1B" d="M450,383h50v4h-50V383z"/>
	<path fill-rule="evenodd" clip-rule="evenodd" fill="#1D1D1B" d="M450,373h50v4h-50V373z"/>
	<path fill-rule="evenodd" clip-rule="evenodd" fill="#1D1D1B" d="M450,363h50v4h-50V363z"/>
	<polyline fill="none" stroke="#000000" stroke-width="2" stroke-linecap="round" stroke-miterlimit="10" points="594,71 594,99 
		556,99 556,71 	"/>
	<polyline fill="none" stroke="#000000" stroke-width="2" stroke-linecap="round" stroke-miterlimit="10" points="569,99 569,78 
		581,78 581,99 	"/>
	<polygon points="585,55 585,58 587,60.1 587,57 589,57 589,62.2 591,64.3 591,55 	"/>
	
		<polyline fill="none" stroke="#000000" stroke-width="2" stroke-linecap="round" stroke-linejoin="round" stroke-miterlimit="10" points="
		551.1,75.9 575,51.1 598.9,75.9 	"/>
	<path fill-rule="evenodd" clip-rule="evenodd" fill="#1D1D1B" d="M153,354h12v2h-12V354z"/>
	<path fill-rule="evenodd" clip-rule="evenodd" fill="#1D1D1B" d="M163,356h2v10h-2V356z"/>
	<path fill-rule="evenodd" clip-rule="evenodd" fill="#1D1D1B" d="M153,364h10v2h-10V364z"/>
	<path fill-rule="evenodd" clip-rule="evenodd" fill="#1D1D1B" d="M153,356h2v8h-2V356z"/>
	<path fill-rule="evenodd" clip-rule="evenodd" fill="#1D1D1B" d="M169,354h12v2h-12V354z"/>
	<path fill-rule="evenodd" clip-rule="evenodd" fill="#1D1D1B" d="M179,356h2v10h-2V356z"/>
	<path fill-rule="evenodd" clip-rule="evenodd" fill="#1D1D1B" d="M169,364h10v2h-10V364z"/>
	<path fill-rule="evenodd" clip-rule="evenodd" fill="#1D1D1B" d="M169,356h2v8h-2V356z"/>
	<path fill-rule="evenodd" clip-rule="evenodd" fill="#1D1D1B" d="M185,354h12v2h-12V354z"/>
	<path fill-rule="evenodd" clip-rule="evenodd" fill="#1D1D1B" d="M195,356h2v10h-2V356z"/>
	<path fill-rule="evenodd" clip-rule="evenodd" fill="#1D1D1B" d="M185,364h10v2h-10V364z"/>
	<path fill-rule="evenodd" clip-rule="evenodd" fill="#1D1D1B" d="M185,356h2v8h-2V356z"/>
	<path fill-rule="evenodd" clip-rule="evenodd" fill="#1D1D1B" d="M153,369h12v2h-12V369z"/>
	<path fill-rule="evenodd" clip-rule="evenodd" fill="#1D1D1B" d="M163,371h2v10h-2V371z"/>
	<path fill-rule="evenodd" clip-rule="evenodd" fill="#1D1D1B" d="M153,379h10v2h-10V379z"/>
	<path fill-rule="evenodd" clip-rule="evenodd" fill="#1D1D1B" d="M153,371h2v8h-2V371z"/>
	<path fill-rule="evenodd" clip-rule="evenodd" fill="#1D1D1B" d="M169,369h12v2h-12V369z"/>
	<path fill-rule="evenodd" clip-rule="evenodd" fill="#1D1D1B" d="M179,371h2v10h-2V371z"/>
	<path fill-rule="evenodd" clip-rule="evenodd" fill="#1D1D1B" d="M169,379h10v2h-10V379z"/>
	<path fill-rule="evenodd" clip-rule="evenodd" fill="#1D1D1B" d="M169,371h2v8h-2V371z"/>
	<path fill-rule="evenodd" clip-rule="evenodd" fill="#1D1D1B" d="M185,369h12v2h-12V369z"/>
	<path fill-rule="evenodd" clip-rule="evenodd" fill="#1D1D1B" d="M195,371h2v10h-2V371z"/>
	<path fill-rule="evenodd" clip-rule="evenodd" fill="#1D1D1B" d="M185,379h10v2h-10V379z"/>
	<path fill-rule="evenodd" clip-rule="evenodd" fill="#1D1D1B" d="M185,371h2v8h-2V371z"/>
	<path fill-rule="evenodd" clip-rule="evenodd" fill="#1D1D1B" d="M153,384h12v2h-12V384z"/>
	<path fill-rule="evenodd" clip-rule="evenodd" fill="#1D1D1B" d="M163,386h2v10h-2V386z"/>
	<path fill-rule="evenodd" clip-rule="evenodd" fill="#1D1D1B" d="M153,394h10v2h-10V394z"/>
	<path fill-rule="evenodd" clip-rule="evenodd" fill="#1D1D1B" d="M153,386h2v8h-2V386z"/>
	<path fill-rule="evenodd" clip-rule="evenodd" fill="#1D1D1B" d="M169,384h12v2h-12V384z"/>
	<path fill-rule="evenodd" clip-rule="evenodd" fill="#1D1D1B" d="M179,386h2v10h-2V386z"/>
	<path fill-rule="evenodd" clip-rule="evenodd" fill="#1D1D1B" d="M169,394h10v2h-10V394z"/>
	<path fill-rule="evenodd" clip-rule="evenodd" fill="#1D1D1B" d="M169,386h2v8h-2V386z"/>
	<path fill-rule="evenodd" clip-rule="evenodd" fill="#1D1D1B" d="M253,354h44v2h-44V354z"/>
	<path fill-rule="evenodd" clip-rule="evenodd" fill="#1D1D1B" d="M295,356h2v40h-2V356z"/>
	<path fill-rule="evenodd" clip-rule="evenodd" fill="#1D1D1B" d="M253,394h42v2h-42V394z"/>
	<path fill-rule="evenodd" clip-rule="evenodd" fill="#1D1D1B" d="M253,356h2v38h-2V356z"/>
	<path fill="#1D1D1B" d="M586.9,365.7L586.9,365.7L586.9,365.7c0.2-0.4,0.3-0.8,0.3-1.2c0-1.4-1.1-2.5-2.5-2.5c-0.8,0-1.5,0.4-1.9,1
		l0,0l0,0c-0.1,0.2-0.2,0.3-0.3,0.5l-10.3,16.8l-4.7-5.8v0c-0.4-0.7-1.2-1.1-2.1-1.1c-1.4,0-2.5,1.1-2.5,2.5c0,0.7,0.3,1.3,0.7,1.8
		l6.3,8.5h0c0.4,0.7,1.2,1.1,2.1,1.1c1,0,1.9-0.6,2.3-1.5l12.4-19.8C586.8,365.8,586.9,365.8,586.9,365.7z"/>
	<path d="M399.9,959.6c-1.8,0.8-3.8,1.3-5.8,1.6c2.1-1.2,3.7-3.2,4.4-5.6c-2,1.2-4.1,2-6.4,2.5c-1.8-2-4.5-3.2-7.4-3.2
		c-5.6,0-10.1,4.5-10.1,10.1c0,0.8,0.1,1.6,0.3,2.3c-8.4-0.4-15.8-4.4-20.8-10.6c-0.9,1.5-1.4,3.2-1.4,5.1c0,3.5,1.8,6.6,4.5,8.4
		c-1.7-0.1-3.2-0.5-4.6-1.3c0,0,0,0.1,0,0.1c0,4.9,3.5,9,8.1,9.9c-0.8,0.2-1.7,0.4-2.7,0.4c-0.7,0-1.3-0.1-1.9-0.2
		c1.3,4,5,6.9,9.4,7c-3.5,2.7-7.8,4.3-12.6,4.3c-0.8,0-1.6,0-2.4-0.1c4.5,2.9,9.8,4.5,15.5,4.5c18.6,0,28.8-15.4,28.8-28.8
		c0-0.4,0-0.9,0-1.3C396.8,963.4,398.6,961.6,399.9,959.6z"/>
	<path d="M86.8,965.8H79v-5.1c0-1.9,1.3-2.4,2.2-2.4c0.9,0,5.5,0,5.5,0v-8.4l-7.6,0c-8.4,0-10.3,6.3-10.3,10.3v5.6h-4.9v8.7h4.9
		c0,11.2,0,24.6,0,24.6H79c0,0,0-13.6,0-24.6h6.9L86.8,965.8z"/>
	<g>
		<path d="M198.9,971h-7.5v-7.5c0-0.6-0.5-1-1-1h-2.1c-0.6,0-1,0.5-1,1v7.5h-7.5c-0.6,0-1,0.5-1,1v2.1c0,0.6,0.5,1,1,1h7.5v7.5
			c0,0.6,0.5,1,1,1h2.1c0.6,0,1-0.5,1-1v-7.5h7.5c0.6,0,1-0.5,1-1v-2.1C199.9,971.5,199.5,971,198.9,971z"/>
		<path d="M173.6,977.6c-1.6-1.1-3-2.8-3-3.3c0-0.9,0.1-1.4,2.1-3c2.7-2.1,4.1-4.8,4.1-7.7c0-2.6-0.8-5-2.2-6.6h1.1
			c0.2,0,0.4-0.1,0.6-0.2l3-2.1c0.4-0.3,0.5-0.7,0.4-1.2c-0.1-0.4-0.5-0.7-1-0.7h-13.2c-1.4,0-2.9,0.3-4.4,0.8
			c-4.8,1.7-8.2,5.8-8.2,10c0,6,4.6,10.5,10.8,10.6c-0.1,0.5-0.2,0.9-0.2,1.4c0,0.9,0.2,1.8,0.7,2.6c-0.1,0-0.1,0-0.2,0
			c-5.9,0-11.2,2.9-13.2,7.2c-0.5,1.1-0.8,2.2-0.8,3.4c0,1.1,0.3,2.1,0.8,3.1c1.3,2.3,4,4,7.7,5c1.9,0.5,3.9,0.7,6.1,0.7
			c1.9,0,3.7-0.2,5.4-0.7c5.2-1.5,8.6-5.4,8.6-9.8C178.7,982.8,177.3,980.2,173.6,977.6z M156.9,987.4c0-3.1,3.9-5.8,8.4-5.8h0.1
			c1,0,1.9,0.2,2.8,0.4c0.3,0.2,0.6,0.4,0.9,0.6c2.1,1.4,3.5,2.4,3.8,3.9c0.1,0.4,0.1,0.8,0.1,1.1c0,3.9-2.9,5.8-8.6,5.8
			C160.3,993.4,156.9,990.8,156.9,987.4z M161,958c0.7-0.8,1.6-1.2,2.7-1.2l0.1,0c2.9,0.1,5.7,3.3,6.2,7.3c0.3,2.2-0.2,4.3-1.3,5.5
			c-0.7,0.8-1.6,1.2-2.7,1.2c0,0,0,0,0,0h0c-2.9-0.1-5.7-3.5-6.2-7.4C159.5,961.2,159.9,959.3,161,958z"/>
	</g>
	<g>
		<path d="M290,997.8V979c0,0-0.6-5-5.4-5c-4.9,0-5.8,4.8-5.8,4.8v19.1h-10l0.2-31.1h9.7l-0.1,3.9c0,0,2-5.1,9.7-5.1
			c7.6,0,11.1,4.4,11.7,12.6c0,8.2,0,19.7,0,19.7H290z M256.4,962.3c-3.4,0-6.2-2.5-6.2-5.5c0-3,2.8-5.5,6.2-5.5s6.2,2.5,6.2,5.5
			S259.9,962.3,256.4,962.3z M262.6,997.9h-12.3v-31.1l12.3-0.1V997.9z"/>
	</g>
	<circle fill="none" stroke="#000000" stroke-width="2" stroke-linecap="round" stroke-miterlimit="10" cx="475" cy="275" r="24"/>
	<polyline fill="none" stroke="#000000" stroke-width="2" stroke-linecap="round" stroke-miterlimit="10" points="264.1,469.9 
		275,459.1 285.9,469.9 	"/>
	
		<line fill="none" stroke="#000000" stroke-width="2" stroke-linecap="round" stroke-miterlimit="10" x1="275" y1="491" x2="275" y2="459.6"/>
	<polyline fill="none" stroke="#000000" stroke-width="2" stroke-linecap="round" stroke-miterlimit="10" points="480.1,464.1 
		490.9,475 480.1,485.9 	"/>
	
		<line fill="none" stroke="#000000" stroke-width="2" stroke-linecap="round" stroke-miterlimit="10" x1="459" y1="475" x2="490.4" y2="475"/>
	<polyline fill="none" stroke="#000000" stroke-width="2" stroke-linecap="round" stroke-miterlimit="10" points="585.9,480.1 
		575,490.9 564.1,480.1 	"/>
	
		<line fill="none" stroke="#000000" stroke-width="2" stroke-linecap="round" stroke-miterlimit="10" x1="575" y1="459" x2="575" y2="490.4"/>
	<path fill-rule="evenodd" clip-rule="evenodd" d="M53,457h3v3h-3V457z"/>
	<path fill-rule="evenodd" clip-rule="evenodd" d="M61,457h36v3H61V457z"/>
	<path fill-rule="evenodd" clip-rule="evenodd" d="M53,468h3v3h-3V468z"/>
	<path fill-rule="evenodd" clip-rule="evenodd" d="M61,468h36v3H61V468z"/>
	<path fill-rule="evenodd" clip-rule="evenodd" d="M53,479h3v3h-3V479z"/>
	<path fill-rule="evenodd" clip-rule="evenodd" d="M61,479h36v3H61V479z"/>
	<path fill-rule="evenodd" clip-rule="evenodd" d="M53,490h3v3h-3V490z"/>
	<path fill-rule="evenodd" clip-rule="evenodd" d="M61,490h36v3H61V490z"/>
	<g>
		<path fill="#1D1D1B" d="M171,456v15h-16v-15H171 M173,454h-20v19h20V454L173,454z"/>
	</g>
	<g>
		<path fill="#1D1D1B" d="M195,479v15h-16v-15H195 M197,477h-20v19h20V477L197,477z"/>
	</g>
	<g>
		<path fill="#1D1D1B" d="M171,479v15h-16v-15H171 M173,477h-20v19h20V477L173,477z"/>
	</g>
	<g>
		<path fill="#1D1D1B" d="M195,456v15h-16v-15H195 M197,454h-20v19h20V454L197,454z"/>
	</g>
	<rect x="250" y="650" fill="none" width="50" height="50"/>
	<polygon points="285,697.2 287.1,695.2 266.9,675 287.1,654.8 285,652.8 262.8,675 	"/>
	<polyline fill="none" stroke="#000000" stroke-width="2" stroke-linecap="round" stroke-miterlimit="10" points="91,565 78,565 
		78,552 	"/>
	<polygon fill="none" stroke="#000000" stroke-width="2" stroke-linecap="round" stroke-miterlimit="10" points="92,599 58,599 
		58,551 78,551 92,565 	"/>
	<text transform="matrix(1 0 0 1 65 587)" font-family="'MyriadPro-Regular'" font-size="12">PDF</text>
	<circle fill="none" stroke="#000000" stroke-width="2" stroke-linecap="round" stroke-miterlimit="10" cx="171" cy="570" r="16"/>
	<line fill="none" stroke="#000000" stroke-width="4" stroke-miterlimit="10" x1="182.2" y1="582.2" x2="195.5" y2="595.5"/>
	<path fill="none" stroke="#000000" stroke-width="2" stroke-linecap="round" stroke-linejoin="round" stroke-miterlimit="10" d="
		M379,593c-2.2,0-4,1.8-4,4v-37c0-2.2,1.8-4,4-4h16c2.2,0,4,1.8,4,4v29c0,2.2-1.8,4-4,4H379z"/>
	<path fill="none" stroke="#000000" stroke-width="2" stroke-linecap="round" stroke-linejoin="round" stroke-miterlimit="10" d="
		M371,593c2.2,0,4,1.8,4,4v-37c0-2.2-1.8-4-4-4h-16c-2.2,0-4,1.8-4,4v29c0,2.2,1.8,4,4,4H371z"/>
	<circle cx="493" cy="571" r="2"/>
	<path fill="none" stroke="#000000" stroke-width="2" stroke-linecap="round" stroke-miterlimit="10" d="M490,565v-14h-30v14"/>
	<path fill="none" stroke="#000000" stroke-width="2" stroke-linecap="round" stroke-miterlimit="10" d="M490,579v20h-30v-20H490z"
		/>
	<path fill="none" stroke="#000000" stroke-width="2" stroke-linecap="round" stroke-miterlimit="10" d="M460,590h-7
		c-1.1,0-2-0.9-2-2v-21c0-1.1,0.9-2,2-2h44c1.1,0,2,0.9,2,2v21c0,1.1-0.9,2-2,2h-7"/>
	
		<line fill="none" stroke="#000000" stroke-width="2" stroke-linecap="round" stroke-miterlimit="10" x1="485" y1="585" x2="465" y2="585"/>
	
		<line fill="none" stroke="#000000" stroke-width="2" stroke-linecap="round" stroke-miterlimit="10" x1="481" y1="589" x2="465" y2="589"/>
	
		<line fill="none" stroke="#000000" stroke-width="2" stroke-linecap="round" stroke-miterlimit="10" x1="485" y1="593" x2="465" y2="593"/>
	<path fill="none" stroke="#000000" stroke-width="2" stroke-linecap="round" stroke-linejoin="round" stroke-miterlimit="10" d="
		M298,575c0,0-10.3,12-23,12s-23-12-23-12s10.3-12,23-12S298,575,298,575z"/>
	<path fill="none" stroke="#000000" stroke-width="2" stroke-linecap="round" stroke-linejoin="round" stroke-miterlimit="10" d="
		M283.2,564.6c1.8,2,2.8,4.5,2.8,7.4c0,6.1-4.9,11-11,11s-11-4.9-11-11c0-2.8,1.1-5.4,2.8-7.4"/>
	<circle fill="none" stroke="#000000" stroke-width="2" stroke-miterlimit="10" cx="275" cy="572" r="4"/>
	<circle fill="none" stroke="#000000" stroke-width="2" stroke-linecap="round" stroke-miterlimit="10" cx="375" cy="675" r="24"/>
	<g>
		<path d="M373.5,680.4v-1.5c0-1.4,0.3-2.2,1.1-3.2l2.4-3.3c1.3-1.7,1.7-2.5,1.7-3.8c0-2-1.4-3.3-3.5-3.3c-2,0-3.3,1.2-3.7,3.4
			c0,0.2-0.2,0.3-0.4,0.3l-2.3-0.4c-0.2,0-0.3-0.2-0.3-0.4c0.5-3.4,3-5.7,6.7-5.7c3.9,0,6.5,2.5,6.5,6.1c0,1.7-0.6,3-1.8,4.7
			l-2.4,3.3c-0.7,1-0.9,1.5-0.9,2.7v1.1c0,0.2-0.1,0.4-0.4,0.4h-2.4C373.7,680.8,373.5,680.6,373.5,680.4z M373.4,683.9
			c0-0.2,0.1-0.4,0.4-0.4h2.7c0.2,0,0.4,0.1,0.4,0.4v3.1c0,0.2-0.1,0.4-0.4,0.4h-2.7c-0.2,0-0.4-0.1-0.4-0.4V683.9z"/>
	</g>
	
		<polyline fill="none" stroke="#000000" stroke-width="2" stroke-linecap="round" stroke-linejoin="round" stroke-miterlimit="10" points="
		589.4,565 563.4,591 557.4,592.6 559,586.6 585,560.6 	"/>
	<path d="M591.6,563.9c0,0,0.7-0.7,0.7-0.7c1.5-1.5,1.5-4,0-5.5c-1.5-1.5-4-1.5-5.5,0c0,0-0.7,0.7-0.7,0.7L591.6,563.9z"/>
	<polygon points="559.2,586.5 563.5,590.8 557.8,592.2 	"/>
	<circle fill="none" stroke="#000000" stroke-width="2" stroke-linecap="round" stroke-miterlimit="10" cx="71" cy="670" r="16"/>
	<line fill="none" stroke="#000000" stroke-width="4" stroke-miterlimit="10" x1="82.2" y1="682.2" x2="95.5" y2="695.5"/>
	<line fill="none" stroke="#000000" stroke-width="2" stroke-miterlimit="10" x1="63" y1="670" x2="79" y2="670"/>
	<circle fill="none" stroke="#000000" stroke-width="2" stroke-linecap="round" stroke-miterlimit="10" cx="171" cy="670" r="16"/>
	<line fill="none" stroke="#000000" stroke-width="4" stroke-miterlimit="10" x1="182.2" y1="682.2" x2="195.5" y2="695.5"/>
	<line fill="none" stroke="#000000" stroke-width="2" stroke-miterlimit="10" x1="163" y1="670" x2="179" y2="670"/>
	<line fill="none" stroke="#000000" stroke-width="2" stroke-miterlimit="10" x1="171" y1="662" x2="171" y2="678"/>
	<path d="M476.4,950.1c-13.6,0-20.4,9.7-20.4,17.9c0,4.9,1.9,9.3,5.9,10.9c0.7,0.3,1.2,0,1.4-0.7c0.1-0.5,0.4-1.8,0.6-2.3
		c0.2-0.7,0.1-1-0.4-1.6c-1.2-1.4-1.9-3.1-1.9-5.6c0-7.2,5.4-13.7,14.1-13.7c7.7,0,11.9,4.7,11.9,11c0,8.2-3.6,15.2-9.1,15.2
		c-3,0-5.2-2.5-4.5-5.5c0.9-3.6,2.5-7.5,2.5-10.1c0-2.3-1.3-4.3-3.9-4.3c-3.1,0-5.5,3.2-5.5,7.4c0,2.7,0.9,4.5,0.9,4.5
		s-3.1,13.3-3.7,15.6c-1.1,4.6-0.2,10.3-0.1,10.9c0,0.3,0.5,0.4,0.7,0.2c0.3-0.4,3.9-4.9,5.2-9.4c0.4-1.3,2-7.9,2-7.9
		c1,1.9,3.9,3.6,7,3.6c9.2,0,15.4-8.4,15.4-19.6C494.5,958,487.3,950.1,476.4,950.1z"/>
	<path fill="#1D1D1B" d="M586.8,989.6c-0.9,0.4-2.7,0.8-4,0.8c-3.9,0.1-4.7-2.8-4.7-4.8v-15.3h9.9v-7.4h-9.8v-12.5c0,0-7.1,0-7.2,0
		c-0.1,0-0.3,0.1-0.4,0.4c-0.4,3.8-2.2,10.6-9.7,13.2v6.3h5v16.1c0,5.5,4.1,13.3,14.8,13.1c3.6-0.1,7.6-1.6,8.5-2.9L586.8,989.6z"/>
	<path fill-rule="evenodd" clip-rule="evenodd" d="M450,656h2v9h-2V656z"/>
	<path fill-rule="evenodd" clip-rule="evenodd" d="M452,656h7v2h-7V656z"/>
	<path fill-rule="evenodd" clip-rule="evenodd" d="M500,656v2h-9v-2H500z"/>
	<path fill-rule="evenodd" clip-rule="evenodd" d="M500,658v7h-2v-7H500z"/>
	<path fill-rule="evenodd" clip-rule="evenodd" d="M500,694h-2v-9h2V694z"/>
	<path fill-rule="evenodd" clip-rule="evenodd" d="M498,694h-7v-2h7V694z"/>
	<path fill-rule="evenodd" clip-rule="evenodd" d="M450,694v-2h9v2H450z"/>
	<path fill-rule="evenodd" clip-rule="evenodd" d="M450,692v-7h2v7H450z"/>
	<path fill-rule="evenodd" clip-rule="evenodd" d="M455,661h40v2h-40V661z"/>
	<path fill-rule="evenodd" clip-rule="evenodd" d="M455,687h40v2h-40V687z"/>
	<path fill-rule="evenodd" clip-rule="evenodd" d="M455,663h2v24h-2V663z"/>
	<path fill-rule="evenodd" clip-rule="evenodd" d="M493,662h2v25h-2V662z"/>
	<path fill-rule="evenodd" clip-rule="evenodd" d="M560,656h40v2h-40V656z"/>
	<path fill-rule="evenodd" clip-rule="evenodd" d="M598,658h2v26h-2V658z"/>
	<path fill-rule="evenodd" clip-rule="evenodd" d="M560,682h38v2h-38V682z"/>
	<path fill-rule="evenodd" clip-rule="evenodd" d="M560,658h2v24h-2V658z"/>
	<path fill-rule="evenodd" clip-rule="evenodd" d="M550,666h8v2h-8V666z"/>
	<path fill-rule="evenodd" clip-rule="evenodd" d="M588,686h2v8h-2V686z"/>
	<path fill-rule="evenodd" clip-rule="evenodd" d="M550,692h38v2h-38V692z"/>
	<path fill-rule="evenodd" clip-rule="evenodd" d="M550,668h2v24h-2V668z"/>
	<path fill-rule="evenodd" clip-rule="evenodd" d="M569,686h2v6h-2V686z"/>
	<path fill-rule="evenodd" clip-rule="evenodd" d="M60,755.8h40v2H60V755.8z"/>
	<path fill-rule="evenodd" clip-rule="evenodd" d="M98,757.8h2v26h-2V757.8z"/>
	<path fill-rule="evenodd" clip-rule="evenodd" d="M60,781.8h38v2H60V781.8z"/>
	<path fill-rule="evenodd" clip-rule="evenodd" d="M60,757.8h2v24h-2V757.8z"/>
	<path fill-rule="evenodd" clip-rule="evenodd" d="M50,765.8h8v2h-8V765.8z"/>
	<path fill-rule="evenodd" clip-rule="evenodd" d="M88,785.8h2v8h-2V785.8z"/>
	<path fill-rule="evenodd" clip-rule="evenodd" d="M50,791.8h38v2H50V791.8z"/>
	<path fill-rule="evenodd" clip-rule="evenodd" d="M50,767.8h2v24h-2V767.8z"/>
	<path fill-rule="evenodd" clip-rule="evenodd" d="M79,757.8h2v24h-2V757.8z"/>
	<path fill-rule="evenodd" clip-rule="evenodd" fill="none" stroke="#1D1D1B" stroke-width="2" stroke-miterlimit="10" d="
		M164,750.8v47l11-9.4l11,9.4v-47H164z"/>
	<circle fill="none" stroke="#000000" stroke-width="2" stroke-miterlimit="10" cx="289" cy="795.8" r="3"/>
	<circle fill="none" stroke="#000000" stroke-width="2" stroke-miterlimit="10" cx="276" cy="795.8" r="3"/>
	<circle cx="252" cy="753.8" r="2"/>
	
		<path fill="none" stroke="#000000" stroke-width="1.9868" stroke-linecap="round" stroke-linejoin="round" stroke-miterlimit="10" d="
		M291,792.8c0,0-12.7,0-15.3,0c-3.4,0-3.9-1.7-4.5-4l-8-32.3c-0.7-2.4-1.7-3.7-4.5-3.7c0,0-4.8,0-6.7,0"/>
	
		<polyline fill="none" stroke="#000000" stroke-width="1.9868" stroke-linecap="round" stroke-linejoin="round" stroke-miterlimit="10" points="
		266,765.8 297,765.8 289.8,784.8 270.6,784.8 	"/>
	<path fill-rule="evenodd" clip-rule="evenodd" d="M386.5,762.2l1.1,1.1l-24.1,24.2l-1.1-1.1L386.5,762.2z"/>
	<path fill-rule="evenodd" clip-rule="evenodd" d="M363.5,762.2l24.1,24.2l-1.1,1.1l-24.2-24.2L363.5,762.2z"/>
	<path fill-rule="evenodd" clip-rule="evenodd" fill="#1D1D1B" stroke="#1D1D1B" stroke-width="2" stroke-miterlimit="10" d="
		M464.3,750.8v47l11-9.4l11,9.4v-47H464.3z"/>
	
		<circle fill="none" stroke="#000000" stroke-width="2" stroke-linecap="round" stroke-miterlimit="10" cx="575.2" cy="774.8" r="24"/>
	<path fill-rule="evenodd" clip-rule="evenodd" d="M586.7,762.2l1.1,1.1l-24.1,24.2l-1.1-1.1L586.7,762.2z"/>
	<path fill-rule="evenodd" clip-rule="evenodd" d="M563.7,762.2l24.1,24.2l-1.1,1.1l-24.2-24.2L563.7,762.2z"/>
	<path fill="none" stroke="#000000" stroke-width="2" stroke-linecap="round" stroke-miterlimit="10" d="M64.7,878.7
		c-1.6,1.6-1.6,4.1,0,5.6c1.6,1.6,4.1,1.6,5.6,0l15.1-15.1"/>
	<path fill="none" stroke="#000000" stroke-width="2" stroke-linecap="round" stroke-miterlimit="10" d="M77,860.8l-19.7,19.7
		c-3.1,3.1-3.1,8.2,0,11.3c3.1,3.1,8.2,3.1,11.3,0l24.6-24.6c2.3-2.3,2.3-6.1,0-8.5c-2.3-2.3-6.1-2.3-8.5,0l-20,20"/>
</g>
</svg>
