<?xml version="1.0" encoding="UTF-8" standalone="no"?>
<!DOCTYPE svg PUBLIC "-//W3C//DTD SVG 1.1//EN" "http://www.w3.org/Graphics/SVG/1.1/DTD/svg11.dtd">
<svg xmlns="http://www.w3.org/2000/svg" xmlns:xlink="http://www.w3.org/1999/xlink" version="1.1"
     viewbox="0 0 1024.00 1448.20" width="1024.00" height="1448.20" style="overflow:hidden" xml:space="preserve">
<defs>
<style type="text/css">
<![CDATA[
@font-face { font-family: 'f0aIQVZW415#53'; font-weight: normal; font-style: normal;  src: url(svg/font14.ttf) format('truetype'); }
@font-face { font-family: 'f0aIQVZW410#21'; font-weight: normal; font-style: normal;  src: url(svg/font9.ttf) format('truetype'); }
@font-face { font-family: 'f0aIQVZW49#16'; font-weight: normal; font-style: normal;  src: url(svg/font8.ttf) format('truetype'); }
@font-face { font-family: 'f0aIQVZW412#30'; font-weight: normal; font-style: normal;  src: url(svg/font11.ttf) format('truetype'); }
@font-face { font-family: 'f0aIQVZW413#44'; font-weight: normal; font-style: normal;  src: url(svg/font12.ttf) format('truetype'); }
@font-face { font-family: 'f0aIQVZW416#39'; font-weight: normal; font-style: normal;  src: url(svg/font15.ttf) format('truetype'); }
@font-face { font-family: 'f0aIQVZW411#26'; font-weight: normal; font-style: normal;  src: url(svg/font10.ttf) format('truetype'); }
@font-face { font-family: 'f0aIQVZW414#34'; font-weight: normal; font-style: normal;  src: url(svg/font13.ttf) format('truetype'); }

.s0aIQVZW40 { fill: rgb( 91, 197, 242); font-family: 'f0aIQVZW49#16'; font-size: 16.30px; }
.s0aIQVZW41 { fill: rgb(255, 255, 255); font-family: 'f0aIQVZW410#21'; font-size: 14.60px; }
.s0aIQVZW42 { fill: rgb(255, 255, 255); font-family: 'f0aIQVZW411#26'; font-size: 14.60px; }
.s0aIQVZW43 { fill: rgb(255, 255, 255); font-family: 'f0aIQVZW412#30'; font-size: 14.60px; }
.s0aIQVZW44 { fill: rgb(255, 255, 255); font-family: 'f0aIQVZW413#44'; font-size: 44.70px; }
.s0aIQVZW45 { fill: rgb( 36,  87,  33); font-family: 'f0aIQVZW414#34'; font-size: 25.80px; }
.s0aIQVZW46 { fill: rgb(255, 255, 255); font-family: 'f0aIQVZW415#53'; font-size: 12.00px; }
.s0aIQVZW47 { fill: rgb(255, 255, 255); font-family: 'f0aIQVZW416#39'; font-size: 12.00px; }
]]>
</style>
</defs>
<image x="0" y="0" width="1024" height="1448.2" xlink:href="svg/svg.jpg"/>
<g class="s0aIQVZW40" transform="translate(73 993.5)" >
<text y="0" x="1.25 9.9 18.75 26.4 35.55 43.65 49.8 57 66.4 71.8 74.15 82.15 95.5 104.1 111.65 117.85 124.8 133.1 141.35 147.25 151.5 159 168.85 177.6 187.85 196.1 199.6 205.4 215.25 223.1 229.75 234.1 239.7 242.25 250.2 261.25 272.3 280.35 290.5 302.9 312.1 319.7 328.7 336.3 342.5 351 355.3 358.85 365.8 375.95 383.45 391.5 397.5 403.7 ">Vous&#xEA;tesl&#x2019;ambassadricedudispositifADEDAg&#xE9;n&#xE9;ralis&#xE9;cette</text>
<text y="0" x="450.05 459.2 467.5 476.5 483.45 489.8 497.85 504 511.6 525.15 532.75 541.95 547.25 554.75 562.05 570.3 583.5 597 604.6 613.8 621.35 629.8 637.2 644.2 652.2 658.15 665.55 674.4 682.05 690.6 698.9 706.4 713.65 721.95 734.25 743.75 751.35 760.25 769.25 779.3 788 796.85 801.5 811.7 819.3 831.6 841.65 846.3 854.6 ">Concr&#xE8;tement,commentavez-vousaccompagn&#xE9;P&#xF4;leemploi</text>
<text y="19.6" x="0 7.95 16.55 25.55 33.55 43.4 51.65 59.6 67.85 76.8 83 91.85 100.35 106.5 113.7 123.1 127.75 134.95 143.5 151.05 160.3 167.9 176.9 184.35 191.6 200.45 209 219.05 227.8 236.65 241.3 251.45 259.05 271.4 281.4 286.05 294.35 300.85 308.9 316.7 325.75 333.85 339.15 349 356.6 362.5 376 384.05 ">ann&#xE9;edanstouteslesagencesdeP&#xF4;leemploietquipermet</text>
<text y="19.6" x="449.5 457.75 465.7 473.95 483.35 487.7 497.85 511 514.55 521.5 531.65 539.25 549.3 559.35 563.7 571.95 579.45 589.3 599.45 599.8 610.9 621.9 629.95 640.1 654.7 ">danslamiseenplaced'ADEDA?</text>
<text y="39.2" x="0.5 5.95 8.3 16.55 24.05 31.9 40.3 47.9 52.4 58.9 67.55 74.65 82.65 92.55 100.15 105.6 112.6 120.85 129.55 138.55 145.7 154.15 161.1 169.95 178 184.35 192.95 200.1 209.3 217.35 225.2 238.4 246.9 251.55 259.15 268.35 274.55 282.15 291.15 299.4 307.35 316.55 322.7 329.9 337.2 343.65 352.4 361.2 369.3 375.65 384.7 393.1 401.4 ">l&#x2019;accueildespersonnessourdesetmalentendantes.Pourquoi</text>
<text y="58.75" x="0 8.45 15.9 24.15 28.05 35.95 44.2 51.7 59.15 65.9 75.85 82.05 91.85 100.4 109.4 118.9 126.85 132.75 138.95 146.9 150.8 159.8 167.4 175.9 183.35 193.2 201.45 204.95 210.75 220.55 228.45 235.05 239.45 245 247.55 255.85 265.7 274.5 282.6 290.95 299.7 308.5 313.2 323.35 330.95 343.25 353.3 357.95 366.25 373.9 ">avoiraccept&#xE9;deparrainercedispositifpourP&#xF4;leemploi?</text>
<text y="124" x="448.4 459.15 466.55 473.55 481.55 487.5 494.9 503.75 511.4 520.25 528.85 534.05 540.95 551.45 559.5 565.7 575.85 583.1 591.4 598.65 605.6 611.95 620.25 629.45 635.65 643.6 653.1 663.8 671.9 680.9 690.3 696.95 701.3 707.45 715.55 723.95 729.5 733.8 742.1 753 761.55 771.4 779.6 783.15 790.1 797.05 802.95 806.85 820.05 824 832.65 841.05 846.65 850.9 859.2 ">Avez-vousd&#xE9;j&#xE0;&#xE9;t&#xE9;confront&#xE9;e&#xE0;unesituationdediscrimination</text>
<text y="143.65" x="448.75 455.9 463.95 472.65 477.3 487.1 500.35 508.25 514.65 521.65 530.7 540.55 549.1 559.45 564.9 567.75 575.35 587.7 597.7 602.35 610.65 618.35 ">surlemarch&#xE9;del&#x2019;emploi?</text>
</g>
<g class="s0aIQVZW41" transform="translate(73.35 1045.25)" >
<text y="0" x="448.55 453.85 456.65 463.85 469.4 476.55 483.9 487.15 498.6 507.65 515.1 521.65 529.5 535.15 541.9 547.3 554.65 562.75 570.15 576.75 582.15 587.9 591.15 598.25 604.8 613.15 622 627.35 635.25 642.1 650.9 654 660.6 668.9 675.15 683.1 689.9 695.65 702.8 706.15 709.65 712.8 719.9 724.05 732.4 739.6 749.25 755.65 762.9 770.05 777.1 783.3 789.9 798.65 801.8 809.35 815.55 822.75 825.85 832.4 838.45 844.65 849.25 852.75 855.7 863.1 869.9 ">J&#x2019;aianim&#xE9;destutosdestin&#xE9;s&#xE0;touslesconseillersenagenceslocales.L&#x2019;id&#xE9;e</text>
<text y="17.5" x="449.55 456.1 461.6 469.25 476.65 486.5 489.65 496.75 504.15 510.8 518.25 526.15 533.55 540.55 547.65 555.1 558.15 564.75 573.55 580.85 585 592.15 603.8 606.8 613.9 618.05 624.6 633.4 640.3 646.85 652.6 659.15 664.85 671.15 674.25 680.8 689.6 700.9 708.15 713.35 722.15 725.3 731.85 740.6 ">estdeleurdonnerlespremi&#xE8;resbases,lesmotslesp</text>
<text y="17.5" x="748 751.4 758.3 766.5 772.55 775.9 787.6 795 798.1 804.65 ">lussimples</text>
<text y="35.05" x="449.55 456.9 466.8 469.85 479.65 482.8 489.9 496.65 504.25 511.25 520.4 527.8 534.35 542.55 548.65 551.3 558.9 565.9 572.5 578.15 584.4 591.35 599.3 606.65 613.6 620.35 626.6 633.15 640.15 647.3 650.65 654.15 657.65 660.9 667.35 672.65 680.6 687.4 696.25 699.35 705.9 714.65 722 729.4 736.75 740.15 743.15 749.15 755.15 ">delalanguedessignes,pouraccueillirtouslespublics.</text>
<text y="39.25" x="1 6.45 12.9 21.35 28.15 35.15 39.1 44.7 52.5 59.75 66.6 73.05 80.95 86.55 94.3 101.55 105.55 112.8 119.2 127.1 132.7 140.45 147.1 154.8 160.85 168.6 180.2 191.4 200 205.15 212.95 219.55 227.65 230.65 240.1 251.35 259.1 266 273.25 280.15 286 292.5 295.9 298.85 305.25 313.75 320.5 327.5 334 340.7 347.7 354.25 361.45 367 371.15 377.25 384.1 391.1 394.25 397.7 400.65 407.65 411.35 ">Lespersonnessourdessontcommetoutlemonde.Ellespeuventtravailler,</text>
<text y="56.75" x="0.3 6.8 13.8 21.85 25.3 32.5 39.45 45.8 52.15 58.85 67.5 77.65 81.05 84.35 91.65 103.5 111.05 114.3 122.35 125.75 132.2 137.9 148.05 151.3 158.55 165.45 173.2 180.35 189.75 197.25 204 212.5 218.75 221.55 229.3 236.45 243.15 252.2 259.7 264 272 279.15 286.65 292.5 299.45 308.85 316.4 323.65 330.65 339.75 343 352.4 360.25 363.2 369.45 376.5 384 390.25 393.15 398.95 402 ">avoiracc&#xE8;s&#xE0;l&#x2019;emploi.Lalanguedessignespropos&#xE9;edansledispositi&#xE000;</text>
<text y="74.3" x="0 9.3 18.45 25 32.95 44.25 50.95 57.8 62.15 73.25 79.45 87.2 94.3 103.75 114.85 121.65 124.75 128 130.8 137.65 144.75 151.1 157.55 163.5 169.75 176.5 183.25 186.4 189.2 194.45 200.65 207.85 213.65 220.75 224.5 229.55 237.2 243.65 250.75 257.85 266.7 272.6 278.85 284.1 289.5 296.4 303.2 306 312.25 320.5 327.1 333.95 338.35 342.7 345.35 352.2 356 362.25 368 ">ADEDApermetunmeilleuraccueil,etsurtoutdecasserlesbarri&#xE8;res.</text>
<text y="109.4" x="1 7.25 15.05 18.05 27.15 34.15 45.7 52.95 55.95 63.65 68.95 75.4 80.75 88.8 96 105.2 110.8 117.8 121.5 128.7 131.5 137.55 147.05 154.25 161.55 168.7 172 174.8 183.1 190.35 199.9 203 206 213 224.6 231.8 234.8 242.55 248.15 253.7 256.9 262.1 269.35 277.1 279.65 287.35 293.7 299.25 303.25 312.35 318.95 325 331.1 337.5 342.9 348.85 352 359.25 362.2 371.25 379.85 385 392.75 399.5 405 ">P&#xF4;leemploiestunservicepublicdel&#x2019;emploi:ildoit&#xEA;treaccessible&#xE0;tous,</text>
<text y="126.95" x="0.35 6.4 13.4 20.4 23.6 29.1 35.5 40.85 48.5 58.05 61 70.55 77.25 83.65 89.25 98.1 105.35 111.8 120.25 127.45 131.4 137.5 142.1 148.5 153.45 161.95 169.1 173.1 180.45 184.75 191.2 196.6 202.5 205.35 213.1 220.35 227.25 234.3 237.05 245.15 251.5 258.9 266.25 269.65 272.85 279.5 285.1 292.1 296 301.5 304.35 312.1 321.2 328.45 335.45 342.1 350.65 353.5 362.5 368.1 375.5 381.9 384.7 391 396.25 403.15 ">carilest&#xE0;labasedesprojetspro&#xE000;essionnelsetd&#x2019;insertiondanslasoci&#xE9;t&#xE9;.</text>
<text y="124" x="449.75 460.85 468.15 471.1 476.65 484.4 491.4 498.55 505.55 514.35 519.15 522.4 528.9 534.15 541.3 544.05 552.4 558.65 566.65 570.15 573.3 579.75 587.3 590.25 597.4 604.8 611.85 618.55 624.8 636.1 645.9 653.15 657.35 664.5 676.15 679.15 686.3 690.4 699.55 706.9 714.1 725.4 732.55 739.6 747 756.1 763.55 772.75 778.25 783.55 790 797.25 806.6 816.05 822.55 827.9 ">Oui,quandj&#x2019;&#xE9;taiscoll&#xE9;gienne,mapremi&#xE8;redemandedestagea&#xE9;t&#xE9;</text>
<text y="141.55" x="449.9 454.05 460.75 465.6 472.4 478.15 484.9 494.65 501.6 508.75 516.1 523.4 530.5 539.65 547.15 551.5 558.65 565.65 573.1 582.5 589.65 596.4 602.1 606.25 613.4 620.65 625.35 628.1 633.85 643.25 650.4 660.4 664.75 671.85 674.6 680.35 688.25 697.6 705.05 714.8 726.15 735.35 741.4 748.85 753 760.75 763.4 768.75 775.85 782 787.55 794.65 797.9 802.1 811.9 816.05 822.8 829.4 836.8 839.95 847.05 ">re&#xE000;us&#xE9;eparunegrandeentrepriseenraisondemasurdit&#xE9;.Fairereculer</text>
<text y="144.5" x="0.55 7.4 14.45 17.4 25.15 34.9 46.15 53.85 56.65 62.2 68.35 71.4 77.85 83.15 91.3 94.2 103.05 110.65 117.5 123.95 129.25 134.8 137.6 145.35 154.45 161.75 168.15 176.25 182.3 190.1 201.65 208.45 214.85 220 227 233.9 239.95 246.4 254.2 261.75 269 274 281.25 289 291.5 299.25 305.6 311.15 315.15 324.25 331.25 340.6 346.65 358.9 366.15 372.5 380.15 389.85 393.85 400.5 406.9 411.45 418.55 ">Selonmoi,c&#x2019;estlaquestiondescomp&#xE9;tencesquidoit&#xEA;treauc&#x153;urdurecru-</text>
<text y="159.15" x="449.9 452.9 459.35 467.85 474.55 481.55 486.1 490.6 493.4 500.4 504.4 510.8 518.6 525.85 532.85 539.5 548.05 551 560.5 571.65 579.5 586.35 593.65 602.4 610.1 618.9 624.4 628.6 634.8 641.6 648.55 651.8 654.65 660.25 666.4 669.5 675.9 681.25 689.3 696.1 703.05 710.15 713.1 721.9 729.5 736.4 745.9 749.05 751.4 759.15 768.3 775.55 783.3 785.85 793.55 799.6 807.35 818.9 830.15 837.15 844.05 850.1 857.1 861.1 ">lesbarri&#xE8;resdanslemondedutravail,c&#x2019;estparl&#xE0;quel&#x2019;ondoitcommencer.</text>
<text y="162" x="0.1 5.3 12.25 23.5 30.45 37.1 44.8 51.15 58.55 65.8 75.35 78.45 81.5 88.45 100.05 107.3 110.25 118 121.1 127 132.45 141.25 148.85 151.45 157.45 164.25 171.45 177.35 179.9 185.45 188.2 194.1 203.5 212.85 219.55 227.65 239.25 246.05 253.05 257.6 268.75 275.15 282.5 289.95 292.65 299 303.95 309.15 316.1 319.25 326.15 333.75 337.75 346.9 353 359.35 366.75 374.5 380 384.6 391.25 397 402.5 405.25 409.6 ">tementetdel&#x2019;emploi.Ledispositi&#xE000;ADEDApermetd&#x2019;atteindrecetobjecti&#xE000;.</text>
<text y="176.7" x="448.55 453.75 462.9 469.05 476.4 479.15 487.1 494.85 501.9 506.1 515.25 522.75 525.65 531.9 538.8 546.65 550 556.9 563.65 569.9 576.15 584.05 595.8 602.65 609.15 616.8 623.8 633.9 640.25 648.25 651.35 660.75 667.9 679.6 687 690.1 698 703.3 710.65 717.85 724.65 733.05 739.25 745.75 750.85 756.15 766 772.9 780.1 783.65 786.75 796.55 808.25 811 816.5 822.6 825.55 833.45 840.8 ">Jesuisf&#xE8;red&#x2019;avoiraccompagn&#xE9;P&#xF4;leemploidanscettebellemission.</text>
</g>
<g class="s0aIQVZW42" transform="translate(617.05 900.4)" >
<text y="0" x="0 7.6 15.8 23.6 31.3 34.65 43.15 52.4 60.6 67.85 74.2 81.75 85.55 93.05 100.55 ">SophieVouzelaud</text>
</g>
<g class="s0aIQVZW43" transform="translate(615.75 922.8)" >
<text y="0" x="0 9.1 15.6 19.85 24.5 27.95 34.5 43.45 50.35 57.1 63.85 69.85 74.45 78.1 83.85 90.6 93.75 101.1 ">Actriceet&#xE9;crivaine</text>
</g>
<g class="s0aIQVZW44" transform="translate(497.15 497.6)" >
<text y="0" x="125.45 157.7 187.85 213.55 229.65 253.5 287.55 311.4 336.95 359.5 389.45 406.4 431.4 ">&#x201C;Fairereculer</text>
<text y="53.65" x="46.35 63.25 88.75 118.85 149.95 175.85 199.1 222.1 238.8 263.75 287.6 313.1 345.15 374.95 400.85 432.2 ">lesbarri&#xE8;resdans</text>
<text y="107.35" x="0 16.95 51 97.05 124.85 156.35 186 220.65 249.05 288.1 306.8 330.85 355.15 382.85 408.5 423.6 442 ">lemondedutravail,</text>
<text y="161" x="23.85 48 59.7 85.2 106.6 133.75 164.6 190.55 221.95 239.05 274.6 302.35 333.85 366.95 384.25 395.95 423.8 ">c&#x2019;estparl&#xE0;quel&#x2019;on</text>
<text y="214.65" x="50.1 79.75 107.35 122.45 150.85 174.6 202.45 247.9 293.9 318.9 350.35 374.1 399.1 432.55 ">doitcommencer&#x201D;</text>
</g>
<g class="s0aIQVZW45" transform="translate(130.5 262.1)" >
<text y="0" x="0 14.4 28.65 44.15 54.85 69.65 81.4 94.05 106.15 119.2 134 139.7 152.85 ">UNEPARTENAIRE</text>
<text y="36.05" x="0.15 13.3 24.65 37.55 50.15 65.3 78.85 90.15 105 118.6 129.85 ">RESPONSABLE</text>
</g>
<g class="s0aIQVZW46" transform="translate(468.35 48.75)" >
<text y="0" x="0 6.75 12.85 19.25 ">Rapp</text>
<text y="0" x="25.4 31.75 36.15 42.4 49.25 56.35 64.25 70.75 77.6 82.1 ">ortRSE2017</text>
</g>
<g class="s0aIQVZW47" transform="translate(501.5 1408.45)" >
<text y="0" x="0 7.35 17.6 ">-8-</text>
</g>
</svg>
