<svg xmlns="http://www.w3.org/2000/svg"><symbol viewBox="0 0 50 50" id="svgicon-alert"><path d="M25 0C11.2 0 0 11.2 0 25s11.2 25 25 25 25-11.2 25-25S38.8 0 25 0zm0 48C12.3 48 2 37.7 2 25S12.3 2 25 2s23 10.3 23 23-10.3 23-23 23zm0-39.5c-1.7 0-3 1.3-3 3v18c0 1.7 1.3 3 3 3s3-1.3 3-3v-18c0-1.7-1.3-3-3-3z"/><circle cx="25" cy="38.5" r="3"/></symbol><symbol viewBox="0 0 30 30" id="svgicon-application-bold-v4"><path d="M21.3 6H8.7C7.3 6 6 7.3 6 8.7v12.6C6 22.8 7.3 24 8.7 24h12.6c1.5 0 2.7-1.3 2.7-2.7V8.7C24 7.3 22.7 6 21.3 6zm-2.6 14.3l-1.2-2.6h-5l-1.2 2.6H9.8L15 9l5.2 11.3h-1.5z"/><path d="M13.1 16.6h3.8L15 12.2z"/></symbol><symbol viewBox="0 0 30 30" id="svgicon-back-v4"><path d="M16.8 20c-.2 0-.3-.1-.5-.2l-4.7-4.4c-.3-.2-.3-.6 0-.9l4.7-4.4c.3-.2.7-.2.9 0s.3.6 0 .9l-4.1 4 4.2 3.9c.3.2.3.6 0 .9-.1.1-.3.2-.5.2z"/></symbol><symbol viewBox="0 0 30 30" id="svgicon-back-v4"><path d="M16.8 20c-.2 0-.3-.1-.5-.2l-4.7-4.4c-.3-.2-.3-.6 0-.9l4.7-4.4c.3-.2.7-.2.9 0s.3.6 0 .9l-4.1 4 4.2 3.9c.3.2.3.6 0 .9-.1.1-.3.2-.5.2z"/></symbol><symbol viewBox="0 0 50 50" id="svgicon-book"><path d="M45 5H29c-1.6 0-3.1.8-4 2-.9-1.2-2.4-2-4-2H5c-2.8 0-5 2.2-5 5v29c0 2.8 2.2 5 5 5h16c1.7 0 3 1.3 3 3 0 .6.4 1 1 1s1-.4 1-1c0-1.7 1.3-3 3-3h16c2.8 0 5-2.2 5-5V10c0-2.8-2.2-5-5-5zM24 43c-.8-.6-1.9-1-3-1H5c-1.7 0-3-1.3-3-3V10c0-1.7 1.3-3 3-3h16c1.7 0 3 1.3 3 3v33zm24-4c0 1.7-1.3 3-3 3H29c-1.1 0-2.2.4-3 1V10c0-1.7 1.3-3 3-3h16c1.7 0 3 1.3 3 3v29z"/></symbol><symbol viewBox="0 0 50 50.2" id="svgicon-bookmark"><path d="M37 0H13v50.2l12-10.3 12 10.3V0zm-2 45.8l-10-8.5-10 8.5V2h20v43.8z"/></symbol><symbol viewBox="0 0 50 50.2" id="svgicon-bookmark2"><path d="M37.3 0h-24v50.2l12-10.3 12 10.3z"/></symbol><symbol viewBox="0 0 30 30" id="svgicon-bookshelves-v4"><path d="M24 22.1L21.3 8.7c-.1-.3-.2-.6-.5-.7-.2-.2-.5-.2-.8-.1l-2.3.5c-.1 0-.2.1-.3.1V7c0-.6-.5-1-1-1H14c-.6 0-1 .4-1 1v.9h-2.5V7c0-.6-.5-1-1-1H7c-.5 0-1 .5-1 1v15.9c0 .6.5 1 1 1h2.5c.2 0 .4-.1.5-.2.2.1.3.2.5.2H13c.2 0 .4-.1.5-.2.2.1.3.2.5.2h2.5c.6 0 1-.4 1-1V12.4l2.1 10.7c.1.3.2.6.5.7.2.1.4.2.6.2h.2l2.3-.5c.5-.2.9-.8.8-1.4zm-14.5.8H7V7h2.5v15.9zm3.5 0h-2.5v-14H13v14zm3.5 0H14V7h2.5v15.9zm6.4-.4l-2.3.5-2.7-13.6c0-.1 0-.1.1-.2l2.3-.5.1.1L23 22.3c0 .1 0 .2-.1.2z"/></symbol><symbol viewBox="0 0 50 50" id="svgicon-card"><path d="M3 23h20V4H3v19zM5 6h16v15H5V6zm42 21H27v19h20V27zm-2 17H29V29h16v15zM3 46h20V27H3v19zm2-17h16v15H5V29zm22-6h20V4H27v19zm2-17h16v15H29V6z"/></symbol><symbol viewBox="0 0 50 50.2" id="svgicon-cart"><path d="M0 4c0 1.1.9 2 2 2s2-.9 2-2h4.7c2.1 0 2.9.7 3.6 2.9l8 32.3c.4 1.6.9 3.4 2.7 4.2-.6.8-1 1.6-1 2.6 0 2.2 1.8 4 4 4s4-1.8 4-4c0-.7-.2-1.4-.6-2h6.1c-.3.6-.6 1.3-.6 2 0 2.2 1.8 4 4 4s4-1.8 4-4c0-1-.4-2-1.1-2.7l.1-.3c0-.5-.4-1-1-1H25.7c-2.7 0-3-1.1-3.6-3.3l-.6-2.7h18.3c.4 0 .8-.3.9-.6l7.2-19c.1-.3.1-.6-.1-.9s-.4-.5-.8-.5H16.3l-2.1-8.6C13.5 4.1 12.4 2 8.7 2H2C.9 2 0 2.9 0 4zm26 44c-1.1 0-2-.9-2-2s.9-2 2-2 2 .9 2 2-.9 2-2 2zm13 0c-1.1 0-2-.9-2-2s.9-2 2-2 2 .9 2 2-.9 2-2 2zm6.6-31l-6.4 17H21l-4.2-17h28.8z"/></symbol><symbol viewBox="0 0 30 30" id="svgicon-cart-1-v4"><path d="M22.3 10.5c-.2-.9-.8-1.5-1.7-1.5h-3V7.6C17.6 6.3 16.5 5 15 5c-1.3 0-2.6 1.1-2.6 2.6V9h-3c-.9 0-1.5.6-1.6 1.5L7 20.4c0 .7.2 1.4.7 1.9.6.5 1.3.7 2 .7h10.7c.7 0 1.4-.2 2-.7.5-.5.7-1.2.7-1.9l-.8-9.9zm-8.7-2.9c0-.8.7-1.5 1.5-1.5s1.5.6 1.5 1.5V9h-3V7.6zm7.8 14c-.3.3-.7.4-1.2.4H9.8c-.5 0-.9-.1-1.2-.4-.3-.3-.4-.8-.4-1.2l.7-9.9c0-.3.2-.5.5-.5h3.1v1c0 .3.2.5.5.5s.5-.2.5-.5v-1h3v1c0 .3.2.5.5.5.2 0 .5-.2.5-.5v-1h2.9c.3 0 .5.2.5.5l.7 9.9c.3.4.1.8-.2 1.2z"/></symbol><symbol viewBox="0 0 30 30" id="svgicon-cart-2-bold-v4"><path d="M23.7 11.2c-.2-.3-.7-.7-1.2-.7l-13.8-1-.4-1.7c0-.1-.1-.3-.3-.3L6.7 7c-.2-.1-.6 0-.7.4-.1.2 0 .5.4.6l1.1.3.5 1.9 2.1 7.5c.2.6.5 1 .9 1.4-.5.4-.8 1-.8 1.7 0 1.2 1 2.2 2.1 2.2s2.1-1 2.1-2.2c0-.4-.1-.8-.3-1.1h4.1c-.2.3-.3.7-.3 1.1 0 1.2 1 2.2 2.1 2.2 1.2 0 2.1-1 2.1-2.2 0-.6-.2-1.1-.6-1.5.5-.3.9-.9 1.1-1.5l1.3-5.1c.1-.6.1-1.1-.2-1.5zM12.3 21.9c-.6 0-1.1-.4-1.1-1.1 0-.7.4-1.1 1.1-1.1.5 0 1.1.4 1.1 1.1-.1.7-.5 1.1-1.1 1.1zm7.7 0c-.6 0-1.1-.4-1.1-1.1 0-.7.4-1.1 1.1-1.1.6 0 1.1.4 1.1 1.1 0 .7-.4 1.1-1.1 1.1z"/></symbol><symbol viewBox="0 0 30 30" id="svgicon-cart-2-v4"><path d="M23.7 11.2c-.2-.3-.7-.7-1.2-.7l-13.8-1-.4-1.7c0-.1-.1-.3-.3-.3L6.7 7c-.2-.1-.6 0-.7.4-.1.2 0 .5.4.6l1.1.3.5 1.9 2.1 7.5c.2.6.5 1 .9 1.4-.5.4-.8 1-.8 1.7 0 1.2 1 2.2 2.1 2.2s2.1-1 2.1-2.2c0-.4-.1-.8-.3-1.1h4.1c-.2.3-.3.7-.3 1.1 0 1.2 1 2.2 2.1 2.2 1.2 0 2.1-1 2.1-2.2 0-.6-.2-1.1-.6-1.5.5-.3.9-.9 1.1-1.5l1.3-5.1c.1-.6.1-1.1-.2-1.5zM12.3 21.9c-.6 0-1.1-.4-1.1-1.1 0-.7.4-1.1 1.1-1.1.5 0 1.1.4 1.1 1.1-.1.7-.5 1.1-1.1 1.1zm7.7 0c-.6 0-1.1-.4-1.1-1.1 0-.7.4-1.1 1.1-1.1.6 0 1.1.4 1.1 1.1 0 .7-.4 1.1-1.1 1.1zm1.6-4.5c-.1.7-.7 1.2-1.5 1.2h-7.5c-.6 0-1.3-.5-1.5-1.2l-1.9-6.8 13.1 1c.2 0 .3.1.4.2.1.1.1.3.1.4l-1.2 5.2z"/></symbol><symbol viewBox="0 0 50 50" id="svgicon-check"><path d="M20 36.1c.4.7 1.2 1.1 2.1 1.1 1 0 1.9-.6 2.3-1.5l12.4-19.8.2-.3c.2-.4.3-.8.3-1.2 0-1.4-1.1-2.5-2.5-2.5-.8 0-1.5.4-1.9 1l-.3.5-10.3 16.9-4.7-5.8c-.4-.7-1.2-1.1-2.1-1.1-1.4 0-2.5 1.1-2.5 2.5 0 .7.3 1.3.7 1.8l6.3 8.4z"/></symbol><symbol viewBox="0 0 30 30" id="svgicon-check-1-bold-v4"><path d="M12.8 21c-.4 0-.8-.2-1-.5l-3.4-4c-.5-.6-.5-1.6.1-2.1.6-.6 1.5-.5 2 .1l2.4 2.8 6.7-7.8c.5-.6 1.4-.6 2-.1.6.6.6 1.5.1 2.1l-7.8 9c-.3.3-.7.5-1.1.5z"/></symbol><symbol viewBox="0 0 30 30" id="svgicon-check-1-v4"><path d="M13.5 18.2c.1.2.3.3.6.3s.6-.2.7-.4l3.6-5.5v-.1c.1-.1.1-.2.1-.3 0-.4-.3-.7-.7-.7-.2 0-.4.1-.6.3l-.1.1-3 4.7-1.3-1.6c-.1-.2-.3-.3-.6-.3-.4 0-.7.3-.7.7 0 .2.1.4.2.5l1.8 2.3z"/></symbol><symbol viewBox="0 0 30 30" id="svgicon-check-2-bold-v4"><path d="M15 6c-5 0-9 4-9 9s4 9 9 9 9-4 9-9-4-9-9-9zm3.5 6.5L15 18.1c-.1.3-.4.4-.6.4-.2 0-.5-.1-.6-.3L12 15.9c-.1-.1-.2-.3-.2-.5 0-.4.3-.7.7-.7.2 0 .5.1.6.3l1.3 1.6 2.9-4.8c0-.1.1-.1.1-.1.1-.2.3-.3.5-.3.4 0 .7.3.7.7 0 .2 0 .3-.1.4z"/></symbol><symbol viewBox="0 0 30 30" id="svgicon-check-2-v4"><path d="M13.5 19c-.3 0-.5-.1-.7-.3L10.3 16c-.4-.4-.3-1 .1-1.4.4-.4 1-.3 1.4.1l1.7 1.9 4.8-5.2c.4-.4 1-.4 1.4-.1.4.4.4 1 .1 1.4l-5.5 6c-.3.2-.6.3-.8.3z"/></symbol><symbol viewBox="0 0 30 30" id="svgicon-check-3-bold-v4"><path d="M15 6c-5 0-9 4-9 9s4 9 9 9 9-4 9-9-4-9-9-9zm4.7 6.7l-5.5 6c-.2.2-.5.3-.7.3s-.5-.1-.7-.3L10.3 16c-.4-.4-.3-1 .1-1.4.4-.4 1-.3 1.4.1l1.7 1.9 4.8-5.2c.4-.4 1-.4 1.4-.1.4.3.4 1 0 1.4z"/></symbol><symbol viewBox="0 0 50 50" id="svgicon-checked"><path d="M25.2 0C11.4 0 .2 11.2.2 25s11.2 25 25 25 25-11.2 25-25-11.3-25-25-25zM35 18l-.1.2-9.7 15.5c-.3.7-1 1.2-1.8 1.2-.7 0-1.3-.4-1.6-.9l-4.9-6.6c-.4-.4-.6-.8-.6-1.4 0-1.1.9-1.9 1.9-1.9.7 0 1.3.3 1.6.9l3.7 4.5 8.1-13.2c.1-.1.2-.3.2-.4.4-.5.9-.7 1.5-.7 1.1 0 1.9.9 1.9 1.9 0 .3-.1.6-.2.9z"/></symbol><symbol viewBox="0 0 50 50" id="svgicon-checked2"><path d="M25 0C11.2 0 0 11.2 0 25s11.2 25 25 25 25-11.2 25-25S38.8 0 25 0zm0 48C12.3 48 2 37.7 2 25S12.3 2 25 2s23 10.3 23 23-10.3 23-23 23zm9.8-36c-.8 0-1.5.4-1.9 1l-.3.5-10.3 16.8-4.7-5.8c-.4-.7-1.2-1.1-2.1-1.1-1.4 0-2.5 1.1-2.5 2.5 0 .7.3 1.3.7 1.8l6.3 8.5c.4.7 1.2 1.1 2.1 1.1 1 0 1.9-.6 2.3-1.5L36.8 16l.2-.3c.2-.4.3-.8.3-1.2 0-1.4-1.2-2.5-2.5-2.5z"/></symbol><symbol viewBox="0 0 50 50" id="svgicon-circle"><path d="M25 48C12.3 48 2 37.7 2 25S12.3 2 25 2s23 10.3 23 23-10.3 23-23 23zm0-44C13.4 4 4 13.4 4 25s9.4 21 21 21 21-9.4 21-21S36.6 4 25 4z"/></symbol><symbol viewBox="0 0 30 30" id="svgicon-circle-v4"><path d="M15 7c4.4 0 8 3.6 8 8s-3.6 8-8 8-8-3.6-8-8 3.6-8 8-8m0-1c-5 0-9 4-9 9s4 9 9 9 9-4 9-9-4-9-9-9z"/></symbol><symbol viewBox="0 0 50 50" id="svgicon-close"><path d="M15.1 37.7l9.9-9.9 9.9 9.9 2.8-2.8-9.9-9.9 9.9-9.9-2.8-2.8-9.9 9.9-9.9-9.9-2.8 2.8 9.9 9.9-9.9 9.9z"/></symbol><symbol viewBox="0 0 30 30" id="svgicon-close-1-v4"><path d="M15.7 15l5.1-5.1c.2-.2.2-.5 0-.7s-.5-.2-.7 0L15 14.3 9.9 9.1c-.2-.1-.6-.1-.8 0s-.1.6 0 .8l5.1 5.1-5.1 5.1c-.2.2-.2.5 0 .7.1.2.3.2.4.2s.3 0 .4-.1l5.1-5.1 5.1 5.1c.1.1.2.1.4.1s.3 0 .4-.1c.2-.2.2-.5 0-.7L15.7 15z"/></symbol><symbol viewBox="0 0 30 30" id="svgicon-close-2-v4"><path d="M16.4 15l4.3-4.3c.4-.4.4-1 0-1.4s-1-.4-1.4 0L15 13.6l-4.3-4.3c-.4-.4-1-.4-1.4 0s-.4 1 0 1.4l4.3 4.3-4.3 4.3c-.4.4-.4 1 0 1.4.2.2.4.3.7.3s.5-.1.7-.3l4.3-4.3 4.3 4.3c.2.2.5.3.7.3s.5-.1.7-.3c.4-.4.4-1 0-1.4L16.4 15z"/></symbol><symbol viewBox="0 0 30 30" id="svgicon-close-2-v4"><path d="M16.4 15l4.3-4.3c.4-.4.4-1 0-1.4s-1-.4-1.4 0L15 13.6l-4.3-4.3c-.4-.4-1-.4-1.4 0s-.4 1 0 1.4l4.3 4.3-4.3 4.3c-.4.4-.4 1 0 1.4.2.2.4.3.7.3s.5-.1.7-.3l4.3-4.3 4.3 4.3c.2.2.5.3.7.3s.5-.1.7-.3c.4-.4.4-1 0-1.4L16.4 15z"/></symbol><symbol viewBox="0 0 50 50.2" id="svgicon-close2"><path d="M13.5 37.6L25 26.1l11.5 11.5 1.2-1.1L26.2 25l11.5-11.5-1.2-1.2L25 23.9 13.5 12.3l-1.1 1.2L23.9 25 12.4 36.5z"/></symbol><symbol viewBox="0 0 50 50.2" id="svgicon-close3"><path d="M25.2 0C11.4 0 .2 11.2.2 25s11.2 25 25 25 25-11.2 25-25-11.3-25-25-25zm0 48c-12.7 0-23-10.3-23-23s10.3-23 23-23 23 10.3 23 23-10.4 23-23 23zm11.5-35.7L25.2 23.9 13.7 12.3l-1.2 1.2L24 25 12.5 36.5l1.2 1.1 11.5-11.5 11.5 11.5 1.1-1.1L26.3 25l11.5-11.5z"/></symbol><symbol viewBox="0 0 50 50" id="svgicon-delete"><path d="M29 0h-8c-1.7 0-3 1.3-3 3v2H8c-.6 0-1 .4-1 1s.4 1 1 1h1.1l3.6 40.5c.1 1.4 1.3 2.5 2.7 2.5h19.2c1.4 0 2.6-1.1 2.7-2.5L40.9 7H42c.6 0 1-.4 1-1s-.4-1-1-1H32V3c0-1.7-1.3-3-3-3zm-9 3c0-.6.4-1 1-1h8c.6 0 1 .4 1 1v2H20V3zm15.3 44.3c0 .4-.4.7-.7.7H15.4c-.3 0-.7-.3-.7-.7L11.1 7h27.8l-3.6 40.3zM25 10c-.6 0-1 .4-1 1v33c0 .6.4 1 1 1s1-.4 1-1V11c0-.6-.4-1-1-1zm5 1v33c0 .6.4 1 1 1s1-.4 1-1V11c0-.6-.4-1-1-1s-1 .4-1 1zm-11-1c-.6 0-1 .4-1 1v33c0 .6.4 1 1 1s1-.4 1-1V11c0-.6-.4-1-1-1z"/></symbol><symbol viewBox="0 0 30 30" id="svgicon-delete-v4"><path d="M20.6 9.8h-3.3V8.4c0-.8-.7-1.4-1.4-1.4H14c-.7 0-1.4.7-1.4 1.4v1.4H9.4c-.7 0-1.4.7-1.4 1.4v1.9c0 .3.2.5.5.5H9v7.1c0 1.3 1 2.4 2.3 2.4h7.5c1.3 0 2.3-1 2.3-2.4v-7.1h.5c.3 0 .5-.3.5-.5v-1.9c-.1-.7-.8-1.4-1.5-1.4zm-7-1.4c0-.3.2-.5.5-.5H16c.3 0 .5.2.5.5v1.4h-2.8V8.4zm6.5 12.2c0 .8-.7 1.4-1.4 1.4h-7.5c-.7 0-1.4-.7-1.4-1.4v-7.1h10.3v7.1zm1-8H8.9v-1.4c0-.3.2-.5.5-.5h11.2c.3 0 .5.2.5.5v1.4z"/><path d="M12.2 20.2c.3 0 .5-.2.5-.5v-3.8c0-.3-.2-.5-.5-.5s-.5.2-.5.5v3.8c0 .3.2.5.5.5zm2.8 0c.3 0 .5-.2.5-.5v-3.8c0-.3-.2-.5-.5-.5s-.5.2-.5.5v3.8c0 .3.2.5.5.5zm2.8 0c.3 0 .5-.2.5-.5v-3.8c0-.3-.2-.5-.5-.5s-.5.2-.5.5v3.8c0 .3.2.5.5.5z"/></symbol><symbol viewBox="0 0 30 30" id="svgicon-details-bold-v4"><path d="M15 6c-5 0-9 4-9 9s4 9 9 9 9-4 9-9-4-9-9-9zm0 14s-.4.3-.7.3H14a.8.8 0 0 1-.6-1.1l.7-2.8.3-1.3c.3-1.2-.9.2-1.2-.3-.2-.4.9-1.1 1.8-1.7 0 0 .4-.3.7-.3h.3c.5.1.8.6.7 1.1l-.7 2.8-.3 1.3c-.3 1.2.9-.3 1.2.3 0 .4-1.1 1.2-1.9 1.7zm1.7-8.7c-.2.7-.9 1.1-1.6.9-.7-.2-1.1-.9-1-1.6.2-.7.9-1.1 1.6-.9.8.2 1.2.9 1 1.6z"/></symbol><symbol viewBox="0 0 50 50" id="svgicon-document"><path d="M43 14.6L28.4 0H7v50h36V14.6zM29 3.4L39.6 14H29V3.4zM41 48H9V2h18v14h14v32z"/></symbol><symbol viewBox="0 0 50 50.2" id="svgicon-double"><path d="M10 8v26h40V6H10v2zm38 0v24H31V8h17zM29 8v24H12V8h17zm11 36v-8h-2v6H2V18h6v-2H0v28h38z"/></symbol><symbol viewBox="0 0 30 30" id="svgicon-down-v4"><path d="M23 12c0 .3-.1.5-.3.7l-7 7c-.4.4-1 .4-1.4 0l-7-7c-.4-.4-.4-1 0-1.4s1-.4 1.4 0l6.3 6.3 6.3-6.3c.4-.4 1-.4 1.4 0 .2.2.3.4.3.7z"/></symbol><symbol viewBox="0 0 50 50" id="svgicon-download"><path d="M42.1 18.3v-.6c0-7.3-5.9-13.1-13.1-13.1-5 0-9.6 2.9-11.8 7.3-1.1-.8-2.5-1.2-3.9-1.2-3.7 0-6.7 2.9-7 6.5-3.8 1.4-6.4 5-6.4 9.1C0 31.7 4.3 36 9.7 36H18c.6 0 1-.4 1-1s-.4-1-1-1H9.7C5.4 34 2 30.6 2 26.3c0-3.4 2.3-6.5 5.6-7.4.4-.1.7-.5.7-1v-.2c0-2.8 2.2-5 5-5 1.3 0 2.6.5 3.5 1.5.2.2.6.3.9.3.3-.1.6-.3.7-.6 1.6-4.4 5.8-7.3 10.4-7.3 6.1 0 11.1 5 11.1 11.1 0 .4 0 .9-.1 1.4 0 .3.1.6.3.8s.5.3.8.3c3.8 0 6.9 3.1 6.9 6.9 0 3.8-3.1 6.9-6.9 6.9H32c-.6 0-1 .4-1 1s.4 1 1 1h9.1c4.9 0 8.9-4 8.9-8.9 0-4.5-3.4-8.3-7.9-8.8zM25 25c-.6 0-1 .4-1 1v17.6l-3.3-3.3c-.4-.4-1-.4-1.4 0s-.4 1 0 1.4l5.7 5.7 5.7-5.7c.4-.4.4-1 0-1.4s-1-.4-1.4 0L26 43.6V26c0-.6-.4-1-1-1z"/></symbol><symbol viewBox="0 0 40 40" id="svgicon-download-bold-alt"><path d="M18 8v12h-7l9 8.6 9-8.6h-7V8zm-7 21.9h18V32H11z"/></symbol><symbol viewBox="0 0 30 30" id="svgicon-download-bold-v4"><path d="M19.4 15c-.1-.1-.2-.1-.3-.2H19c-.2 0-.3-.1-.3-.1h-2.3V7.4c.1-.8-.5-1.4-1.4-1.4-.9 0-1.5.6-1.5 1.4v7.4h-2.2c-.1 0-.2 0-.3.1h-.1c-.2.1-.3.2-.3.2-.2.2-.3.4-.3.6 0 .3.1.5.3.7l3.7 3.3c.2.2.4.3.7.3.2 0 .5-.1.7-.3l3.8-3.4c.4-.3.4-.9-.1-1.3zm1.4 9H9.2c-.6 0-1.2-.6-1.2-1.2 0-.7.6-1.2 1.2-1.2h11.5c.7 0 1.2.6 1.2 1.2.1.6-.5 1.2-1.1 1.2z"/></symbol><symbol viewBox="0 0 30 30" id="svgicon-download-v4"><path d="M22.5 17.7c-.3 0-.5.2-.5.5v2.1c0 .9-.7 1.6-1.6 1.6H9.7c-.9 0-1.6-.7-1.6-1.6v-2.1c0-.3-.2-.5-.5-.5s-.5.2-.5.5v2.1C7 21.8 8.2 23 9.7 23h10.7c1.5 0 2.7-1.2 2.7-2.7v-2.1c-.1-.3-.3-.5-.6-.5zm-7.9-.7c.2.2.5.2.7 0l3.2-3.2c.2-.2.2-.5 0-.7-.2-.2-.5-.2-.7 0l-2.3 2.3V7.5c0-.3-.2-.5-.5-.5s-.5.2-.5.5v7.8L12.2 13c-.2-.2-.6-.2-.8 0-.2.2-.3.5 0 .8l3.2 3.2z"/></symbol><symbol viewBox="0 0 30 30" id="svgicon-download3-v4"><path d="M20.9 21c1.7 0 3.1-1.5 3.1-3.3 0-1.6-1.2-3.1-2.7-3.3v-.7c0-2.7-2.1-4.8-4.7-4.8-2.1 0-3.8 1.4-4.4 3.3-.3-.1-.7-.1-1-.1-2.5-.1-3.7.7-3.7 3.9v.6c-.9.2-1.5 1-1.5 2C6 19.8 7.1 21 8.2 21h12.7z"/></symbol><symbol viewBox="0 0 30 30" id="svgicon-dropbox-social-v4"><path d="M11.3 6.6L6 10.1 9.7 13 15 9.7zM6 16l5.3 3.4 3.7-3.1L9.7 13zm9 .3l3.7 3.1L24 16l-3.7-3zm9-6.2l-5.3-3.5L15 9.7l5.3 3.3z"/><path d="M15 17l-3.7 3.1L9.7 19v1.2l5.3 3.2 5.3-3.2V19l-1.6 1.1z"/></symbol><symbol viewBox="0 0 30 30" id="svgicon-end-v4"><path d="M18.5 10c-.6 0-1 .4-1 1v8c0 .6.4 1 1 1s1-.4 1-1v-8c0-.6-.4-1-1-1zm-6.3.3c-.4-.4-1-.4-1.4 0s-.4 1 0 1.4l3.3 3.3-3.3 3.3c-.4.4-.4 1 0 1.4.2.2.5.3.7.3s.5-.1.7-.3l4-4c.4-.4.4-1 0-1.4l-4-4z"/></symbol><symbol viewBox="0 0 50 50" id="svgicon-eye"><path d="M1.2 24.3c-.3.4-.3.9 0 1.3C1.7 26.2 12 38 25 38s23.3-11.8 23.8-12.3c.3-.4.3-.9 0-1.3C48.3 23.8 38 12 25 12S1.7 23.8 1.2 24.3zm31.3-8.9c1.6 1.8 2.5 4.2 2.5 6.6 0 5.5-4.5 10-10 10s-10-4.5-10-10c0-2.4.9-4.8 2.5-6.6 2.4-.9 4.9-1.4 7.5-1.4 2.6 0 5.2.5 7.5 1.4zm-18.3 1.5c-.8 1.5-1.2 3.3-1.2 5.1 0 6.6 5.4 12 12 12s12-5.4 12-12c0-1.8-.4-3.6-1.2-5.1 5.3 2.7 9.3 6.6 10.8 8.1-2.3 2.5-11.2 11-21.6 11-10.4 0-19.3-8.5-21.6-11 1.4-1.5 5.4-5.4 10.8-8.1zM25 27c2.8 0 5-2.2 5-5s-2.2-5-5-5-5 2.2-5 5 2.2 5 5 5zm0-8c1.7 0 3 1.3 3 3s-1.3 3-3 3-3-1.3-3-3 1.3-3 3-3z"/></symbol><symbol viewBox="0 0 30 30" id="svgicon-eye-v4"><path fill="none" d="M18 11.7c.4.6.7 1.4.7 2.2 0 .5-.1 1.1-.4 1.6-.1.3-.4.4-.7.2-.2-.1-.4-.4-.2-.7.2-.4.3-.8.3-1.2 0-1.5-1.2-2.7-2.7-2.7s-2.7 1.2-2.7 2.7c0 1.5 1.2 2.7 2.7 2.7.3 0 .5.2.5.5s-.2.5-.5.5c-2 0-3.7-1.7-3.7-3.8 0-.9.3-1.7.8-2.3-2.3.9-4.2 2.6-5 3.4 1 1.1 4.2 4 7.7 4 3.6 0 6.7-2.8 7.8-4-.6-.6-2.4-2.2-4.6-3.1z"/><path d="M15 10c-4.9 0-9 4.7-9 5 0 .4 4.2 5 9 5s9-4.6 9-5c0-.3-4.1-5-9-5zm0 9c-3.5 0-6.7-2.8-7.7-4 .8-.8 2.6-2.6 5-3.4-.5.6-.8 1.4-.8 2.3 0 2.1 1.6 3.8 3.7 3.8.3 0 .5-.2.5-.5s-.2-.5-.5-.5c-1.5 0-2.7-1.2-2.7-2.7 0-1.5 1.2-2.7 2.7-2.7s2.7 1.2 2.7 2.7c0 .4-.1.8-.3 1.2-.1.3 0 .6.2.7.2.1.5 0 .7-.2.2-.5.4-1.1.4-1.6 0-.8-.3-1.6-.7-2.2 2.2.9 4 2.5 4.7 3.3-1.2.9-4.4 3.8-7.9 3.8z"/></symbol><symbol viewBox="0 0 50 50" id="svgicon-eye_closed"><path d="M48.8 21.4C48.3 20.9 38 9.1 25 9.1S1.7 20.9 1.2 21.4c-.3.4-.3.9 0 1.3.2.2 2.5 2.9 6.2 5.7l-.1.1-2.7 3.1c-.3.4-.3 1 .1 1.4s1 .3 1.4-.1l2.7-3.1.2-.3c1.8 1.2 3.8 2.4 6.1 3.4l-.1.2-1 3.9c-.1.5.2 1 .7 1.2.5.1 1-.2 1.2-.7l1-3.9c2.3.8 4.7 1.4 7.3 1.5v4.1c0 .5.4 1 1 1s1-.4 1-1v-4.1c2.7-.1 5.3-.7 7.6-1.6v.2l1.2 3.9c.2.5.7.8 1.2.6.5-.2.8-.7.6-1.2l-1.3-4c0-.1-.1-.2-.2-.3 2.3-1 4.3-2.3 6.1-3.5 0 .1.1.3.2.4l2.4 3.3c.3.4.9.5 1.4.2.4-.3.5-.9.2-1.4l-2.4-3.3c-.1-.1-.2-.2-.4-.3 3.5-2.7 5.7-5.2 5.9-5.5.4-.2.4-.8.1-1.2zM25 33.1c-10.4 0-19.3-8.5-21.6-11 2.3-2.5 11.2-11 21.6-11 10.4 0 19.3 8.5 21.6 11-2.3 2.4-11.2 11-21.6 11z"/></symbol><symbol viewBox="0 0 50 50.1" id="svgicon-facebook"><path d="M29 10.8c0-1.9 1.3-2.4 2.2-2.4h5.5V0h-7.6c-8.4 0-10.3 6.3-10.3 10.3V16h-4.9v8.7h4.9v24.6H29V24.7h6.9l.9-8.7H29v-5.2z"/></symbol><symbol viewBox="0 0 30 30" id="svgicon-facebook-v4"><path d="M16.8 10c0-.7.5-.9.8-.9h2V6h-2.8C13.7 6 13 8.3 13 9.8v2.1h-1.8V15H13v9h3.7v-9h2.5l.3-3.2h-2.8V10z"/><path d="M14 12.5c-.3 0-.5.2-.5.5v7c0 .3.2.5.5.5s.5-.2.5-.5v-7c0-.3-.2-.5-.5-.5z"/></symbol><symbol viewBox="0 0 50 50" id="svgicon-favorite"><path d="M10.1 46.7L25 37l14.9 9.7-4.6-17.2 13.8-11.2-17.7-1L25 .8l-6.4 16.6-17.7 1 13.8 11.2-4.6 17.1zM6.1 20l13.9-.7 5-13 5 13 13.9.7-10.8 8.8 3.6 13.4L25 34.7l-11.7 7.5 3.6-13.4L6.1 20z"/></symbol><symbol viewBox="0 0 30 30" id="svgicon-favorite-bold-v4"><path d="M15 5c.5 0 2.3 5.5 2.8 5.9s6.1.5 6.2 1c.2.5-4.3 4-4.5 4.6-.2.6 1.4 6.2 1 6.5-.4.3-5-3.1-5.6-3.1-.6 0-5.2 3.4-5.6 3.1-.4-.3 1.2-5.9 1-6.5-.2-.6-4.6-4.1-4.5-4.6.1-.5 5.7-.6 6.2-1 .7-.4 2.5-5.9 3-5.9z"/></symbol><symbol viewBox="0 0 30 30" id="svgicon-favorite-v4"><path d="M15 7c.2.5.5 1.1.6 1.6.9 2.2 1.2 2.8 1.5 3.1.4.3 1 .4 3.3.6.5 0 1.1.1 1.7.2-.4.4-.9.9-1.3 1.2-1.7 1.6-2.2 2-2.3 2.5-.1.5 0 1.1.5 3.4.1.5.3 1.1.4 1.7-.5-.3-1-.6-1.4-.9-2-1.3-2.5-1.6-3-1.6s-1 .3-3 1.6c-.4.3-.9.6-1.4.9.1-.6.3-1.2.4-1.7.5-2.3.6-3 .5-3.4-.1-.5-.6-.9-2.3-2.5-.4-.3-.9-.8-1.3-1.2.6-.1 1.2-.1 1.7-.2 2.3-.2 2.9-.3 3.3-.6.4-.3.6-.9 1.5-3.1.1-.4.4-1 .6-1.6m0-2c-.5 0-2.3 5.5-2.8 5.9-.5.4-6.1.5-6.2 1-.2.5 4.3 4 4.5 4.6.2.6-1.4 6.2-1 6.5h.1c.7 0 4.9-3.1 5.5-3.1.6 0 4.8 3.1 5.5 3.1h.1c.4-.3-1.2-5.9-1-6.5.2-.6 4.6-4.1 4.5-4.6-.1-.5-5.7-.6-6.2-1-.7-.4-2.5-5.9-3-5.9z"/></symbol><symbol viewBox="0 0 50 50" id="svgicon-feed"><path d="M47 46V4H3v42h44zM5 44V6h40v38H5z"/></symbol><symbol viewBox="0 0 30 30" id="svgicon-file-v4"><path fill="none" d="M18.4 11.2h2.4L17.4 7h-.3v2.9c0 .7.6 1.3 1.3 1.3z"/><path fill="none" d="M16.2 9.9V7h-5.4c-1 0-1.9.9-1.9 2v12c0 1.1.8 2 1.9 2h8.4c1 0 1.9-.9 1.9-2v-8.9h-2.7c-1.2 0-2.2-1-2.2-2.2z"/><path d="M17.8 6h-7C9.3 6 8 7.3 8 9v12c0 1.7 1.3 3 2.8 3h8.4c1.5 0 2.8-1.3 2.8-3v-9.8L17.8 6zm-.7 1h.3l3.4 4.2h-2.4c-.7 0-1.2-.6-1.2-1.2V7zm4 14c0 1.1-.8 2-1.9 2h-8.4c-1 0-1.9-.9-1.9-2V9c0-1.1.8-2 1.9-2h5.4v2.9c0 1.2 1 2.2 2.1 2.2H21V21z"/></symbol><symbol viewBox="0 0 50 50" id="svgicon-filter"><path d="M30.1 45.1V28.6L47 6.1H3l16.9 22.4V45h10.2zM6.4 7.8h37.2L28.4 28v15.4h-6.8V28L6.4 7.8z"/></symbol><symbol viewBox="0 0 30 30" id="svgicon-filter-v4"><path d="M16.8 24h-3.7c-.3 0-.5-.2-.5-.5v-6.2L7.3 8.8c-.1-.2-.1-.3 0-.5s.3-.3.4-.3h14.5c.2 0 .3.1.4.3.1.2.1.4 0 .5l-5.4 8.5v6.2c.1.3-.1.5-.4.5zm-3.1-1h2.7v-5.9c0-.1 0-.2.1-.3l5-7.9H8.6l5 7.9c.1.1.1.2.1.3V23z"/></symbol><symbol viewBox="0 0 50 50" id="svgicon-first"><path d="M38.6 4.8l-2-2L14.3 25l22.3 22.3 2-2.1L18.5 25zm-27.2-2h2.9v44.5h-2.9z"/></symbol><symbol viewBox="0 0 30 30" id="svgicon-first-v4"><path d="M11.5 20c.6 0 1-.4 1-1v-8c0-.6-.4-1-1-1s-1 .4-1 1v8c0 .6.4 1 1 1zm6.3-.3c.4.4 1 .4 1.4 0s.4-1 0-1.4L15.9 15l3.3-3.3c.4-.4.4-1 0-1.4-.2-.2-.5-.3-.7-.3s-.5.1-.7.3l-4 4c-.4.4-.4 1 0 1.4l4 4z"/></symbol><symbol viewBox="0 0 50 50" id="svgicon-folder"><path d="M47 7H18c-.3-.1-.9-1-1.2-1.5C16.1 4.3 15.3 3 14 3H3C1.3 3 0 4.3 0 6v38c0 1.7 1.3 3 3 3h44c1.7 0 3-1.3 3-3V10c0-1.7-1.3-3-3-3zM3 5h11c.3.1.9 1 1.2 1.6C15.9 7.8 16.7 9 18 9h29c.6 0 1 .4 1 1v3.2c-.3-.1-.6-.2-1-.2H3c-.4 0-.7.1-1 .2V6c0-.6.4-1 1-1zm45 39c0 .6-.4 1-1 1H3c-.6 0-1-.4-1-1V16c0-.6.4-1 1-1h44c.6 0 1 .4 1 1v28z"/></symbol><symbol viewBox="0 0 30 30" id="svgicon-folder-bold-v4"><path d="M24.2 8.1H12.1c-.6 0-1-1.6-1.7-1.6H5.8c-.4 0-.8.4-.8.8v15.3c0 .4.4.8.8.8h18.3c.5 0 .8-.4.8-.8V8.9c.1-.4-.3-.8-.7-.8z"/></symbol><symbol viewBox="0 0 30 30" id="svgicon-folder-v4"><path d="M20.7 8.6h-7.8l-.1-.6c-.1-.5-.6-1-1.1-.9L7 7c-.5 0-1 .4-1 1v12.1C6 21.7 7.4 23 9 23h12c1.7 0 3-1.3 3-2.9V12c0-1.9-1.5-3.4-3.3-3.4zm-9-.6l.3 1.5h8.7c1.2 0 2.3 1.1 2.3 2.4-.5-.5-1.2-.8-2-.8H9c-.8 0-1.5.3-2 .7V8h4.7zM23 20.1c0 1.1-.9 1.9-2 1.9H9c-1.1 0-2-.9-2-1.9v-6.2c.1-1 .9-1.8 2-1.8h12c1.1 0 2 .9 2 1.9v6.1z"/></symbol><symbol viewBox="0 0 30 30" id="svgicon-forth-v4"><path d="M12.7 10c.2 0 .3.1.5.2l4.7 4.4c.3.2.3.6 0 .9l-4.7 4.4c-.3.2-.7.2-.9 0s-.3-.6 0-.9l4.2-3.9-4.2-3.9c-.3-.2-.3-.6 0-.9 0-.2.2-.3.4-.3z"/></symbol><symbol viewBox="0 0 50 50" id="svgicon-fullscreen"><path d="M2 8h7V6H0v9h2zm39 0h7v7h2V6h-9zm7 34h-7v2h9v-9h-2zM9 42H2v-7H0v9h9zm36-5V11H5v28h40v-2zM7 37V13h36v24H7z"/></symbol><symbol viewBox="0 0 30 30" id="svgicon-fullscreen-v4"><path d="M19.5 10c.3 0 .5.2.5.5v9c0 .3-.2.5-.5.5h-9c-.3 0-.5-.2-.5-.5v-9c0-.3.2-.5.5-.5h9m0-1h-9C9.7 9 9 9.7 9 10.5v9c0 .8.7 1.5 1.5 1.5h9c.8 0 1.5-.7 1.5-1.5v-9c0-.8-.7-1.5-1.5-1.5z"/><path d="M22.5 13c-.3 0-.5-.2-.5-.5v-2C22 9.1 20.9 8 19.5 8h-2c-.3 0-.5-.2-.5-.5s.2-.5.5-.5h2c1.9 0 3.5 1.6 3.5 3.5v2c0 .3-.2.5-.5.5zm-15 0c-.3 0-.5-.2-.5-.5v-2C7 8.6 8.6 7 10.5 7h2c.3 0 .5.2.5.5s-.2.5-.5.5h-2C9.1 8 8 9.1 8 10.5v2c0 .3-.2.5-.5.5zm12 10h-2c-.3 0-.5-.2-.5-.5s.2-.5.5-.5h2c1.4 0 2.5-1.1 2.5-2.5v-2c0-.3.2-.5.5-.5s.5.2.5.5v2c0 1.9-1.6 3.5-3.5 3.5zm-7 0h-2C8.6 23 7 21.4 7 19.5v-2c0-.3.2-.5.5-.5s.5.2.5.5v2c0 1.4 1.1 2.5 2.5 2.5h2c.3 0 .5.2.5.5s-.2.5-.5.5z"/></symbol><symbol viewBox="0 0 30 30" id="svgicon-gallery-bold-v4"><circle cx="12.2" cy="12.2" r="1.7"/><path d="M21.4 6H8.8C7.3 6 6 6.9 6 8.3v12.6c0 .2 0 .4.1.6l5.6-4.9 3.9 2.5 4.5-4.9 4 4V8.3C24 6.9 22.8 6 21.4 6zm-9.2 9c-1.6 0-2.8-1.3-2.8-2.8s1.3-2.8 2.8-2.8c1.6 0 2.8 1.3 2.8 2.8S13.7 15 12.2 15z"/><path d="M15.7 20.6l-4-2.6-5.2 4.6c.5.8 1.4 1.4 2.3 1.4h12.6c1.5 0 2.6-1.6 2.6-3.1v-1.2l-3.9-4-4.4 4.9z"/></symbol><symbol viewBox="0 0 49.9 50" id="svgicon-googleplus"><path d="M48.9 21.1h-7.5v-7.5c0-.6-.5-1-1-1h-2.1c-.6 0-1 .5-1 1v7.5h-7.5c-.6 0-1 .5-1 1v2.1c0 .6.5 1 1 1h7.5v7.5c0 .6.5 1 1 1h2.1c.6 0 1-.5 1-1v-7.5h7.5c.6 0 1-.5 1-1v-2.1c0-.6-.4-1-1-1zm-25.3 6.6c-1.6-1.1-3-2.8-3-3.3 0-.9.1-1.4 2.1-3 2.7-2.1 4.1-4.8 4.1-7.7 0-2.6-.8-5-2.2-6.6h1.1c.2 0 .4-.1.6-.2l3-2.1c.4-.3.5-.7.4-1.2-.1-.4-.5-.7-1-.7H15.5c-1.4 0-2.9.3-4.4.8C6.3 5.3 3 9.4 3 13.6c0 6 4.6 10.5 10.8 10.6-.1.5-.2.9-.2 1.4 0 .9.2 1.8.7 2.6h-.2c-5.9 0-11.2 2.9-13.2 7.2-.5 1.1-.8 2.3-.8 3.4s.3 2.1.8 3.1c1.3 2.3 4 4 7.7 5 1.9.5 3.9.7 6.1.7 1.9 0 3.7-.2 5.4-.7 5.2-1.5 8.6-5.4 8.6-9.8 0-4.3-1.4-6.8-5.1-9.4zM9.8 13.5c-.3-2.2.1-4.2 1.2-5.4.7-.8 1.6-1.2 2.7-1.2h.1c2.9.1 5.7 3.3 6.2 7.3.3 2.2-.2 4.3-1.3 5.5-.7.8-1.6 1.2-2.7 1.2-2.9-.1-5.7-3.5-6.2-7.4zm4.8 30c-4.3 0-7.7-2.6-7.7-6 0-3.1 3.9-5.8 8.4-5.8h.1c1 0 1.9.2 2.8.4l.9.6c2.1 1.4 3.5 2.4 3.8 3.9.1.4.1.8.1 1.1.2 3.8-2.7 5.8-8.4 5.8z"/></symbol><symbol viewBox="0 0 30 30" id="svgicon-googleplus-v4"><path d="M23.5 13.5h-2.7v-2.7c0-.2-.2-.4-.4-.4h-.8c-.2 0-.4.2-.4.4v2.7h-2.7c-.2 0-.4.2-.4.4v.8c0 .2.2.4.4.4h2.7v2.7c0 .2.2.4.4.4h.8c.2 0 .4-.2.4-.4V15h2.7c.2 0 .4-.2.4-.4v-.8c0-.1-.2-.3-.4-.3z"/><path d="M14.5 15.9c-.6-.4-1.1-1-1.1-1.2 0-.3 0-.5.8-1.1 1-.7 1.5-1.7 1.5-2.8 0-.9-.3-1.8-.8-2.4h.4c.1 0 .2 0 .2-.1l1.1-.8c.1-.1.2-.3.1-.4-.1 0-.2-.1-.4-.1h-4.7c-.5 0-1 .1-1.6.3-1.7.6-2.9 2.1-2.9 3.6 0 2.1 1.7 3.8 3.9 3.8 0 .2-.1.3-.1.5 0 .3.1.6.3.9h-.1c-2.1 0-4 1-4.7 2.6-.2.4-.3.8-.3 1.2 0 .4.1.8.3 1.1.5.8 1.4 1.4 2.7 1.8.7.2 1.4.3 2.2.3.7 0 1.3-.1 1.9-.3 1.9-.5 3.1-1.9 3.1-3.5s-.5-2.5-1.8-3.4zm-4.9-5.1c-.1-.8 0-1.5.4-1.9.3-.3.6-.4 1-.4 1 0 2 1.2 2.2 2.6.1.8-.1 1.5-.5 2-.3.3-.6.4-1 .4-.9-.1-2-1.3-2.1-2.7zm1.7 10.7c-1.5 0-2.8-.9-2.8-2.2 0-1.1 1.4-2.1 3-2.1.3 0 .7.1 1 .2.1.1.2.1.3.2.7.5 1.2.8 1.4 1.4v.4c.2 1.4-.9 2.1-2.9 2.1z"/></symbol><symbol viewBox="0 0 50 50" id="svgicon-heart"><path d="M2.3 18.5c0 11.6 10.2 18.4 17.6 23.4 1.9 1.3 3.5 2.4 4.8 3.4l.6.5.6-.5c1.2-1 2.9-2.1 4.8-3.4 7.4-5 17.6-11.8 17.6-23.4 0-7.2-5.8-13-13-13-3.9 0-7.5 1.7-10 4.7-2.5-3-6.1-4.7-10-4.7-7.2 0-13 5.8-13 13zm13-11c3.7 0 7.1 1.8 9.2 4.9l.8 1.3.8-1.3c2-3.1 5.5-4.9 9.2-4.9 6.1 0 11 4.9 11 11 0 10.5-9.7 17-16.7 21.7-1.6 1.1-3.1 2.1-4.3 3-1.2-.9-2.6-1.9-4.3-3C13.9 35.5 4.3 29 4.3 18.5c0-6.1 4.9-11 11-11z"/></symbol><symbol viewBox="0 0 50 50" id="svgicon-home"><path d="M37 7h2v5.2l2 2.1V5h-6v3l2 2.1zM1.8 26.6L5 23.3V50h40V23.3l3.2 3.3c.2.2.5.3.7.3.2 0 .5-.1.7-.3.4-.4.4-1 0-1.4L25.7.4c-.2-.2-.4-.3-.7-.3s-.5.1-.7.3L.4 25.2c-.4.4-.4 1 0 1.4.4.4 1 .4 1.4 0zM30 48H20V29h10v19zM25 2.5l18 18.8V48H32V27H18v21H7V21.2L25 2.5z"/></symbol><symbol viewBox="0 0 30 30" id="svgicon-home-bold-v4"><path d="M7.1 12.7c-.1.1-.1.1 0 0zm-.1.1v9.8c0 1.2.2 1.4 1.4 1.4h3.2c1.1 0 1.4-.2 1.4-1.4v-3.8h4.1v3.8c0 1.2.2 1.4 1.4 1.4h3.2c1.2 0 1.4-.3 1.4-1.4v-9.5s0-.1-.1-.1l-8-7-8 6.8z"/></symbol><symbol viewBox="0 0 30 30" id="svgicon-home-v4"><path d="M15 8.3l5.5 5v7.6H17.7v-3.4c0-.6-.4-1-1-1h-3.3c-.6 0-1 .4-1 1v3.4H9.5V13L15 8.3M15 7l-6.4 5.6-.1.1v8.1c0 1 .2 1.2 1.1 1.2h2.6c.9 0 1.1-.2 1.1-1.2v-3.2h3.3v3.2c0 1 .2 1.2 1.1 1.2h2.6c.9 0 1.1-.2 1.1-1.2v-7.9s0-.1-.1-.1L15 7zm-6.4 5.6zm0 0c-.1 0-.1.1 0 0z"/></symbol><symbol viewBox="0 0 50 50" id="svgicon-image"><path d="M3 23h20V4H3v19zM5 6h16v15H5V6zm42 21H27v19h20V27zm-2 17H29V29h16v15zM3 46h20V27H3v19zm2-17h16v15H5V29zm22-6h20V4H27v19zm2-17h16v15H29V6z"/></symbol><symbol viewBox="0 0 30 30" id="svgicon-image-bold-v4"><path d="M21.3 6H8.7C7.3 6 6 7.3 6 8.7v12.6C6 22.8 7.3 24 8.7 24h12.6c1.5 0 2.7-1.3 2.7-2.7V8.7C24 7.3 22.7 6 21.3 6zm.9 15.3c0 .5-.4.9-.9.9H8.7c-.5 0-.9-.4-.9-.9V8.7c0-.5.4-.9.9-.9h12.6c.5 0 .9.4.9.9v12.6z"/><path d="M17.7 13.2c.9 0 1.8-.9 1.8-1.8s-.9-1.8-1.8-1.8-1.8.9-1.8 1.8.9 1.8 1.8 1.8zM15 18.6l-2.7-7.2-2.7 9h10.8L17.7 15z"/></symbol><symbol viewBox="0 0 30 30" id="svgicon-image-v4"><path d="M12.5 15c1.4 0 2.5-1.1 2.5-2.5S13.9 10 12.5 10 10 11.1 10 12.5s1.1 2.5 2.5 2.5zm0-4c.8 0 1.5.7 1.5 1.5s-.7 1.5-1.5 1.5-1.5-.7-1.5-1.5.7-1.5 1.5-1.5z"/><path d="M20 7H10c-1.6 0-3 1.3-3 3v10c0 1.7 1.4 3 3 3h10c1.7 0 3-1.3 3-3V10c0-1.7-1.3-3-3-3zM10 8h10c1.1 0 2 .9 2 2v6.8l-2.5-2.5-4 4.4-3.5-2.3-4 3.4V10c0-1.1.9-2 2-2zm10 14H10c-.8 0-1.4-.4-1.8-1.1l3.9-3.3 3.5 2.3 3.9-4.2 2.5 2.5V20c0 1.1-.9 2-2 2z"/></symbol><symbol viewBox="0 0 50 50" id="svgicon-info"><path d="M25 0C11.2 0 0 11.2 0 25s11.2 25 25 25 25-11.2 25-25S38.8 0 25 0zm0 48C12.3 48 2 37.7 2 25S12.3 2 25 2s23 10.3 23 23-10.3 23-23 23zm1.2-35.1h-2.4c-.2 0-.4.1-.4.4v2.6c0 .2.1.4.4.4h2.4c.2 0 .4-.1.4-.4v-2.6c0-.3-.2-.4-.4-.4zm-.1 7.2h-2.3c-.2 0-.4.1-.4.4V37c0 .2.1.4.4.4h2.3c.2 0 .4-.1.4-.4V20.5c0-.2-.1-.4-.4-.4z"/></symbol><symbol viewBox="0 0 30 30" id="svgicon-info-v4"><path d="M15 7c-4.4 0-8 3.6-8 8s3.6 8 8 8 8-3.6 8-8-3.6-8-8-8zm0 12.5s-.6.2-.9.2h-.3.1c-.4-.1-.6-.5-.5-1l.6-2.5.3-1.1c.3-1-.8.2-1-.3-.1-.3.8-1 1.6-1.5 0 0 .5-.2.8-.2h.2c.4.1.7.6.6 1l-.6 2.5-.3 1.1c-.3 1 .8-.2 1 .3.1.3-.9 1-1.6 1.5zm1.5-7.8c-.2.6-.8 1-1.4.8-.6-.2-1-.8-.8-1.4.2-.6.8-1 1.4-.8.6.2 1 .8.8 1.4z"/></symbol><symbol viewBox="0 0 50 50" id="svgicon-instagram"><path d="M43.5 1h-37C3.5 1 1 3.5 1 6.5v36.9C1 46.5 3.5 49 6.5 49h36.9c3.1 0 5.5-2.5 5.5-5.5v-37c.1-3-2.4-5.5-5.4-5.5zM25 15.8c5.1 0 9.2 4.1 9.2 9.2s-4.1 9.2-9.2 9.2-9.2-4.1-9.2-9.2 4.1-9.2 9.2-9.2zm18.5 25.8c0 1-.8 1.8-1.8 1.8H8.4c-1 0-1.8-.8-1.8-1.8V21.3h4.2c-.3 1.2-.5 2.4-.5 3.7 0 8.2 6.6 14.8 14.8 14.8 8.2 0 14.8-6.6 14.8-14.8 0-1.3-.2-2.5-.5-3.7h4.2v20.3zm0-27.7c0 1-.8 1.8-1.8 1.8h-5.5c-1 0-1.8-.8-1.8-1.8V8.4c0-1 .8-1.8 1.8-1.8h5.5c1 0 1.8.8 1.8 1.8v5.5z"/></symbol><symbol viewBox="0 0 30 30" id="svgicon-instagram-v4"><path d="M21.2 7H8.8C7.8 7 7 7.8 7 8.8v12.3c0 1 .8 1.8 1.8 1.8h12.3c1 0 1.8-.8 1.8-1.8V8.8c.1-1-.7-1.8-1.7-1.8zM15 11.9c1.7 0 3.1 1.4 3.1 3.1 0 1.7-1.4 3.1-3.1 3.1-1.7 0-3.1-1.4-3.1-3.1 0-1.7 1.4-3.1 3.1-3.1zm6.2 8.6c0 .3-.3.6-.6.6H9.5c-.3 0-.6-.3-.6-.6v-6.8h1.4c-.1.4-.2.8-.2 1.2 0 2.7 2.2 4.9 4.9 4.9s4.9-2.2 4.9-4.9c0-.4-.1-.8-.2-1.2h1.4v6.8zm0-9.2c0 .3-.3.6-.6.6h-1.8c-.3 0-.6-.3-.6-.6V9.5c0-.3.3-.6.6-.6h1.8c.3 0 .6.3.6.6v1.8z"/></symbol><symbol viewBox="0 0 50 50" id="svgicon-last"><path d="M11.4 4.8l2-2.1L35.7 25 13.4 47.3l-2-2.1L31.5 25zm24.3-2h2.9v44.5h-2.9z"/></symbol><symbol viewBox="0 0 50 50" id="svgicon-left"><path d="M35 2.8L12.8 25 35 47.3l2.1-2.1L16.9 25 37.1 4.8z"/></symbol><symbol viewBox="0 0 30 30" id="svgicon-left-arrow-v4"><path d="M22.2 14.3H9.3l2.9-3c.2-.2.2-.8 0-1-.2-.3-.7-.4-1 0l-4 4.3c-.2.3-.2.7 0 1l4 4.3c.2.3.7.3.9 0 .2-.3.2-.7 0-1l-2.9-3.1h12.9c.5 0 .8-.3.8-.7s-.2-.8-.7-.8z"/></symbol><symbol viewBox="0 0 30 30" id="svgicon-left-v4"><path d="M17.9 23c-.3 0-.5-.1-.7-.3l-7-7c-.4-.4-.4-1 0-1.4l7-7c.4-.4 1-.4 1.4 0s.4 1 0 1.4L12.3 15l6.3 6.3c.4.4.4 1 0 1.4-.2.2-.5.3-.7.3z"/></symbol><symbol viewBox="0 0 14 14" id="svgicon-less"><path d="M0 6.3h14v1.5H0z"/></symbol><symbol viewBox="0 0 30 30" id="svgicon-like-bold-v4"><path d="M19 7.5c-2 0-3 .9-4 2.8-1-1.9-2-2.8-4-2.8-2.2 0-4 1.7-4 3.8 0 2.5 1.8 5.1 4.2 7.6l3 3.3s.3.3.9.3c.5 0 .9-.3.9-.3l2.9-3.3c2.4-2.6 4.3-5.1 4.3-7.7-.2-2-2-3.7-4.2-3.7z"/></symbol><symbol viewBox="0 0 30 30" id="svgicon-like-v4"><path d="M15 15.6c0-.1 0-.1 0 0zm0 0c0-.1 0-.1 0 0zM19 9c1.7 0 3 1.2 3 2.8 0 1.9-1.2 4.1-4 7L15.2 22h-.4L12 18.7c-2.7-2.9-3.9-5-3.9-6.9C8 10.3 9.4 9 11 9c1.5 0 2.2.5 3.1 2.3.2.3.5.5.9.5s.7-.2.9-.5C16.8 9.6 17.6 9 19 9m0-1c-2 0-3 .9-4 2.8C14 9 13.1 8 11 8c-2.2 0-4 1.7-4 3.8 0 2.5 1.8 5.1 4.2 7.6l3 3.3s.3.3.9.3c.5 0 .9-.3.9-.3l2.9-3.3c2.4-2.6 4.3-5.1 4.3-7.7-.2-2-2-3.7-4.2-3.7z"/></symbol><symbol viewBox="0 0 30 30" id="svgicon-link-v4"><path d="M15.6 18.9l-2 2c-1.2 1.3-3.3 1.3-4.6 0-.6-.6-1-1.4-1-2.3s.3-1.7 1-2.3l2-2c.2-.2.2-.5 0-.7-.2-.2-.5-.2-.7 0l-2 2c-.9.8-1.3 1.9-1.3 3s.4 2.2 1.3 3.1c.8.9 2 1.3 3.1 1.3 1.2 0 2.2-.4 3-1.3l2-2c.2-.2.2-.5 0-.7-.3-.3-.6-.3-.8-.1zm6.1-10.6c-1.7-1.7-4.3-1.7-6 0l-2 2c-.2.2-.2.5 0 .7.2.2.5.2.7 0l2-2c1.3-1.3 3.3-1.3 4.6 0 1.3 1.3 1.3 3.3 0 4.6l-2 2c-.2.2-.2.5 0 .7.1.1.3.1.4.1s.2 0 .3-.1l2-2c1.7-1.6 1.7-4.3 0-6z"/></symbol><symbol viewBox="0 0 50 50" id="svgicon-linkedin"><path d="M38.2 15.7c-7.6 0-9.7 5.1-9.7 5.1l.1-3.9h-9.7L18.7 48h10V28.9s.9-4.8 5.8-4.8c4.9 0 5.4 5 5.4 5V48h9.9V28.3c-.5-8.3-4-12.6-11.6-12.6zM.3 48h12.3V16.9H.3z"/><ellipse cx="6.4" cy="6.9" rx="6.2" ry="5.5"/></symbol><symbol viewBox="0 0 30 30" id="svgicon-linkedin-v4"><path d="M19.5 11.9c-2.6 0-3.3 1.8-3.3 1.8v-1.3h-3.3L12.8 23h3.4v-6.6s.3-1.6 2-1.6 1.9 1.7 1.9 1.7V23h3.4v-6.8c-.2-2.8-1.4-4.3-4-4.3zM6.5 23h4.2V12.3H6.5z"/><ellipse cx="8.6" cy="8.9" rx="2.1" ry="1.9"/></symbol><symbol viewBox="0 0 50 50" id="svgicon-list"><path d="M3 7h3v3H3zm8 0h36v3H11zM3 18h3v3H3zm8 0h36v3H11zM3 29h3v3H3zm8 0h36v3H11zM3 40h3v3H3zm8 0h36v3H11z"/></symbol><symbol viewBox="0 0 30 30" id="svgicon-list-v4"><circle cx="7.6" cy="9.6" r=".6"/><path d="M22.4 15.6h-9.8c-.4 0-.6-.2-.6-.6 0-.4.2-.6.6-.6h9.8c.4 0 .6.2.6.6 0 .4-.2.6-.6.6zm0 5.4h-9.8c-.4 0-.6-.2-.6-.6s.2-.6.6-.6h9.8c.4 0 .6.2.6.6s-.2.6-.6.6zm0-10.8h-9.8c-.4 0-.6-.2-.6-.6 0-.4.2-.6.6-.6h9.8c.4 0 .6.2.6.6 0 .4-.2.6-.6.6z"/><circle cx="7.6" cy="15" r=".6"/><circle cx="7.6" cy="20.4" r=".6"/></symbol><symbol viewBox="0 0 50 50" id="svgicon-logout"><path d="M23.7 0h2v24h-2zm11 4v2.2C42 9.8 47 17.3 47 26c0 12.1-9.9 22-22 22S3 38.1 3 26c0-8.4 4.7-15.7 11.7-19.4V4.3C6.6 8.2 1 16.4 1 26c0 13.3 10.7 24 24 24s24-10.7 24-24c0-9.8-5.9-18.2-14.3-22z"/></symbol><symbol viewBox="0 0 50 50" id="svgicon-mail"><path d="M0 43h50V7H0v36zm2-28.8c2.8 2.4 8.7 7.6 13.1 11.4L2 36V14.2zM2 41v-2.5l14.7-11.6c1.9 1.7 3.3 2.9 3.7 3.2 1.9 1.7 3.9 1.9 4.6 1.9s2.7-.2 4.6-1.8l3.7-3.2L48 38.5V41H2zm32.9-15.4L48 14.2V36L34.9 25.6zM48 9v2.5L28.3 28.6C26.9 29.9 25.5 30 25 30s-1.9-.1-3.3-1.4C20.3 27.4 4.1 13.4 2 11.5V9h46z"/></symbol><symbol viewBox="0 0 40 40" id="svgicon-mail-bold-alt"><path d="M9.6 12c-.2 0-.4 0-.6.1l11 9.3 11.1-9.2c-.2-.1-.4-.2-.7-.2H9.6z"/><path d="M31.9 13.2l-11.6 9.6c0 .1-.2.2-.3.2-.2 0-.3-.1-.4-.2L8.1 13.1c-.1.2-.1.4-.1.5v12.7c0 .2 0 .4.1.5l6.4-6.4c.3-.3.7-.3 1 0 .3.3.3.7 0 1l-6.4 6.4c.1.2.3.2.5.2h20.8c.2 0 .4 0 .6-.1l-6.4-6.4c-.3-.3-.3-.7 0-1 .3-.3.7-.3 1 0l6.4 6.3c0-.2.1-.3.1-.5V13.6c-.1-.1-.1-.2-.2-.4z"/></symbol><symbol viewBox="0 0 30 30" id="svgicon-mail-bold-v4"><path d="M7.2 19.2l3.5-4.5-3.6-2.2-1.1-.6v7c0 .5.1 1 .4 1.5l.8-1.2zM6.8 11l.4.3 6.5 4c.7.4 1.8.4 2.4 0l6.8-4.2 1-.6C23.6 9 22.4 8 21 8H9c-1.5 0-2.7 1.1-3 2.5l.8.5zm16.9 1l-.8.5-3.8 2.3 3.7 4.7.7.9c.2-.4.4-.9.4-1.5v-7.1l-.2.2z"/><path d="M16.8 16.2c-.4.4-1.1.4-1.8.4s-1.3-.1-1.8-.4l-1.4-.9-3.9 5-.6.7-.2.3c.5.4 1.2.7 1.9.7h11.9c.7 0 1.4-.3 2-.8l-4.7-5.9-1.4.9z"/></symbol><symbol viewBox="0 0 30 30" id="svgicon-mail-v4"><path d="M21 8H9c-1.7 0-3 1.4-3 3.1v7.8C6 20.6 7.3 22 9 22h11.9c1.7 0 3.1-1.5 3.1-3.1v-7.8C24 9.4 22.7 8 21 8zm1.9 11.4l-3.7-4.7 3.8-2.3V19c-.1.1-.1.3-.1.4zM9.1 9.2h12c.9 0 1.8.8 1.9 1.8l-6.8 4.2c-.6.4-1.7.4-2.4 0l-6.5-4c-.1-1 .8-2 1.8-2zm-1.9 10v-6.7l3.6 2.2-3.6 4.5zm1.9 1.7c-.5 0-.9-.2-1.3-.6l3.9-5 1.4.9c.6.3 1.1.4 1.8.4s1.4-.1 1.8-.4l1.4-.9 4 5.1c-.3.3-.7.5-1.2.5H9.1z"/></symbol><symbol viewBox="0 0 30 30" id="svgicon-masonry-v4"><path d="M20 7H10c-1.7 0-3 1.3-3 3v10c0 1.7 1.3 3 3 3h10c1.7 0 3-1.3 3-3V10c0-1.7-1.3-3-3-3zm2 3v7h-6.5V8H20c1.1 0 2 .9 2 2zM10 8h4.5v4H8v-2c0-1.1.9-2 2-2zM8 20v-7h6.5v9H10c-1.1 0-2-.9-2-2zm12 2h-4.5v-4H22v2c0 1.1-.9 2-2 2z"/></symbol><symbol viewBox="0 0 50 50" id="svgicon-menu"><path d="M0 33h50v4H0zm0-10h50v4H0zm0-10h50v4H0z"/></symbol><symbol viewBox="0 0 30 30" id="svgicon-menu-v4"><path d="M23.5 10.3l-17-.1c-.2 0-.5-.3-.5-.6.1-.4.3-.6.5-.6l17 .1c.3-.1.5.2.5.6s-.2.6-.5.6zm0 5.3l-17-.1c-.3.1-.5-.2-.5-.5s.2-.6.5-.6l17 .1c.3 0 .5.3.5.6s-.2.5-.5.5zm0 5.4h-17c-.3 0-.5-.3-.5-.7 0-.3.2-.6.5-.6l17 .1c.3 0 .5.3.5.6s-.3.6-.5.6z"/></symbol><symbol viewBox="0 0 50 50" id="svgicon-minus"><path d="M21 37c3.7 0 7.1-1.2 9.9-3.2L44 46.9l2.8-2.8-13-13c2.6-3 4.1-6.8 4.1-11.1 0-9.4-7.6-17-17-17S4 10.6 4 20s7.6 17 17 17zm0-32c8.3 0 15 6.7 15 15s-6.7 15-15 15S6 28.3 6 20 12.7 5 21 5zm-8 14h16v2H13z"/></symbol><symbol viewBox="0 0 30 30" id="svgicon-minus-v4"><path d="M20.5 15.5h-11c-.3 0-.5-.2-.5-.5s.2-.5.5-.5h11c.3 0 .5.2.5.5s-.2.5-.5.5z"/></symbol><symbol viewBox="0 0 14 14" id="svgicon-more"><path d="M14 6.3H7.7V0H6.2v6.3H0v1.5h6.2V14h1.5V7.8H14z"/></symbol><symbol viewBox="0 0 30 30" id="svgicon-more-v4"><circle cx="9" cy="15" r="2"/><circle cx="15" cy="15" r="2"/><circle cx="21" cy="15" r="2"/></symbol><symbol viewBox="0 0 50 50" id="svgicon-mozaic"><path d="M15 6V4H3v12h12V6zm-2 8H5V6h8v8zm6-8v10h12V4H19v2zm10 0v8h-8V6h8zm18 0V4H35v12h12V6zm-2 8h-8V6h8v8zM3 21v10h12V19H3v2zm10 0v8H5v-8h8zm6 0v10h12V19H19v2zm10 0v8h-8v-8h8zm6 0v10h12V19H35v2zm10 0v8h-8v-8h8zM3 36v10h12V34H3v2zm10 0v8H5v-8h8zm6 0v10h12V34H19v2zm10 0v8h-8v-8h8z"/></symbol><symbol viewBox="0 0 50 50" id="svgicon-new"><path d="M47.1 5.4c-1.4 0-2.5.9-2.9 2.2L5.8 19.1c-.5-1-1.5-1.7-2.7-1.7-1.7 0-3 1.3-3 3v6c0 1.7 1.3 3 3 3 1.2 0 2.2-.7 2.7-1.7l8 2.8-.8 2.1c-.4 1.1-.3 2.3.3 3.4.5 1.1 1.5 1.9 2.6 2.3l4.2 1.4c1.1.4 2.3.3 3.4-.3 1.1-.5 1.9-1.5 2.3-2.6l.6-1.9 17.9 6.3c.3 1.3 1.5 2.3 2.9 2.3 1.7 0 3-1.3 3-3v-32c-.1-1.8-1.5-3.1-3.1-3.1zm-44 22c-.6 0-1-.4-1-1v-6c0-.6.4-1 1-1s1 .4 1 1v6c0 .6-.5 1-1 1zm20.6 8.8c-.2.6-.6 1.1-1.2 1.4-.6.3-1.3.4-1.9.1l-4.2-1.4c-.6-.2-1.1-.6-1.4-1.2-.3-.6-.4-1.3-.2-1.8l.8-2.1 8.7 3.1-.6 1.9zM6.1 25.7v-4.5l38-11.4V39l-38-13.3zm42 14.7c0 .6-.4 1-1 1s-1-.4-1-1v-32c0-.6.4-1 1-1s1 .4 1 1v32z"/></symbol><symbol viewBox="0 0 30 30" id="svgicon-new-v4"><path d="M22.1 9.8v10.4h-.9V9.8h.9m.5-1h-1.9c-.3 0-.5.2-.5.5v11.4c0 .3.2.5.5.5h1.9c.3 0 .5-.2.5-.5V9.3c0-.3-.2-.5-.5-.5zM7.7 13.1v3.7h-.9v-3.7h.9m.5-1H6.3c-.3 0-.5.2-.5.5v4.7c0 .3.2.5.5.5h1.9c.3 0 .5-.2.5-.5v-4.7c0-.3-.2-.5-.5-.5z"/><path d="M20.7 20.5h-.1l-12.4-3c-.2-.1-.4-.3-.4-.5v-4c0-.2.2-.4.4-.5l12.4-3c.1 0 .3 0 .4.1.1.1.2.2.2.4v10c0 .2-.1.3-.2.4-.1 0-.2.1-.3.1zM8.8 16.6l11.4 2.8v-8.8L8.8 13.4v3.2z"/><path d="M14.6 21.8h-.2l-3.9-1c-.5-.1-.7-.6-.6-1.1l.5-1.9c.1-.3.3-.4.6-.4.3.1.4.3.4.6l-.4 1.8 3.7.9.4-1.8c.1-.3.3-.4.6-.4.3.1.4.3.4.6l-.6 1.9c-.1.2-.2.4-.4.6-.1.1-.3.2-.5.2z"/></symbol><symbol viewBox="0 0 50 50" id="svgicon-news"><path d="M33.7 2.8H1.9c-.6 0-1 .4-1 1v35.7c0 2.6.8 4.7 2.3 6.2 2.5 2.4 6 2.5 6.3 2.5h30.7v-.1c.4 0 .7.1 1 .1.1 0 2 0 3.8-1.1 1.8-1 3.8-3.1 3.8-7.6V14.4c0-1.7-1.1-4.9-4.8-4.9s-4.8 3.2-4.8 4.8v24.2c0 .6.4 1 1 1s1-.4 1-1V14.4c0-.5.2-2.9 2.8-2.9 2.7 0 2.8 2.6 2.8 2.9v25.1c0 6.5-5.1 6.7-5.7 6.7-.3 0-6.7-.1-6.7-6.7V3.8c.3-.6-.2-1-.7-1zm1.9 43.4h-26c-.1 0-3 0-5-1.9-1.1-1.1-1.7-2.8-1.7-4.8V4.8h29.8v34.7c0 3.3 1.3 5.4 2.9 6.7z"/></symbol><symbol viewBox="0 0 30 30" id="svgicon-news-bold-v4"><path d="M21 8.3h-9.7c-1.6 0-3 1.3-3 3V21c0 .7.3 1.4.7 1.9h-.1C7.9 23 7 22.1 7 21V8.5c0-.8.6-1.4 1.4-1.5h14.7c-.5-.6-1.2-1.1-2-1.1H8.5C7.1 6 6 7.1 6 8.5V21c0 1.6 1.3 2.9 2.9 3H21c1.6 0 3-1.3 3-3v-9.8c0-1.6-1.3-2.9-3-2.9zm-9.1 10h8.8v1.5h-8.8v-1.5zm0-1.4v-4.3h3.3v4.3h-3.3zm4.4 0v-1.5h4.4v1.5h-4.4zm0-2.9v-1.5h4.4V14h-4.4z"/></symbol><symbol viewBox="0 0 30 30" id="svgicon-news-v4"><path d="M20.7 8.7h-9.2c-1.5 0-2.8 1.3-2.8 2.8v9.2c0 .7.3 1.3.7 1.8h-.1c-1 0-1.8-.8-1.8-1.8V8.9c0-.7.6-1.3 1.3-1.4h13.9c-.4-.6-1.1-1-1.9-1H8.9c-1.3 0-2.4 1.1-2.4 2.4v11.9c0 1.5 1.2 2.8 2.7 2.8h11.4c1.5 0 2.8-1.3 2.8-2.8v-9.2c.1-1.7-1.2-2.9-2.7-2.9zm1.8 12c0 1-.8 1.8-1.8 1.8h-9.2c-1 0-1.8-.8-1.8-1.8v-9.2c0-1 .8-1.8 1.8-1.8h9.2c1 0 1.8.8 1.8 1.8v9.2z"/><path d="M16.2 12.4h4.1v1.4h-4.1zm0 3h4.1v1.4h-4.1zm-4.2-3h3.1v4.4H12zm0 6h8.3v1.4H12z"/></symbol><symbol viewBox="0 0 30 30" id="svgicon-no-connection-v4"><path fill="none" d="M11.4 16.1h3c.1 0 .3.1.3.2.1.1.1.2.1.4l-1.2 4.9 3-4-4.3-4-.9 2.5z"/><path d="M14.4 7.9h4l-2.8 5.2c-.1.1-.1.3 0 .4.1.1.2.2.4.2h3.3l-1 1.5.7.6 1.6-2.2c.1-.1.1-.3 0-.5-.1-.1-.2-.2-.4-.2h-3.4l2.8-5.2c.1-.1.1-.3 0-.4-.2-.2-.4-.3-.5-.3h-5c-.2 0-.4.1-.4.3l-.9 2.8.7.6.9-2.8zm7.2 12.8L8.9 9.2c-.2-.2-.5-.2-.7 0-.2.2-.2.5 0 .7l3.3 3-1.2 3.5c0 .1 0 .3.1.4.1.1.2.2.4.2h3l-1.6 6.5c0 .2.1.4.2.5h.2c.1 0 .3-.1.4-.2l4.2-5.8 3.7 3.3c.1.1.2.1.3.1.1 0 .3-.1.4-.2.2 0 .2-.3 0-.5zm-8 .9l1.2-4.9c0-.1 0-.3-.1-.4-.1-.1-.2-.2-.3-.2h-3l.8-2.5 4.3 4-2.9 4z"/></symbol><symbol viewBox="0 0 30 30" id="svgicon-no-content-bold-v4"><g fill-rule="evenodd" clip-rule="evenodd"><path d="M24 9.7v-1C24 7.3 22.7 6 21.3 6H8.7C7.3 6 6 7.3 6 8.7v12.6C6 22.8 7.3 24 8.7 24h12.6c1.5 0 2.7-1.3 2.7-2.7V9.7zM8.7 7.1h12.6c.9 0 1.6.8 1.6 1.6v1H7.1v-1c0-.9.7-1.6 1.6-1.6zm14.2 14.2c0 .9-.8 1.6-1.6 1.6H8.7c-.9 0-1.6-.8-1.6-1.6V10.8H23v10.5z"/><circle cx="8.6" cy="8.6" r=".5"/><circle cx="10.2" cy="8.6" r=".5"/><circle cx="11.8" cy="8.6" r=".5"/><ellipse cx="12.3" cy="16.9" rx=".5" ry=".8"/><ellipse cx="17.7" cy="16.9" rx=".5" ry=".8"/><path d="M15.2 18.9h-.5c-.4 0-.8.4-.8.8H16c.1-.4-.3-.8-.8-.8z"/></g></symbol><symbol viewBox="0 0 50 50" id="svgicon-no_connection"><path d="M37.8 15H26.5l7.6-15H22.7l-3 7.2 9.8 19.4zM27.7 29.1L22 17.9l-8.1-16c-.2-.5-.8-.6-1.2-.4-.5.2-.6.8-.4 1.2l5.1 10.1-4.8 11.5h10L12.7 50l13.8-19.2 4.3 8.6c.2.3.5.5.8.5.1 0 .3 0 .4-.1.5-.2.6-.8.4-1.2l-4.7-9.5z"/></symbol><symbol viewBox="0 0 50 50" id="svgicon-not_read"><g fill-rule="evenodd" clip-rule="evenodd"><path d="M25 0C11.2 0 0 11.2 0 25s11.2 25 25 25 25-11.2 25-25S38.8 0 25 0zm0 48C12.3 48 2 37.7 2 25S12.3 2 25 2s23 10.3 23 23-10.3 23-23 23zm0-39.5c-1.7 0-3 1.3-3 3v18c0 1.7 1.3 3 3 3s3-1.3 3-3v-18c0-1.7-1.3-3-3-3z"/><circle cx="25" cy="38.5" r="3"/></g></symbol><symbol viewBox="0 0 30 30" id="svgicon-page-bold-v4"><path d="M20 7H10c-1.7 0-3 1.3-3 3v10c0 1.6 1.3 3 3 3h10c1.7 0 3-1.4 3-3V10c0-1.7-1.3-3-3-3zm-1.5 11h-7c-.3 0-.5-.2-.5-.5s.2-.5.5-.5h7c.3 0 .5.2.5.5s-.2.5-.5.5zm0-2.5h-7c-.3 0-.5-.2-.5-.5s.2-.5.5-.5h7c.3 0 .5.2.5.5s-.2.5-.5.5zm0-2.5h-7c-.3 0-.5-.2-.5-.5s.2-.5.5-.5h7c.3 0 .5.2.5.5s-.2.5-.5.5z"/></symbol><symbol viewBox="0 0 30 30" id="svgicon-page-v4"><path d="M20 8c1.1 0 2 .9 2 2v10c0 1.1-.9 2-2 2H10c-1.1 0-2-.9-2-2V10c0-1.1.9-2 2-2h10m0-1H10c-1.7 0-3 1.3-3 3v10c0 1.7 1.3 3 3 3h10c1.6 0 3-1.3 3-3V10c0-1.7-1.4-3-3-3z"/><path d="M18.5 12h-7c-.3 0-.5.2-.5.5s.2.5.5.5h7c.3 0 .5-.2.5-.5s-.2-.5-.5-.5zm0 2.5h-7c-.3 0-.5.2-.5.5s.2.5.5.5h7c.3 0 .5-.2.5-.5s-.2-.5-.5-.5zm0 2.5h-7c-.3 0-.5.2-.5.5s.2.5.5.5h7c.3 0 .5-.2.5-.5s-.2-.5-.5-.5z"/></symbol><symbol viewBox="0 0 50 50" id="svgicon-pages"><path d="M15 6V4H3v12h12V6zm-2 8H5V6h8v8zm6-8v10h12V4H19v2zm10 0v8h-8V6h8zm18 0V4H35v12h12V6zm-2 8h-8V6h8v8zM3 21v10h12V19H3v2zm10 0v8H5v-8h8zm6 0v10h12V19H19v2zm10 0v8h-8v-8h8zm6 0v10h12V19H35v2zm10 0v8h-8v-8h8zM3 36v10h12V34H3v2zm10 0v8H5v-8h8zm6 0v10h12V34H19v2zm10 0v8h-8v-8h8z"/></symbol><symbol viewBox="0 0 30 30" id="svgicon-pages-v4"><path fill="none" d="M19 10H9c-.6 0-1 .4-1 1v10c0 .6.4 1 1 1h10c.6 0 1-.4 1-1V11c0-.6-.4-1-1-1z"/><path d="M19 9H9c-1.1 0-2 .9-2 2v10c0 1.1.9 2 2 2h10c1.1 0 2-.9 2-2V11c0-1.1-.9-2-2-2zm1 12c0 .6-.4 1-1 1H9c-.6 0-1-.4-1-1V11c0-.6.4-1 1-1h10c.6 0 1 .4 1 1v10z"/><path d="M19.5 7h-8c-.3 0-.5.2-.5.5s.2.5.5.5h8c1.4 0 2.5 1.1 2.5 2.5v8c0 .3.2.5.5.5s.5-.2.5-.5v-8C23 8.6 21.4 7 19.5 7z"/></symbol><symbol viewBox="0 0 50 50" id="svgicon-paperclip"><path d="M39 6c-1.9 0-3.6.7-4.9 2l-20 20c-.9.9-1.5 2.2-1.5 3.5 0 1.3.5 2.6 1.5 3.5.9.9 2.2 1.5 3.5 1.5s2.6-.5 3.5-1.5l15.1-15c.4-.4.4-1 0-1.4s-1-.4-1.4 0L19.7 33.7c-1.1 1.1-3.1 1.1-4.2 0-.6-.6-.9-1.3-.9-2.1s.3-1.5.9-2.1l20-20c.9-1 2.2-1.5 3.5-1.5s2.6.5 3.5 1.5c1.9 1.9 1.9 5.1 0 7L17.9 41.1c-2.7 2.7-7.1 2.7-9.9 0-2.7-2.7-2.7-7.1 0-9.9l19.7-19.7c.4-.4.4-1 0-1.4s-1-.4-1.4 0L6.6 29.8c-3.5 3.5-3.5 9.2 0 12.7 1.8 1.8 4.1 2.6 6.3 2.6s4.6-.9 6.3-2.6L44 17.9c2.7-2.7 2.7-7.2 0-9.9-1.4-1.3-3.1-2-5-2z"/></symbol><symbol viewBox="0 0 30 30" id="svgicon-paperclip-v4"><path d="M23.2 8.5l-.5-.5c-.9-.9-2.5-.9-3.4 0L10 17.2c-.5.5-.5 1.3 0 1.8l.5.5c.5.5 1.3.5 1.8 0l7.6-7.6.1-.1-.7-.7-7.7 7.7c-.1.1-.3.1-.4 0l-.5-.5c-.1-.1-.1-.3 0-.4l.7-.7.1-.1L20 8.6c.3-.3.6-.4 1-.4s.8.2 1 .4l.5.5c.6.6.6 1.5 0 2L12.2 21.5c-.3.3-.8.5-1.3.5s-1-.2-1.3-.5L8 19.8c-.7-.7-.7-1.9 0-2.6l9.5-9.5.1-.1-.7-.6-9.6 9.6c-1.1 1.1-1.1 2.9 0 4L9 22.2c.5.5 1.3.8 2 .8.6 0 1.1-.2 1.6-.5l10.6-10.6c1-1 1-2.5 0-3.4z"/></symbol><symbol viewBox="0 0 50 50" id="svgicon-parameters"><path d="M41.1 16.1l4.3-6.1L40 4.6l-6 4.3c-1.2-.7-2.5-1.2-3.8-1.6L28.8 0h-7.7l-1.2 7.3c-1.3.4-2.6.9-3.8 1.6l-6-4.3L4.6 10l4.2 6c-.7 1.2-1.2 2.5-1.6 3.9L0 21.1v7.7l7.2 1.3c.4 1.3.9 2.6 1.6 3.9l-4.3 6 5.4 5.4 6-4.2c1.2.7 2.5 1.2 3.8 1.6l1.2 7.3h7.7l1.3-7.3c1.3-.4 2.6-.9 3.8-1.6l6.1 4.3 5.4-5.4-4.3-6c.7-1.2 1.2-2.5 1.6-3.8l7.3-1.3v-7.7l-7.3-1.2c-.2-1.5-.8-2.8-1.4-4zm6.9 11l-7 1.2-.1.7c-.4 1.6-1 3.1-1.8 4.5l-.4.5 4.1 5.7-3 3.1-5.8-4-.6.3c-1.4.8-2.9 1.5-4.5 1.9l-.6.2-1.2 6.8h-4.3l-1.1-6.9-.7-.2c-1.6-.4-3.1-1-4.5-1.9l-.5-.3-5.7 4-3-3.1 4.1-5.7-.3-.6C10 32.1 9.4 30.5 9 29l-.2-.6L2 27.1v-4.3l6.9-1.1.1-.7c.4-1.6 1-3.1 1.9-4.5l.3-.6-4-5.7 3.1-3 5.7 4.1.6-.3c1.4-.8 2.9-1.5 4.5-1.8l.6-.2 1.1-7h4.3l1.2 6.9.7.2c1.6.4 3.1 1 4.5 1.9l.6.3 5.7-4.1 3 3-4.1 5.8.3.6c.8 1.4 1.5 2.9 1.8 4.5l.2.6 7 1.1v4.3zM25 16c-5 0-9 4-9 9s4 9 9 9 9-4 9-9-4-9-9-9zm0 16c-3.9 0-7-3.1-7-7s3.1-7 7-7 7 3.1 7 7-3.1 7-7 7z"/></symbol><symbol viewBox="0 0 30 30" id="svgicon-parameters-bold-v4"><path d="M8.4 16.6c.2.7.5 1.4.9 2.1l-1.1 1.1c-.5.5-.5.8-.1 1.2l1.1 1.1c.4.4.8.4 1.2-.1l1.2-1.2c.6.3 1.2.6 1.8.7v1.4c0 .7.2.9.8.9h1.6c.6 0 .8-.2.8-.9v-1.4c.6-.2 1.2-.4 1.8-.7l1.2 1.2c.5.5.8.5 1.2.1l1.1-1.1c.4-.4.4-.7-.1-1.2l-1.2-1.2c.4-.6.7-1.3.9-2.1H23c.6 0 .8-.2.8-.9v-1.4c0-.7-.2-.9-.8-.9h-1.5c-.2-.6-.4-1.2-.7-1.8l1.1-1.1c.5-.5.5-.8.1-1.2l-1-1c-.4-.4-.8-.4-1.2.1l-1 1c-.6-.4-1.3-.7-2.1-.9V6.9c0-.7-.2-.9-.8-.9h-1.6c-.6 0-.8.2-.8.9v1.4c-.7.2-1.4.5-2.1.9l-1-1c-.6-.5-.9-.5-1.4 0L7.9 9.3c-.4.4-.4.7.1 1.2l1.1 1.1c-.3.6-.6 1.2-.7 1.8H6.8c-.6 0-.8.2-.8.9v1.4c0 .7.2.9.8.9h1.6zm4-1.6c0-1.5 1.2-2.6 2.6-2.6 1.5 0 2.6 1.2 2.6 2.6s-1.2 2.6-2.6 2.6c-1.5 0-2.6-1.1-2.6-2.6z"/></symbol><symbol viewBox="0 0 30 30" id="svgicon-parameters-v4"><path d="M15.7 23h-1.3c-.8 0-1.2-.4-1.2-1.2v-.9c-.3-.1-.6-.2-1-.4l-.7.7c-.4.4-1 .8-1.7 0l-.9-.9c-.6-.6-.5-1.1 0-1.7l.8-.6c-.2-.4-.4-.8-.5-1.2h-1c-.8 0-1.2-.4-1.2-1.2v-1.2c0-.8.4-1.2 1.2-1.2h.9c.1-.3.2-.6.4-1l-.7-.7c-.2-.2-.5-.5-.5-.9s.2-.6.4-.8l.9-.9c.6-.6 1.1-.5 1.7.1l.7.6c.4-.2.8-.4 1.2-.5v-.9c0-.8.4-1.2 1.2-1.2h1.3c1 0 1.2.7 1.2 1.2v.9c.4.1.8.3 1.2.5l.6-.6c.2-.2.5-.4.8-.5.4 0 .7.2.9.4l.9.9c.2.2.4.4.4.8s-.2.7-.5.9l-.7.7c.2.3.3.6.4 1h.9c1 0 1.2.7 1.2 1.2v1.2c0 .5-.1 1.2-1.2 1.2H21c-.1.4-.3.8-.5 1.2l.7.7c.6.6.6 1.1.1 1.7l-.9.9c-.7.7-1.3.3-1.7 0l-.8-.8c-.3.2-.6.3-1 .4v.9c0 .5-.2 1.2-1.2 1.2zm-1.5-.9h1.7v-1.9l.4-.1c.5-.1.9-.3 1.4-.6l.3-.2 1.3 1.3.2.2s.1 0 .2-.1l.9-.9c.1-.1.1-.2.1-.2s0-.1-.2-.2l-1.2-1.2.2-.3c.3-.5.5-1 .7-1.6l.1-.4h1.8v-1.8h-1.8l-.1-.4c-.1-.5-.3-.9-.6-1.4l-.2-.3 1.2-1.2.2-.2s0-.1-.1-.2l-.9-.9c-.1-.1-.2-.1-.2-.1s-.1 0-.2.2l-1.1 1.1-.3-.2c-.5-.3-1-.5-1.6-.7l-.4-.1V7.9h-1.7v1.9l-.4.1c-.6.1-1.1.4-1.6.7l-.3.2-1.1-1.1-.2-.2s-.1 0-.2.1l-.9.9c-.1.1-.1.2-.1.2s0 .1.2.2l1.2 1.2-.2.3c-.2.4-.4.9-.6 1.4l-.1.4H8V16h1.8l.1.4c.1.6.4 1.1.7 1.6l.2.3-1.2 1.2-.2.2s0 .1.1.2l.9.9c.1.1.2.1.2.1s.1 0 .2-.2l1.2-1.2.3.2c.4.3.9.4 1.4.6l.4.1V22c.1 0 .1 0 .1.1zm.8-4.4c-1.5 0-2.7-1.2-2.7-2.7 0-1.5 1.2-2.7 2.7-2.7s2.7 1.2 2.7 2.7c0 1.5-1.2 2.7-2.7 2.7zm0-4.4c-1 0-1.8.8-1.8 1.7 0 1 .8 1.8 1.8 1.8s1.7-.8 1.7-1.8c.1-1-.7-1.7-1.7-1.7z"/></symbol><symbol viewBox="-132.211 -132.211 800 800" id="svgicon-pause"><path d="M231.6 516.278c0 10.658-8.641 19.3-19.3 19.3H106.15c-10.659 0-19.3-8.641-19.3-19.3V19.3c0-10.659 8.641-19.3 19.3-19.3H212.3c10.659 0 19.3 8.641 19.3 19.3v496.978zm217.128 0c0 10.658-8.641 19.3-19.3 19.3h-106.15c-10.659 0-19.3-8.641-19.3-19.3V19.3c0-10.659 8.641-19.3 19.3-19.3h106.15c10.659 0 19.3 8.641 19.3 19.3v496.978z"/></symbol><symbol viewBox="0 0 50 50" id="svgicon-pdf"><path d="M43 14.6L28.4 0H7v50h36V14.6zM29 3.4L39.6 14H29V3.4zM41 48H9V2h18v14h14v32zM17.9 28.9c-.8 0-1.5.1-2 .2v8h1v-3.2c.2.1.5.1.8.1 1 0 1.9-.3 2.5-.9.4-.4.6-1 .6-1.7s-.3-1.3-.7-1.7c-.4-.6-1.2-.8-2.2-.8zm-.1 4.1c-.3 0-.6 0-.9-.1v-3.1c.2 0 .5-.1 1-.1 1.2 0 1.9.5 1.9 1.6s-.7 1.7-2 1.7zm4.5-4v8c.5.1 1.2.1 1.9.1 1.6 0 2.8-.4 3.6-1.2.8-.7 1.2-1.8 1.2-3.1s-.4-2.2-1.1-2.9c-.7-.7-1.8-1-3.3-1-.9 0-1.7 0-2.3.1zm5.5 3.8c0 2.2-1.2 3.4-3.4 3.4-.4 0-.8 0-1.1-.1v-6.4c.3-.1.7-.1 1.2-.1 2.3.1 3.3 1.3 3.3 3.2zm3.5.5h3.1v-.8h-3.1v-2.7h3.3v-.9h-4.3V37h1z"/></symbol><symbol viewBox="0 0 50 50" id="svgicon-phone"><path d="M41 50c2.9 0 8.2-7.2 8.2-7.3.6-.8.9-1.8.8-2.7-.1-.9-.5-1.6-1.1-2.1-.8-.6-9.2-6.2-10.2-6.8-1-.6-2.4-.5-3.8.3-.8.4-3.5 1.9-4.6 2.6-1-.7-3.6-2.6-7.6-6.7-4.1-4.1-6-6.6-6.7-7.6.7-1.1 2.1-3.8 2.6-4.6.8-1.4.9-2.9.3-3.8-.6-1-6.2-9.4-6.8-10.2C11.2-.1 9-.3 7.4.8 7.2.8-.1 6.2 0 9c.3 8.5 8.6 18.5 15.5 25.5C22.4 41.4 32.4 49.7 41 50zm0-2c-7.9-.3-17.4-8.2-24.1-14.9C10.2 26.4 2.2 16.8 2 8.9c0-1 4-4.8 6.4-6.5.5-.3.9-.4 1.2-.4.4 0 .7.2.7.3.5.8 6.1 9.2 6.7 10.1.1.2.2.9-.3 1.8-.5 1-2.8 5-2.9 5.1l-.3.5.3.5c.1.1 1.8 3 7.3 8.5 5.6 5.6 8.4 7.2 8.5 7.3l.5.3.5-.3s4-2.3 5.1-2.9c.5-.3 1-.4 1.4-.4.2 0 .4.1.4.1 1 .6 9.5 6.2 10.1 6.7.1.1.2.2.3.6 0 .4-.1.9-.4 1.3C45.9 44 42.1 48 41 48z"/></symbol><symbol viewBox="0 0 30 30" id="svgicon-phone-bold-v4"><path d="M21.5 18.1l-1.8-1.8c-.4-.4-1.2-.7-2.1 0l-1 1c-.2-.1-.5-.2-.8-.4-.3-.2-.9-.7-1.3-1.1l-.1-.1c-.1-.1-.3-.3-.3-.4-.3-.4-.8-1-1.1-1.3-.2-.2-.3-.6-.4-.8l1.1-1.1c.7-.8.4-1.7 0-2l-1.8-1.8c-.8-.6-1.7-.3-2.1.1L8.7 9.5c-.3.3-.6.6-.6 1-.1.4-.2 1.3.2 2.5.4 1.1.8 2 1.5 3 .6 1 1.5 1.9 1.7 2.1h.1l.2.2s1.1 1.1 2.1 1.8 1.9 1.1 3 1.5c.7.2 1.3.3 1.7.3.4 0 .6 0 .8-.1.4-.1.7-.4 1-.6l1.1-1.1c.5-.3.8-1.2 0-2z"/></symbol><symbol viewBox="0 0 30 30" id="svgicon-phone-v4"><path d="M19.2 23c-.5 0-1.2-.1-2-.4-1.3-.4-2.3-1-3.4-1.7-1.2-.8-2.4-2-2.4-2l-.3-.3H11c-.2-.2-1.2-1.3-2-2.4-.7-1.2-1.2-2.2-1.6-3.5-.5-1.4-.4-2.4-.3-2.9.1-.4.4-.8.7-1.1L9 7.5c.5-.5 1.5-.8 2.4.1l2 2c.4.4.8 1.4 0 2.3l-1.2 1.2c.1.2.3.6.5.9.2.3.8 1.1 1.2 1.5l.4.4.2.1c.4.4 1.2 1 1.5 1.2.3.2.6.4.9.5l1.2-1.2c1-.8 1.9-.4 2.4 0l2 2c.9.9.5 1.9.1 2.4l-1.2 1.2c-.3.3-.7.6-1.2.7-.3.1-.6.2-1 .2zm-7.1-4.8s1.2 1.1 2.3 1.9c1.1.7 2 1.2 3.2 1.6 1.2.4 2 .3 2.3.2.3-.1.6-.3.7-.5l1.2-1.2c.1-.1.4-.5-.1-1l-2-2c-.1-.1-.5-.4-1 0l-1.3 1.3c-.2.2-.5.3-.9.2-.2-.1-.8-.3-1.2-.6-.4-.3-1.1-.9-1.6-1.3l-.1-.1-.5-.5c-.4-.4-1-1.2-1.3-1.6-.3-.4-.5-1-.6-1.2-.2-.3 0-.7.1-.9l1.3-1.3c.4-.5.1-.8 0-.9l-2-2c-.4-.4-.8-.2-1-.1l-1 1.2c-.1.1-.4.4-.5.7-.1.4-.2 1.2.2 2.3.4 1.2.9 2.1 1.6 3.2.7 1 1.7 2.1 1.9 2.3l.3.3z"/></symbol><symbol viewBox="0 0 50 50" id="svgicon-photo"><path d="M25 11c-7.2 0-13 5.8-13 13s5.8 13 13 13 13-5.8 13-13-5.8-13-13-13zm0 24c-6.1 0-11-4.9-11-11s4.9-11 11-11 11 4.9 11 11-4.9 11-11 11zm0-20c-5 0-9 4-9 9s4 9 9 9 9-4 9-9-4-9-9-9zm0 16c-3.9 0-7-3.1-7-7s3.1-7 7-7 7 3.1 7 7-3.1 7-7 7zM47 9H37c-.3-.1-.9-1-1.2-1.5C35.1 6.3 34.3 5 33 5H17c-1.3 0-2.1 1.3-2.9 2.5-.3.5-.9 1.4-1.1 1.5H3c-1.7 0-3 1.3-3 3v27c0 1.7 1.3 3 3 3h44c1.7 0 3-1.3 3-3V12c0-1.7-1.3-3-3-3zm1 30c0 .6-.4 1-1 1H3c-.6 0-1-.4-1-1V12c0-.6.4-1 1-1h10c1.3 0 2.1-1.2 2.8-2.4.3-.6.9-1.5 1.2-1.6h16c.3.1.9 1 1.2 1.6.7 1.2 1.5 2.4 2.8 2.4h10c.6 0 1 .4 1 1v27zM9 14H8c-1.1 0-2 .9-2 2s.9 2 2 2h1c1.1 0 2-.9 2-2s-.9-2-2-2z"/></symbol><symbol viewBox="0 0 50 50" id="svgicon-pinterest"><path d="M26.4.2C12.8.2 5.9 10 5.9 18.1c0 4.9 1.9 9.3 5.9 10.9.7.3 1.2 0 1.4-.7.1-.5.4-1.8.6-2.3.2-.7.1-1-.4-1.6-1.2-1.4-1.9-3.1-1.9-5.6 0-7.2 5.4-13.7 14.1-13.7 7.7 0 11.9 4.7 11.9 11 0 8.2-3.6 15.2-9.1 15.2-3 0-5.2-2.5-4.5-5.5.9-3.6 2.5-7.5 2.5-10.1 0-2.3-1.3-4.3-3.9-4.3-3.1 0-5.5 3.2-5.5 7.4 0 2.7.9 4.5.9 4.5s-3.1 13.3-3.7 15.6c-1.1 4.6-.2 10.3-.1 10.9 0 .3.5.4.7.2.3-.4 3.9-4.9 5.2-9.4.4-1.3 2-7.9 2-7.9 1 1.9 3.9 3.6 7 3.6 9.2 0 15.4-8.4 15.4-19.6.1-8.6-7.1-16.5-18-16.5z"/></symbol><symbol viewBox="0 0 30 30" id="svgicon-pinterest-v4"><path d="M15.4 6C10.5 6 8 9.5 8 12.5c0 1.8.7 3.4 2.1 3.9.2.1.4 0 .5-.3 0-.2.2-.6.2-.8.1-.3 0-.3-.1-.6-.4-.5-.7-1.1-.7-2 0-2.6 2-5 5.1-5 2.8 0 4.3 1.7 4.3 4 0 3-1.3 5.5-3.3 5.5-1.1 0-1.9-.9-1.6-2 .3-1.3.9-2.7.9-3.7 0-.8-.5-1.6-1.4-1.6-1.1 0-2 1.1-2 2.7 0 1 .3 1.6.3 1.6S11.2 19 11 19.8c-.4 1.7-.1 3.7 0 3.9 0 .1.2.2.2.1.1-.1 1.4-1.8 1.9-3.4.1-.5.7-2.8.7-2.8.4.7 1.4 1.3 2.5 1.3 3.3 0 5.6-3 5.6-7.1C22 8.9 19.4 6 15.4 6z"/></symbol><symbol viewBox="0 0 50 50" id="svgicon-play"><path d="M5.8 49.1c-.6 0-1.2-.2-1.8-.5-1.1-.6-1.7-1.8-1.7-3V4.4c0-1.2.7-2.4 1.7-3C5.1.8 6.4.7 7.4 1.3L46 21.9c1.1.6 1.9 1.8 1.9 3.1s-.7 2.5-1.9 3.1L7.5 48.7c-.5.3-1.1.4-1.7.4zm3.5-38.9v29.6L37 25 9.3 10.2z"/></symbol><symbol viewBox="0 0 30 30" id="svgicon-play-bold-v4"><path d="M22.7 15.8L11 23.7c-.2.2-.5.3-.8.3-.6 0-1.2-.5-1.2-1.2V7.2c0-.7.6-1.2 1.2-1.2.3 0 .6.1.8.3l11.7 7.8c.4.5.4 1.3 0 1.7z"/></symbol><symbol viewBox="0 0 50 50" id="svgicon-plus"><path d="M46.9 44.1l-13-13c2.6-3 4.1-6.8 4.1-11.1 0-9.4-7.6-17-17-17S4 10.6 4 20s7.6 17 17 17c3.7 0 7.1-1.2 9.9-3.2L44 46.9l2.9-2.8zM6 20c0-8.3 6.7-15 15-15s15 6.7 15 15-6.7 15-15 15S6 28.3 6 20zm16-8h-2v7h-7v2h7v7h2v-7h7v-2h-7z"/></symbol><symbol viewBox="0 0 30 30" id="svgicon-plus-v4"><path d="M20.5 14.5h-5v-5c0-.3-.2-.5-.5-.5s-.5.2-.5.5v5h-5c-.3 0-.5.2-.5.5s.2.5.5.5h5v5c0 .3.2.5.5.5s.5-.2.5-.5v-5h5c.3 0 .5-.2.5-.5s-.2-.5-.5-.5z"/></symbol><symbol viewBox="0 0 50 50" id="svgicon-print"><circle cx="43" cy="21" r="2"/><path d="M47 14h-6V0H9v14H3c-1.7 0-3 1.3-3 3v21c0 1.7 1.3 3 3 3h6v9h32v-9h6c1.7 0 3-1.3 3-3V17c0-1.7-1.3-3-3-3zM11 2h28v12H11V2zm28 46H11V30h28v18zm9-10c0 .6-.4 1-1 1h-6V28H9v11H3c-.6 0-1-.4-1-1V17c0-.6.4-1 1-1h44c.6 0 1 .4 1 1v21zm-13-4H15c-.6 0-1 .4-1 1s.4 1 1 1h20c.6 0 1-.4 1-1s-.4-1-1-1zm-20 6h16c.6 0 1-.4 1-1s-.4-1-1-1H15c-.6 0-1 .4-1 1s.4 1 1 1zm20 2H15c-.6 0-1 .4-1 1s.4 1 1 1h20c.6 0 1-.4 1-1s-.4-1-1-1z"/></symbol><symbol viewBox="0 0 40 40" id="svgicon-print-bold-alt"><path d="M28.4 22l-.4.4V11.6c0-2-1.2-3.6-3.2-3.6h-9.6c-2 0-3.2 1.6-3.2 3.6v10.8l-.4-.4c-2 0-3.6 2-3.6 4v2.4c0 2 1.6 3.6 3.6 3.6h16.8c2 0 3.6-1.6 3.6-3.6V26c0-2-1.6-4-3.6-4zm-6 6.4c-.7 0-1.2-.5-1.2-1.2s.5-1.2 1.2-1.2 1.2.5 1.2 1.2-.5 1.2-1.2 1.2zM14 22v.4-10.8c0-.7.5-1.6 1.2-1.6h9.6c.7 0 1.2.9 1.2 1.6V22H14zm13.2 6.4c-.7 0-1.2-.5-1.2-1.2s.5-1.2 1.2-1.2 1.2.5 1.2 1.2-.5 1.2-1.2 1.2z"/><path d="M16 13h8v2h-8zm0 5h8v2h-8z"/><path d="M28.4 22l-.4.4V11.6c0-2-1.2-3.6-3.2-3.6h-9.6c-2 0-3.2 1.6-3.2 3.6v10.8l-.4-.4c-2 0-3.6 2-3.6 4v2.4c0 2 1.6 3.6 3.6 3.6h16.8c2 0 3.6-1.6 3.6-3.6V26c0-2-1.6-4-3.6-4zm-6 6.4c-.7 0-1.2-.5-1.2-1.2s.5-1.2 1.2-1.2 1.2.5 1.2 1.2-.5 1.2-1.2 1.2zM14 22v.4-10.8c0-.7.5-1.6 1.2-1.6h9.6c.7 0 1.2.9 1.2 1.6V22H14zm13.2 6.4c-.7 0-1.2-.5-1.2-1.2s.5-1.2 1.2-1.2 1.2.5 1.2 1.2-.5 1.2-1.2 1.2z"/><path d="M16 13h8v2h-8zm0 5h8v2h-8z"/></symbol><symbol viewBox="0 0 30 30" id="svgicon-print-bold-v4"><path d="M12 9.7h6v1.5h-6zm0 3.3h6v1.5h-6z"/><path d="M21.4 16.5h-.1l-.3.3V8.2C21 7 20 6 18.7 6h-7.5C10 6 9 7 9 8.2v8.6l-.3-.3c-.5 0-1 .3-1.5.6-.7.7-1.2 1.7-1.2 2.7v1.8C6 23.3 7.7 24 8.6 24h12.9c1 0 2.5-.7 2.5-2.4v-1.8c0-1.6-1.3-3.3-2.6-3.3zm-.2 4.3c-.1.3-.5.6-.8.6-.1 0-.2 0-.4-.1-.3-.1-.6-.5-.6-.8 0-.4.2-.7.6-.8.1 0 .2-.1.4-.1s.2 0 .4.1c.3.1.6.5.6.8-.1.1-.1.2-.2.3zm-4.4.6c-.1 0-.2 0-.4-.1s-.4-.3-.5-.5c0-.1-.1-.2-.1-.4 0-.5.4-.9.9-.9.1 0 .2 0 .4.1.1 0 .2.1.3.2s.1.2.2.3c0 .1.1.2.1.4 0 .4-.4.9-.9.9zM10.5 8.2c0-.4.3-.7.8-.7h7.5c.4 0 .8.3.8.7v8.6h-9V8.2z"/></symbol><symbol viewBox="0 0 30 30" id="svgicon-print-v4"><ellipse cx="16.6" cy="19.8" rx=".8" ry=".8"/><ellipse cx="19.8" cy="19.8" rx=".8" ry=".8"/><path d="M20.7 16.3l-.4.3V9c0-1.1-.9-2-2-2h-6.6c-1.1 0-2 .9-2 2v7.6l-.2-.2c-1.2 0-2.4 1.5-2.4 2.9v1.6C7 22.4 8.5 23 9.3 23h11.5c.9 0 2.2-.6 2.2-2.2v-1.6c0-1.3-1.1-2.9-2.3-2.9zM10.7 9c0-.5.4-1 1-1h6.6c.6 0 1 .4 1 1v8h-8.6V9zM22 20.8c0 1.1-1.2 1.2-1.2 1.2H9.3c-.2 0-1.3-.2-1.3-1.2v-1.6c0-.8.6-1.6 1.1-1.8l.2.2.3.3h10.8l.3-.3.3-.3c.5.2 1.1 1.1 1.1 1.9v1.6z"/><path d="M12.3 10.3h5.3v1.4h-5.3zm0 2.9h5.3v1.4h-5.3z"/></symbol><symbol viewBox="0 0 30 30" id="svgicon-publication-1-bold-v4"><path fill="none" d="M18 15h-7c-.3 0-.5.2-.5.5s.2.5.5.5h7c.3 0 .5-.2.5-.5s-.2-.5-.5-.5zm0 2.5h-7c-.3 0-.5.2-.5.5s.2.5.5.5h7c.3 0 .5-.2.5-.5s-.2-.5-.5-.5zm0-5h-7c-.3 0-.5.2-.5.5s.2.5.5.5h7c.3 0 .5-.2.5-.5s-.2-.5-.5-.5z"/><path d="M19 8h-9c-1.7 0-3 1.3-3 3v9c0 1.6 1.3 3 3 3h9c1.6 0 3-1.4 3-3v-9c0-1.6-1.4-3-3-3zm-1 10.5h-7c-.3 0-.5-.2-.5-.5s.2-.5.5-.5h7c.3 0 .5.2.5.5s-.2.5-.5.5zm0-2.5h-7c-.3 0-.5-.2-.5-.5s.2-.5.5-.5h7c.3 0 .5.2.5.5s-.2.5-.5.5zm0-2.5h-7c-.3 0-.5-.2-.5-.5s.2-.5.5-.5h7c.3 0 .5.2.5.5s-.2.5-.5.5z"/><path d="M19 6h-7.5c-.3 0-.5.2-.5.5s.2.5.5.5H19c2.2 0 4 1.8 4 4v7.5c0 .3.2.5.5.5s.5-.2.5-.5V11c0-2.8-2.2-5-5-5z"/></symbol><symbol viewBox="0 0 30 30" id="svgicon-publication-2-bold-v4"><path d="M21.3 6H8.7C7.3 6 6 7.3 6 8.7v12.6C6 22.8 7.3 24 8.7 24h12.6c1.5 0 2.7-1.3 2.7-2.7V8.7C24 7.3 22.7 6 21.3 6zm-.8 11H9.4v-1.6h11.1V17zm0 3.1H9.4v-1.6h11.1v1.6zm0-6.9H9.4V10h11.1v3.2z"/></symbol><symbol viewBox="0 0 30 30" id="svgicon-publication-checked"><path d="M20 7H10c-1.7 0-3 1.3-3 3v10c0 1.6 1.3 3 3 3h10c1.7 0 3-1.4 3-3V10c0-1.7-1.3-3-3-3zm-1.5 11h-7c-.3 0-.5-.2-.5-.5s.2-.5.5-.5h7c.3 0 .5.2.5.5s-.2.5-.5.5zm0-2.5h-7c-.3 0-.5-.2-.5-.5s.2-.5.5-.5h7c.3 0 .5.2.5.5s-.2.5-.5.5zm0-2.5h-7c-.3 0-.5-.2-.5-.5s.2-.5.5-.5h7c.3 0 .5.2.5.5s-.2.5-.5.5z"/></symbol><symbol viewBox="0 0 30 30" id="svgicon-publication-unchecked"><path d="M20 8c1.1 0 2 .9 2 2v10c0 1.1-.9 2-2 2H10c-1.1 0-2-.9-2-2V10c0-1.1.9-2 2-2h10m0-1H10c-1.6 0-3 1.3-3 3v10c0 1.7 1.4 3 3 3h10c1.6 0 3-1.3 3-3V10c0-1.7-1.4-3-3-3z"/><path d="M18.5 12h-7c-.3 0-.5.2-.5.5s.2.5.5.5h7c.3 0 .5-.2.5-.5s-.2-.5-.5-.5zm0 2.5h-7c-.3 0-.5.2-.5.5s.2.5.5.5h7c.3 0 .5-.2.5-.5s-.2-.5-.5-.5zm0 2.5h-7c-.3 0-.5.2-.5.5s.2.5.5.5h7c.3 0 .5-.2.5-.5s-.2-.5-.5-.5z"/></symbol><symbol viewBox="0 0 30 30" id="svgicon-publication-v4"><path fill="none" d="M19 9h-9c-1.1 0-2 .9-2 2v9c0 1.1.9 2 2 2h9c1.1 0 2-.9 2-2v-9c0-1.1-.9-2-2-2zm-1 9.5h-7c-.3 0-.5-.2-.5-.5s.2-.5.5-.5h7c.3 0 .5.2.5.5s-.2.5-.5.5zm0-2.5h-7c-.3 0-.5-.2-.5-.5s.2-.5.5-.5h7c.3 0 .5.2.5.5s-.2.5-.5.5zm0-2.5h-7c-.3 0-.5-.2-.5-.5s.2-.5.5-.5h7c.3 0 .5.2.5.5s-.2.5-.5.5z"/><path d="M19 8h-9c-1.7 0-3 1.3-3 3v9c0 1.6 1.3 3 3 3h9c1.6 0 3-1.4 3-3v-9c0-1.7-1.3-3-3-3zm2 12c0 1.1-.9 2-2 2h-9c-1.1 0-2-.9-2-2v-9c0-1.1.9-2 2-2h9c1.1 0 2 .9 2 2v9z"/><path d="M18 15h-7c-.3 0-.5.2-.5.5s.2.5.5.5h7c.3 0 .5-.2.5-.5s-.2-.5-.5-.5zm0 2.5h-7c-.3 0-.5.2-.5.5s.2.5.5.5h7c.3 0 .5-.2.5-.5s-.2-.5-.5-.5zm0-5h-7c-.3 0-.5.2-.5.5s.2.5.5.5h7c.3 0 .5-.2.5-.5s-.2-.5-.5-.5z"/><path d="M19 6h-7.5c-.3 0-.5.2-.5.5s.2.5.5.5H19c2.2 0 4 1.8 4 4v7.5c0 .3.2.5.5.5s.5-.2.5-.5V11c0-2.8-2.2-5-5-5z"/></symbol><symbol viewBox="0 0 30 30" id="svgicon-publication-whole-checked"><path d="M21.9 7.7c-1.2-1.1-2.7-.7-2.7-.7h-8.3c-.3 0-.5.1-.5.4 0 .3.2.4.5.4h8.4s1.2-.2 2.1.6c.6.5.8 1.4.8 2.5v9.3c0 .3.2.5.5.5s.5-.2.5-.5v-9.3c-.2-1.5-.5-2.5-1.3-3.2z"/><path d="M19.2 8.8H8.8c-1.1 0-2.1.9-2.1 2.1v10.4c0 1.1.9 2.1 2.1 2.1h10.4c1.1 0 2.1-.9 2.1-2.1V10.8c0-1.1-.9-2-2.1-2zm-2 10h-6.4c-.3 0-.5-.2-.5-.5s.2-.5.5-.5h6.4c.3 0 .5.2.5.5s-.2.5-.5.5zm0-2.3h-6.4c-.3 0-.5-.2-.5-.5s.2-.5.5-.5h6.4c.3 0 .5.2.5.5s-.2.5-.5.5zm0-2.2h-6.4c-.3 0-.5-.2-.5-.5s.2-.5.5-.5h6.4c.3 0 .5.2.5.5s-.2.5-.5.5z"/></symbol><symbol viewBox="0 0 30 30" id="svgicon-publication-whole-unchecked"><path d="M19.2 8.8H8.8c-1.1 0-2.1.9-2.1 2.1v10.4c0 1.1.9 2.1 2.1 2.1h10.4c1.1 0 2.1-.9 2.1-2.1V10.8c0-1.1-.9-2-2.1-2zm1.1 12.4c0 .6-.5 1-1 1H8.8c-.6 0-1-.5-1-1V10.8c0-.6.5-1 1-1h10.4c.6 0 1 .5 1 1v10.4z"/><path d="M21.9 7.7c-1.2-1.1-2.7-.7-2.7-.7h-8.3c-.3 0-.5.1-.5.4 0 .3.2.4.5.4h8.4s1.2-.2 2.1.6c.6.5.8 1.4.8 2.5v9.3c0 .3.2.5.5.5s.5-.2.5-.5v-9.3c-.2-1.5-.5-2.5-1.3-3.2zm-4.7 7.8h-6.4c-.3 0-.5.2-.5.5s.2.5.5.5h6.4c.3 0 .5-.2.5-.5s-.2-.5-.5-.5zm0 2.3h-6.4c-.3 0-.5.2-.5.5s.2.5.5.5h6.4c.3 0 .5-.2.5-.5s-.2-.5-.5-.5z"/><path d="M17.2 13.3h-6.4c-.3 0-.5.2-.5.5s.2.5.5.5h6.4c.3 0 .5-.2.5-.5s-.2-.5-.5-.5z"/></symbol><symbol viewBox="0 0 50 50" id="svgicon-question"><path d="M25 0C11.2 0 0 11.2 0 25s11.2 25 25 25 25-11.2 25-25S38.8 0 25 0zm0 48C12.3 48 2 37.7 2 25S12.3 2 25 2s23 10.3 23 23-10.3 23-23 23zm1.4-14.5h-2.7c-.2 0-.4.1-.4.4V37c0 .2.1.4.4.4h2.7c.2 0 .4-.1.4-.4v-3.1c0-.3-.1-.4-.4-.4zm-1.1-21c-3.7 0-6.2 2.3-6.7 5.7 0 .2.1.4.3.4l2.3.4c.2 0 .4-.1.4-.3.4-2.2 1.7-3.4 3.7-3.4s3.5 1.3 3.5 3.3c0 1.2-.4 2-1.7 3.8l-2.4 3.3c-.8 1-1.1 1.8-1.1 3.2v1.5c0 .2.1.4.4.4h2.4c.2 0 .4-.1.4-.4v-1.1c0-1.2.2-1.7.9-2.7l2.4-3.3c1.2-1.7 1.8-2.9 1.8-4.7-.1-3.5-2.7-6.1-6.6-6.1z"/></symbol><symbol viewBox="0 0 50 50" id="svgicon-read"><path d="M25 0C11.2 0 0 11.2 0 25s11.2 25 25 25 25-11.2 25-25S38.8 0 25 0zm0 48C12.3 48 2 37.7 2 25S12.3 2 25 2s23 10.3 23 23-10.3 23-23 23zm9.8-36c-.8 0-1.5.4-1.9 1l-.3.5-10.3 16.8-4.7-5.8c-.4-.7-1.2-1.1-2.1-1.1-1.4 0-2.5 1.1-2.5 2.5 0 .7.3 1.3.7 1.8l6.3 8.5c.4.7 1.2 1.1 2.1 1.1 1 0 1.9-.6 2.3-1.5L36.8 16l.2-.3c.2-.4.3-.8.3-1.2 0-1.4-1.2-2.5-2.5-2.5z"/></symbol><symbol viewBox="0 0 50 50" id="svgicon-right"><path d="M15 47.3L37.3 25 15 2.8l-2.1 2L33.1 25 12.9 45.2z"/></symbol><symbol viewBox="0 0 30 30" id="svgicon-right-v4"><path d="M12.2 7c.3 0 .5.1.7.3l7 7c.4.4.4 1 0 1.4l-7 7c-.4.4-1 .4-1.4 0s-.4-1 0-1.4l6.3-6.3-6.3-6.3c-.4-.4-.4-1 0-1.4.2-.2.5-.3.7-.3z"/></symbol><symbol viewBox="0 0 50 50" id="svgicon-search"><path d="M33.9 31.1c2.6-3 4.1-6.8 4.1-11.1 0-9.4-7.6-17-17-17S4 10.6 4 20s7.6 17 17 17c3.7 0 7.1-1.2 9.9-3.2L44 46.9l2.8-2.8-12.9-13zM6 20c0-8.3 6.7-15 15-15s15 6.7 15 15-6.7 15-15 15S6 28.3 6 20z"/></symbol><symbol viewBox="0 0 30 30" id="svgicon-search-v4"><path d="M13.3 19.6c-3.4 0-6.3-2.9-6.3-6.3S9.8 7 13.3 7s6.3 2.9 6.3 6.3-2.9 6.3-6.3 6.3zm0-11.5c-2.9 0-5.1 2.3-5.1 5.1s2.3 5.1 5.1 5.1 5.1-2.3 5.1-5.1-2.3-5.1-5.1-5.1zm4.6 9l5 5c.2.2.2.6 0 .8-.2.2-.6.3-.9 0l-5-5 .9-.8z"/></symbol><symbol viewBox="0 0 30 30" id="svgicon-send-v4"><path d="M22.7 7.7c-.4-.6-1.3-.9-2-.6L8.1 12c-.8.2-1.2.9-1.1 1.7.1.8.6 1.4 1.4 1.5l4.9.8c.3.1.6.3.6.6l.8 4.9c.2.8.9 1.4 1.7 1.4.7 0 1.3-.4 1.6-1l4.9-12.7c.2-.5.1-1-.2-1.5zm-8.6 7.5c-.2-.1-.4-.2-.6-.2l-4.9-.8c-.4-.1-.6-.4-.6-.6-.1-.2 0-.6.4-.7l12.6-5h.3l-7.2 7.3zm7.8-6.4L17 21.5c-.1.4-.5.4-.6.4-.3 0-.6-.2-.7-.6l-.8-4.9c0-.2-.1-.3-.1-.5L22 8.7c-.1 0-.1.1-.1.1z"/></symbol><symbol viewBox="0 0 50 50" id="svgicon-share"><path d="M17.7 10.7L24 4.4V32c0 .6.4 1 1 1s1-.4 1-1V4.4l6.3 6.3c.2.2.5.3.7.3s.5-.1.7-.3c.4-.4.4-1 0-1.4L25 .6l-8.7 8.7c-.4.4-.4 1 0 1.4s1 .4 1.4 0zM43 16H33c-.6 0-1 .4-1 1s.4 1 1 1h8v30H9V18h8c.6 0 1-.4 1-1s-.4-1-1-1H7v34h36V16z"/></symbol><symbol viewBox="0 0 30 30" id="svgicon-share-bold-v4"><path d="M15.7 10.9H18c-2.5 2.5-2.8 2.8-6.4 6.3-.5.4-.5 1.2 0 1.6.2.2.5.3.8.3.3 0 .6-.1.8-.3 3.7-3.6 4-3.9 6.5-6.4l.1-.1v2.1c0 .6.5 1.1 1.1 1.1.6 0 1.1-.5 1.1-1.1V9.8c0-.6-.5-1.1-1.1-1.1h-5.2c-.6 0-1.1.5-1.1 1.1-.1.6.4 1.1 1.1 1.1z"/><path d="M22 16.9c-.6 0-1 .5-1 1v3H9.1V9.1H13c.6 0 1-.5 1-1 0-.6-.5-1-1-1H8C7.5 7 7 7.5 7 8v14c0 .6.5 1 1 1h14c.6 0 1-.5 1-1v-4c0-.6-.5-1.1-1-1.1z"/></symbol><symbol viewBox="0 0 30 30" id="svgicon-share-v4"><path d="M22.5 10.1c-.3 0-.5.2-.5.5v9.7c0 .9-.8 1.7-1.7 1.7H9.7c-.9 0-1.7-.8-1.7-1.7v-9.7c0-.3-.2-.5-.5-.5s-.5.2-.5.5v9.7C7 21.8 8.2 23 9.7 23h10.7c1.5 0 2.7-1.1 2.7-2.7v-9.7c-.1-.3-.3-.5-.6-.5z"/><path d="M12.2 11.1l2.3-2.3v7.8c0 .3.2.5.5.5s.5-.2.5-.5V8.8l2.2 2.3c.2.2.6.2.8 0 .2-.2.3-.5 0-.8l-3.2-3.2c-.2-.2-.5-.2-.7 0l-3.2 3.2c-.2.2-.2.5 0 .7.2.3.6.3.8.1z"/></symbol><symbol viewBox="0 0 30 30" id="svgicon-share2-v4"><path d="M15.6 11.4h2.1L12.1 17c-.4.4-.4 1 0 1.4.2.2.5.3.7.3.3 0 .5-.1.7-.3 3.2-3.1 3.5-3.4 5.7-5.6l.1-.1v1.8c0 .6.4 1 1 1s1-.4 1-1v-4.2c0-.6-.4-1-1-1h-4.6c-.6 0-1 .4-1 1-.1.7.3 1.1.9 1.1z"/><path d="M21.1 16.7c-.5 0-.9.4-.9.9v2.6H9.8V9.8h3.4c.5 0 .9-.4.9-.9s-.4-.9-.9-.9H8.9c-.5 0-.9.4-.9.9v12.2c0 .5.4.9.9.9h12.2c.5 0 .9-.4.9-.9v-3.5c0-.5-.4-.9-.9-.9z"/></symbol><symbol viewBox="0 0 50 50" id="svgicon-shelve"><path d="M11.7 50h18.8V15.8l8.4 34.1L50 47.1 39.6 5.3l-9.2 2.3V0H19.1v8.5h-7.4V3H.2v47h11.5zM38.2 7.7l9.4 37.9-7.2 1.8L31 9.5l7.2-1.8zM21.1 2h7.4v46h-7.4V2zm-2 8.4V48h-7.4V10.4h7.4zM2.2 48V5h7.4v43H2.2z"/></symbol><symbol viewBox="0 0 50 50" id="svgicon-single"><path d="M50 34V6H10v28h40zm-38-2V8h36v24H12zm28 12v-8h-2v6H21v-6h-2v6H2V18h6v-2H0v28h38z"/></symbol><symbol viewBox="0 0 30 30" id="svgicon-slack-v4"><path d="M13.381 14.275l2.37-.794.763 2.276-2.37.794z"/><path d="M13.381 14.275l2.37-.794.763 2.276-2.37.794z"/><path d="M23.2 12.5c-1.9-6.2-4.5-7.6-10.7-5.8s-7.6 4.5-5.8 10.7 4.5 7.6 10.7 5.8c6.3-1.8 7.7-4.5 5.8-10.7zm-3.1 4l-1.1.4.4 1.2c.2.5-.1 1-.6 1.2-.1 0-.2.1-.3 0-.4 0-.7-.3-.9-.6l-.4-1.2-2.4.8.4 1.2c.2.5-.1 1-.6 1.2-.1 0-.2.1-.3 0-.4 0-.7-.3-.9-.6l-.4-1.2-1.2.4c-.1 0-.2.1-.3 0-.4 0-.7-.3-.9-.6-.2-.5.1-1 .6-1.2l1.2-.4-.8-2.3-1.2.4c-.1 0-.2.1-.3 0-.4 0-.7-.3-.9-.6-.2-.5.1-1 .6-1.2L11 13l-.4-1.2c-.2-.5.1-1 .6-1.2.5-.2 1 .1 1.2.6l.4 1.2 2.4-.8-.4-1.2c-.2-.5.1-1 .6-1.2.5-.2 1 .1 1.2.6L17 11l1.2-.4c.5-.2 1 .1 1.2.6.2.5-.1 1-.6 1.2l-1.2.4.8 2.3 1.2-.4c.5-.2 1 .1 1.2.6.1.5-.2 1.1-.7 1.2z"/></symbol><symbol viewBox="0 0 30 30" id="svgicon-snapchat-v4"><path d="M23.8 19.3c-2.4-.4-3.5-2.9-3.6-3-.2-.3-.2-.6-.1-.7.1-.3.7-.5 1-.6.1 0 .2-.1.3-.1.6-.2.9-.5.9-.9 0-.3-.2-.5-.5-.6-.1 0-.2-.1-.4-.1-.1 0-.2 0-.3.1-.3.1-.6.2-.8.2-.1 0-.2 0-.3-.1V13c.1-1.2.2-2.8-.2-3.7-1.2-2.7-3.7-2.9-4.5-2.9H15c-.7 0-3.3.2-4.4 2.9-.4.9-.3 2.4-.2 3.7v.4c-.1 0-.2.1-.4.1s-.5-.1-.8-.2c-.1 0-.2-.1-.3-.1-.4 0-.8.2-.9.6 0 .3.1.6.9 1 .1 0 .2.1.3.1.3.1.9.3 1 .6.1.2 0 .4-.1.7 0 .1-1.1 2.6-3.6 3-.2 0-.3.2-.3.4v.2c.2.4 1 .7 2.4 1 0 .1.1.3.1.4 0 .1.1.3.1.4 0 .1.2.3.4.3.1 0 .2 0 .4-.1.2 0 .6-.1 1-.1.2 0 .5 0 .7.1.5.1.8.4 1.3.7.6.5 1.4 1 2.5 1h.2c1.1 0 1.8-.5 2.5-1 .4-.3.8-.6 1.3-.7.2 0 .5-.1.7-.1.4 0 .7 0 1 .1.2 0 .3.1.4.1.2 0 .4-.1.4-.3 0-.1.1-.3.1-.4 0-.1.1-.4.1-.4 1.4-.2 2.2-.5 2.4-1v-.2c-.1-.1-.3-.3-.4-.3z"/></symbol><symbol viewBox="0 0 30 30" id="svgicon-sound-bold-v4"><path d="M24 19.9V6.6c0-.3-.3-.6-.6-.6L10.1 7.3c-.3 0-.6.3-.6.6v11c-.5 0-1 .1-1.4.3-1.6.7-2.4 2.3-1.9 3.5.5 1.2 2.2 1.6 3.8.9 1.1-.5 1.8-1.3 2-2.2 0-.1 0-.2.1-.3v-8.5l9.4-.9v5.9c-.5 0-1 .1-1.4.3-1.6.7-2.4 2.3-1.9 3.5.5 1.2 2.2 1.6 3.8.9 1.1-.5 1.8-1.3 2-2.2v-.2z"/></symbol><symbol viewBox="-15 -15 80 80" id="svgicon-speaker-off"><path d="M46.414 26l7.293-7.293a.999.999 0 1 0-1.414-1.414L45 24.586l-7.293-7.293a.999.999 0 1 0-1.414 1.414L43.586 26l-7.293 7.293a.999.999 0 1 0 1.414 1.414L45 27.414l7.293 7.293a.997.997 0 0 0 1.414 0 .999.999 0 0 0 0-1.414L46.414 26zM28.404 4.4a3.029 3.029 0 0 0-3.09.044.929.929 0 0 0-.13.093L11.634 16H1a1 1 0 0 0-1 1v19a1.002 1.002 0 0 0 1 1l10.61-.005 13.543 12.44c.05.046.104.086.161.12a3.055 3.055 0 0 0 1.582.446 3.07 3.07 0 0 0 1.508-.402A3.122 3.122 0 0 0 30 46.844V7.156A3.125 3.125 0 0 0 28.404 4.4zM28 46.844c0 .431-.217.81-.579 1.015a1.049 1.049 0 0 1-1 .026L13 35.556V31a1 1 0 1 0-2 0v3.996L2 35V18h9v4a1 1 0 1 0 2 0v-4.536l13.405-11.34c.46-.242.86-.07 1.016.018.362.205.579.583.579 1.014v39.688z"/></symbol><symbol viewBox="-15 -15 80 80" id="svgicon-speaker-on"><path d="M28.404 3.413a3.029 3.029 0 0 0-3.09.044.929.929 0 0 0-.13.093l-13.55 11.463H1a1 1 0 0 0-1 1v19a1.002 1.002 0 0 0 1 1l10.61-.005 13.543 12.44c.05.046.104.086.161.12a3.055 3.055 0 0 0 1.582.446 3.07 3.07 0 0 0 1.508-.402A3.122 3.122 0 0 0 30 45.857V6.169a3.125 3.125 0 0 0-1.596-2.756zM28 45.857c0 .431-.217.81-.579 1.015a1.049 1.049 0 0 1-1 .026L13 34.569v-4.556a1 1 0 1 0-2 0v3.996l-9 .004v-17h9v4a1 1 0 1 0 2 0v-4.536l13.405-11.34c.461-.242.86-.07 1.016.018.362.205.579.584.579 1.014v39.688zM38.797 7.066a1.002 1.002 0 0 0-.643 1.895 17.48 17.48 0 0 1 11.872 16.553 17.492 17.492 0 0 1-11.849 16.554 1 1 0 0 0 .646 1.893 19.489 19.489 0 0 0 13.202-18.446A19.478 19.478 0 0 0 38.797 7.066z"/><path d="M43.026 25.513c0-5.972-4.009-11.302-9.749-12.962a1 1 0 0 0-.554 1.922c4.889 1.413 8.304 5.953 8.304 11.04s-3.415 9.627-8.304 11.04a1 1 0 0 0 .554 1.922c5.741-1.66 9.749-6.99 9.749-12.962z"/></symbol><symbol viewBox="0 0 30 30" id="svgicon-swipe-vertical-v4"><path d="M19.8 19.9c-.3-.2-.7-.2-1 0l-3.1 2.9v-4.9C17 17.6 18 16.4 18 15s-1-2.6-2.3-2.9V7.3l3 2.9c.2.2.8.2 1 0 .3-.2.4-.7 0-1l-4.3-4c-.3-.2-.7-.2-1 0l-4.3 4c-.3.2-.3.7 0 .9s.7.2 1 0l3.1-2.9v4.9C13 12.4 12 13.6 12 15s1 2.6 2.3 2.9v4.8l-3-2.9c-.2-.2-.8-.2-1 0-.3.2-.4.7 0 1l4.3 4c.3.2.7.2 1 0l4.3-4c.2-.2.2-.6-.1-.9z"/></symbol><symbol viewBox="0 0 30 30" id="svgicon-swipe-vertical-v4"><path d="M19.8 19.9c-.3-.2-.7-.2-1 0l-3.1 2.9v-4.9C17 17.6 18 16.4 18 15s-1-2.6-2.3-2.9V7.3l3 2.9c.2.2.8.2 1 0 .3-.2.4-.7 0-1l-4.3-4c-.3-.2-.7-.2-1 0l-4.3 4c-.3.2-.3.7 0 .9s.7.2 1 0l3.1-2.9v4.9C13 12.4 12 13.6 12 15s1 2.6 2.3 2.9v4.8l-3-2.9c-.2-.2-.8-.2-1 0-.3.2-.4.7 0 1l4.3 4c.3.2.7.2 1 0l4.3-4c.2-.2.2-.6-.1-.9z"/></symbol><symbol viewBox="0 0 50 50" id="svgicon-thin_down"><path d="M25 42.4l11.6-11.6c.4-.4.4-1 0-1.4s-1-.4-1.4 0L26 38.5V9c0-.6-.4-1-1-1s-1 .4-1 1v29.5l-9.2-9.2c-.4-.4-1-.4-1.4 0s-.4 1 0 1.4L25 42.4z"/></symbol><symbol viewBox="0 0 50 50" id="svgicon-thin_left"><path d="M19.2 36.6c.2.2.5.3.7.3s.5-.1.7-.3c.4-.4.4-1 0-1.4L11.5 26H41c.6 0 1-.4 1-1s-.4-1-1-1H11.5l9.2-9.2c.4-.4.4-1 0-1.4s-1-.4-1.4 0L7.6 25l11.6 11.6z"/></symbol><symbol viewBox="0 0 50 50" id="svgicon-thin_right"><path d="M8 25c0 .6.4 1 1 1h29.5l-9.2 9.2c-.4.4-.4 1 0 1.4.2.2.5.3.7.3s.5-.1.7-.3L42.4 25 30.8 13.4c-.4-.4-1-.4-1.4 0-.4.4-.4 1 0 1.4l9.2 9.2H9c-.6 0-1 .4-1 1z"/></symbol><symbol viewBox="0 0 50 50" id="svgicon-thin_up"><path d="M25 42c.6 0 1-.4 1-1V11.5l9.2 9.2c.2.2.5.3.7.3s.5-.1.7-.3c.4-.4.4-1 0-1.4L25 7.6 13.4 19.2c-.4.4-.4 1 0 1.4s1 .4 1.4 0l9.2-9.2V41c0 .6.4 1 1 1z"/></symbol><symbol viewBox="0 0 30 30" id="svgicon-triangle-1-v4"><path d="M19.4 13h-8.7c-.6 0-.9.7-.5 1.2l4.4 4.6c.2.3.7.3.9 0l4.4-4.6c.3-.5 0-1.2-.5-1.2z"/></symbol><symbol viewBox="0 0 30 30" id="svgicon-triangle-2-v4"><path d="M15 17.6c-.2 0-.4-.1-.5-.2l-3.7-3.7c-.3-.3-.3-.8 0-1.1.3-.3.8-.3 1.1 0l3.1 3.1 3.1-3.1c.3-.3.8-.3 1.1 0 .3.3.3.8 0 1.1l-3.7 3.7c-.1.1-.3.2-.5.2z"/></symbol><symbol viewBox="0 0 30 30" id="svgicon-triangle-left-v4"><path d="M17 19.4v-8.7c0-.6-.7-.9-1.2-.5l-4.6 4.4c-.3.2-.3.7 0 .9l4.6 4.4c.5.3 1.2 0 1.2-.5z"/></symbol><symbol viewBox="0 0 30 30" id="svgicon-triangle-right-v4"><path d="M13 10.6v8.7c0 .6.7.9 1.2.5l4.6-4.4c.3-.2.3-.7 0-.9l-4.6-4.4c-.5-.3-1.2 0-1.2.5z"/></symbol><symbol viewBox="0 0 50 50" id="svgicon-tumblr"><path d="M32.8 40.6c-3.9.1-4.7-2.8-4.7-4.8V20.5H38v-7.4h-9.8V.5H21c-.1 0-.3.1-.4.4-.4 3.8-2.2 10.6-9.7 13.2v6.3h5v16.1c0 5.5 4.1 13.3 14.8 13.1 3.6-.1 7.6-1.6 8.5-2.9l-2.4-7c-.9.5-2.7.9-4 .9z"/></symbol><symbol viewBox="0 0 30 30" id="svgicon-tumblr-v4"><path d="M17.3 20.7c-1.4 0-1.7-1-1.7-1.8v-5.6h3.6v-2.7h-3.6V6H13s-.1 0-.1.1C12.6 7.5 12 10 9.3 11v2.3h1.8v5.9c0 2 1.5 4.9 5.4 4.8 1.3 0 2.8-.6 3.1-1.1l-.9-2.6c-.3.2-.9.4-1.4.4z"/></symbol><symbol viewBox="0 0 49.9 49.9" id="svgicon-twitter"><path d="M48.6 5.6c-2 1.2-4.1 2-6.4 2.5-1.8-2-4.5-3.2-7.4-3.2-5.6 0-10.1 4.5-10.1 10.1 0 .8.1 1.6.3 2.3-8.5-.4-15.9-4.5-20.9-10.6-.9 1.5-1.4 3.2-1.4 5.1 0 3.5 1.8 6.6 4.5 8.4-1.7-.1-3.2-.5-4.6-1.3v.1c0 4.9 3.5 9 8.1 9.9-.8.2-1.7.4-2.7.4-.7 0-1.3-.1-1.9-.2 1.3 4 5 6.9 9.4 7-3.5 2.7-7.8 4.3-12.6 4.3-.8 0-1.6 0-2.4-.1 4.5 2.9 9.8 4.5 15.5 4.5 18.6 0 28.8-15.4 28.8-28.8v-1.3c2-1.4 3.7-3.2 5-5.2-1.8.8-3.8 1.3-5.8 1.6 2.2-1.2 3.8-3.1 4.6-5.5z"/></symbol><symbol viewBox="0 0 30 30" id="svgicon-twitter-v4"><path d="M24.3 7.3c-.8.5-1.6.8-2.6 1C21 7.5 19.9 7 18.8 7c-2.2 0-4 1.8-4 4 0 .3 0 .6.1.9-3.4-.2-6.3-1.8-8.3-4.2C6.2 8.3 6 9 6 9.8c0 1.4.7 2.6 1.8 3.4-.7 0-1.3-.2-1.8-.5v.1c0 2 1.4 3.6 3.2 4-.3.1-.7.1-1.1.1-.3 0-.5 0-.8-.1.5 1.6 2 2.8 3.8 2.8-1.4 1.1-3.1 1.7-5 1.7-.3 0-.6 0-1-.1C6.9 22.3 9 23 11.3 23c7.4 0 11.5-6.2 11.5-11.5V11c.8-.6 1.5-1.3 2-2.1-.7.3-1.5.5-2.3.6.9-.5 1.5-1.3 1.8-2.2z"/></symbol><symbol viewBox="0 0 50 50" id="svgicon-unchecked"><path fill-rule="evenodd" clip-rule="evenodd" d="M39 22H11c-1.7 0-3 1.3-3 3s1.3 3 3 3h28c1.7 0 3-1.3 3-3s-1.3-3-3-3z"/></symbol><symbol viewBox="0 0 50 50" id="svgicon-unselected"><path d="M8 25.6c0 1.7 1.3 3 3 3h28c1.7 0 3-1.3 3-3s-1.3-3-3-3H11c-1.6 0-3 1.3-3 3z"/></symbol><symbol viewBox="0 0 30 30" id="svgicon-up-v4"><path d="M7 18c0-.3.1-.5.3-.7l7-7c.4-.4 1-.4 1.4 0l7 7c.4.4.4 1 0 1.4s-1 .4-1.4 0L15 12.4l-6.3 6.3c-.4.4-1 .4-1.4 0-.2-.2-.3-.4-.3-.7z"/></symbol><symbol viewBox="0 0 50 50" id="svgicon-update"><path d="M25 43c9.9 0 18-8.1 18-18 0-.6-.4-1-1-1s-1 .4-1 1c0 8.8-7.2 16-16 16S9 33.8 9 25 16.2 9 25 9c4.5 0 8.9 1.9 11.9 5.3l.6.7H31c-.6 0-1 .4-1 1s.4 1 1 1h10V7c0-.6-.4-1-1-1s-1 .4-1 1v6.7l-.6-.8C35 9.2 30.1 7 25 7 15.1 7 7 15.1 7 25s8.1 18 18 18z"/></symbol><symbol viewBox="0 0 30 30" id="svgicon-update-bold-v4"><path d="M22.4 14.1c-.6 0-1.1.5-1.1 1.1 0 3.6-2.8 6.5-6.3 6.5s-6.3-2.9-6.3-6.5 2.8-6.5 6.3-6.5c1.5 0 3.1.5 4.2 1.4H18c-.6 0-1.1.5-1.1 1.1 0 .6.5 1.1 1.1 1.1h5V7.1c.1-.6-.4-1.1-1-1.1s-1.1.5-1.1 1.1v1.4c-1.6-1.3-3.7-2.1-5.9-2.1-4.7 0-8.5 3.9-8.5 8.8S10.3 24 15 24s8.5-3.9 8.5-8.8c0-.6-.5-1.1-1.1-1.1z"/></symbol><symbol viewBox="0 0 50 50" id="svgicon-user"><path d="M25 0C11.2 0 0 11.2 0 25s11.2 25 25 25 25-11.2 25-25S38.8 0 25 0zm15.6 41.9c-3.8-2.7-9.5-3.2-10.7-6.3-.1-1.6-.1-2.7-.1-4.2.7-.4 2-2.8 2.3-4.9.6 0 1.5-.6 1.7-2.8.1-1.2-.4-1.9-.8-2.1 1-2.9 2.9-11.6-3.5-12.5-.7-1.2-2.4-1.8-4.6-1.8-8.9.2-9.9 6.7-8 14.2-.3.2-.9.9-.8 2.1.3 2.2 1.2 2.8 1.7 2.8.2 2.1 1.6 4.5 2.3 4.9 0 1.5.1 2.6-.1 4.2-1.2 3.2-6.9 3.6-10.7 6.3C4.8 37.7 2 31.7 2 25 2 12.3 12.3 2 25 2s23 10.3 23 23c0 6.7-2.8 12.7-7.4 16.9z"/></symbol><symbol viewBox="0 0 50 50" id="svgicon-video"><path d="M37 14c0-2.8-2.2-5-5-5H5c-2.8 0-5 2.2-5 5v22c0 2.8 2.2 5 5 5h27c2.8 0 5-2.2 5-5v-5.3l13 7V12.3l-13 7V14zm-2 22c0 1.7-1.3 3-3 3H5c-1.7 0-3-1.3-3-3V14c0-1.7 1.3-3 3-3h27c1.7 0 3 1.3 3 3v22zm13-20.3v18.7l-11-5.9v-6.8l11-6z"/></symbol><symbol viewBox="0 0 30 30" id="svgicon-video-bold-v4"><path d="M20.6 6H9.4C7.5 6 6 7.5 6 9.4v11.3C6 22.5 7.5 24 9.4 24h11.2c1.9 0 3.4-1.5 3.4-3.4V9.4C24 7.5 22.5 6 20.6 6zm-3.1 9.1l-3.7 2.5c-.1.1-.2.1-.3.1-.2 0-.4-.1-.4-.4v-4.9c0-.2.2-.4.4-.4.1 0 .2 0 .3.1l3.7 2.5c.2.2.2.4 0 .5z"/></symbol><symbol viewBox="0 0 30 30" id="svgicon-video-v4"><path d="M20 8c1.1 0 2 .9 2 2v10c0 1.1-.9 2-2 2H10c-1.1 0-2-.9-2-2V10c0-1.1.9-2 2-2h10m0-1H10c-1.7 0-3 1.3-3 3v10c0 1.7 1.3 3 3 3h10c1.6 0 3-1.3 3-3V10c0-1.7-1.4-3-3-3z"/><path d="M13.6 12c-.2 0-.4.1-.4.4v4.8c0 .2.2.4.4.4.1 0 .2 0 .2-.1l3.8-2.4c.1-.1.1-.4 0-.5l-3.8-2.4c0-.1-.1-.2-.2-.2z"/></symbol><symbol viewBox="0 0 50 50" id="svgicon-view"><path d="M48.8 24.3C48.3 23.8 38 12 25 12S1.7 23.8 1.2 24.3c-.3.4-.3.9 0 1.3C1.7 26.2 12 38 25 38s23.3-11.8 23.8-12.3c.3-.4.3-1 0-1.4zm-16.3-8.9c1.6 1.8 2.5 4.2 2.5 6.6 0 5.5-4.5 10-10 10s-10-4.5-10-10c0-2.4.9-4.8 2.5-6.6 2.4-.9 4.9-1.4 7.5-1.4 2.6 0 5.2.5 7.5 1.4zM25 36C14.6 36 5.7 27.5 3.4 25c1.5-1.5 5.5-5.4 10.8-8.1-.8 1.5-1.2 3.3-1.2 5.1 0 6.6 5.4 12 12 12s12-5.4 12-12c0-1.8-.4-3.6-1.2-5.1 5.3 2.7 9.3 6.6 10.8 8.1-2.3 2.5-11.2 11-21.6 11zm0-9c2.8 0 5-2.2 5-5s-2.2-5-5-5-5 2.2-5 5 2.2 5 5 5zm0-8c1.7 0 3 1.3 3 3s-1.3 3-3 3-3-1.3-3-3 1.3-3 3-3z"/></symbol><symbol viewBox="0 0 30 30" id="svgicon-vimeo-v4"><path d="M24 10.8c-.1 1.8-1.3 4.2-3.7 7.2-2.4 3.2-4.5 4.8-6.2 4.8-1 0-1.9-1-2.7-2.9-.5-1.8-1-3.6-1.5-5.3-.5-1.9-1.1-2.9-1.7-2.9-.1 0-.6.3-1.4.8L6 11.4c.9-.8 1.8-1.6 2.6-2.4 1.2-1 2.1-1.6 2.7-1.6 1.4-.1 2.3.8 2.6 2.9.3 2.2.6 3.6.7 4.1.4 1.8.8 2.8 1.3 2.8.4 0 .9-.6 1.7-1.8.8-1.2 1.2-2.1 1.2-2.7.1-1-.3-1.5-1.2-1.5-.4 0-.9.1-1.3.3.9-2.9 2.6-4.3 5.1-4.2 1.8 0 2.7 1.2 2.6 3.5z"/></symbol><symbol viewBox="0 0 50 50" id="svgicon-vkontakte"><path d="M44.6 30.1c-4.2-3.9-3.6-3.3 1.4-10 3.1-4.1 4.3-6.6 3.9-7.7-.4-1-2.6-.7-2.6-.7h-7.5s-.6-.1-1 .2c-.4.2-.7.8-.7.8s-1.2 3.2-2.8 5.9c-3.3 5.7-4.7 6-5.2 5.6-1.3-.8-1-3.3-1-5.1 0-5.5.8-7.8-1.6-8.4-.8-.2-1.4-.3-3.5-.3-2.7 0-4.9 0-6.2.6-.9.4-1.5 1.4-1.1 1.4.5.1 1.6.3 2.2 1.1.8 1 .7 3.4.7 3.4s.4 6.5-1 7.3c-1 .6-2.4-.6-5.4-5.7-1.5-2.6-2.7-5.6-2.7-5.6s-.2-.5-.6-.8c-.5-.4-1.2-.5-1.2-.5H1.6s-1.1 0-1.5.5c-.4.4 0 1.3 0 1.3S5.7 26.5 12 33.1c5.8 6 12.4 5.6 12.4 5.6h3s.9-.1 1.4-.6c.4-.5.4-1.3.4-1.3s-.1-4 1.8-4.6c1.8-.6 4.2 3.9 6.7 5.6 1.9 1.3 3.3 1 3.3 1l6.7-.1s3.5-.2 1.8-3c-.1-.1-.9-1.9-4.9-5.6z"/></symbol><symbol viewBox="0 0 30 30" id="svgicon-vkontakte-v4"><path d="M22.1 17c-1.5-1.4-1.3-1.2.5-3.6 1.1-1.5 1.5-2.4 1.4-2.8-.1-.4-.9-.3-.9-.3h-2.7s-.2 0-.3.1c-.1.1-.2.3-.2.3s-.4 1.1-1 2.1c-1.2 2-1.7 2.2-1.9 2-.5-.3-.3-1.2-.3-1.8 0-2 .3-2.8-.6-3-.3-.1-.5-.1-1.3-.1-1 0-1.8 0-2.2.2-.3.2-.5.5-.4.5.2 0 .6.1.8.4.3.4.3 1.2.3 1.2s.2 2.3-.4 2.6c-.4.2-.9-.2-1.9-2.1-.6-1-1-2-1-2s-.1-.2-.2-.3l-.4-.2H6.8s-.4 0-.5.2c-.4.3-.3.6-.3.6s2 4.7 4.3 7.1c2.1 2.2 4.5 2 4.5 2h1.1s.3 0 .5-.2.1-.5.1-.5 0-1.4.6-1.7c.7-.2 1.5 1.4 2.4 2 .7.5 1.2.4 1.2.4h2.4s1.3-.1.7-1.1c0-.1-.3-.7-1.7-2z"/></symbol><symbol viewBox="0 0 30 30" id="svgicon-whatsapp-v4"><path fill-rule="evenodd" clip-rule="evenodd" d="M21.4 8.6C19.7 6.9 17.5 6 15.1 6c-4.9 0-9 4-9 8.9 0 1.6.4 3.1 1.2 4.5L6 24l4.8-1.2c1.3.7 2.8 1.1 4.3 1.1 4.9 0 9-4 9-8.9-.1-2.4-1-4.7-2.7-6.4zm-6.3 13.7c-1.3 0-2.7-.4-3.8-1l-.3-.1-2.8.7.8-2.7-.2-.3c-.7-1.2-1.1-2.5-1.1-3.9 0-4.1 3.3-7.4 7.5-7.4 2 0 3.9.8 5.3 2.2 1.4 1.4 2.2 3.3 2.2 5.2-.2 4-3.5 7.3-7.6 7.3zm4.1-5.5c-.2-.1-1.3-.7-1.5-.7-.2-.1-.4-.1-.5.1-.1.2-.6.7-.7.9-.1.1-.3.2-.5.1-.3-.2-1-.4-1.9-1.2-.7-.6-1.1-1.3-1.2-1.5-.1-.2 0-.3.1-.5.1-.1.2-.3.3-.4.1-.1.1-.2.2-.4.1-.1 0-.3 0-.4-.1-.1-.5-1.2-.7-1.7-.2-.4-.4-.4-.5-.4h-.4c-.1 0-.4.1-.6.3-.2.2-.8.8-.8 1.9 0 1.1.8 2.2.9 2.3.1.1 1.6 2.4 3.8 3.4.5.2 1 .4 1.3.5.5.2 1 .1 1.4.1.4-.1 1.3-.5 1.5-1.1.2-.5.2-1 .1-1.1s-.1-.1-.3-.2z"/></symbol><symbol viewBox="0 0 76.1 6.4" id="svgicon-wlpanel_active"><path d="M0 0h76.1L37.6 6.4z"/></symbol><symbol viewBox="0 0 50 50" id="svgicon-world"><path d="M25 50c13.8 0 25-11.2 25-25S38.8 0 25 0 0 11.2 0 25s11.2 25 25 25zM8.1 40.6c1.7-.9 3.7-1.6 5.8-2.2 1.2 3.7 2.9 6.8 4.9 8.8-4.1-1.2-7.8-3.5-10.7-6.6zM24 35c-3 .1-5.9.4-8.6 1-.8-3-1.3-6.4-1.4-10h10v9zm0 2v10.9c-3.3-.7-6.2-4.5-8-10 2.5-.5 5.2-.8 8-.9zm2 10.9V37c2.8.1 5.5.4 8 .9-1.8 5.5-4.7 9.3-8 10zM26 35v-9h10c-.1 3.6-.6 7-1.4 10-2.7-.6-5.6-.9-8.6-1zm12-9h10c-.2 4.9-2 9.4-4.8 13.1-1.9-1.1-4.1-1.9-6.6-2.6.8-3.2 1.3-6.7 1.4-10.5zm0-2c-.1-3.8-.6-7.3-1.4-10.5 2.4-.7 4.7-1.5 6.6-2.6C46 14.6 47.8 19.1 48 24H38zm-2 0H26v-9c3-.1 5.9-.4 8.6-1 .8 3 1.3 6.4 1.4 10zM26 13V2.1c3.3.7 6.2 4.5 8 10-2.5.5-5.2.8-8 .9zM24 2.1V13c-2.8-.1-5.5-.4-8-.9 1.8-5.5 4.7-9.3 8-10zM24 15v9H14c.1-3.6.6-7 1.4-10 2.7.6 5.6.9 8.6 1zm-12 9H2c.2-4.9 2-9.4 4.8-13.1 1.9 1.1 4.1 1.9 6.6 2.6-.8 3.2-1.3 6.7-1.4 10.5zm0 2c.1 3.8.6 7.3 1.4 10.5-2.4.6-4.7 1.5-6.6 2.6C4 35.4 2.2 30.9 2 26h10zm19.1 21.2c2-2 3.7-5.1 4.9-8.8 2.2.6 4.1 1.3 5.8 2.2-2.8 3.1-6.5 5.4-10.7 6.6zM41.9 9.4c-1.7.9-3.7 1.6-5.8 2.2-1.2-3.7-2.9-6.8-4.9-8.8C35.3 4 39 6.3 41.9 9.4zm-23-6.6c-2 2-3.7 5.1-4.9 8.8-2.2-.6-4.1-1.3-5.8-2.2C11 6.3 14.7 4 18.9 2.8z"/></symbol><symbol viewBox="0 0 50 50" id="svgicon-write"><path d="M7.4 43.6h.3l6-1.6c.2 0 .3-.1.4-.3l26-26c.4-.4.4-1 0-1.4s-1-.4-1.4 0L12.9 40.1h-.1l-2.9-2.9v-.1l25.8-25.8c.4-.4.4-1 0-1.4s-1-.4-1.4 0l-26 26c-.1.1-.2.3-.3.5l-1.6 6c-.1.3 0 .7.3 1 .2.1.4.2.7.2zm34.9-30.4c1.5-1.5 1.5-4 0-5.5s-4-1.5-5.5 0l-.7.7 5.5 5.5.7-.7z"/></symbol><symbol viewBox="0 0 30 30" id="svgicon-write-v4"><path d="M21.1 13.1l1.3-1.4c.8-.7.8-2.1 0-2.9l-1.2-1.1c-.7-.8-2.1-.8-2.9 0L16.9 9l-9.2 9.1c0 .1-.1.2-.1.3l-.6 4c0 .2 0 .3.1.5.1 0 .3.1.4.1l4-.6c.1 0 .2 0 .3-.1m.6-2.1l-2.6-2.6 7.5-7.5 2.6 2.6-7.5 7.5zm-1.1 1.1l-3.1.5.5-3.1.3-.3 2.6 2.6-.3.3zm10.4-10.4l-1 1-2.6-2.6 1-1c.4-.4 1-.4 1.5 0l1.2 1.1c.4.5.4 1.1-.1 1.5z"/></symbol><symbol viewBox="0 0 50 50.2" id="svgicon-youtube"><path d="M49.5 15.5s-.5-3.4-2-5c-1.9-2-4-2-5-2.1-7-.5-17.5-.5-17.5-.5s-10.5 0-17.5.5c-1 .1-3.1.1-5 2.1-1.5 1.5-2 5-2 5s-.5 4-.5 8.1v3.8c0 4 .5 8.1.5 8.1s.5 3.4 2 5c1.9 2 4.4 1.9 5.5 2.1 4 .4 17 .5 17 .5s10.5 0 17.5-.5c1-.1 3.1-.1 5-2.1 1.5-1.5 2-5 2-5s.5-4 .5-8.1v-3.8c0-4.1-.5-8.1-.5-8.1zM19.8 32V18l13.5 7-13.5 7z"/></symbol><symbol viewBox="0 0 30 30" id="svgicon-zoom-back-v4"><path d="M22.8 22L18 17.2c.9-1.1 1.5-2.5 1.5-4 0-3.4-2.9-6.3-6.3-6.3C9.9 7 7 9.9 7 13.3c0 3.4 2.9 6.3 6.3 6.3 1.5 0 2.9-.5 4-1.4l4.7 4.7c.3.3.7.2.9 0 .2-.3.2-.6-.1-.9zm-9.5-3.6c-2.9 0-5.1-2.3-5.1-5.1 0-2.9 2.3-5.1 5.1-5.1s5.1 2.3 5.1 5.1-2.3 5.1-5.1 5.1z"/><path d="M13.3 9.8h-1c-.3 0-.5.2-.5.5s.2.5.5.5h.5v5.5c0 .3.2.5.5.5s.5-.2.5-.5v-6c0-.3-.2-.5-.5-.5z"/></symbol><symbol viewBox="0 0 50 50" id="svgicon-zoom-down"><path d="M25 0C11.2 0 0 11.2 0 25s11.2 25 25 25 25-11.2 25-25S38.8 0 25 0zm0 47.8C12.4 47.8 2.2 37.6 2.2 25 2.2 12.4 12.4 2.2 25 2.2S47.8 12.4 47.8 25c0 12.6-10.2 22.8-22.8 22.8z"/><path d="M6 24h38v2H6z"/></symbol><symbol viewBox="0 0 30 30" id="svgicon-zoom-down-v4"><path d="M22.8 22L18 17.2c.9-1.1 1.5-2.5 1.5-4 0-3.4-2.9-6.3-6.3-6.3C9.9 7 7 9.9 7 13.3c0 3.4 2.9 6.3 6.3 6.3 1.5 0 2.9-.5 4-1.4l4.7 4.7c.3.3.7.2.9 0 .2-.3.2-.6-.1-.9zm-9.5-3.6c-2.9 0-5.1-2.3-5.1-5.1 0-2.9 2.3-5.1 5.1-5.1 2.9 0 5.1 2.3 5.1 5.1s-2.3 5.1-5.1 5.1z"/><path d="M16.3 12.8h-6c-.3 0-.5.2-.5.5s.2.5.5.5h6c.3 0 .5-.2.5-.5s-.3-.5-.5-.5z"/></symbol><symbol viewBox="0 0 50 50" id="svgicon-zoom-up"><path d="M25 0C11.2 0 0 11.2 0 25s11.2 25 25 25 25-11.2 25-25S38.8 0 25 0zm0 47.8C12.4 47.8 2.2 37.6 2.2 25 2.2 12.4 12.4 2.2 25 2.2S47.8 12.4 47.8 25c0 12.6-10.2 22.8-22.8 22.8z"/><path d="M26 24V6h-2v18H6v2h18v18h2V26h18v-2z"/></symbol><symbol viewBox="0 0 30 30" id="svgicon-zoom-up-v4"><path d="M22.8 22L18 17.2c.9-1.1 1.5-2.5 1.5-4 0-3.4-2.9-6.3-6.3-6.3C9.9 7 7 9.9 7 13.3c0 3.4 2.9 6.3 6.3 6.3 1.5 0 2.9-.5 4-1.4l4.7 4.7c.3.3.7.2.9 0 .2-.3.2-.6-.1-.9zm-9.5-3.6c-2.9 0-5.1-2.3-5.1-5.1 0-2.9 2.3-5.1 5.1-5.1 2.9 0 5.1 2.3 5.1 5.1s-2.3 5.1-5.1 5.1z"/><path d="M16.3 12.8h-2.5v-2.5c0-.3-.2-.5-.5-.5s-.5.2-.5.5v2.5h-2.5c-.3 0-.5.2-.5.5s.2.5.5.5h2.5v2.5c0 .3.2.5.5.5s.5-.2.5-.5v-2.5h2.5c.3 0 .5-.2.5-.5s-.3-.5-.5-.5z"/></symbol></svg>