<svg xmlns="http://www.w3.org/2000/svg" xmlns:xlink="http://www.w3.org/1999/xlink" viewBox="0 0 139.72 139.72"><defs><style>.cls-1{fill:none;}.cls-2{clip-path:url(#clip-path);}.cls-3{fill:#fff;}.cls-4{clip-path:url(#clip-path-2);}.cls-5{fill:url(#Dégradé_sans_nom);}.cls-6{clip-path:url(#clip-path-3);}.cls-7{fill:url(#Dégradé_sans_nom_2);}.cls-8{clip-path:url(#clip-path-4);}.cls-9{fill:url(#Dégradé_sans_nom_3);}.cls-10{clip-path:url(#clip-path-5);}.cls-11{fill:url(#Dégradé_sans_nom_4);}.cls-12{clip-path:url(#clip-path-6);}.cls-13{fill:#033878;}.cls-14{fill:#db0819;}</style><clipPath id="clip-path" transform="translate(0 0)"><rect class="cls-1" width="139.72" height="139.72"/></clipPath><clipPath id="clip-path-2" transform="translate(0 0)"><path class="cls-1" d="M86,50a9.12,9.12,0,0,1,2.11,5.57.8.8,0,0,1-.83.76H74.89c-.45,0-.9-.37-.83-.81A9.55,9.55,0,0,1,76.26,50a6.25,6.25,0,0,1,4.8-2A6.46,6.46,0,0,1,86,50M75.45,44.79a11.77,11.77,0,0,0-4.4,2.93,12.93,12.93,0,0,0-2.72,4.61,17.69,17.69,0,0,0-.94,5.88c0,4.51,1.27,8,3.79,10.61s6,3.89,10.66,3.89A16.49,16.49,0,0,0,87.05,72c2.75-1,5.85-3.71,6.37-6.29.35-1.69-.69-2.06-1.25-2.14l-.33,0a2.2,2.2,0,0,0-1.47.5c-.38.36-1.51,1.41-2.08,1.92a17.93,17.93,0,0,1-1.93,1.44,8.23,8.23,0,0,1-2.22,1,9.13,9.13,0,0,1-2.51.32,7.13,7.13,0,0,1-6.56-4.06,9.93,9.93,0,0,1-1-4.19.79.79,0,0,1,.84-.83H88.75A9.46,9.46,0,0,0,93,58.86c.86-.44,1.34-1.42,1.35-3.2A11.85,11.85,0,0,0,92.88,50a11.48,11.48,0,0,0-4.43-4.51,13.88,13.88,0,0,0-7.15-1.75,15.86,15.86,0,0,0-5.85,1"/></clipPath><radialGradient id="Dégradé_sans_nom" cx="-200.87" cy="48.69" r="1" gradientTransform="matrix(51.26, 0, 0, -51.26, 10373.39, 2540.56)" gradientUnits="userSpaceOnUse"><stop offset="0" stop-color="#e2670e"/><stop offset="0.08" stop-color="#e2550f"/><stop offset="0.25" stop-color="#e32611"/><stop offset="0.35" stop-color="#e30613"/><stop offset="1" stop-color="#a51008"/></radialGradient><clipPath id="clip-path-3" transform="translate(0 0)"><path class="cls-1" d="M48,58.24a21.9,21.9,0,1,0,21.9-21.9A21.91,21.91,0,0,0,48,58.24"/></clipPath><linearGradient id="Dégradé_sans_nom_2" x1="-202.83" y1="55.11" x2="-201.83" y2="55.11" gradientTransform="matrix(0, 43.8, 43.8, 0, -2343.71, 8919.92)" gradientUnits="userSpaceOnUse"><stop offset="0" stop-color="#5cc4e9"/><stop offset="0.08" stop-color="#4fb2db"/><stop offset="0.23" stop-color="#2c82b5"/><stop offset="0.41" stop-color="#004686"/><stop offset="1" stop-color="#001739"/></linearGradient><clipPath id="clip-path-4" transform="translate(0 0)"><path class="cls-1" d="M49.59,56.18a20.26,20.26,0,0,0,1.16,9.11c3.87-9,13.62-9.21,21.09-6.58,9,1.85,19.22,1.43,17.76-5.26A20.19,20.19,0,0,0,71.92,38c-.7-.07-1.39-.11-2.07-.11A20.41,20.41,0,0,0,49.59,56.18"/></clipPath><linearGradient id="Dégradé_sans_nom_3" x1="-202.54" y1="57.69" x2="-201.54" y2="57.69" gradientTransform="matrix(-29.32, 0, 0, 29.32, -5855.12, -1640.04)" gradientUnits="userSpaceOnUse"><stop offset="0" stop-color="#a1daf8"/><stop offset="1" stop-color="#00386d"/></linearGradient><clipPath id="clip-path-5" transform="translate(0 0)"><path class="cls-1" d="M86,50a9.12,9.12,0,0,1,2.11,5.57.8.8,0,0,1-.83.76H74.89c-.45,0-.9-.37-.83-.81A9.55,9.55,0,0,1,76.26,50a6.25,6.25,0,0,1,4.8-2A6.46,6.46,0,0,1,86,50M75.45,44.79a11.77,11.77,0,0,0-4.4,2.93,12.93,12.93,0,0,0-2.72,4.61,17.69,17.69,0,0,0-.94,5.88c0,4.51,1.27,8,3.79,10.61s6,3.89,10.66,3.89a16.78,16.78,0,0,0,5-.69,21.69,21.69,0,0,0,4.21-8.4,2.06,2.06,0,0,0-.72.39c-.38.36-1.51,1.41-2.08,1.92a17.93,17.93,0,0,1-1.93,1.44,8.23,8.23,0,0,1-2.22,1,9.13,9.13,0,0,1-2.51.32,7.13,7.13,0,0,1-6.56-4.06,9.93,9.93,0,0,1-1-4.19.79.79,0,0,1,.84-.83H88.75a12.67,12.67,0,0,0,3-.3c0-.36,0-.73,0-1.09a21.81,21.81,0,0,0-4.54-13.36,14.74,14.74,0,0,0-5.92-1.12,15.86,15.86,0,0,0-5.85,1"/></clipPath><radialGradient id="Dégradé_sans_nom_4" cx="-197.9" cy="47.39" r="1" gradientTransform="matrix(29.4, 0, 0, -29.4, 5894.68, 1440.14)" gradientUnits="userSpaceOnUse"><stop offset="0" stop-color="#fff"/><stop offset="0.25" stop-color="#fff"/><stop offset="0.48" stop-color="#f7fafb"/><stop offset="0.82" stop-color="#e3ebf0"/><stop offset="1" stop-color="#d5e1e8"/></radialGradient><clipPath id="clip-path-6" transform="translate(0 0)"><rect class="cls-1" x="27.94" y="36.34" width="83.84" height="67.04"/></clipPath></defs><title>Fichier 1</title><g id="Calque_2" data-name="Calque 2"><g id="Calque_1-2" data-name="Calque 1"><g class="cls-2"><path class="cls-3" d="M69.86,139.72A69.86,69.86,0,1,0,0,69.86a69.86,69.86,0,0,0,69.86,69.86" transform="translate(0 0)"/></g><g class="cls-4"><rect class="cls-5" x="67.39" y="43.76" width="26.97" height="28.96"/></g><g class="cls-6"><rect class="cls-7" x="47.96" y="36.34" width="43.8" height="43.8"/></g><g class="cls-8"><rect class="cls-9" x="54.41" y="29.4" width="31.51" height="44.36" transform="translate(11.76 116.17) rotate(-84.2)"/></g><g class="cls-10"><rect class="cls-11" x="67.39" y="43.76" width="24.37" height="28.96"/></g><g class="cls-12"><path class="cls-13" d="M35.63,95.14c0,3.07-1.29,4.6-3.85,4.6H29.56v3.64H27.94V95.14q0-4.62,3.84-4.62c2.56,0,3.85,1.54,3.85,4.62m-1.62,0a3.79,3.79,0,0,0-.42-2,2,2,0,0,0-1.81-.79A2,2,0,0,0,30,93.1a3.8,3.8,0,0,0-.41,2V98h2.22a2,2,0,0,0,1.81-.77,3.84,3.84,0,0,0,.42-2" transform="translate(0 0)"/><path class="cls-13" d="M44.44,95.14q0,4.6-3.84,4.6t-3.85-4.6q0-4.62,3.85-4.62t3.84,4.62m-.61-6.38-.73,1-2.57-1.46L38,89.75l-.73-1,3.31-1.88Zm-1,6.38a3.79,3.79,0,0,0-.42-2,2,2,0,0,0-1.79-.79,2,2,0,0,0-1.8.79,3.79,3.79,0,0,0-.42,2,3.84,3.84,0,0,0,.42,2,2,2,0,0,0,1.8.77,2,2,0,0,0,1.79-.77,3.79,3.79,0,0,0,.42-2" transform="translate(0 0)"/><path class="cls-13" d="M49.87,99.74q-4.12,0-4.13-3.34V86.88h1.62v9.54a1.28,1.28,0,0,0,.43,1.06,3.44,3.44,0,0,0,2.08.47Z" transform="translate(0 0)"/><path class="cls-14" d="M86.51,99.74H84.89V95.13a3.79,3.79,0,0,0-.42-2,2,2,0,0,0-1.82-.78,2,2,0,0,0-1.8.78,3.79,3.79,0,0,0-.42,2v4.61H78.82V95.13a3.79,3.79,0,0,0-.42-2,2,2,0,0,0-1.82-.78,2,2,0,0,0-1.8.78,3.79,3.79,0,0,0-.42,2v4.61H72.74v-4.6q0-4.62,3.84-4.62a3.47,3.47,0,0,1,3,1.39,3.46,3.46,0,0,1,3-1.39q3.85,0,3.86,4.62Z" transform="translate(0 0)"/><path class="cls-14" d="M95.5,95.14q0,4.6-3.85,4.6H89.43v3.64H87.81V95.14q0-4.62,3.84-4.62t3.85,4.62m-1.62,0a3.9,3.9,0,0,0-.41-2,2,2,0,0,0-1.82-.79,2,2,0,0,0-1.8.79,3.79,3.79,0,0,0-.42,2V98h2.22a2,2,0,0,0,1.82-.77,4,4,0,0,0,.41-2" transform="translate(0 0)"/><path class="cls-14" d="M100.81,99.74q-4.12,0-4.13-3.34V86.88H98.3v9.54a1.28,1.28,0,0,0,.43,1.06,3.42,3.42,0,0,0,2.08.47Z" transform="translate(0 0)"/><path class="cls-14" d="M109,95.14q0,4.6-3.84,4.6t-3.85-4.6q0-4.62,3.85-4.62T109,95.14m-1.62,0a3.79,3.79,0,0,0-.42-2,2.45,2.45,0,0,0-3.6,0,5.16,5.16,0,0,0,0,4.08,2.49,2.49,0,0,0,3.6,0,3.79,3.79,0,0,0,.42-2" transform="translate(0 0)"/><path class="cls-14" d="M111.78,88.68h-1.61v-1.8h1.61Zm-1.61,1.84h1.61v9.22h-1.61Z" transform="translate(0 0)"/><path class="cls-13" d="M52.25,95.72a2.24,2.24,0,0,0,2.32,2.55,2.73,2.73,0,0,0,2.21-.94L58,98.43a4.28,4.28,0,0,1-3.42,1.42c-2.28,0-4.1-1.2-4.1-4.67,0-3,1.53-4.66,3.87-4.66s3.86,1.8,3.86,4.39v.81ZM56.1,93.2a2,2,0,0,0-3.62,0,2.89,2.89,0,0,0-.23,1.24h4.1a2.88,2.88,0,0,0-.25-1.24" transform="translate(0 0)"/><path class="cls-14" d="M65.53,95.72a2.24,2.24,0,0,0,2.32,2.55,2.7,2.7,0,0,0,2.21-.94l1.17,1.1a4.24,4.24,0,0,1-3.41,1.42c-2.29,0-4.1-1.2-4.1-4.67,0-3,1.53-4.66,3.86-4.66s3.87,1.8,3.87,4.39v.81Zm3.85-2.52a2,2,0,0,0-3.61,0,2.89,2.89,0,0,0-.24,1.24h4.1a2.88,2.88,0,0,0-.25-1.24" transform="translate(0 0)"/><path class="cls-13" d="M35.63,95.14c0,3.07-1.29,4.6-3.85,4.6H29.56v3.64H27.94V95.14q0-4.62,3.84-4.62c2.56,0,3.85,1.54,3.85,4.62m-1.62,0a3.79,3.79,0,0,0-.42-2,2,2,0,0,0-1.81-.79A2,2,0,0,0,30,93.1a3.8,3.8,0,0,0-.41,2V98h2.22a2,2,0,0,0,1.81-.77,3.84,3.84,0,0,0,.42-2" transform="translate(0 0)"/><path class="cls-13" d="M44.44,95.14q0,4.6-3.84,4.6t-3.85-4.6q0-4.62,3.85-4.62t3.84,4.62m-.61-6.38-.73,1-2.57-1.46L38,89.75l-.73-1,3.31-1.88Zm-1,6.38a3.79,3.79,0,0,0-.42-2,2,2,0,0,0-1.79-.79,2,2,0,0,0-1.8.79,3.79,3.79,0,0,0-.42,2,3.84,3.84,0,0,0,.42,2,2,2,0,0,0,1.8.77,2,2,0,0,0,1.79-.77,3.79,3.79,0,0,0,.42-2" transform="translate(0 0)"/><path class="cls-13" d="M49.87,99.74q-4.12,0-4.13-3.34V86.88h1.62v9.54a1.28,1.28,0,0,0,.43,1.06,3.44,3.44,0,0,0,2.08.47Z" transform="translate(0 0)"/><path class="cls-14" d="M86.51,99.74H84.89V95.13a3.79,3.79,0,0,0-.42-2,2,2,0,0,0-1.82-.78,2,2,0,0,0-1.8.78,3.79,3.79,0,0,0-.42,2v4.61H78.82V95.13a3.79,3.79,0,0,0-.42-2,2,2,0,0,0-1.82-.78,2,2,0,0,0-1.8.78,3.79,3.79,0,0,0-.42,2v4.61H72.74v-4.6q0-4.62,3.84-4.62a3.47,3.47,0,0,1,3,1.39,3.46,3.46,0,0,1,3-1.39q3.85,0,3.86,4.62Z" transform="translate(0 0)"/><path class="cls-14" d="M95.5,95.14q0,4.6-3.85,4.6H89.43v3.64H87.81V95.14q0-4.62,3.84-4.62t3.85,4.62m-1.62,0a3.9,3.9,0,0,0-.41-2,2,2,0,0,0-1.82-.79,2,2,0,0,0-1.8.79,3.79,3.79,0,0,0-.42,2V98h2.22a2,2,0,0,0,1.82-.77,4,4,0,0,0,.41-2" transform="translate(0 0)"/><path class="cls-14" d="M100.81,99.74q-4.12,0-4.13-3.34V86.88H98.3v9.54a1.28,1.28,0,0,0,.43,1.06,3.42,3.42,0,0,0,2.08.47Z" transform="translate(0 0)"/><path class="cls-14" d="M109,95.14q0,4.6-3.84,4.6t-3.85-4.6q0-4.62,3.85-4.62T109,95.14m-1.62,0a3.79,3.79,0,0,0-.42-2,2.45,2.45,0,0,0-3.6,0,5.16,5.16,0,0,0,0,4.08,2.49,2.49,0,0,0,3.6,0,3.79,3.79,0,0,0,.42-2" transform="translate(0 0)"/><path class="cls-14" d="M111.78,88.68h-1.61v-1.8h1.61Zm-1.61,1.84h1.61v9.22h-1.61Z" transform="translate(0 0)"/><path class="cls-13" d="M52.25,95.72a2.24,2.24,0,0,0,2.32,2.55,2.73,2.73,0,0,0,2.21-.94L58,98.43a4.28,4.28,0,0,1-3.42,1.42c-2.28,0-4.1-1.2-4.1-4.67,0-3,1.53-4.66,3.87-4.66s3.86,1.8,3.86,4.39v.81ZM56.1,93.2a2,2,0,0,0-3.62,0,2.89,2.89,0,0,0-.23,1.24h4.1a2.88,2.88,0,0,0-.25-1.24" transform="translate(0 0)"/><path class="cls-14" d="M65.53,95.72a2.24,2.24,0,0,0,2.32,2.55,2.7,2.7,0,0,0,2.21-.94l1.17,1.1a4.24,4.24,0,0,1-3.41,1.42c-2.29,0-4.1-1.2-4.1-4.67,0-3,1.53-4.66,3.86-4.66s3.87,1.8,3.87,4.39v.81Zm3.85-2.52a2,2,0,0,0-3.61,0,2.89,2.89,0,0,0-.24,1.24h4.1a2.88,2.88,0,0,0-.25-1.24" transform="translate(0 0)"/></g></g></g></svg>