<?xml version="1.0" encoding="utf-8"?>
<!-- Generator: Adobe Illustrator 16.0.0, SVG Export Plug-In . SVG Version: 6.00 Build 0)  -->
<!DOCTYPE svg PUBLIC "-//W3C//DTD SVG 1.1//EN" "http://www.w3.org/Graphics/SVG/1.1/DTD/svg11.dtd">
<svg version="1.1" id="Layer_1" xmlns="http://www.w3.org/2000/svg" xmlns:xlink="http://www.w3.org/1999/xlink" x="0px" y="0px"
	 width="126px" height="36px" viewBox="0 0 126 36" enable-background="new 0 0 126 36" xml:space="preserve">
<g transform="matrix( 1, 0, 0, 1, 0,0) ">
	<g>
		
			<path id="Layer0_0_1_STROKES" fill="#013e78" stroke="#FFFFFF" stroke-width="2" stroke-linecap="round" stroke-linejoin="round" d="
			M0,0h126v36H0V0z"/>
	</g>
	<g>
		<g id="Layer0_0_FILL" display="none">
			<path display="inline" fill="#FFFFFF" d="M101.039,24.288v-1.577h-6.352V10.979h-1.65v13.309H101.039 M88.396,24.288h1.709
				V10.979h-1.709V24.288 M85.034,18.17v-1.514h-7.147v-4.1h7.575v-1.577h-9.284v13.309h9.59v-1.577h-7.881V18.17H85.034
				 M73.305,10.979h-1.709v7.696c0,1.681-0.267,2.817-0.795,3.405c-0.529,0.548-1.427,0.82-2.688,0.82
				c-0.731,0-1.344-0.146-1.834-0.441c-0.527-0.295-0.893-0.714-1.098-1.261c-0.203-0.548-0.305-1.39-0.305-2.523v-7.696h-1.711
				v7.696c0,1.431,0.165,2.543,0.49,3.343c0.324,0.801,0.875,1.408,1.648,1.83c0.774,0.463,1.75,0.692,2.932,0.692
				c1.264,0,2.279-0.252,3.056-0.756c0.731-0.507,1.263-1.136,1.589-1.894c0.284-0.8,0.428-1.871,0.428-3.217v-7.696 M59.378,19.621
				c-0.245,1.134-0.694,1.977-1.345,2.523c-0.651,0.588-1.465,0.881-2.444,0.881c-0.774,0-1.488-0.209-2.138-0.631
				c-0.692-0.42-1.201-1.052-1.528-1.892c-0.324-0.842-0.488-1.829-0.488-2.965c0-0.883,0.142-1.725,0.427-2.523
				c0.285-0.842,0.753-1.514,1.405-2.019c0.65-0.462,1.466-0.693,2.443-0.693c0.896,0,1.607,0.211,2.138,0.631
				c0.57,0.462,1.019,1.177,1.344,2.144l1.65-0.441c-0.328-1.22-0.939-2.167-1.833-2.839c-0.855-0.673-1.936-1.009-3.238-1.009
				c-1.141,0-2.179,0.274-3.115,0.82c-0.937,0.505-1.669,1.283-2.199,2.334c-0.489,1.009-0.734,2.208-0.734,3.595
				c0,1.262,0.226,2.461,0.672,3.595c0.449,1.096,1.1,1.934,1.957,2.523c0.895,0.589,2.037,0.883,3.421,0.883
				c1.301,0,2.423-0.378,3.36-1.135c0.936-0.758,1.588-1.871,1.955-3.342L59.378,19.621 M38.852,15.016
				c0.283-0.842,0.751-1.514,1.403-2.019c0.653-0.462,1.467-0.693,2.444-0.693c0.896,0,1.61,0.211,2.138,0.631
				c0.57,0.462,1.018,1.177,1.346,2.144l1.648-0.441c-0.326-1.22-0.937-2.167-1.832-2.839c-0.856-0.673-1.935-1.009-3.238-1.009
				c-1.141,0-2.179,0.274-3.115,0.82c-0.937,0.505-1.669,1.283-2.199,2.334c-0.49,1.009-0.733,2.208-0.733,3.595
				c0,1.262,0.225,2.461,0.671,3.595c0.448,1.095,1.1,1.935,1.955,2.523c0.896,0.589,2.037,0.883,3.421,0.883
				c1.303,0,2.425-0.378,3.36-1.135c0.939-0.757,1.589-1.871,1.957-3.343l-1.711-0.441c-0.243,1.135-0.692,1.977-1.343,2.523
				c-0.653,0.59-1.466,0.881-2.444,0.881c-0.775,0-1.486-0.209-2.138-0.631c-0.693-0.418-1.202-1.05-1.527-1.892
				c-0.327-0.842-0.489-1.829-0.489-2.965C38.424,16.656,38.565,15.814,38.852,15.016 M33.903,24.288h1.955l-5.315-13.309H28.71
				l-4.887,13.309h1.771L27,20.252h5.376L33.903,24.288 M31.888,18.863H27.49l1.405-3.91c0.326-0.842,0.57-1.682,0.733-2.523
				c0.205,0.714,0.51,1.618,0.917,2.712L31.888,18.863z"/>
		</g>
	</g>
</g>
<text transform="matrix(1 0 0 1 8.5864 23.2227)" fill="#FFFFFF" font-family="'HelveticaNeue'" font-size="16">LECTURE ZEN</text>
</svg>
