<?xml version="1.0" encoding="UTF-8" standalone="no"?>
<!DOCTYPE svg PUBLIC "-//W3C//DTD SVG 1.1//EN" "http://www.w3.org/Graphics/SVG/1.1/DTD/svg11.dtd">
<svg xmlns="http://www.w3.org/2000/svg" xmlns:xlink="http://www.w3.org/1999/xlink" version="1.1"
     viewbox="0 0 1024.00 1448.20" width="1024.00" height="1448.20" style="overflow:hidden" xml:space="preserve">
<defs>
<style type="text/css">
<![CDATA[
@font-face { font-family: 'f1WqFVZW43#43'; font-weight: normal; font-style: normal;  src: url(svg/font2.ttf) format('truetype'); }
@font-face { font-family: 'f1WqFVZW44#15'; font-weight: normal; font-style: normal;  src: url(svg/font3.ttf) format('truetype'); }

.s1WqFVZW40 { fill: rgb(  0,  74,  78); font-family: 'f1WqFVZW43#43'; font-size: 12.00px; }
.s1WqFVZW41 { fill: rgb(  0,  74,  78); font-family: 'f1WqFVZW44#15'; font-size: 12.00px; }
.s1WqFVZW42 { fill: rgb(255, 255, 255); font-family: 'f1WqFVZW44#15'; font-size: 70.05px; }
.s1WqFVZW43 { fill: rgb(255, 255, 255); font-family: 'f1WqFVZW44#15'; font-size: 41.25px; }
]]>
</style>
</defs>
<image x="0" y="0" width="1024" height="1448.2" xlink:href="svg/svg.jpg"/>
<g class="s1WqFVZW40" transform="translate(452.65 48.75)" >
<text y="0" x="0 6.6 12.35 18.05 24.2 30.6 36.6 42 48.05 54.45 57.65 63.35 70.8 77 83 88.5 94.7 104.35 110.75 114 ">Responsablesensemble</text>
</g>
<g class="s1WqFVZW41" transform="translate(502.85 1408.45)" >
<text y="0" x="0 7.05 14.85 ">-1-</text>
</g>
<g class="s1WqFVZW42" transform="translate(553.35 280.4)" >
<text y="0" x="0 38.5 71.75 104.9 140.85 178.1 213 244.25 279.65 316.65 335.35 368.65 ">Responsables</text>
<text y="65.35" x="114.35 150.5 185.35 217.5 253.6 310.1 347 365.75 ">ensemble</text>
</g>
<g class="s1WqFVZW43" transform="translate(75.95 1374.6)" >
<text y="0" x="0 23.35 44.25 66.05 87.2 109.15 124.2 147.3 170.6 194.9 223.8 245.8 269.5 285 ">RapportRSE2017</text>
</g>
</svg>
