<?xml version="1.0" encoding="UTF-8" standalone="no"?>
<!DOCTYPE svg PUBLIC "-//W3C//DTD SVG 1.1//EN" "http://www.w3.org/Graphics/SVG/1.1/DTD/svg11.dtd">
<svg xmlns="http://www.w3.org/2000/svg" xmlns:xlink="http://www.w3.org/1999/xlink" version="1.1"
     viewbox="0 0 1024.00 1448.20" width="1024.00" height="1448.20" style="overflow:hidden" xml:space="preserve">
<defs>
<style type="text/css">
<![CDATA[
@font-face { font-family: 'f2yTFVZW411#29'; font-weight: normal; font-style: normal;  src: url(svg/font10.ttf) format('truetype'); }
@font-face { font-family: 'f2yTFVZW47#44'; font-weight: normal; font-style: normal;  src: url(svg/font6.ttf) format('truetype'); }
@font-face { font-family: 'f2yTFVZW48#16'; font-weight: normal; font-style: normal;  src: url(svg/font7.ttf) format('truetype'); }
@font-face { font-family: 'f2yTFVZW412#34'; font-weight: normal; font-style: normal;  src: url(svg/font11.ttf) format('truetype'); }
@font-face { font-family: 'f2yTFVZW410#24'; font-weight: normal; font-style: normal;  src: url(svg/font9.ttf) format('truetype'); }

.s2yTFVZW40 { fill: rgb(  0,  74,  78); font-family: 'f2yTFVZW47#44'; font-size: 12.00px; }
.s2yTFVZW41 { fill: rgb(  0,  74,  78); font-family: 'f2yTFVZW48#16'; font-size: 12.00px; }
.s2yTFVZW42 { fill: rgb(255, 255, 255); font-family: 'f2yTFVZW410#24'; font-size: 15.45px; }
.s2yTFVZW43 { fill: rgb(255, 255, 255); font-family: 'f2yTFVZW48#16'; font-size: 15.45px; }
.s2yTFVZW44 { fill: rgb(255, 255, 255); font-family: 'f2yTFVZW411#29'; font-size: 15.45px; }
.s2yTFVZW45 { fill: rgb(255, 255, 255); font-family: 'f2yTFVZW412#34'; font-size: 25.80px; }
.s2yTFVZW46 { fill: rgb( 74,  74,  73); font-family: 'f2yTFVZW410#24'; font-size: 15.45px; }
.s2yTFVZW47 { fill: rgb( 74,  74,  73); font-family: 'f2yTFVZW48#16'; font-size: 15.45px; }
.s2yTFVZW48 { fill: rgb(255, 255, 255); font-family: 'f2yTFVZW412#34'; font-size: 21.90px; }
.s2yTFVZW49 { fill: rgb(  3,  56, 120); font-family: 'f2yTFVZW410#24'; font-size: 15.45px; }
.s2yTFVZW410 { fill: rgb(  3,  56, 120); font-family: 'f2yTFVZW48#16'; font-size: 15.45px; }
]]>
</style>
</defs>
<image x="0" y="0" width="1024" height="1448.2" xlink:href="svg/svg.jpg"/>
<g class="s2yTFVZW40" transform="translate(452.65 48.75)" >
<text y="0" x="0 6.6 12.35 18.05 24.2 30.6 36.6 42 48.05 54.45 57.65 63.35 70.8 77 83 88.5 94.7 104.35 110.75 114 ">Responsablesensemble</text>
</g>
<g class="s2yTFVZW41" transform="translate(501.8 1408.45)" >
<text y="0" x="0 7.15 16.95 ">-5-</text>
</g>
<g class="s2yTFVZW42" transform="translate(92.55 285.85)" >
<text y="0" x="0.4 4.45 12.45 17.7 25.15 33.45 39 46.6 52.35 55.95 63.85 73.6 81.7 89.35 97.05 106.25 110.8 120.55 128.3 136.2 143.35 150.85 158.25 165.85 175.75 187.35 195.05 200.45 207.4 215.05 ">Int&#xE9;grationdanslenouveaumarch&#xE9;</text>
<text y="18.55" x="0 8 17.5 25.95 29.5 36.45 42.1 47.95 51.75 59.8 67.6 73.35 76.85 84.8 94.6 102.65 112.15 118.6 126.55 134.25 141.1 149.05 160.95 172.55 180.3 188.3 192.85 200.2 ">dedistributiondeconsommables</text>
<text y="164.6" x="2.5 11 18.9 26.75 34.85 42.2 49.85 57.75 62.05 66.75 74.6 86.45 94.3 102.35 110.2 118.65 128.8 140.6 148.35 153.95 161.05 168.85 178.75 186.95 197 208.8 215.4 220.65 226.45 232.5 236.2 243.25 ">Renouvellementdumarch&#xE9;dema&#xEE;trise</text>
<text y="183.25" x="2.15 10.2 13.2 25.65 32.95 40.75 46.3 56.45 60.35 68.6 73.45 81.55 87.1 98.95 106.8 112.65 116.4 124.8 132.55 142.35 150.6 160.6 165.5 175.7 185.45 189.35 194.95 202.55 209.55 215.45 219.15 227.25 ">d&#x2019;&#x153;uvreinformatiquedelaDirection</text>
<text y="201.75" x="2.15 10.35 17.85 27.1 34.15 42 47.8 56.1 59.8 66.35 73.85 83.45 87.35 95.6 100.5 108.55 114.15 126 133.8 139.7 143.35 151.85 159.55 167.05 ">desservicesinformatiques</text>
<text y="456.65" x="567.25 574.65 582.6 590.65 597.4 605.45 617.4 625.45 633.7 641.8 650.35 660.85 666.4 674.05 681.35 689.4 697.8 708.15 713.15 723.5 731.85 736.85 744.85 750.4 758.5 763.55 771.75 777.55 789.5 ">Lancementdutestdelaplateforme</text>
<text y="475.3" x="566.85 575.2 585.65 590.7 598.9 604.7 616.65 624.65 630.7 634.55 642.75 653.25 665.35 673.15 678.6 683.45 691.1 699.05 704.85 713.2 717.3 725.3 736.1 ">deformation&#xAB;e-learning&#xBB;</text>
<text y="632.8" x="566.85 575.7 584.05 592.25 599.15 607.35 615.85 622.05 626.1 634.45 645.15 653.9 664.7 676.8 684.95 693.7 701.95 706.95 717.4 725.95 736.7 741.9 750.25 756.2 768.3 776.45 782.65 786.65 795.05 ">Conceptiondumoduledeformation</text>
<text y="651.35" x="566.95 579.4 587.35 592.9 597.95 605.7 613.85 619.8 628.3 632.55 640.75 651.8 ">&#xAB;e-learning&#xBB;</text>
<text y="958.1" x="565.8 574.45 582.45 590.5 598.7 606.2 614.05 622.1 626.55 631.4 639.45 651.4 659.45 667.7 675.75 684.35 694.85 706.8 714.75 720.45 727.7 735.75 ">Renouvellementdumarch&#xE9;</text>
<text y="976.7" x="565.4 573.75 584.15 592.25 600.25 608.7 612.55 620.55 628.7 637.05 645.15 650.85 658.5 666.45 674.6 680.6 684.5 693.1 700.95 ">depapierbureautique</text>
<text y="994.4" x="1.85 13.5 17.4 24.6 34.75 42.75 53.1 60.85 67.6 74.35 82.05 88.95 96.5 100.6 109 113.1 118.45 122.55 128.1 138.25 146.6 154.25 163.55 172 183.75 190.55 198.75 206.8 212.65 218.8 222.65 230.7 236.55 ">Miseenaccessibilit&#xE9;des20courriers</text>
<text y="1012.95" x="1.45 9.75 17.85 29.8 37.8 43.35 51.35 57.55 61.35 69.35 74.7 78.55 85.8 93.35 102.9 110.2 118.3 126.45 134.55 142.8 147.6 155.45 160.6 168.6 180.8 189.2 194.05 202.3 206.5 210.7 215.9 ">d&#xE9;mat&#xE9;rialis&#xE9;ssurpole-emploi.fr</text>
</g>
<g class="s2yTFVZW43" transform="translate(92.65 323)" >
<text y="0" x="0 8.15 18.55 23 33.05 39.75 47.9 51.9 56 63.75 70.85 75.75 85.9 93.9 104 112.35 122.6 127.95 135.7 142.65 150.5 157.6 162 169.65 177.85 187.95 196.15 203.5 ">delacollecteetdurecyclagedes</text>
<text y="18.6" x="0 6.75 14.6 20.25 25.25 33.35 41 48.15 56 63.35 73 80.35 87.25 94.85 103 110.75 118.15 127.9 135.75 143.65 151.4 155.5 162.9 172.25 179.4 187.15 194.2 199.15 207.05 214.9 220.15 ">cartouchesusag&#xE9;esparlessecteurs</text>
<text y="37.1" x="0 7.55 15.65 23.5 31.75 36.65 44 53.6 61.5 69.15 77.4 87.75 91.5 95.15 98.6 106.25 113.4 121.4 127 132.5 135.75 144 152 ">adapt&#xE9;setdel&#x2019;insertion.</text>
<text y="164.6" x="176.5 184.6 189.75 196.6 203.95 211.95 219.65 227.35 235.2 ">pr&#xE9;voyant</text>
<text y="183.25" x="2 9 16.75 24 32.1 39.5 47.15 52.5 57.65 67.5 75.15 82.75 92.15 96.15 106.25 111.5 119.1 126 131.5 139.25 144 151.85 163.95 171.7 179.7 187 195 205.15 213.15 218.35 225.6 ">surquatreanslerecrutementdepr&#xE8;s</text>
<text y="201.75" x="2.15 10.15 19.65 25.6 34.65 46 53.65 61.75 69.5 72 79.4 87.15 91.1 98.9 106.85 111.75 121.25 126 133.85 146.2 153.6 163 171.1 175 182.95 186.2 196.7 201.45 209.05 217.7 226.15 ">de100&#xE9;quivalentstempsplein(ETP)</text>
<text y="220.4" x="1.55 9.5 12.5 22.5 26.5 33.65 42.9 49.75 54.1 61.65 68.85 75.75 83 92.1 99 106.9 113.85 116.9 124.5 128.5 135.75 144.95 152.75 156.2 159.5 167 173.95 181.75 187.25 192.65 195.7 203.75 211.65 ">vialesclausessocialesd&#x2019;insertion.</text>
<text y="614.2" x="664.6 672.7 681 689 697.05 701.7 709.7 714.9 720 728.15 736 742.8 751.2 759.4 765 770.55 781.25 785.55 793.05 ">pourluttercontreles</text>
<text y="632.8" x="566.9 575.55 578.8 586.05 593.25 599.15 602.75 615.45 619.05 627 635 640.7 644.05 652.45 660.3 667.25 673.65 684 692.3 699.8 707.15 712.85 716.45 724.4 732.4 738.05 741.45 749.8 760.4 768.75 779.45 784.6 792.85 800.35 ">discriminations,&#xE0;destinationdetous</text>
<text y="651.35" x="567.15 571.4 578.95 588.8 595.6 604 611.85 619.1 627.3 630.9 635 639.3 647.4 652.85 660.25 ">lesconseillers.</text>
<text y="958.1" x="565.45 573.4 581.3 586.65 594.4 601.05 609.2 617.05 622.3 631.85 638.6 646.1 653.15 657.6 664.95 672.4 675.85 684.9 ">etrecoursexclusif&#xE0;</text>
<text y="976.7" x="565.45 573.75 584 591.9 599.75 608 611.2 619.2 626.4 632.5 641.65 652.4 665.65 671 678.7 685.65 693.6 700.65 704.8 712.4 ">dupapier100%recycl&#xE9;.</text>
<text y="994.4" x="1.5 9.6 17 24.15 29.75 33.15 41 48.4 57.9 65.65 72.4 82.75 90.9 98.9 111.15 118.95 126.75 135 142.85 150.7 156 165.45 173.45 175.75 183.75 196.2 204.45 208.55 216.85 222.45 230.45 ">destin&#xE9;sauxdemandeursd&#x2019;emploien</text>
<text y="1012.95" x="1.3 8.75 12.15 17.35 25 32.8 38.3 41.5 49.75 60 68.25 78.65 86.5 94.35 102.15 110.7 113.9 120.7 128.5 138.15 146.25 149.35 156.5 164.1 172.1 176.7 ">situationdehandicapvisuel.</text>
</g>
<g class="s2yTFVZW44" transform="translate(659.55 761.15)" >
<text y="0" x="181.6 189.65 197.35 205.7 208.5 216.2 ">d&#xE9;di&#xE9;e</text>
<text y="18.55" x="0 7.6 14.25 24.4 36.8 44.75 49.95 52.75 60.7 65.6 75.1 83.15 93.55 96.9 98.7 106.4 113.05 121.25 129 137.2 149.95 152.75 162.05 169.45 177.4 182.75 187.3 194.75 200.35 208.3 218.75 223.85 231.6 239.95 242.7 250.95 ">auxm&#xE9;tiersdel&#x2019;&#xE9;conomieverte,enr&#xE9;gion</text>
<text y="37.1" x="0.5 7.65 17.05 25.45 37.45 45.4 52.75 61 68.95 76.9 82 87.15 94.7 99.45 107.95 115.7 122.25 130.3 140.9 148.35 156.65 159.7 164.8 172.6 ">PACAetCentre-ValdeLoire.</text>
</g>
<g class="s2yTFVZW45" transform="translate(325.75 160.2)" >
<text y="0" x="0 11.25 22.55 39.75 48.9 63.75 68.4 79.8 97 112.25 127.1 139.45 154.35 167.25 182.05 195.25 206.7 223.9 238 254.4 264.25 267.45 282.25 296.6 310.85 322.9 338.35 350.1 362.85 371.5 ">LESFAITSMARQUANTSDEL&#x2019;ANN&#xC9;E2017</text>
</g>
<g class="s2yTFVZW46" transform="translate(92.6 570.3)" >
<text y="0" x="567.15 574.6 583.25 591.25 599.1 605.1 609.05 620.9 628.75 636.85 642.4 650.25 656.15 659.85 667.9 678 686.4 696.6 702.4 708.1 714.9 722.75 730.65 734.6 741.65 749.5 757.65 763.6 771.65 779.65 785.25 793.15 800.75 ">Exp&#xE9;rimentationdutravailenjourn&#xE9;e</text>
<text y="223.65" x="0 10.55 16.35 22.45 28.75 33 41.55 49.8 56 60 68.4 79.1 87.85 98.6 107.1 110.75 118.75 126.55 134.7 144.9 156.6 165.35 176.15 181.25 189.45 197.7 205.9 213.95 222.9 232.35 242.45 ">Attributionduniveau5dulabelRGAA</text>
</g>
<g class="s2yTFVZW47" transform="translate(92.95 588.9)" >
<text y="0" x="566.8 574.8 582.9 590.75 598.5 602.65 610 619.75 632 640 645.5 648.75 656.65 662 671.5 679.65 690.05 694.55 704.8 712.9 718.3 726.55 734.65 740.05 748.05 753 760.15 ">pourlesm&#xE9;tiersdelapropret&#xE9;,</text>
<text y="18.55" x="566.55 574.75 582.55 590.25 600.05 604.4 614.9 623.4 631.15 639.55 642.8 651.05 661.3 669.75 677.65 685.8 691.25 696.55 704.25 708.8 717.55 725.4 732.3 740.5 751.05 758.5 766.8 770.25 775.55 783.4 ">danslaR&#xE9;gionCentre-ValdeLoire.</text>
<text y="223.6" x="0.7 5.75 14.35 22.5 27.1 35.2 40.7 48.85 57.1 62.8 66.2 74.3 81.55 89.85 97.95 105.95 114.1 119.65 127.65 134.85 142.95 145.85 153.6 160.45 167.25 174.8 181.6 189.15 192.75 201.2 204.8 209.75 213.35 218.45 ">(R&#xE9;f&#xE9;rentielg&#xE9;n&#xE9;rald&#x2019;accessibilit&#xE9;</text>
<text y="242.2" x="0.35 8.5 16.75 24.75 32.8 37.1 44.6 54.45 62.2 70.7 83.45 87.1 95.35 98.6 105.95 111.55 117.1 125.1 130.75 134.1 142.5 150.35 157.5 165.65 173.75 182.05 190 198.1 202.4 212.75 220.3 223.9 229.05 ">pourlesadministrations)pourlesite</text>
<text y="260.8" x="0 7.05 15 19.3 27.75 35.7 43.85 52.1 57.05 60.35 68.95 76.95 84.95 88.6 96.7 105.1 109.4 117.2 122.95 131.05 143.7 152 156.3 164.75 168.3 171.95 176.7 ">salonenligne.pole-emploi.fr</text>
</g>
<g class="s2yTFVZW48" transform="translate(462.55 277.5)" >
<text y="0" x="26.4 39.35 51.95 62.65 ">MARS</text>
<text y="131.6" x="25.15 35.35 48 59.15 63.95 ">AVRIL</text>
<text y="251" x="16.85 26.55 38.8 43.6 53.2 62.8 72.15 ">JUILLET</text>
<text y="364.2" x="0 11 21.25 31.55 42.25 52.55 66.45 78.05 89.2 ">SEPTEMBRE</text>
<text y="625.9" x="10.55 23 33.55 43.1 55.95 67.55 78.7 ">OCTOBRE</text>
<text y="738.1" x="3.55 15.25 26.55 39.15 49.45 63.45 74.95 86.15 ">NOVEMBRE</text>
<text y="938.25" x="5.1 17.15 26.6 37.6 47.85 61.9 73.4 84.65 ">D&#xC9;CEMBRE</text>
</g>
<g class="s2yTFVZW49" transform="translate(93.35 312.9)" >
<text y="0" x="567.3 577.25 585.6 593.25 601.25 609.4 617.1 625 631.9 638.85 647.25 653.1 664.1 671.55 679.8 688.25 693.4 703.85 712.6 720.6 728.75 734.15 738.5 744.15 754.65 763.15 773.1 781.65 785.75 ">Nouvelaccordsurlaqualit&#xE9;devie</text>
<text y="18.6" x="566.9 574.75 584.9 590.65 596.4 603.15 611.05 618.9 622.9 ">autravail</text>
<text y="358.3" x="0.4 10.2 18.4 26.6 34.75 40.75 48.9 54.35 58.4 65.6 73.75 79.95 83.95 92.35 103 111.75 122.3 131.15 135.15 142.75 151.05 158.95 166.65 170.9 177.1 181.4 ">G&#xE9;n&#xE9;ralisationdudispositif</text>
<text y="376.9" x="0 10.85 21 29.65 38.7 ">ADEDA</text>
<text y="829.45" x="0.5 9.15 17.35 25.4 32.15 40.2 48.55 54.6 58.45 66.7 77.05 85.65 96.15 104.15 112.4 119.9 127.75 135.35 143.35 153.8 165.75 173.75 179.45 186.65 194.7 ">Conceptiondunouveaumarch&#xE9;</text>
<text y="848.05" x="0.5 8.55 18.05 24.5 32.4 36.55 41.15 48.55 55.45 60.7 70.25 77.95 85.65 91.3 96.85 104.6 108.35 113.65 121.35 133 140.7 148.65 156.15 164.2 171.5 180.45 187.4 191.15 198.9 209 217.05 224.5 231.45 239.15 246.85 252.3 ">decollecteettraitementdescinqd&#xE9;chets</text>
<text y="866.6" x="0.5 8.55 18.3 26.35 34.15 39.55 46.8 54.5 64.35 69.75 77.25 84 91.8 98.65 103.35 111 119.05 123.6 130.95 140.1 ">debureaurecyclables:</text>
</g>
<g class="s2yTFVZW410" transform="translate(93.85 331.5)" >
<text y="0" x="629.85 637.6 645.6 653.3 660.4 668.15 680.25 688.05 692.65 695.75 703.8 709 716.85 724.3 728.55 738.3 744.8 752.85 760.55 767.55 770.85 775.4 778.5 786.15 791.55 794.6 802.65 ">pouram&#xE9;liorerlaconciliation</text>
<text y="18.55" x="566.55 574.65 582.9 588.55 594.05 603.8 612.05 615.4 626.1 634.4 639.9 648.35 652.9 660.4 667.25 674.85 678.15 686.6 694.85 702.85 710.9 715.05 719.35 729.8 737.9 745.15 753.4 756.8 767.5 775.85 781.65 784.5 792.15 800.1 807.65 ">entrevieprofessionnelleetviepriv&#xE9;e,</text>
<text y="37.1" x="566.8 574.8 583.15 588.5 596.5 609.1 621.5 629.65 637.9 645.8 652.75 660.4 668.35 678.15 682.65 693.05 701.4 709.5 717.55 725.65 731.15 739.15 744.1 747.35 754.4 762.4 768.05 771.4 779.8 ">notammentaveclag&#xE9;n&#xE9;ralisation</text>
<text y="55.65" x="566.55 575.05 585.6 590.75 598.85 603.15 611.25 616.9 622.4 629.35 637.05 645.15 648.75 653.5 ">dut&#xE9;l&#xE9;travail.</text>
<text y="358.25" x="51.4 59.5 67.8 75.75 83.85 88.15 95.65 105.35 112.6 120.9 128.9 134.4 142.45 ">pourlessourds</text>
<text y="376.85" x="0 7.85 15.4 27.45 35.15 39.05 46.95 54.85 59.65 67.5 75.2 83.15 90.85 98.75 103.7 112.9 120.9 128.55 136.1 145.6 150.4 158.35 166 170.85 178 ">etmalentendantsdanstoutes</text>
<text y="395.45" x="0.25 4.55 12.05 21.85 29.6 37.95 46.05 54.05 60.9 68.4 78.65 87.15 95.55 99.8 110.3 118.4 131.05 139.4 143.7 152.15 155.65 ">lesagencesP&#xF4;leemploi.</text>
<text y="848" x="147.7 155.25 162.75 170.75 173.65 181.25 185.75 190.2 196.7 204.2 209.55 214.2 222.15 229.35 ">papier/carton,</text>
<text y="866.6" x="0.35 12.3 19.95 24.8 32.35 36.2 41.9 49.8 53.9 61.05 67.95 73.15 76.05 84.05 91.35 98.5 103.25 110.5 118.15 123.2 128.25 137.8 145.45 152.7 160.35 168.35 171.1 178 ">m&#xE9;tal,plastique,verreetbois.</text>
</g>
</svg>
