<?xml version="1.0" encoding="UTF-8" standalone="no"?>
<!DOCTYPE svg PUBLIC "-//W3C//DTD SVG 1.1//EN" "http://www.w3.org/Graphics/SVG/1.1/DTD/svg11.dtd">
<svg xmlns="http://www.w3.org/2000/svg" xmlns:xlink="http://www.w3.org/1999/xlink" version="1.1"
     viewbox="0 0 1024.00 1448.20" width="1024.00" height="1448.20" style="overflow:hidden" xml:space="preserve">
<defs>
<style type="text/css">
<![CDATA[
@font-face { font-family: 'f0WBbBRa410#18'; font-weight: normal; font-style: normal;  src: url(svg/font9.ttf) format('truetype'); }
@font-face { font-family: 'f0WBbBRa49#61'; font-weight: normal; font-style: normal;  src: url(svg/font8.ttf) format('truetype'); }
@font-face { font-family: 'f0WBbBRa414#38'; font-weight: normal; font-style: normal;  src: url(svg/font13.ttf) format('truetype'); }
@font-face { font-family: 'f0WBbBRa412#28'; font-weight: normal; font-style: normal;  src: url(svg/font11.ttf) format('truetype'); }
@font-face { font-family: 'f0WBbBRa415#43'; font-weight: normal; font-style: normal;  src: url(svg/font14.ttf) format('truetype'); }
@font-face { font-family: 'f0WBbBRa411#23'; font-weight: normal; font-style: normal;  src: url(svg/font10.ttf) format('truetype'); }
@font-face { font-family: 'f0WBbBRa413#33'; font-weight: normal; font-style: normal;  src: url(svg/font12.ttf) format('truetype'); }
@font-face { font-family: 'f0WBbBRa416#47'; font-weight: normal; font-style: normal;  src: url(svg/font15.ttf) format('truetype'); }

.s0WBbBRa40 { fill: rgb(  0,  74,  78); font-family: 'f0WBbBRa49#61'; font-size: 12.00px; }
.s0WBbBRa41 { fill: rgb(  0,  74,  78); font-family: 'f0WBbBRa410#18'; font-size: 12.00px; }
.s0WBbBRa42 { fill: rgb( 51, 125, 109); font-family: 'f0WBbBRa411#23'; font-size: 17.20px; }
.s0WBbBRa43 { fill: rgb( 74,  74,  73); font-family: 'f0WBbBRa412#28'; font-size: 15.45px; }
.s0WBbBRa44 { fill: rgb( 51, 125, 109); font-family: 'f0WBbBRa413#33'; font-size: 41.25px; }
.s0WBbBRa45 { fill: rgb(  3,  56, 120); font-family: 'f0WBbBRa414#38'; font-size: 18.90px; }
.s0WBbBRa46 { fill: rgb( 74,  74,  73); font-family: 'f0WBbBRa415#43'; font-size: 15.45px; }
.s0WBbBRa47 { fill: rgb( 74,  74,  73); font-family: 'f0WBbBRa412#28'; font-size: 9.00px; }
.s0WBbBRa48 { fill: rgb(255, 255, 255); font-family: 'f0WBbBRa416#47'; font-size: 25.80px; }
.s0WBbBRa49 { fill: rgb(  0,  74,  78); font-family: 'f0WBbBRa413#33'; font-size: 49.65px; }
.s0WBbBRa410 { fill: rgb(  0,  74,  78); font-family: 'f0WBbBRa410#18'; font-size: 16.25px; }
.s0WBbBRa411 { fill: rgb( 36,  87,  33); font-family: 'f0WBbBRa413#33'; font-size: 49.65px; }
.s0WBbBRa412 { fill: rgb( 36,  87,  33); font-family: 'f0WBbBRa410#18'; font-size: 16.25px; }
.s0WBbBRa413 { fill: rgb( 36,  87,  33); font-family: 'f0WBbBRa410#18'; font-size: 9.45px; }
.s0WBbBRa414 { fill: rgb( 36,  87,  33); font-family: 'f0WBbBRa410#18'; font-size: 12.00px; }
]]>
</style>
</defs>
<image x="0" y="0" width="1024" height="1448.2" xlink:href="svg/svg.jpg"/>
<g class="s0WBbBRa40" transform="translate(452.65 48.75)" >
<text y="0" x="0 6.6 12.35 18.05 24.2 30.6 36.6 42 48.05 54.45 57.65 63.35 70.8 77 83 88.5 94.7 104.35 110.75 114 ">Responsablesensemble</text>
</g>
<g class="s0WBbBRa41" transform="translate(500.7 1408.45)" >
<text y="0" x="0 7.1 11.4 19.15 ">-11-</text>
</g>
<g class="s0WBbBRa42" transform="translate(124.1 198.35)" >
<text y="0" x="42.15 49.9 57.45 63.35 74.95 83.15 92.15 101.15 115.65 125 129.7 138.5 142.9 148.75 160.35 169.35 181.7 195.9 204.2 211.55 215.6 224.6 230.5 241.75 251.05 255.15 264.1 278.65 288 292.7 302.25 ">&#xCA;treexemplaireenmati&#xE8;red&#x2019;emploi</text>
<text y="18.55" x="77.85 87.3 99.2 108.1 117.1 123.1 130.75 140.5 150 159.1 167.5 178.6 187.65 196.65 205.75 215.35 219.4 227.2 236.2 245.1 253.8 262.25 ">depersonneshandicap&#xE9;es</text>
<text y="332" x="16 25.2 33.8 43.65 52.8 57.2 63.05 75.1 79.8 88.25 98.85 107.85 122.15 126 133.45 141.25 145.35 155.15 164 174.25 183.75 194.95 204.15 212.5 223.05 234.65 243.1 249.3 255.8 264.1 273.9 283.35 294.75 302.4 311.4 317.95 323.75 ">R&#xE9;duireles&#xE9;missionsdegaz&#xE0;effetdeserre</text>
<text y="350.5" x="76.95 85.25 95.2 102.75 106.8 115.8 124.55 133.75 142 151.25 160.25 169.7 178.6 188.4 197.75 207.3 212.05 223.65 231.9 236.7 241.1 255.3 263.6 ">ets&#x2019;engagerpourleclimat</text>
<text y="594.3" x="0 11.95 17.05 21.8 30.8 39.9 48.9 58.25 64.3 73.75 82.85 87.5 98.8 108.2 116.65 126.95 136.85 146.25 151 154.75 163.95 172.25 179.6 183.7 193.5 202.35 213.4 218.1 226.4 235.6 244.7 249.4 257.85 268.5 277.5 289.85 304 312.35 319.7 323.75 332.75 338.6 ">Allerau-del&#xE0;desobligationsl&#xE9;galesenmati&#xE8;re</text>
<text y="613.15" x="80.95 90.4 101.3 108.85 115.05 124.05 132.9 140.75 144.45 151.75 155.85 165.65 177.7 186.7 195.75 204.75 210.45 219.65 228 235.35 239.4 249.05 258.1 ">detransition&#xE9;nerg&#xE9;tique</text>
<text y="836.55" x="23.65 35.05 42.9 50.75 60.55 75.05 83.95 92.3 101.8 110.9 119.9 129.45 134.15 142.6 153.5 168 176.75 184 192.25 199.65 203.7 213.5 222.4 232.65 242.1 254.15 258.85 270.2 277.9 287.35 295.25 299.4 307.7 314.95 ">Accompagnerlesmutationsdelasoci&#xE9;t&#xE9;</text>
<text y="855.45" x="40.2 48.4 57.35 66 80.1 84.85 93.25 104.2 118.4 126.75 134.1 138.15 147.15 153.1 163.4 172.75 184.85 189.45 193.5 202.15 210 219.8 228.9 238.7 253 257.1 267.75 276.75 285.75 291.6 298.85 ">aveclesm&#xE9;tiersdel&#x2019;&#xE9;conomieverte</text>
</g>
<g class="s0WBbBRa43" transform="translate(73.35 263.85)" >
<text y="0" x="157.8 165.75 169.15 176.7 189.1 196.9 200.2 208.55 214.2 222.4 225.9 230.3 237.45 243.75 252.6 256.95 264.15 270.7 279.1 283.5 293.75 301.65 ">d&#x2019;emploidirectrecordde</text>
<text y="0" x="84.2 90.3 98.65 101.5 110.35 118.15 127.8 133.45 141 147.95 ">soituntaux</text>
<text y="0" x="357.85 364.4 371.1 379.5 382.85 392.75 400.4 412.8 420.6 423.9 432.25 ">.P&#xF4;leemploi</text>
<text y="18.5" x="0.4 7.9 15.15 22.2 28.85 34.4 40.15 49.95 52.95 61.7 67.05 74.3 80.95 90.9 93.9 100.45 107.75 115.05 120.2 127.9 130.95 138.2 150.3 157.8 160.8 168.85 173.85 181.35 188 196.65 203.75 210.95 215 220.8 228.85 236.4 243.5 250.15 258.85 266 273.25 280.35 288.25 291.1 297.25 304.5 311.6 318.5 325.1 333.75 340.85 348.9 356.4 363.6 366.5 376.1 390.25 397.5 405.1 412.2 419.05 ">d&#xE9;passeletauxl&#xE9;gald&#x2019;emploidespersonneshandicap&#xE9;espourla6ann&#xE9;e</text>
<text y="37.1" x="0.4 6.65 14.7 21.65 27.4 34.25 40.95 47.75 53.45 55.85 62.8 69.95 ">cons&#xE9;cutive.</text>
<text y="60.55" x="1.1 6.7 15.75 23.3 30.5 37.2 44.55 47.4 54.65 66.35 75.65 82.55 88.8 95.05 103.15 107.2 117.6 124.7 132.75 140.25 147.45 150.55 153.65 160.9 173 180.5 183.5 191.5 196.5 204 210.7 219.35 226.4 233.65 237.7 243.45 251.55 259 266.2 272.85 281.5 288.65 295.9 303 310.95 313.75 320 327.25 334.25 341.15 347.75 356 365.4 371.95 377.25 386.65 392.95 401 408.15 414.85 418.25 ">Ledeuxi&#xE8;meaccordpourl&#x2019;emploidespersonneshandicap&#xE9;esa&#xE9;t&#xE9;conclu</text>
<text y="79.15" x="0.75 8.1 15.65 23.75 30.5 38.9 42.2 52.2 59.75 72.15 80 83.25 91.6 97.55 105.1 114 119.4 127.2 130.75 134.5 137.8 144.7 153.15 161.15 169.45 176.05 184.4 190 197.75 200.65 208.65 216.1 226.5 233.8 241.35 248.75 255.7 259.2 266.65 276.95 285.25 289.45 297.1 304.65 312.45 315.35 321.4 328.25 334.25 337.45 345.75 353 361.7 366.95 375.4 382.85 391 394.15 400.7 408.35 411.65 418.6 424.65 ">parP&#xF4;leemploienjuillet2016.Sign&#xE9;parcinqorganisationssyndicales,</text>
<text y="97.75" x="0.85 4.3 13.95 19.8 26.65 33.85 39.65 49.95 57.65 64.95 72.7 79.75 87.55 98.5 105.4 114 117.45 127.75 135.45 148 156 159.45 167.95 172.8 178.35 185.75 192 200.35 208.05 211.55 219.3 229.85 238 246.45 253.2 261.6 268.1 275.75 286.35 294 301.95 309.5 318 322.45 328.2 335.95 ">letexteengageP&#xF4;leemploijusqu&#x2019;en2018,enapportan</text>
<text y="97.75" x="343.25 351.7 359.7 370.4 378 386.5 393.65 401 408.75 412.7 416.15 423.3 ">tdenouvelles</text>
<text y="116.3" x="0.1 7.55 14.95 19.3 26.7 33.75 39.6 42.55 49.35 57.9 65.3 72.15 81.9 88.6 96.1 103.5 110.5 115.8 124.4 131.8 141.5 147.8 150.5 156.35 163.6 170.35 176.2 179.15 187.4 197 204.7 214.8 222.1 229.5 236.75 244.8 247.8 254.2 261.6 269.1 274.4 282.95 293 300.25 308.5 315.25 322.4 329.9 335.65 342.65 349 355.5 363.7 367.95 378 385.65 393 404.95 413.15 420.2 426.05 430.3 ">garantiesauxagentsensituationdehandicap.Cenouvelaccordd&#xE9;montre</text>
<text y="134.85" x="0.85 3.8 12.3 19.25 27.4 30.35 38.45 45.3 50.65 59.65 67.2 77.25 83.7 91.85 94.8 104.15 111.4 123.5 131.05 134 142.05 147.05 154.7 157.8 164.35 170.1 174.15 183.5 189.9 196.7 203.95 216.05 223.55 226.5 233.75 236.95 241 250.35 257.6 267.6 279.25 285.9 291.6 294.4 301.65 305.7 314.75 322.25 332 336.1 342.95 349.65 354.25 361.1 366.45 373.7 385.4 392.65 399.5 404.9 410.15 417.7 ">lavolont&#xE9;deP&#xF4;leemploid&#x2019;&#xEA;treexemplaireenmati&#xE8;rederecrutement,de</text>
<text y="153.5" x="0.75 12.45 19.65 22.9 29.75 35.45 38.25 45.5 54.8 62.3 69.55 76.5 85.2 88.3 91.4 98.65 110.75 118.25 121.25 129.25 134.6 141.15 148.7 156.35 159.4 165.8 172.75 180.9 184.25 191.1 196.75 199.6 207.7 217 224.55 233.9 240.15 247.35 252 256.65 259.45 266.7 270.75 279.75 287.35 294 302.65 309.7 316.95 321 326.75 334.75 342.35 349.5 356.15 364.85 371.95 379.2 386.35 394.25 397 403.25 410.55 417.6 424.45 431.1 437.15 ">maintiendansl&#x2019;emploietd&#x2019;&#xE9;volutiondecarri&#xE8;redespersonneshandicap&#xE9;es.</text>
<text y="313.4" x="1.1 10.1 17.35 24.8 32.25 34.85 42.9 48.65 58 64.65 68.75 75.55 82.15 87.85 90.65 98.75 105.8 112.1 118.55 126.65 129.65 139 146.25 158.35 165.85 168.85 176.9 181.95 187.85 190.95 197.6 203 210.6 218.15 225.55 230.9 239.9 247.6 251.05 258.5 265.7 275 282.25 294.4 301.75 304.25 310 312.75 320.85 330 334.45 342.5 346.45 351.75 361.45 366.4 374.25 377.5 389.5 392.75 400.25 407.4 414.65 421.1 428.65 ">Depuissacr&#xE9;ation,P&#xF4;leemplois&#x2019;estdot&#xE9;d&#x2019;uneambition&#xE000;orte:diminuerde</text>
<text y="332" x="0.4 8.1 18 32.5 38.3 44.95 53.2 60.45 72.5 75.1 80.65 86.8 89.6 97.7 104.6 112.55 120.1 129.15 136.45 143 151.4 160.75 167.5 171.9 176.3 182.9 190.4 197.95 207.1 212.85 220.1 224.75 228.85 238.75 242.95 253.55 259.95 266.85 274 283.85 286.95 290.5 297.6 305.7 310.25 312.75 318.65 326.7 336.35 344 352.1 359.75 370.7 377.7 384.95 392.1 396.25 403.5 411 418.1 426.15 430.1 ">20%ses&#xE9;missionsdegaz&#xE0;e&#xE000;&#xE000;etdeserre(GES)&#xE0;l&#x2019;horizon2020parrapport</text>
<text y="350.5" x="0.35 10.15 13.25 16 23.25 30.75 37.9 44.75 54.1 61.8 70.05 78.1 86.25 ">&#xE0;l&#x2019;ann&#xE9;e2009.</text>
<text y="374" x="0.6 9.95 17.4 24.55 32.75 40.15 50.1 57.65 65.5 72.95 80.1 87.25 93.9 97.3 101.05 ">Chaqueann&#xE9;e,l&#x2019;i</text>
<text y="374" x="104.55 111.8 117.6 123.6 126.45 132.5 139.65 145.65 148.75 157.15 167.75 175.55 179.9 187.9 196.15 203.9 206.75 215.6 223.45 234.15 241.8 245.35 248.6 256.15 266.4 272.95 280.5 285.5 292.85 301.2 308.65 318.25 326.15 333.1 338.9 344.95 348.45 355.9 365.85 376.2 388.2 395.15 401.65 409.45 413.85 421.4 ">nstitutionproduitunbilancarbonedestin&#xE9;&#xE0;mesurer</text>
<text y="392.6" x="0.15 6.4 14.95 25.5 33.2 45.8 53.7 58.25 65.9 69.55 76.9 82.7 93 100.7 107.75 115.65 119.3 123.85 132.4 140.35 147.95 155.7 167.85 175.6 182.9 188.7 196.45 199.9 210.2 217.2 225.95 236.6 239.85 247.9 255.6 262.9 269 272.25 280.65 288.35 295.75 303.75 310.85 320.4 332.6 340.25 344.6 352.4 359.5 368.4 376.4 387 395 399.5 407.35 415.55 420.1 427.2 ">sonempreinteenvironnementaleet&#xE0;identiferdesmargesdeprogr&#xE8;s</text>
<text y="411.15" x="0.75 8.15 16.5 24.35 32.15 35.6 38.6 45.3 52.55 60.15 67.95 71.45 75.85 82.35 89.3 99.55 107.55 115.85 122 127.75 134.4 138.05 140.75 148.3 160.7 168.45 172.85 180.35 183.85 191 196.7 206.65 213.2 220.75 225.8 233.05 241.45 248.9 258.85 266.4 276.65 283.85 292 299.75 302.5 309.85 317.45 320.75 328.25 335.45 343.35 349 356.5 368.95 376.1 385.4 393.2 396.5 404 407.5 ">pourl&#x2019;avenir.En2017,l'empreintecarboneen&#xE9;quivalenttempsplein</text>
<text y="429.75" x="0.95 5.95 12.15 20.85 27.7 35.35 41.75 44.45 51.35 56.95 64.6 72.35 76 78.85 87.25 97.35 105 108.4 116.25 126.6 132.25 140.6 148.45 155.9 162.85 168.9 175.45 183.25 190.75 201.15 208.4 215.95 218.85 224.7 230.8 240.45 248.3 258.25 264.75 274.75 290.15 297.5 305 312.75 317.35 324.9 332.65 340 348.4 352.7 361.15 371.1 379.1 387.65 396 404.5 ">(ETP)s'&#xE9;tablit&#xE0;5,29tonnes,unebaissede16%parrapport&#xE0;2009.</text>
<text y="453.15" x="1.1 8.15 18.75 26.9 35.35 41.7 47.55 54.8 61.7 70.25 73.7 84 91.7 104.3 112.25 115.7 124.2 130.4 140.7 147.45 155.95 163.5 172.25 177.35 189.5 199.6 205.85 214.35 224.95 232.65 239.95 247.7 254.7 262.5 270.25 282.4 290.15 297.45 306.2 313.9 321 328.9 332.5 337.1 345.6 353.6 361.2 368.9 381.1 388.75 396.15 401.9 409.7 ">En2017,P&#xF4;leemploiaconfrm&#xE9;sonengagementenvironnemental</text>
<text y="471.8" x="0.4 8.1 19 22.7 30.05 36.3 43.4 48.5 51.3 58.85 66.55 73.85 82.4 88.65 97.2 107.7 115.05 121.5 127.65 130.95 139.45 149.7 157.7 165.4 172.75 182.4 185.85 193 202.5 210.45 215.55 219.2 226.8 233.9 237.6 245.1 252.2 261.1 269.1 279.75 283.4 286.95 294.25 301 309.5 317.1 325.65 338.2 341.45 351.75 358.85 362.5 367 374.15 382.2 385.65 393.25 397 401.5 ">eninscrivantsonactiondanslesprincipesdel&#x2019;&#xE9;conomiecirculaire</text>
<text y="490.35" x="0.4 7.45 15.9 23.9 34.6 38.05 47.75 53.9 58.6 66.3 73.7 80.3 83.3 89.45 92.75 101.3 111.85 119.55 127.15 134.85 139.15 147 154 160.2 163.45 171.8 179.4 187 ">etdelatransition&#xE9;nerg&#xE9;tique.</text>
<text y="576.4" x="0.05 12.7 16.15 18.85 26.85 33.4 39.95 46.9 53.35 56.5 64.85 74.8 83 93.65 98 105.6 113.05 121.4 128.35 135.65 143.25 147 150.3 157.85 169.9 177.45 184.6 192.75 200.6 210.35 216.4 224.8 235.45 247.45 255 259.35 266.4 273.85 283.5 291.35 301.7 309 316.6 324.35 327.45 335 342.85 350.5 358.35 362.7 369.85 377.4 384.5 390.5 393.7 401.9 409.25 ">&#xC0;l&#x2019;occasiondurenouvellementdesonmarch&#xE9;depapierbureautique</text>
<text y="595.3" x="0.4 7.95 18.2 26.2 34.5 40.65 46.4 53.3 60.05 68.5 71.8 81.75 89.3 101.75 109.55 112.85 121.2 127.1 137.45 141.85 148.95 156.05 160.75 169.35 174.3 186.25 196.1 202.15 210.55 220.8 228.35 235.5 243.1 249.95 257.6 265.15 277.2 284.75 291.9 300.75 308.1 316.5 324.25 332.15 335.4 345.75 353.5 357.9 364.85 370.95 378.5 382.6 389.95 396.85 402.85 405.95 414.35 ">en2017,P&#xF4;leemploiar&#xE9;a&#xE000;frm&#xE9;sonengagementpourlapr&#xE9;servation</text>
<text y="614.15" x="0.4 8.25 18.65 22.1 25.45 33 39.9 47.65 51.15 55.55 63.9 71.75 79.2 86.75 98.8 106.35 113.5 119.55 ">del&#x2019;environnement.</text>
<text y="638" x="1.1 8 16.6 20.05 30.3 38 50.6 58.55 62 70.5 76.75 86.7 95.2 102.45 108.25 118.95 126.45 135 142.95 151.1 154.65 158.6 165.9 172.05 175.8 179.6 182.65 188.85 195.9 202.1 205.35 213.9 224.45 231.35 238.55 245.75 249.6 256.95 263.5 266.35 273.75 283.75 292.15 303.1 310.5 318.25 326.15 329.45 337.15 344.75 351.5 360.25 370.65 385.25 394.1 401.95 406.45 413.6 ">P&#xF4;leemploiaopt&#xE9;pourl&#x2019;utilisationexclusivedupapier100%fbres</text>
<text y="656.9" x="0.75 5.3 12.65 18.5 26.6 33.8 37.25 44.55 51.7 61.25 68.8 77.3 85.3 93.4 97 100.5 108.25 115.6 121.85 129.55 142.2 150.1 153.55 163.5 171.5 181.6 187.75 194.95 204.1 211.4 217.85 224.05 226.85 234.75 237.75 243.55 250.65 257.2 264 269.1 272.95 276.65 284 290 296.15 299.15 305.35 312.65 318.75 322.1 330.6 341.5 353.7 361.45 365.95 374.25 381.9 392.15 399.85 403.5 410.9 417.5 ">recycl&#xE9;espourl&#x2019;ensembledesesactivit&#xE9;s.L&#x2019;institutionmarqueainsi</text>
<text y="675.85" x="0.15 6.2 15.35 22.6 31.05 34.35 42.7 49.9 55.55 65.2 73.15 76.2 83.85 87.55 90.85 98.4 105.75 113.3 120.95 126.25 134.1 141.75 145 154.65 162.5 169.45 178.05 186.25 189.15 195.6 203 210.75 217.2 220.05 226.05 229.2 237.55 244.8 254.05 257.5 269.95 277.35 285.1 291.2 298.35 305.25 314.6 321.9 329.45 337.25 340.5 350.95 354.25 362.6 367.25 374.85 379.35 386.9 394.15 400.6 403.45 409.45 412.55 420.95 ">savolont&#xE9;d&#x2019;allerau-del&#xE0;desdispositionsimpos&#xE9;esparlaloiTransition</text>
<text y="694.75" x="0.4 7.7 14.9 22.25 26.2 33.6 40.25 46.05 48.9 56.9 64.1 71.3 77.4 83.1 93 104.75 112.05 116.2 123 130.25 139.4 147.05 156.95 164.05 171.35 178.85 181.75 189 196.45 203.85 211.45 215.6 222.5 229.85 236.75 242.55 245.45 253.4 260.6 270.1 276.75 282.4 290.35 297.65 300.9 307.9 314.1 319.95 327.5 335.15 338 346 353.2 360.5 372.25 379.6 386.5 394.5 401.35 408.5 416.65 419.35 425.55 ">&#xE9;nerg&#xE9;tique.Lemarch&#xE9;depapierbureautiqueestainsiuniquementchoisi</text>
<text y="713.65" x="0.15 6.5 14.15 20.9 29 38.85 45.3 53.7 63.95 79.35 83.55 90.6 96.15 103.95 110.8 113.95 123.6 130.35 138.5 144.9 153.15 160.15 166.05 170.8 174.25 181.75 189 198.65 207.8 212.35 219.75 223.1 227.35 236.7 244.35 254.75 261.25 269.6 272.75 282.4 289.75 302 309.75 312.9 321 327.1 334.75 342 351.4 359.6 363.6 371 378.45 386.1 388.9 394.75 401.5 407.35 410.35 418.55 ">surdu100%recycl&#xE9;etcontribue&#xE0;&#xE000;airedeP&#xF4;leemploiuneorganisation</text>
<text y="732.6" x="0.75 8.35 16.1 23.7 27.2 30.15 38.2 45.45 55.15 61.7 68.65 76.05 88.3 95.95 99.05 106.45 109.8 114 123.35 131.05 138.45 145.5 154.1 160.5 169.85 177.55 185.75 197.6 205 208.35 215.65 222.95 ">publiqueexemplairedanscedomaine.</text>
<text y="818.65" x="1.1 8.15 18.75 26.9 35.35 41.7 47.55 57.75 64.65 73.25 76.7 86.95 94.65 107.25 115.2 118.65 127.15 133.35 143.65 150.4 158.9 166.25 172.45 177.5 181.25 189.1 196.65 206.9 217.65 221.2 224.4 231.75 238.45 245.2 253.75 266.25 273.75 280.75 289 296.6 304.25 316.5 324.2 331.5 340 348 358.7 362.5 365.35 372.2 379.6 388.2 392 399.35 405.5 408.75 417.3 ">En2017,P&#xF4;leemploiacontribu&#xE9;&#xE0;l&#x2019;accompagnementdel'&#xE9;volution</text>
<text y="837.6" x="0.4 8.25 15.2 24.45 36.5 43.4 49.4 52.5 60.05 64.4 73.75 77.4 80.55 87.5 96.35 106.75 110.05 119.4 125.45 130 137.55 144.75 151.2 154.05 160.05 163.2 171.55 181.8 189 195.5 204 207.3 215 223 226.1 234.3 241.75 249.2 ">desm&#xE9;tiersli&#xE9;s&#xE0;latransition&#xE9;cologique.</text>
<text y="861.35" x="1.1 7.5 15.6 23.1 29.8 37.05 48.8 56.1 59.45 62.25 70.3 74.4 81.65 88.85 91.95 95 101.4 108.8 115.9 123.1 127.1 132.8 135.4 141.2 150.2 157.75 164.4 172.65 178.95 187 193.9 199.7 206.9 210.2 213.6 216.6 223.85 227.9 235.95 242.1 249.6 256.75 259.75 266.45 275.1 287.2 294 299.35 305.95 311.65 314.45 322.5 329.45 337.4 344.95 354.25 360.5 367.2 375.25 381.15 388.2 394.35 399.85 407.2 414.9 419.1 ">Pouram&#xE9;liorerl&#x2019;expertisedesconseillerssurlesmutationsdecessecteurs</text>
<text y="880.3" x="0.4 8.2 11.1 18.1 24.25 30.1 32.6 40.2 42.9 48.4 55.35 61.6 69.3 76.55 86.6 ">d&#x2019;activit&#xE9;,unep</text>
<text y="880.3" x="94.3 97.4 104.15 109.6 116.6 121.15 129.4 134.2 146.05 155.4 163.1 172.25 176.85 185 189.85 201.7 208.45 214.3 217.25 225.5 235.4 242.8 252.25 256.85 265 269.85 281.7 288.45 296.7 307.6 314.85 320.45 323.5 330.5 337.95 342.75 350.4 353.75 360.75 371.35 381.6 389.6 396.9 405.25 408.5 415.9 ">late&#xE000;ormede&#xE000;ormationen&#xE000;ormat&#xAB;e-learning&#xBB;d&#xE9;di&#xE9;e</text>
<text y="899.2" x="0.35 10.15 13.25 16.35 23.2 29.45 37.55 44.65 52.75 64.8 67.6 76.15 83.1 90.35 94.3 99.65 109 115.65 121.15 128.4 133.7 140.35 145.85 151.2 158.05 167.4 174.65 184.25 192 199.95 205.85 215.85 222.9 230.15 237.35 240.35 246.95 255.65 259.7 266.25 273.95 276.75 284.85 291.75 299.75 308.15 315.4 322.25 328 332 339.15 343.45 352.15 359.5 364.65 372.2 382.25 387.85 395.9 399.1 403.15 412.5 419.1 ">&#xE0;l&#x2019;&#xE9;conomieverteesttest&#xE9;een2017parlesr&#xE9;gionsCentre-ValdeLoireet</text>
<text y="918.15" x="1.1 8.25 12.3 19.4 26.35 33.6 40.75 47 54.1 58.7 68.3 71.65 78.7 85.35 91.35 96.55 105 112.4 117.75 126.8 134.65 135.45 144.25 150.55 158.05 162.1 168.05 174.7 178.15 181.15 190.5 197.15 202.65 210.9 213.9 222.75 227.55 232.2 239.7 242.25 249.75 257.4 260.85 268.4 275.5 284.85 291.15 299.25 302.7 305.65 312.95 319.95 328 332.25 338.75 344.5 347.35 355.4 365.4 368.6 376.1 383.25 390.35 397.4 404.65 411.5 416.85 ">Provence-Alpes-C&#xF4;ted'Azur.Elleestle&#xE000;ruitd&#x2019;unecollaborationinnovante</text>
<text y="937.05" x="0.75 3.95 11.45 14 19.7 22.5 29.35 39.1 46.55 50.6 57.45 64.75 67.7 75 82.45 85.45 92.65 104.4 111.65 118.5 126.3 133 140.25 147.45 157.25 160.9 163.8 175.65 182.7 188.75 196.35 200.45 207.8 214.7 220.35 228.7 232.2 236.6 246.25 254.1 261 270.25 282.35 289.25 295.25 298.35 305.95 310.25 318.85 326.7 337.1 340.75 343.45 350.6 357.2 365.5 373 381.4 393.75 396.9 406 413.3 420.85 425.15 430.8 437.9 ">initi&#xE9;epr&#xE9;alablementavecl'Observatoiredesm&#xE9;tiersdel'&#xE9;conomieverte,</text>
<text y="955.95" x="0.85 4.1 14.45 26.85 29.75 35.6 42.05 45.2 53.55 64.25 67.55 75.55 82.1 89.7 93 102.95 109.7 118.3 121.75 124.7 132.35 140 142.5 149.6 157 161.2 167.5 170.2 175.7 185 193 195.75 207.45 212.3 215.45 222.45 229.8 236.9 242.8 249.1 252.6 253.55 263.5 270.25 276 287.9 294.25 297.4 307 313.45 321.7 328.75 334.7 342 345.5 351.65 355.9 362.6 370.45 373.4 381.65 388.9 396.35 401.9 410.45 417.85 424.85 430.75 434.95 442.15 ">lamissionlocaleetl'universit&#xE9;d'Orl&#xE9;ans,l'AFPA,leconseilr&#xE9;gionalCentre-</text>
<text y="974.9" x="0 8.9 16.35 21.85 29.55 39.9 45.65 53.85 57.2 61.45 68.4 74.75 78 85.55 93 99.6 106.75 116.7 124.25 134.5 142.55 150.85 157.35 165.25 170.55 178.55 186.85 193.45 204.35 211.9 222.5 234.55 243 250.65 254.2 257.85 260.75 266.85 274.4 281.5 290.45 293.7 304.1 316.1 323 329.1 336.5 344.5 352.4 360.75 364.1 371.75 379.75 382.95 393 404.95 410.5 420.65 431.45 439.85 ">ValdeLoire,lanc&#xE9;een2015-2016enmobilisantlam&#xE9;thodologie&#xAB;LAB&#xBB;.</text>
<text y="998.7" x="1.1 7.7 17.35 25.05 33 38.9 44.3 50.6 57.05 65.15 68.15 77.5 84.75 96.85 104.35 107.35 115.4 120.65 130.4 137.45 144.7 148.65 154.35 157.15 163.8 167 174.05 183.4 193.2 196.5 198.9 206.2 209.15 216.45 223.45 231.5 235.7 242.3 248 250.8 258.9 268.2 275.75 284.6 292.5 299.2 306.35 313 321.65 333.35 339.95 345.65 348.45 355.7 359.75 368.4 375.45 382.65 389.2 395 401.85 407.85 413.15 420.4 427.9 431.95 ">En2017,P&#xF4;leemploiaparticip&#xE9;&#xE0;l'&#xE9;laborationdefchesm&#xE9;tiersparsecteurs</text>
<text y="1017.6" x="0.4 8.25 10.35 17.2 23.2 28.9 31.25 38.7 41.25 46.55 55.7 61.85 69.35 76.55 79.9 82.6 85.85 97.95 104.95 111.8 117.8 125.65 132.3 136.4 144.4 147 152.8 161.85 169.35 176 183.7 189.4 193.65 200.9 207.8 213.95 216.45 222.15 225 233.05 240 248.25 255.1 261.35 269.5 272.5 279.85 287.5 290.35 298.25 305.35 314.7 321.25 329.5 337 344.5 356.25 363.5 368.15 370.95 378.85 385.95 395.1 400.85 408.95 415.85 ">d'activit&#xE9;surl'impactcrois&#xE9;destransitions&#xE9;cologiqueetnum&#xE9;riquesous</text>
<text y="1036.5" x="0.85 4.15 6.55 13.1 20.75 23.6 31.15 40.15 48.1 58.1 70.15 73.4 80.85 83.45 88.95 94.3 101.55 105.65 114.65 122.2 132 134.95 143 150.3 154.5 161.75 168.7 174.8 177.35 183 185.85 193.95 203.5 210.4 216.7 224.8 227.8 235.15 242.85 245.7 253.55 260.7 270 276.6 284.25 290 298.15 301.5 304.25 311.75 319 322.25 326.25 333.45 338.45 346.75 353.45 361.25 369.15 375.85 383 389.65 397.7 403.45 411.5 418.4 ">l'&#xE9;gideduminist&#xE8;redelaTransition&#xE9;cologiqueetsolidaire.Cesfchessont</text>
<text y="1055.4" x="0.35 9.4 17.3 19.9 26.05 33.1 40.6 46.7 49.25 54.95 57.75 65.85 75.15 82.7 91.45 96.8 104.85 111.75 119.8 125.95 133.5 140.65 143.65 152.8 158.9 161.45 166.8 175.85 183.75 193.75 205.85 209.05 216.55 219.15 224.65 230 237.25 241.3 248.45 ">&#xE0;dispositiondetoussurlesiteduminist&#xE8;re.</text>
</g>
<g class="s0WBbBRa44" transform="translate(291.4 447.85)" >
<text y="0" x="0 ">&#x2022;</text>
</g>
<g class="s0WBbBRa45" transform="translate(217.55 470.55)" >
<text y="0" x="0 9.75 20.5 25.1 36.85 45.85 56.8 67.15 78.9 86.25 98.65 107.85 115.2 125.55 136 143.55 152.6 ">AGIRPOURLAPLAN&#xC8;TE</text>
<text y="22.65" x="18.5 26.25 37.4 46.5 57.35 67.75 79.5 85.4 90.1 98.55 111 120.2 127.55 138.55 ">ETPOURL&#x2019;EMPLOI</text>
</g>
<g class="s0WBbBRa46" transform="translate(73.65 245.25)" >
<text y="0" x="0.65 8.35 19.55 28.55 37.35 44.35 51 57.75 66.65 74.9 83.25 87.65 96.5 104.75 115.75 128.35 137.2 146.1 158 165.7 174.15 182.4 190.4 196.75 206.45 215.1 226.7 234.45 243.55 247.85 258.75 267 280.25 288.85 293.15 302 308.6 315.65 324.65 332.7 342.25 350.5 361.6 368.75 372.25 379.2 387.45 395.1 401.85 405.7 414.7 ">En2017,quelque4028agentsdeP&#xF4;leemploisontensituation</text>
<text y="18.6" x="0 8.3 19 27 35 43 51.5 55 61.9 69.85 77.5 ">dehandicap,</text>
<text y="18.6" x="311.35 319.9 323.9 332.75 343.7 ">8,08%</text>
</g>
<g class="s0WBbBRa47" transform="translate(456.95 277.25)" >
<text y="0" x="0 ">e</text>
</g>
<g class="s0WBbBRa48" transform="translate(627 211.25)" >
<text y="0" x="0 11.25 22.5 39.75 52.85 64.2 76.7 91 98.85 108.85 121.25 132.6 154.1 166.2 184.2 197.1 211.4 217.1 228.5 239.9 253 264.35 ">LESR&#xC9;SULTATSENCHIFFRES</text>
</g>
<g class="s0WBbBRa49" transform="translate(691.5 997.25)" >
<text y="0" x="0 26.5 52.75 79.6 92.2 119.35 ">793,65</text>
<text y="256" x="24 45.85 80.5 ">14%</text>
</g>
<g class="s0WBbBRa410" transform="translate(594.55 1025.5)" >
<text y="0" x="58.45 66.7 78 88.5 98.95 107.3 119.4 129.8 141.25 149.05 159.9 169.5 173.5 182.4 191.6 200.5 206.05 215 225.85 234.5 242.75 254.05 264.05 ">TONNESDEPAPIERS/CARTONS</text>
<text y="19.5" x="102.05 111.7 119.95 128.8 138.1 147.6 155.9 164.25 176.35 185.3 197.6 206.25 215.6 221.7 ">RECYCL&#xC9;SEN2017</text>
<text y="256" x="0 9.4 12.95 16.6 25.95 34.9 43.45 52.8 61.75 65 76 85.65 99.35 108.75 112.3 120.9 132.65 141.1 151.25 161.1 170.25 180.4 193.45 202.25 212.8 222.45 233.9 241.9 249.9 260.9 270.15 278.05 286.85 295.75 304.2 314.45 323.3 ">D&#x2019;INTENTIONSD&#x2019;EMBAUCHEDANSLESSECTEURS</text>
<text y="275.5" x="47.15 57.55 69 76.3 80.2 88.4 97.25 108.6 118.65 130 142.05 146.05 156.4 167.2 176.15 184.75 194 205.45 215.85 224.1 233.6 240.95 251.8 261.5 270.4 278.7 ">DEL&#x2019;&#xC9;CONOMIEVERTED&#xC9;CLAR&#xC9;ES</text>
<text y="295" x="12.55 20.3 31.2 43.4 51.7 60.05 72.15 81.05 90.75 100 109.65 118.55 128.15 137.8 141.35 150.9 159.25 171.5 176.65 185.55 195.6 206.8 217.4 225.5 234.75 246.2 256.2 267.85 281.05 289.7 299.05 305.45 314.45 ">PARLESENTREPRISES(ENQU&#xCA;TEBMO2016)</text>
</g>
<g class="s0WBbBRa411" transform="translate(691.65 436.45)" >
<text y="0" x="0 27.75 40.35 70.35 105.25 ">8,08%</text>
<text y="266.4" x="28.35 42.85 77.1 ">-9%</text>
</g>
<g class="s0WBbBRa412" transform="translate(600.4 456)" >
<text y="0" x="30.25 39.7 43.55 51.85 60.45 71.75 80.1 90.25 97.5 108 117.45 130.75 140.45 144.3 153.25 165.3 174.85 182.3 193.6 197.1 209.25 219.65 223.65 233.35 241.55 250.65 259.1 271.2 281.6 ">C&#x2019;ESTLETAUXD&#x2019;EMPLOISDIRECTSDE</text>
<text y="19.5" x="6.25 15.5 24.2 32.85 41.5 52.35 56.35 64.7 73.05 81.8 92.35 101.55 113.6 123.2 134.05 144.5 154.85 158.5 167.45 178.3 187.85 196.25 207.25 220.5 229.7 241.05 249.35 260.8 269.7 281.8 291.4 298.8 310.1 ">TRAVAILLEURSHANDICAP&#xC9;S&#xC0;P&#xD4;LEEMPLOI</text>
<text y="39" x="48.95 57.85 70.1 78.8 88.1 94.25 102 108.35 117.35 128.75 131.95 142.6 154.45 163.85 172.5 185.3 194.85 203.8 213 222.05 233.4 243.85 254.35 262.65 ">EN2017,SOIT4028PERSONNES</text>
<text y="275.15" x="7.1 16.35 20.1 28.35 36.95 48.25 55.6 68.85 78.55 87.45 97.7 107.85 117 126.25 129.85 141.1 154.2 164.6 176.05 183.35 196.25 205.1 216.4 226.4 235.45 246.8 258.9 270 279 288.25 291.85 303.2 ">C'ESTLAR&#xC9;DUCTIONDELACONSOMMATION</text>
<text y="294.65" x="0 8.6 16.6 24.5 33.3 42.2 51.55 54.8 65.7 75.85 86.75 98.1 107.35 117.5 126.1 136.25 146.35 157.2 167.25 178.1 186.95 197.95 205.95 216.75 225.35 237.1 246.4 253.45 264.45 270.35 280.4 289 298.15 308.4 311.6 ">&#xC9;LECTRIQUEMOYENNEDEP&#xD4;LEEMPLOIDEPUIS</text>
<text y="314.15" x="9.1 17.8 27.1 33.35 41.8 48.1 57.2 68.55 71.75 82.35 90.55 99.85 108.7 112.3 120.6 132.3 141.35 156.1 165.85 172.5 192.05 199.8 210.65 222.9 231 240.25 252.4 260.15 271.05 282.1 292.95 303.2 ">2015,SOIT240,57KWH/MPARETPPARAN*</text>
</g>
<g class="s0WBbBRa413" transform="translate(784.1 764.75)" >
<text y="0" x="0 ">2</text>
</g>
<g class="s0WBbBRa414" transform="translate(679.9 789.1)" >
<text y="0" x="0 5.6 12.35 20.6 28.45 35.2 42.2 50.7 58.1 61.05 66.5 74.55 83.85 90.55 98.6 105.75 112.7 121.05 128.8 136.8 143.2 150.1 154.6 ">*SOURCEBILANCARBONE2017</text>
</g>
</svg>
