<?xml version="1.0" encoding="UTF-8" standalone="no"?>
<!DOCTYPE svg PUBLIC "-//W3C//DTD SVG 1.1//EN" "http://www.w3.org/Graphics/SVG/1.1/DTD/svg11.dtd">
<svg xmlns="http://www.w3.org/2000/svg" xmlns:xlink="http://www.w3.org/1999/xlink" version="1.1"
     viewbox="0 0 1024.00 1448.20" width="1024.00" height="1448.20" style="overflow:hidden" xml:space="preserve">
<defs>
<style type="text/css">
<![CDATA[
@font-face { font-family: 'f1yEzVZW42#15'; font-weight: normal; font-style: normal;  src: url(svg/font1.ttf) format('truetype'); }

.s1yEzVZW40 { fill: rgb(255, 255, 255); font-family: 'f1yEzVZW42#15'; font-size: 32.65px; }
.s1yEzVZW41 { fill: rgb(255, 255, 255); font-family: 'f1yEzVZW42#15'; font-size: 22.35px; }
.s1yEzVZW42 { fill: rgb(255, 255, 255); font-family: 'f1yEzVZW42#15'; font-size: 12.00px; }
]]>
</style>
</defs>
<image x="0" y="0" width="1024" height="1448.2" xlink:href="svg/svg.jpg"/>
<g class="s1yEzVZW40" transform="translate(483.6 540.05)" >
<text y="0" x="0 18.65 35.35 41 56.9 72.6 86.9 99.15 115.75 132.9 148.4 169.5 184.65 201.25 ">Suivez-noussur</text>
</g>
<g class="s1yEzVZW41" transform="translate(483.65 574.8)" >
<text y="0" x="0 11.45 23.3 29.3 40.35 48.35 59.85 77.95 89.75 95.7 107.7 112.55 116.85 128.75 136.5 ">pole-emploi.org</text>
</g>
<g class="s1yEzVZW42" transform="translate(397.65 1144.65)" >
<text y="0" x="0.15 10.1 16.5 23.15 26.6 32.7 38.9 45.35 55.3 61.9 65.35 72.05 ">@pole_emploi</text>
<text y="34.1" x="0.15 10.1 16.5 23.15 26.6 32.7 38.9 45.35 55.3 61.9 65.35 72.05 ">@pole_emploi</text>
<text y="68.3" x="0 4.15 10.55 17.2 20.65 26.85 31.4 37.85 47.8 54.4 57.85 64.55 ">/pole-emploi</text>
<text y="102.5" x="0 5.1 11.85 18.5 21.95 28.2 34.65 44.6 51.2 54.65 61.35 ">/Poleemploi</text>
<text y="134.5" x="0.45 6.5 12.9 17.1 21.55 26 34.85 41.25 44.3 47.2 53.75 57.45 64.1 68.45 78.2 84.55 89.05 91.8 98.45 ">Lettred&#x2019;information</text>
<text y="149" x="0.4 3.3 9.55 15.4 19.9 22.85 27.15 33.45 38 40.75 47.4 53.9 60.25 66.7 70 73.45 ">institutionnelle</text>
</g>
</svg>
